G04 #@! TF.GenerationSoftware,KiCad,Pcbnew,(5.0.1)-rc2*
G04 #@! TF.CreationDate,2018-11-05T04:09:47+01:00*
G04 #@! TF.ProjectId,panel_light_control,70616E656C5F6C696768745F636F6E74,rev?*
G04 #@! TF.SameCoordinates,Original*
G04 #@! TF.FileFunction,Soldermask,Bot*
G04 #@! TF.FilePolarity,Negative*
%FSLAX46Y46*%
G04 Gerber Fmt 4.6, Leading zero omitted, Abs format (unit mm)*
G04 Created by KiCad (PCBNEW (5.0.1)-rc2) date 2018/11/05 4:09:47*
%MOMM*%
%LPD*%
G01*
G04 APERTURE LIST*
%ADD10C,0.100000*%
G04 APERTURE END LIST*
D10*
G36*
X183773242Y-146800404D02*
X183810339Y-146811657D01*
X183844520Y-146829927D01*
X183874482Y-146854518D01*
X183899073Y-146884480D01*
X183917343Y-146918661D01*
X183928596Y-146955758D01*
X183933000Y-147000473D01*
X183933000Y-147893527D01*
X183928596Y-147938242D01*
X183917343Y-147975339D01*
X183899073Y-148009520D01*
X183874482Y-148039482D01*
X183844520Y-148064073D01*
X183810339Y-148082343D01*
X183773242Y-148093596D01*
X183728527Y-148098000D01*
X182285473Y-148098000D01*
X182240758Y-148093596D01*
X182203661Y-148082343D01*
X182169480Y-148064073D01*
X182139518Y-148039482D01*
X182114927Y-148009520D01*
X182096657Y-147975339D01*
X182085404Y-147938242D01*
X182081000Y-147893527D01*
X182081000Y-147000473D01*
X182085404Y-146955758D01*
X182096657Y-146918661D01*
X182114927Y-146884480D01*
X182139518Y-146854518D01*
X182169480Y-146829927D01*
X182203661Y-146811657D01*
X182240758Y-146800404D01*
X182285473Y-146796000D01*
X183728527Y-146796000D01*
X183773242Y-146800404D01*
X183773242Y-146800404D01*
G37*
G36*
X109967227Y-145032036D02*
X110067110Y-145051904D01*
X110349374Y-145168821D01*
X110603405Y-145338559D01*
X110819441Y-145554595D01*
X110989179Y-145808626D01*
X111105139Y-146088580D01*
X111106096Y-146090891D01*
X111165700Y-146390538D01*
X111165700Y-146696062D01*
X111141714Y-146816648D01*
X111106096Y-146995710D01*
X110989179Y-147277974D01*
X110819441Y-147532005D01*
X110603405Y-147748041D01*
X110349374Y-147917779D01*
X110067110Y-148034696D01*
X109978679Y-148052286D01*
X109767462Y-148094300D01*
X109461938Y-148094300D01*
X109250721Y-148052286D01*
X109162290Y-148034696D01*
X108880026Y-147917779D01*
X108625995Y-147748041D01*
X108409959Y-147532005D01*
X108240221Y-147277974D01*
X108123304Y-146995710D01*
X108087686Y-146816648D01*
X108063700Y-146696062D01*
X108063700Y-146390538D01*
X108123304Y-146090891D01*
X108124261Y-146088580D01*
X108240221Y-145808626D01*
X108409959Y-145554595D01*
X108625995Y-145338559D01*
X108880026Y-145168821D01*
X109162290Y-145051904D01*
X109262173Y-145032036D01*
X109461938Y-144992300D01*
X109767462Y-144992300D01*
X109967227Y-145032036D01*
X109967227Y-145032036D01*
G37*
G36*
X106673571Y-143151708D02*
X106978583Y-143278048D01*
X107140994Y-143386568D01*
X107253090Y-143461468D01*
X107486532Y-143694910D01*
X107486534Y-143694913D01*
X107669952Y-143969417D01*
X107796292Y-144274429D01*
X107860700Y-144598228D01*
X107860700Y-144928372D01*
X107796292Y-145252171D01*
X107669952Y-145557183D01*
X107500740Y-145810426D01*
X107486532Y-145831690D01*
X107253090Y-146065132D01*
X107253087Y-146065134D01*
X106978583Y-146248552D01*
X106673571Y-146374892D01*
X106349772Y-146439300D01*
X106019628Y-146439300D01*
X105695829Y-146374892D01*
X105390817Y-146248552D01*
X105116313Y-146065134D01*
X105116310Y-146065132D01*
X104882868Y-145831690D01*
X104868660Y-145810426D01*
X104699448Y-145557183D01*
X104573108Y-145252171D01*
X104508700Y-144928372D01*
X104508700Y-144598228D01*
X104573108Y-144274429D01*
X104699448Y-143969417D01*
X104882866Y-143694913D01*
X104882868Y-143694910D01*
X105116310Y-143461468D01*
X105228406Y-143386568D01*
X105390817Y-143278048D01*
X105695829Y-143151708D01*
X106019628Y-143087300D01*
X106349772Y-143087300D01*
X106673571Y-143151708D01*
X106673571Y-143151708D01*
G37*
G36*
X183345855Y-144799140D02*
X183409618Y-144805420D01*
X183491427Y-144830237D01*
X183532333Y-144842645D01*
X183632491Y-144896181D01*
X183645426Y-144903095D01*
X183744553Y-144984447D01*
X183825905Y-145083574D01*
X183825906Y-145083576D01*
X183886355Y-145196667D01*
X183886355Y-145196668D01*
X183923580Y-145319382D01*
X183936149Y-145447000D01*
X183923580Y-145574618D01*
X183898763Y-145656427D01*
X183886355Y-145697333D01*
X183832819Y-145797491D01*
X183825905Y-145810426D01*
X183744553Y-145909553D01*
X183645426Y-145990905D01*
X183645424Y-145990906D01*
X183532333Y-146051355D01*
X183491427Y-146063763D01*
X183409618Y-146088580D01*
X183345855Y-146094860D01*
X183313974Y-146098000D01*
X182700026Y-146098000D01*
X182668145Y-146094860D01*
X182604382Y-146088580D01*
X182522573Y-146063763D01*
X182481667Y-146051355D01*
X182368576Y-145990906D01*
X182368574Y-145990905D01*
X182269447Y-145909553D01*
X182188095Y-145810426D01*
X182181181Y-145797491D01*
X182127645Y-145697333D01*
X182115237Y-145656427D01*
X182090420Y-145574618D01*
X182077851Y-145447000D01*
X182090420Y-145319382D01*
X182127645Y-145196668D01*
X182127645Y-145196667D01*
X182188094Y-145083576D01*
X182188095Y-145083574D01*
X182269447Y-144984447D01*
X182368574Y-144903095D01*
X182381509Y-144896181D01*
X182481667Y-144842645D01*
X182522573Y-144830237D01*
X182604382Y-144805420D01*
X182668145Y-144799140D01*
X182700026Y-144796000D01*
X183313974Y-144796000D01*
X183345855Y-144799140D01*
X183345855Y-144799140D01*
G37*
G36*
X119344000Y-145506000D02*
X117892000Y-145506000D01*
X117892000Y-144054000D01*
X119344000Y-144054000D01*
X119344000Y-145506000D01*
X119344000Y-145506000D01*
G37*
G36*
X183345855Y-142799140D02*
X183409618Y-142805420D01*
X183491427Y-142830237D01*
X183532333Y-142842645D01*
X183632491Y-142896181D01*
X183645426Y-142903095D01*
X183744553Y-142984447D01*
X183825905Y-143083574D01*
X183825906Y-143083576D01*
X183886355Y-143196667D01*
X183886355Y-143196668D01*
X183923580Y-143319382D01*
X183936149Y-143447000D01*
X183923580Y-143574618D01*
X183904224Y-143638426D01*
X183886355Y-143697333D01*
X183853632Y-143758553D01*
X183825905Y-143810426D01*
X183744553Y-143909553D01*
X183645426Y-143990905D01*
X183645424Y-143990906D01*
X183532333Y-144051355D01*
X183523613Y-144054000D01*
X183409618Y-144088580D01*
X183345855Y-144094860D01*
X183313974Y-144098000D01*
X182700026Y-144098000D01*
X182668145Y-144094860D01*
X182604382Y-144088580D01*
X182490387Y-144054000D01*
X182481667Y-144051355D01*
X182368576Y-143990906D01*
X182368574Y-143990905D01*
X182269447Y-143909553D01*
X182188095Y-143810426D01*
X182160368Y-143758553D01*
X182127645Y-143697333D01*
X182109776Y-143638426D01*
X182090420Y-143574618D01*
X182077851Y-143447000D01*
X182090420Y-143319382D01*
X182127645Y-143196668D01*
X182127645Y-143196667D01*
X182188094Y-143083576D01*
X182188095Y-143083574D01*
X182269447Y-142984447D01*
X182368574Y-142903095D01*
X182381509Y-142896181D01*
X182481667Y-142842645D01*
X182522573Y-142830237D01*
X182604382Y-142805420D01*
X182668145Y-142799140D01*
X182700026Y-142796000D01*
X183313974Y-142796000D01*
X183345855Y-142799140D01*
X183345855Y-142799140D01*
G37*
G36*
X125952617Y-142085420D02*
X126034426Y-142110237D01*
X126075332Y-142122645D01*
X126135782Y-142154957D01*
X126188425Y-142183095D01*
X126188427Y-142183096D01*
X126188426Y-142183096D01*
X126285119Y-142262449D01*
X126287553Y-142264447D01*
X126368905Y-142363574D01*
X126368906Y-142363576D01*
X126429355Y-142476667D01*
X126436682Y-142500823D01*
X126466580Y-142599382D01*
X126476000Y-142695027D01*
X126476000Y-143308973D01*
X126466580Y-143404618D01*
X126451606Y-143453979D01*
X126429355Y-143527333D01*
X126404081Y-143574616D01*
X126368905Y-143640426D01*
X126287553Y-143739553D01*
X126188426Y-143820905D01*
X126188424Y-143820906D01*
X126075333Y-143881355D01*
X126040000Y-143892073D01*
X125952618Y-143918580D01*
X125825000Y-143931149D01*
X125697383Y-143918580D01*
X125610001Y-143892073D01*
X125574668Y-143881355D01*
X125461577Y-143820906D01*
X125461575Y-143820905D01*
X125362448Y-143739553D01*
X125281095Y-143640426D01*
X125240795Y-143565030D01*
X125220645Y-143527333D01*
X125198394Y-143453979D01*
X125183420Y-143404618D01*
X125174000Y-143308973D01*
X125174000Y-142695028D01*
X125183420Y-142599383D01*
X125220645Y-142476669D01*
X125220645Y-142476668D01*
X125275146Y-142374705D01*
X125281095Y-142363575D01*
X125362447Y-142264447D01*
X125461574Y-142183095D01*
X125500142Y-142162480D01*
X125574667Y-142122645D01*
X125615573Y-142110237D01*
X125697382Y-142085420D01*
X125825000Y-142072851D01*
X125952617Y-142085420D01*
X125952617Y-142085420D01*
G37*
G36*
X135952617Y-142085420D02*
X136034426Y-142110237D01*
X136075332Y-142122645D01*
X136135782Y-142154957D01*
X136188425Y-142183095D01*
X136188427Y-142183096D01*
X136188426Y-142183096D01*
X136285119Y-142262449D01*
X136287553Y-142264447D01*
X136368905Y-142363574D01*
X136368906Y-142363576D01*
X136429355Y-142476667D01*
X136436682Y-142500823D01*
X136466580Y-142599382D01*
X136476000Y-142695027D01*
X136476000Y-143308973D01*
X136466580Y-143404618D01*
X136451606Y-143453979D01*
X136429355Y-143527333D01*
X136404081Y-143574616D01*
X136368905Y-143640426D01*
X136287553Y-143739553D01*
X136188426Y-143820905D01*
X136188424Y-143820906D01*
X136075333Y-143881355D01*
X136040000Y-143892073D01*
X135952618Y-143918580D01*
X135825000Y-143931149D01*
X135697383Y-143918580D01*
X135610001Y-143892073D01*
X135574668Y-143881355D01*
X135461577Y-143820906D01*
X135461575Y-143820905D01*
X135362448Y-143739553D01*
X135281095Y-143640426D01*
X135240795Y-143565030D01*
X135220645Y-143527333D01*
X135198394Y-143453979D01*
X135183420Y-143404618D01*
X135174000Y-143308973D01*
X135174000Y-142695028D01*
X135183420Y-142599383D01*
X135220645Y-142476669D01*
X135220645Y-142476668D01*
X135275146Y-142374705D01*
X135281095Y-142363575D01*
X135362447Y-142264447D01*
X135461574Y-142183095D01*
X135500142Y-142162480D01*
X135574667Y-142122645D01*
X135615573Y-142110237D01*
X135697382Y-142085420D01*
X135825000Y-142072851D01*
X135952617Y-142085420D01*
X135952617Y-142085420D01*
G37*
G36*
X133952617Y-142085420D02*
X134034426Y-142110237D01*
X134075332Y-142122645D01*
X134135782Y-142154957D01*
X134188425Y-142183095D01*
X134188427Y-142183096D01*
X134188426Y-142183096D01*
X134285119Y-142262449D01*
X134287553Y-142264447D01*
X134368905Y-142363574D01*
X134368906Y-142363576D01*
X134429355Y-142476667D01*
X134436682Y-142500823D01*
X134466580Y-142599382D01*
X134476000Y-142695027D01*
X134476000Y-143308973D01*
X134466580Y-143404618D01*
X134451606Y-143453979D01*
X134429355Y-143527333D01*
X134404081Y-143574616D01*
X134368905Y-143640426D01*
X134287553Y-143739553D01*
X134188426Y-143820905D01*
X134188424Y-143820906D01*
X134075333Y-143881355D01*
X134040000Y-143892073D01*
X133952618Y-143918580D01*
X133825000Y-143931149D01*
X133697383Y-143918580D01*
X133610001Y-143892073D01*
X133574668Y-143881355D01*
X133461577Y-143820906D01*
X133461575Y-143820905D01*
X133362448Y-143739553D01*
X133281095Y-143640426D01*
X133240795Y-143565030D01*
X133220645Y-143527333D01*
X133198394Y-143453979D01*
X133183420Y-143404618D01*
X133174000Y-143308973D01*
X133174000Y-142695028D01*
X133183420Y-142599383D01*
X133220645Y-142476669D01*
X133220645Y-142476668D01*
X133275146Y-142374705D01*
X133281095Y-142363575D01*
X133362447Y-142264447D01*
X133461574Y-142183095D01*
X133500142Y-142162480D01*
X133574667Y-142122645D01*
X133615573Y-142110237D01*
X133697382Y-142085420D01*
X133825000Y-142072851D01*
X133952617Y-142085420D01*
X133952617Y-142085420D01*
G37*
G36*
X131952617Y-142085420D02*
X132034426Y-142110237D01*
X132075332Y-142122645D01*
X132135782Y-142154957D01*
X132188425Y-142183095D01*
X132188427Y-142183096D01*
X132188426Y-142183096D01*
X132285119Y-142262449D01*
X132287553Y-142264447D01*
X132368905Y-142363574D01*
X132368906Y-142363576D01*
X132429355Y-142476667D01*
X132436682Y-142500823D01*
X132466580Y-142599382D01*
X132476000Y-142695027D01*
X132476000Y-143308973D01*
X132466580Y-143404618D01*
X132451606Y-143453979D01*
X132429355Y-143527333D01*
X132404081Y-143574616D01*
X132368905Y-143640426D01*
X132287553Y-143739553D01*
X132188426Y-143820905D01*
X132188424Y-143820906D01*
X132075333Y-143881355D01*
X132040000Y-143892073D01*
X131952618Y-143918580D01*
X131825000Y-143931149D01*
X131697383Y-143918580D01*
X131610001Y-143892073D01*
X131574668Y-143881355D01*
X131461577Y-143820906D01*
X131461575Y-143820905D01*
X131362448Y-143739553D01*
X131281095Y-143640426D01*
X131240795Y-143565030D01*
X131220645Y-143527333D01*
X131198394Y-143453979D01*
X131183420Y-143404618D01*
X131174000Y-143308973D01*
X131174000Y-142695028D01*
X131183420Y-142599383D01*
X131220645Y-142476669D01*
X131220645Y-142476668D01*
X131275146Y-142374705D01*
X131281095Y-142363575D01*
X131362447Y-142264447D01*
X131461574Y-142183095D01*
X131500142Y-142162480D01*
X131574667Y-142122645D01*
X131615573Y-142110237D01*
X131697382Y-142085420D01*
X131825000Y-142072851D01*
X131952617Y-142085420D01*
X131952617Y-142085420D01*
G37*
G36*
X129952617Y-142085420D02*
X130034426Y-142110237D01*
X130075332Y-142122645D01*
X130135782Y-142154957D01*
X130188425Y-142183095D01*
X130188427Y-142183096D01*
X130188426Y-142183096D01*
X130285119Y-142262449D01*
X130287553Y-142264447D01*
X130368905Y-142363574D01*
X130368906Y-142363576D01*
X130429355Y-142476667D01*
X130436682Y-142500823D01*
X130466580Y-142599382D01*
X130476000Y-142695027D01*
X130476000Y-143308973D01*
X130466580Y-143404618D01*
X130451606Y-143453979D01*
X130429355Y-143527333D01*
X130404081Y-143574616D01*
X130368905Y-143640426D01*
X130287553Y-143739553D01*
X130188426Y-143820905D01*
X130188424Y-143820906D01*
X130075333Y-143881355D01*
X130040000Y-143892073D01*
X129952618Y-143918580D01*
X129825000Y-143931149D01*
X129697383Y-143918580D01*
X129610001Y-143892073D01*
X129574668Y-143881355D01*
X129461577Y-143820906D01*
X129461575Y-143820905D01*
X129362448Y-143739553D01*
X129281095Y-143640426D01*
X129240795Y-143565030D01*
X129220645Y-143527333D01*
X129198394Y-143453979D01*
X129183420Y-143404618D01*
X129174000Y-143308973D01*
X129174000Y-142695028D01*
X129183420Y-142599383D01*
X129220645Y-142476669D01*
X129220645Y-142476668D01*
X129275146Y-142374705D01*
X129281095Y-142363575D01*
X129362447Y-142264447D01*
X129461574Y-142183095D01*
X129500142Y-142162480D01*
X129574667Y-142122645D01*
X129615573Y-142110237D01*
X129697382Y-142085420D01*
X129825000Y-142072851D01*
X129952617Y-142085420D01*
X129952617Y-142085420D01*
G37*
G36*
X127952617Y-142085420D02*
X128034426Y-142110237D01*
X128075332Y-142122645D01*
X128135782Y-142154957D01*
X128188425Y-142183095D01*
X128188427Y-142183096D01*
X128188426Y-142183096D01*
X128285119Y-142262449D01*
X128287553Y-142264447D01*
X128368905Y-142363574D01*
X128368906Y-142363576D01*
X128429355Y-142476667D01*
X128436682Y-142500823D01*
X128466580Y-142599382D01*
X128476000Y-142695027D01*
X128476000Y-143308973D01*
X128466580Y-143404618D01*
X128451606Y-143453979D01*
X128429355Y-143527333D01*
X128404081Y-143574616D01*
X128368905Y-143640426D01*
X128287553Y-143739553D01*
X128188426Y-143820905D01*
X128188424Y-143820906D01*
X128075333Y-143881355D01*
X128040000Y-143892073D01*
X127952618Y-143918580D01*
X127825000Y-143931149D01*
X127697383Y-143918580D01*
X127610001Y-143892073D01*
X127574668Y-143881355D01*
X127461577Y-143820906D01*
X127461575Y-143820905D01*
X127362448Y-143739553D01*
X127281095Y-143640426D01*
X127240795Y-143565030D01*
X127220645Y-143527333D01*
X127198394Y-143453979D01*
X127183420Y-143404618D01*
X127174000Y-143308973D01*
X127174000Y-142695028D01*
X127183420Y-142599383D01*
X127220645Y-142476669D01*
X127220645Y-142476668D01*
X127275146Y-142374705D01*
X127281095Y-142363575D01*
X127362447Y-142264447D01*
X127461574Y-142183095D01*
X127500142Y-142162480D01*
X127574667Y-142122645D01*
X127615573Y-142110237D01*
X127697382Y-142085420D01*
X127825000Y-142072851D01*
X127952617Y-142085420D01*
X127952617Y-142085420D01*
G37*
G36*
X148127617Y-142083420D02*
X148209426Y-142108237D01*
X148250332Y-142120645D01*
X148272544Y-142132518D01*
X148363425Y-142181095D01*
X148363427Y-142181096D01*
X148363426Y-142181096D01*
X148439402Y-142243447D01*
X148462553Y-142262447D01*
X148543905Y-142361574D01*
X148544975Y-142363576D01*
X148604355Y-142474667D01*
X148604962Y-142476668D01*
X148641580Y-142597382D01*
X148651000Y-142693027D01*
X148651000Y-143306973D01*
X148641580Y-143402618D01*
X148623728Y-143461468D01*
X148604355Y-143525333D01*
X148578012Y-143574616D01*
X148543905Y-143638426D01*
X148462553Y-143737553D01*
X148363426Y-143818905D01*
X148363424Y-143818906D01*
X148250333Y-143879355D01*
X148209427Y-143891763D01*
X148127618Y-143916580D01*
X148000000Y-143929149D01*
X147872383Y-143916580D01*
X147790574Y-143891763D01*
X147749668Y-143879355D01*
X147636577Y-143818906D01*
X147636575Y-143818905D01*
X147537448Y-143737553D01*
X147456095Y-143638426D01*
X147415795Y-143563030D01*
X147395645Y-143525333D01*
X147376272Y-143461468D01*
X147358420Y-143402618D01*
X147349000Y-143306973D01*
X147349000Y-142693028D01*
X147358420Y-142597383D01*
X147395038Y-142476669D01*
X147395645Y-142474668D01*
X147449077Y-142374705D01*
X147456095Y-142361575D01*
X147483212Y-142328532D01*
X147537445Y-142262449D01*
X147537447Y-142262447D01*
X147636574Y-142181095D01*
X147684558Y-142155447D01*
X147749667Y-142120645D01*
X147790573Y-142108237D01*
X147872382Y-142083420D01*
X148000000Y-142070851D01*
X148127617Y-142083420D01*
X148127617Y-142083420D01*
G37*
G36*
X144127617Y-142083420D02*
X144209426Y-142108237D01*
X144250332Y-142120645D01*
X144272544Y-142132518D01*
X144363425Y-142181095D01*
X144363427Y-142181096D01*
X144363426Y-142181096D01*
X144439402Y-142243447D01*
X144462553Y-142262447D01*
X144543905Y-142361574D01*
X144544975Y-142363576D01*
X144604355Y-142474667D01*
X144604962Y-142476668D01*
X144641580Y-142597382D01*
X144651000Y-142693027D01*
X144651000Y-143306973D01*
X144641580Y-143402618D01*
X144623728Y-143461468D01*
X144604355Y-143525333D01*
X144578012Y-143574616D01*
X144543905Y-143638426D01*
X144462553Y-143737553D01*
X144363426Y-143818905D01*
X144363424Y-143818906D01*
X144250333Y-143879355D01*
X144209427Y-143891763D01*
X144127618Y-143916580D01*
X144000000Y-143929149D01*
X143872383Y-143916580D01*
X143790574Y-143891763D01*
X143749668Y-143879355D01*
X143636577Y-143818906D01*
X143636575Y-143818905D01*
X143537448Y-143737553D01*
X143456095Y-143638426D01*
X143415795Y-143563030D01*
X143395645Y-143525333D01*
X143376272Y-143461468D01*
X143358420Y-143402618D01*
X143349000Y-143306973D01*
X143349000Y-142693028D01*
X143358420Y-142597383D01*
X143395038Y-142476669D01*
X143395645Y-142474668D01*
X143449077Y-142374705D01*
X143456095Y-142361575D01*
X143483212Y-142328532D01*
X143537445Y-142262449D01*
X143537447Y-142262447D01*
X143636574Y-142181095D01*
X143684558Y-142155447D01*
X143749667Y-142120645D01*
X143790573Y-142108237D01*
X143872382Y-142083420D01*
X144000000Y-142070851D01*
X144127617Y-142083420D01*
X144127617Y-142083420D01*
G37*
G36*
X146127617Y-142083420D02*
X146209426Y-142108237D01*
X146250332Y-142120645D01*
X146272544Y-142132518D01*
X146363425Y-142181095D01*
X146363427Y-142181096D01*
X146363426Y-142181096D01*
X146439402Y-142243447D01*
X146462553Y-142262447D01*
X146543905Y-142361574D01*
X146544975Y-142363576D01*
X146604355Y-142474667D01*
X146604962Y-142476668D01*
X146641580Y-142597382D01*
X146651000Y-142693027D01*
X146651000Y-143306973D01*
X146641580Y-143402618D01*
X146623728Y-143461468D01*
X146604355Y-143525333D01*
X146578012Y-143574616D01*
X146543905Y-143638426D01*
X146462553Y-143737553D01*
X146363426Y-143818905D01*
X146363424Y-143818906D01*
X146250333Y-143879355D01*
X146209427Y-143891763D01*
X146127618Y-143916580D01*
X146000000Y-143929149D01*
X145872383Y-143916580D01*
X145790574Y-143891763D01*
X145749668Y-143879355D01*
X145636577Y-143818906D01*
X145636575Y-143818905D01*
X145537448Y-143737553D01*
X145456095Y-143638426D01*
X145415795Y-143563030D01*
X145395645Y-143525333D01*
X145376272Y-143461468D01*
X145358420Y-143402618D01*
X145349000Y-143306973D01*
X145349000Y-142693028D01*
X145358420Y-142597383D01*
X145395038Y-142476669D01*
X145395645Y-142474668D01*
X145449077Y-142374705D01*
X145456095Y-142361575D01*
X145483212Y-142328532D01*
X145537445Y-142262449D01*
X145537447Y-142262447D01*
X145636574Y-142181095D01*
X145684558Y-142155447D01*
X145749667Y-142120645D01*
X145790573Y-142108237D01*
X145872382Y-142083420D01*
X146000000Y-142070851D01*
X146127617Y-142083420D01*
X146127617Y-142083420D01*
G37*
G36*
X172127617Y-142083420D02*
X172209426Y-142108237D01*
X172250332Y-142120645D01*
X172272544Y-142132518D01*
X172363425Y-142181095D01*
X172363427Y-142181096D01*
X172363426Y-142181096D01*
X172439402Y-142243447D01*
X172462553Y-142262447D01*
X172543905Y-142361574D01*
X172544975Y-142363576D01*
X172604355Y-142474667D01*
X172604962Y-142476668D01*
X172641580Y-142597382D01*
X172651000Y-142693027D01*
X172651000Y-143306973D01*
X172641580Y-143402618D01*
X172623728Y-143461468D01*
X172604355Y-143525333D01*
X172578012Y-143574616D01*
X172543905Y-143638426D01*
X172462553Y-143737553D01*
X172363426Y-143818905D01*
X172363424Y-143818906D01*
X172250333Y-143879355D01*
X172209427Y-143891763D01*
X172127618Y-143916580D01*
X172000000Y-143929149D01*
X171872383Y-143916580D01*
X171790574Y-143891763D01*
X171749668Y-143879355D01*
X171636577Y-143818906D01*
X171636575Y-143818905D01*
X171537448Y-143737553D01*
X171456095Y-143638426D01*
X171415795Y-143563030D01*
X171395645Y-143525333D01*
X171376272Y-143461468D01*
X171358420Y-143402618D01*
X171349000Y-143306973D01*
X171349000Y-142693028D01*
X171358420Y-142597383D01*
X171395038Y-142476669D01*
X171395645Y-142474668D01*
X171449077Y-142374705D01*
X171456095Y-142361575D01*
X171483212Y-142328532D01*
X171537445Y-142262449D01*
X171537447Y-142262447D01*
X171636574Y-142181095D01*
X171684558Y-142155447D01*
X171749667Y-142120645D01*
X171790573Y-142108237D01*
X171872382Y-142083420D01*
X172000000Y-142070851D01*
X172127617Y-142083420D01*
X172127617Y-142083420D01*
G37*
G36*
X158127617Y-142083420D02*
X158209426Y-142108237D01*
X158250332Y-142120645D01*
X158272544Y-142132518D01*
X158363425Y-142181095D01*
X158363427Y-142181096D01*
X158363426Y-142181096D01*
X158439402Y-142243447D01*
X158462553Y-142262447D01*
X158543905Y-142361574D01*
X158544975Y-142363576D01*
X158604355Y-142474667D01*
X158604962Y-142476668D01*
X158641580Y-142597382D01*
X158651000Y-142693027D01*
X158651000Y-143306973D01*
X158641580Y-143402618D01*
X158623728Y-143461468D01*
X158604355Y-143525333D01*
X158578012Y-143574616D01*
X158543905Y-143638426D01*
X158462553Y-143737553D01*
X158363426Y-143818905D01*
X158363424Y-143818906D01*
X158250333Y-143879355D01*
X158209427Y-143891763D01*
X158127618Y-143916580D01*
X158000000Y-143929149D01*
X157872383Y-143916580D01*
X157790574Y-143891763D01*
X157749668Y-143879355D01*
X157636577Y-143818906D01*
X157636575Y-143818905D01*
X157537448Y-143737553D01*
X157456095Y-143638426D01*
X157415795Y-143563030D01*
X157395645Y-143525333D01*
X157376272Y-143461468D01*
X157358420Y-143402618D01*
X157349000Y-143306973D01*
X157349000Y-142693028D01*
X157358420Y-142597383D01*
X157395038Y-142476669D01*
X157395645Y-142474668D01*
X157449077Y-142374705D01*
X157456095Y-142361575D01*
X157483212Y-142328532D01*
X157537445Y-142262449D01*
X157537447Y-142262447D01*
X157636574Y-142181095D01*
X157684558Y-142155447D01*
X157749667Y-142120645D01*
X157790573Y-142108237D01*
X157872382Y-142083420D01*
X158000000Y-142070851D01*
X158127617Y-142083420D01*
X158127617Y-142083420D01*
G37*
G36*
X160127617Y-142083420D02*
X160209426Y-142108237D01*
X160250332Y-142120645D01*
X160272544Y-142132518D01*
X160363425Y-142181095D01*
X160363427Y-142181096D01*
X160363426Y-142181096D01*
X160439402Y-142243447D01*
X160462553Y-142262447D01*
X160543905Y-142361574D01*
X160544975Y-142363576D01*
X160604355Y-142474667D01*
X160604962Y-142476668D01*
X160641580Y-142597382D01*
X160651000Y-142693027D01*
X160651000Y-143306973D01*
X160641580Y-143402618D01*
X160623728Y-143461468D01*
X160604355Y-143525333D01*
X160578012Y-143574616D01*
X160543905Y-143638426D01*
X160462553Y-143737553D01*
X160363426Y-143818905D01*
X160363424Y-143818906D01*
X160250333Y-143879355D01*
X160209427Y-143891763D01*
X160127618Y-143916580D01*
X160000000Y-143929149D01*
X159872383Y-143916580D01*
X159790574Y-143891763D01*
X159749668Y-143879355D01*
X159636577Y-143818906D01*
X159636575Y-143818905D01*
X159537448Y-143737553D01*
X159456095Y-143638426D01*
X159415795Y-143563030D01*
X159395645Y-143525333D01*
X159376272Y-143461468D01*
X159358420Y-143402618D01*
X159349000Y-143306973D01*
X159349000Y-142693028D01*
X159358420Y-142597383D01*
X159395038Y-142476669D01*
X159395645Y-142474668D01*
X159449077Y-142374705D01*
X159456095Y-142361575D01*
X159483212Y-142328532D01*
X159537445Y-142262449D01*
X159537447Y-142262447D01*
X159636574Y-142181095D01*
X159684558Y-142155447D01*
X159749667Y-142120645D01*
X159790573Y-142108237D01*
X159872382Y-142083420D01*
X160000000Y-142070851D01*
X160127617Y-142083420D01*
X160127617Y-142083420D01*
G37*
G36*
X164127617Y-142083420D02*
X164209426Y-142108237D01*
X164250332Y-142120645D01*
X164272544Y-142132518D01*
X164363425Y-142181095D01*
X164363427Y-142181096D01*
X164363426Y-142181096D01*
X164439402Y-142243447D01*
X164462553Y-142262447D01*
X164543905Y-142361574D01*
X164544975Y-142363576D01*
X164604355Y-142474667D01*
X164604962Y-142476668D01*
X164641580Y-142597382D01*
X164651000Y-142693027D01*
X164651000Y-143306973D01*
X164641580Y-143402618D01*
X164623728Y-143461468D01*
X164604355Y-143525333D01*
X164578012Y-143574616D01*
X164543905Y-143638426D01*
X164462553Y-143737553D01*
X164363426Y-143818905D01*
X164363424Y-143818906D01*
X164250333Y-143879355D01*
X164209427Y-143891763D01*
X164127618Y-143916580D01*
X164000000Y-143929149D01*
X163872383Y-143916580D01*
X163790574Y-143891763D01*
X163749668Y-143879355D01*
X163636577Y-143818906D01*
X163636575Y-143818905D01*
X163537448Y-143737553D01*
X163456095Y-143638426D01*
X163415795Y-143563030D01*
X163395645Y-143525333D01*
X163376272Y-143461468D01*
X163358420Y-143402618D01*
X163349000Y-143306973D01*
X163349000Y-142693028D01*
X163358420Y-142597383D01*
X163395038Y-142476669D01*
X163395645Y-142474668D01*
X163449077Y-142374705D01*
X163456095Y-142361575D01*
X163483212Y-142328532D01*
X163537445Y-142262449D01*
X163537447Y-142262447D01*
X163636574Y-142181095D01*
X163684558Y-142155447D01*
X163749667Y-142120645D01*
X163790573Y-142108237D01*
X163872382Y-142083420D01*
X164000000Y-142070851D01*
X164127617Y-142083420D01*
X164127617Y-142083420D01*
G37*
G36*
X166127617Y-142083420D02*
X166209426Y-142108237D01*
X166250332Y-142120645D01*
X166272544Y-142132518D01*
X166363425Y-142181095D01*
X166363427Y-142181096D01*
X166363426Y-142181096D01*
X166439402Y-142243447D01*
X166462553Y-142262447D01*
X166543905Y-142361574D01*
X166544975Y-142363576D01*
X166604355Y-142474667D01*
X166604962Y-142476668D01*
X166641580Y-142597382D01*
X166651000Y-142693027D01*
X166651000Y-143306973D01*
X166641580Y-143402618D01*
X166623728Y-143461468D01*
X166604355Y-143525333D01*
X166578012Y-143574616D01*
X166543905Y-143638426D01*
X166462553Y-143737553D01*
X166363426Y-143818905D01*
X166363424Y-143818906D01*
X166250333Y-143879355D01*
X166209427Y-143891763D01*
X166127618Y-143916580D01*
X166000000Y-143929149D01*
X165872383Y-143916580D01*
X165790574Y-143891763D01*
X165749668Y-143879355D01*
X165636577Y-143818906D01*
X165636575Y-143818905D01*
X165537448Y-143737553D01*
X165456095Y-143638426D01*
X165415795Y-143563030D01*
X165395645Y-143525333D01*
X165376272Y-143461468D01*
X165358420Y-143402618D01*
X165349000Y-143306973D01*
X165349000Y-142693028D01*
X165358420Y-142597383D01*
X165395038Y-142476669D01*
X165395645Y-142474668D01*
X165449077Y-142374705D01*
X165456095Y-142361575D01*
X165483212Y-142328532D01*
X165537445Y-142262449D01*
X165537447Y-142262447D01*
X165636574Y-142181095D01*
X165684558Y-142155447D01*
X165749667Y-142120645D01*
X165790573Y-142108237D01*
X165872382Y-142083420D01*
X166000000Y-142070851D01*
X166127617Y-142083420D01*
X166127617Y-142083420D01*
G37*
G36*
X168127617Y-142083420D02*
X168209426Y-142108237D01*
X168250332Y-142120645D01*
X168272544Y-142132518D01*
X168363425Y-142181095D01*
X168363427Y-142181096D01*
X168363426Y-142181096D01*
X168439402Y-142243447D01*
X168462553Y-142262447D01*
X168543905Y-142361574D01*
X168544975Y-142363576D01*
X168604355Y-142474667D01*
X168604962Y-142476668D01*
X168641580Y-142597382D01*
X168651000Y-142693027D01*
X168651000Y-143306973D01*
X168641580Y-143402618D01*
X168623728Y-143461468D01*
X168604355Y-143525333D01*
X168578012Y-143574616D01*
X168543905Y-143638426D01*
X168462553Y-143737553D01*
X168363426Y-143818905D01*
X168363424Y-143818906D01*
X168250333Y-143879355D01*
X168209427Y-143891763D01*
X168127618Y-143916580D01*
X168000000Y-143929149D01*
X167872383Y-143916580D01*
X167790574Y-143891763D01*
X167749668Y-143879355D01*
X167636577Y-143818906D01*
X167636575Y-143818905D01*
X167537448Y-143737553D01*
X167456095Y-143638426D01*
X167415795Y-143563030D01*
X167395645Y-143525333D01*
X167376272Y-143461468D01*
X167358420Y-143402618D01*
X167349000Y-143306973D01*
X167349000Y-142693028D01*
X167358420Y-142597383D01*
X167395038Y-142476669D01*
X167395645Y-142474668D01*
X167449077Y-142374705D01*
X167456095Y-142361575D01*
X167483212Y-142328532D01*
X167537445Y-142262449D01*
X167537447Y-142262447D01*
X167636574Y-142181095D01*
X167684558Y-142155447D01*
X167749667Y-142120645D01*
X167790573Y-142108237D01*
X167872382Y-142083420D01*
X168000000Y-142070851D01*
X168127617Y-142083420D01*
X168127617Y-142083420D01*
G37*
G36*
X170127617Y-142083420D02*
X170209426Y-142108237D01*
X170250332Y-142120645D01*
X170272544Y-142132518D01*
X170363425Y-142181095D01*
X170363427Y-142181096D01*
X170363426Y-142181096D01*
X170439402Y-142243447D01*
X170462553Y-142262447D01*
X170543905Y-142361574D01*
X170544975Y-142363576D01*
X170604355Y-142474667D01*
X170604962Y-142476668D01*
X170641580Y-142597382D01*
X170651000Y-142693027D01*
X170651000Y-143306973D01*
X170641580Y-143402618D01*
X170623728Y-143461468D01*
X170604355Y-143525333D01*
X170578012Y-143574616D01*
X170543905Y-143638426D01*
X170462553Y-143737553D01*
X170363426Y-143818905D01*
X170363424Y-143818906D01*
X170250333Y-143879355D01*
X170209427Y-143891763D01*
X170127618Y-143916580D01*
X170000000Y-143929149D01*
X169872383Y-143916580D01*
X169790574Y-143891763D01*
X169749668Y-143879355D01*
X169636577Y-143818906D01*
X169636575Y-143818905D01*
X169537448Y-143737553D01*
X169456095Y-143638426D01*
X169415795Y-143563030D01*
X169395645Y-143525333D01*
X169376272Y-143461468D01*
X169358420Y-143402618D01*
X169349000Y-143306973D01*
X169349000Y-142693028D01*
X169358420Y-142597383D01*
X169395038Y-142476669D01*
X169395645Y-142474668D01*
X169449077Y-142374705D01*
X169456095Y-142361575D01*
X169483212Y-142328532D01*
X169537445Y-142262449D01*
X169537447Y-142262447D01*
X169636574Y-142181095D01*
X169684558Y-142155447D01*
X169749667Y-142120645D01*
X169790573Y-142108237D01*
X169872382Y-142083420D01*
X170000000Y-142070851D01*
X170127617Y-142083420D01*
X170127617Y-142083420D01*
G37*
G36*
X156127617Y-142083420D02*
X156209426Y-142108237D01*
X156250332Y-142120645D01*
X156272544Y-142132518D01*
X156363425Y-142181095D01*
X156363427Y-142181096D01*
X156363426Y-142181096D01*
X156439402Y-142243447D01*
X156462553Y-142262447D01*
X156543905Y-142361574D01*
X156544975Y-142363576D01*
X156604355Y-142474667D01*
X156604962Y-142476668D01*
X156641580Y-142597382D01*
X156651000Y-142693027D01*
X156651000Y-143306973D01*
X156641580Y-143402618D01*
X156623728Y-143461468D01*
X156604355Y-143525333D01*
X156578012Y-143574616D01*
X156543905Y-143638426D01*
X156462553Y-143737553D01*
X156363426Y-143818905D01*
X156363424Y-143818906D01*
X156250333Y-143879355D01*
X156209427Y-143891763D01*
X156127618Y-143916580D01*
X156000000Y-143929149D01*
X155872383Y-143916580D01*
X155790574Y-143891763D01*
X155749668Y-143879355D01*
X155636577Y-143818906D01*
X155636575Y-143818905D01*
X155537448Y-143737553D01*
X155456095Y-143638426D01*
X155415795Y-143563030D01*
X155395645Y-143525333D01*
X155376272Y-143461468D01*
X155358420Y-143402618D01*
X155349000Y-143306973D01*
X155349000Y-142693028D01*
X155358420Y-142597383D01*
X155395038Y-142476669D01*
X155395645Y-142474668D01*
X155449077Y-142374705D01*
X155456095Y-142361575D01*
X155483212Y-142328532D01*
X155537445Y-142262449D01*
X155537447Y-142262447D01*
X155636574Y-142181095D01*
X155684558Y-142155447D01*
X155749667Y-142120645D01*
X155790573Y-142108237D01*
X155872382Y-142083420D01*
X156000000Y-142070851D01*
X156127617Y-142083420D01*
X156127617Y-142083420D01*
G37*
G36*
X162127617Y-142083420D02*
X162209426Y-142108237D01*
X162250332Y-142120645D01*
X162272544Y-142132518D01*
X162363425Y-142181095D01*
X162363427Y-142181096D01*
X162363426Y-142181096D01*
X162439402Y-142243447D01*
X162462553Y-142262447D01*
X162543905Y-142361574D01*
X162544975Y-142363576D01*
X162604355Y-142474667D01*
X162604962Y-142476668D01*
X162641580Y-142597382D01*
X162651000Y-142693027D01*
X162651000Y-143306973D01*
X162641580Y-143402618D01*
X162623728Y-143461468D01*
X162604355Y-143525333D01*
X162578012Y-143574616D01*
X162543905Y-143638426D01*
X162462553Y-143737553D01*
X162363426Y-143818905D01*
X162363424Y-143818906D01*
X162250333Y-143879355D01*
X162209427Y-143891763D01*
X162127618Y-143916580D01*
X162000000Y-143929149D01*
X161872383Y-143916580D01*
X161790574Y-143891763D01*
X161749668Y-143879355D01*
X161636577Y-143818906D01*
X161636575Y-143818905D01*
X161537448Y-143737553D01*
X161456095Y-143638426D01*
X161415795Y-143563030D01*
X161395645Y-143525333D01*
X161376272Y-143461468D01*
X161358420Y-143402618D01*
X161349000Y-143306973D01*
X161349000Y-142693028D01*
X161358420Y-142597383D01*
X161395038Y-142476669D01*
X161395645Y-142474668D01*
X161449077Y-142374705D01*
X161456095Y-142361575D01*
X161483212Y-142328532D01*
X161537445Y-142262449D01*
X161537447Y-142262447D01*
X161636574Y-142181095D01*
X161684558Y-142155447D01*
X161749667Y-142120645D01*
X161790573Y-142108237D01*
X161872382Y-142083420D01*
X162000000Y-142070851D01*
X162127617Y-142083420D01*
X162127617Y-142083420D01*
G37*
G36*
X124316242Y-142080404D02*
X124353339Y-142091657D01*
X124387520Y-142109927D01*
X124417482Y-142134518D01*
X124442073Y-142164480D01*
X124460343Y-142198661D01*
X124471596Y-142235758D01*
X124476000Y-142280473D01*
X124476000Y-143723527D01*
X124471596Y-143768242D01*
X124460343Y-143805339D01*
X124442073Y-143839520D01*
X124417482Y-143869482D01*
X124387520Y-143894073D01*
X124353339Y-143912343D01*
X124316242Y-143923596D01*
X124271527Y-143928000D01*
X123378473Y-143928000D01*
X123333758Y-143923596D01*
X123296661Y-143912343D01*
X123262480Y-143894073D01*
X123232518Y-143869482D01*
X123207927Y-143839520D01*
X123189657Y-143805339D01*
X123178404Y-143768242D01*
X123174000Y-143723527D01*
X123174000Y-142280473D01*
X123178404Y-142235758D01*
X123189657Y-142198661D01*
X123207927Y-142164480D01*
X123232518Y-142134518D01*
X123262480Y-142109927D01*
X123296661Y-142091657D01*
X123333758Y-142080404D01*
X123378473Y-142076000D01*
X124271527Y-142076000D01*
X124316242Y-142080404D01*
X124316242Y-142080404D01*
G37*
G36*
X142491242Y-142078404D02*
X142528339Y-142089657D01*
X142562520Y-142107927D01*
X142592482Y-142132518D01*
X142617073Y-142162480D01*
X142635343Y-142196661D01*
X142646596Y-142233758D01*
X142651000Y-142278473D01*
X142651000Y-143721527D01*
X142646596Y-143766242D01*
X142635343Y-143803339D01*
X142617073Y-143837520D01*
X142592482Y-143867482D01*
X142562520Y-143892073D01*
X142528339Y-143910343D01*
X142491242Y-143921596D01*
X142446527Y-143926000D01*
X141553473Y-143926000D01*
X141508758Y-143921596D01*
X141471661Y-143910343D01*
X141437480Y-143892073D01*
X141407518Y-143867482D01*
X141382927Y-143837520D01*
X141364657Y-143803339D01*
X141353404Y-143766242D01*
X141349000Y-143721527D01*
X141349000Y-142278473D01*
X141353404Y-142233758D01*
X141364657Y-142196661D01*
X141382927Y-142162480D01*
X141407518Y-142132518D01*
X141437480Y-142107927D01*
X141471661Y-142089657D01*
X141508758Y-142078404D01*
X141553473Y-142074000D01*
X142446527Y-142074000D01*
X142491242Y-142078404D01*
X142491242Y-142078404D01*
G37*
G36*
X154491242Y-142078404D02*
X154528339Y-142089657D01*
X154562520Y-142107927D01*
X154592482Y-142132518D01*
X154617073Y-142162480D01*
X154635343Y-142196661D01*
X154646596Y-142233758D01*
X154651000Y-142278473D01*
X154651000Y-143721527D01*
X154646596Y-143766242D01*
X154635343Y-143803339D01*
X154617073Y-143837520D01*
X154592482Y-143867482D01*
X154562520Y-143892073D01*
X154528339Y-143910343D01*
X154491242Y-143921596D01*
X154446527Y-143926000D01*
X153553473Y-143926000D01*
X153508758Y-143921596D01*
X153471661Y-143910343D01*
X153437480Y-143892073D01*
X153407518Y-143867482D01*
X153382927Y-143837520D01*
X153364657Y-143803339D01*
X153353404Y-143766242D01*
X153349000Y-143721527D01*
X153349000Y-142278473D01*
X153353404Y-142233758D01*
X153364657Y-142196661D01*
X153382927Y-142162480D01*
X153407518Y-142132518D01*
X153437480Y-142107927D01*
X153471661Y-142089657D01*
X153508758Y-142078404D01*
X153553473Y-142074000D01*
X154446527Y-142074000D01*
X154491242Y-142078404D01*
X154491242Y-142078404D01*
G37*
G36*
X118674991Y-142056101D02*
X118760321Y-142064505D01*
X118897172Y-142106019D01*
X118897174Y-142106020D01*
X118897177Y-142106021D01*
X119023296Y-142173432D01*
X119133843Y-142264157D01*
X119224568Y-142374704D01*
X119291979Y-142500823D01*
X119291980Y-142500826D01*
X119291981Y-142500828D01*
X119333495Y-142637679D01*
X119347512Y-142780000D01*
X119333495Y-142922321D01*
X119291981Y-143059172D01*
X119291979Y-143059177D01*
X119224568Y-143185296D01*
X119133843Y-143295843D01*
X119023296Y-143386568D01*
X118897177Y-143453979D01*
X118897174Y-143453980D01*
X118897172Y-143453981D01*
X118760321Y-143495495D01*
X118674991Y-143503899D01*
X118653660Y-143506000D01*
X118582340Y-143506000D01*
X118561009Y-143503899D01*
X118475679Y-143495495D01*
X118338828Y-143453981D01*
X118338826Y-143453980D01*
X118338823Y-143453979D01*
X118212704Y-143386568D01*
X118102157Y-143295843D01*
X118011432Y-143185296D01*
X117944021Y-143059177D01*
X117944019Y-143059172D01*
X117902505Y-142922321D01*
X117888488Y-142780000D01*
X117902505Y-142637679D01*
X117944019Y-142500828D01*
X117944020Y-142500826D01*
X117944021Y-142500823D01*
X118011432Y-142374704D01*
X118102157Y-142264157D01*
X118212704Y-142173432D01*
X118338823Y-142106021D01*
X118338826Y-142106020D01*
X118338828Y-142106019D01*
X118475679Y-142064505D01*
X118561009Y-142056101D01*
X118582340Y-142054000D01*
X118653660Y-142054000D01*
X118674991Y-142056101D01*
X118674991Y-142056101D01*
G37*
G36*
X110738343Y-140183081D02*
X110884115Y-140243462D01*
X111015311Y-140331124D01*
X111126876Y-140442689D01*
X111214538Y-140573885D01*
X111274919Y-140719657D01*
X111305700Y-140874407D01*
X111305700Y-141032193D01*
X111274919Y-141186943D01*
X111214538Y-141332715D01*
X111126876Y-141463911D01*
X111015311Y-141575476D01*
X110884115Y-141663138D01*
X110738343Y-141723519D01*
X110583593Y-141754300D01*
X110425807Y-141754300D01*
X110271057Y-141723519D01*
X110125285Y-141663138D01*
X109994089Y-141575476D01*
X109882524Y-141463911D01*
X109794863Y-141332717D01*
X109766185Y-141263482D01*
X109754634Y-141241872D01*
X109739088Y-141222930D01*
X109720146Y-141207384D01*
X109698535Y-141195833D01*
X109675086Y-141188720D01*
X109650700Y-141186318D01*
X109626314Y-141188720D01*
X109602864Y-141195833D01*
X109581254Y-141207384D01*
X109562312Y-141222930D01*
X109546766Y-141241872D01*
X109535215Y-141263483D01*
X109528102Y-141286932D01*
X109525700Y-141311318D01*
X109525700Y-142774300D01*
X107923700Y-142774300D01*
X107923700Y-141172300D01*
X109579256Y-141172300D01*
X109603642Y-141169898D01*
X109627091Y-141162785D01*
X109648702Y-141151234D01*
X109667644Y-141135688D01*
X109683190Y-141116746D01*
X109694741Y-141095135D01*
X109701854Y-141071686D01*
X109704256Y-141047300D01*
X109703700Y-141041652D01*
X109703700Y-140874407D01*
X109734481Y-140719657D01*
X109794862Y-140573885D01*
X109882524Y-140442689D01*
X109994089Y-140331124D01*
X110125285Y-140243462D01*
X110271057Y-140183081D01*
X110425807Y-140152300D01*
X110583593Y-140152300D01*
X110738343Y-140183081D01*
X110738343Y-140183081D01*
G37*
G36*
X183345855Y-140799140D02*
X183409618Y-140805420D01*
X183491427Y-140830237D01*
X183532333Y-140842645D01*
X183632491Y-140896181D01*
X183645426Y-140903095D01*
X183744553Y-140984447D01*
X183825905Y-141083574D01*
X183825906Y-141083576D01*
X183886355Y-141196667D01*
X183886355Y-141196668D01*
X183923580Y-141319382D01*
X183936149Y-141447000D01*
X183923580Y-141574618D01*
X183923319Y-141575478D01*
X183886355Y-141697333D01*
X183872358Y-141723519D01*
X183825905Y-141810426D01*
X183744553Y-141909553D01*
X183645426Y-141990905D01*
X183645424Y-141990906D01*
X183532333Y-142051355D01*
X183523613Y-142054000D01*
X183409618Y-142088580D01*
X183348007Y-142094648D01*
X183313974Y-142098000D01*
X182700026Y-142098000D01*
X182665993Y-142094648D01*
X182604382Y-142088580D01*
X182490387Y-142054000D01*
X182481667Y-142051355D01*
X182368576Y-141990906D01*
X182368574Y-141990905D01*
X182269447Y-141909553D01*
X182188095Y-141810426D01*
X182141642Y-141723519D01*
X182127645Y-141697333D01*
X182090681Y-141575478D01*
X182090420Y-141574618D01*
X182077851Y-141447000D01*
X182090420Y-141319382D01*
X182127645Y-141196668D01*
X182127645Y-141196667D01*
X182188094Y-141083576D01*
X182188095Y-141083574D01*
X182269447Y-140984447D01*
X182368574Y-140903095D01*
X182381509Y-140896181D01*
X182481667Y-140842645D01*
X182522573Y-140830237D01*
X182604382Y-140805420D01*
X182668145Y-140799140D01*
X182700026Y-140796000D01*
X183313974Y-140796000D01*
X183345855Y-140799140D01*
X183345855Y-140799140D01*
G37*
G36*
X108958343Y-139163081D02*
X109104115Y-139223462D01*
X109235311Y-139311124D01*
X109346876Y-139422689D01*
X109434538Y-139553885D01*
X109494919Y-139699657D01*
X109525700Y-139854407D01*
X109525700Y-140012193D01*
X109494919Y-140166943D01*
X109434538Y-140312715D01*
X109346876Y-140443911D01*
X109235311Y-140555476D01*
X109104115Y-140643138D01*
X108958343Y-140703519D01*
X108803593Y-140734300D01*
X108645807Y-140734300D01*
X108491057Y-140703519D01*
X108345285Y-140643138D01*
X108214089Y-140555476D01*
X108102524Y-140443911D01*
X108014862Y-140312715D01*
X107954481Y-140166943D01*
X107923700Y-140012193D01*
X107923700Y-139854407D01*
X107954481Y-139699657D01*
X108014862Y-139553885D01*
X108102524Y-139422689D01*
X108214089Y-139311124D01*
X108345285Y-139223462D01*
X108491057Y-139163081D01*
X108645807Y-139132300D01*
X108803593Y-139132300D01*
X108958343Y-139163081D01*
X108958343Y-139163081D01*
G37*
G36*
X183345855Y-138799140D02*
X183409618Y-138805420D01*
X183491427Y-138830237D01*
X183532333Y-138842645D01*
X183632491Y-138896181D01*
X183645426Y-138903095D01*
X183744553Y-138984447D01*
X183825905Y-139083574D01*
X183825906Y-139083576D01*
X183886355Y-139196667D01*
X183886355Y-139196668D01*
X183923580Y-139319382D01*
X183936149Y-139447000D01*
X183923580Y-139574618D01*
X183898763Y-139656427D01*
X183886355Y-139697333D01*
X183832819Y-139797491D01*
X183825905Y-139810426D01*
X183744553Y-139909553D01*
X183645426Y-139990905D01*
X183645424Y-139990906D01*
X183532333Y-140051355D01*
X183491427Y-140063763D01*
X183409618Y-140088580D01*
X183345855Y-140094860D01*
X183313974Y-140098000D01*
X182700026Y-140098000D01*
X182668145Y-140094860D01*
X182604382Y-140088580D01*
X182522573Y-140063763D01*
X182481667Y-140051355D01*
X182368576Y-139990906D01*
X182368574Y-139990905D01*
X182269447Y-139909553D01*
X182188095Y-139810426D01*
X182181181Y-139797491D01*
X182127645Y-139697333D01*
X182115237Y-139656427D01*
X182090420Y-139574618D01*
X182077851Y-139447000D01*
X182090420Y-139319382D01*
X182127645Y-139196668D01*
X182127645Y-139196667D01*
X182188094Y-139083576D01*
X182188095Y-139083574D01*
X182269447Y-138984447D01*
X182368574Y-138903095D01*
X182381509Y-138896181D01*
X182481667Y-138842645D01*
X182522573Y-138830237D01*
X182604382Y-138805420D01*
X182668145Y-138799140D01*
X182700026Y-138796000D01*
X183313974Y-138796000D01*
X183345855Y-138799140D01*
X183345855Y-138799140D01*
G37*
G36*
X110738343Y-138143081D02*
X110884115Y-138203462D01*
X111015311Y-138291124D01*
X111126876Y-138402689D01*
X111214538Y-138533885D01*
X111274919Y-138679657D01*
X111305700Y-138834407D01*
X111305700Y-138992193D01*
X111274919Y-139146943D01*
X111214538Y-139292715D01*
X111126876Y-139423911D01*
X111015311Y-139535476D01*
X110884115Y-139623138D01*
X110738343Y-139683519D01*
X110583593Y-139714300D01*
X110425807Y-139714300D01*
X110271057Y-139683519D01*
X110125285Y-139623138D01*
X109994089Y-139535476D01*
X109882524Y-139423911D01*
X109794862Y-139292715D01*
X109734481Y-139146943D01*
X109703700Y-138992193D01*
X109703700Y-138834407D01*
X109734481Y-138679657D01*
X109794862Y-138533885D01*
X109882524Y-138402689D01*
X109994089Y-138291124D01*
X110125285Y-138203462D01*
X110271057Y-138143081D01*
X110425807Y-138112300D01*
X110583593Y-138112300D01*
X110738343Y-138143081D01*
X110738343Y-138143081D01*
G37*
G36*
X108958343Y-137123081D02*
X109104115Y-137183462D01*
X109235311Y-137271124D01*
X109346876Y-137382689D01*
X109434538Y-137513885D01*
X109494919Y-137659657D01*
X109525700Y-137814407D01*
X109525700Y-137972193D01*
X109494919Y-138126943D01*
X109434538Y-138272715D01*
X109346876Y-138403911D01*
X109235311Y-138515476D01*
X109104115Y-138603138D01*
X108958343Y-138663519D01*
X108803593Y-138694300D01*
X108645807Y-138694300D01*
X108491057Y-138663519D01*
X108345285Y-138603138D01*
X108214089Y-138515476D01*
X108102524Y-138403911D01*
X108014862Y-138272715D01*
X107954481Y-138126943D01*
X107923700Y-137972193D01*
X107923700Y-137814407D01*
X107954481Y-137659657D01*
X108014862Y-137513885D01*
X108102524Y-137382689D01*
X108214089Y-137271124D01*
X108345285Y-137183462D01*
X108491057Y-137123081D01*
X108645807Y-137092300D01*
X108803593Y-137092300D01*
X108958343Y-137123081D01*
X108958343Y-137123081D01*
G37*
G36*
X172375256Y-135391298D02*
X172481579Y-135412447D01*
X172782042Y-135536903D01*
X173022140Y-135697332D01*
X173052454Y-135717587D01*
X173282413Y-135947546D01*
X173282415Y-135947549D01*
X173463097Y-136217958D01*
X173587553Y-136518421D01*
X173596448Y-136563138D01*
X173651000Y-136837389D01*
X173651000Y-137162611D01*
X173629415Y-137271124D01*
X173587553Y-137481579D01*
X173463097Y-137782042D01*
X173336042Y-137972192D01*
X173282413Y-138052454D01*
X173052454Y-138282413D01*
X173052451Y-138282415D01*
X172782042Y-138463097D01*
X172481579Y-138587553D01*
X172403233Y-138603137D01*
X172162611Y-138651000D01*
X171837389Y-138651000D01*
X171596767Y-138603137D01*
X171518421Y-138587553D01*
X171217958Y-138463097D01*
X170947549Y-138282415D01*
X170947546Y-138282413D01*
X170717587Y-138052454D01*
X170663958Y-137972192D01*
X170536903Y-137782042D01*
X170412447Y-137481579D01*
X170370585Y-137271124D01*
X170349000Y-137162611D01*
X170349000Y-136837389D01*
X170403552Y-136563138D01*
X170412447Y-136518421D01*
X170536903Y-136217958D01*
X170717585Y-135947549D01*
X170717587Y-135947546D01*
X170947546Y-135717587D01*
X170977860Y-135697332D01*
X171217958Y-135536903D01*
X171518421Y-135412447D01*
X171624744Y-135391298D01*
X171837389Y-135349000D01*
X172162611Y-135349000D01*
X172375256Y-135391298D01*
X172375256Y-135391298D01*
G37*
G36*
X122375256Y-135391298D02*
X122481579Y-135412447D01*
X122782042Y-135536903D01*
X123022140Y-135697332D01*
X123052454Y-135717587D01*
X123282413Y-135947546D01*
X123282415Y-135947549D01*
X123463097Y-136217958D01*
X123587553Y-136518421D01*
X123596448Y-136563138D01*
X123651000Y-136837389D01*
X123651000Y-137162611D01*
X123629415Y-137271124D01*
X123587553Y-137481579D01*
X123463097Y-137782042D01*
X123336042Y-137972192D01*
X123282413Y-138052454D01*
X123052454Y-138282413D01*
X123052451Y-138282415D01*
X122782042Y-138463097D01*
X122481579Y-138587553D01*
X122403233Y-138603137D01*
X122162611Y-138651000D01*
X121837389Y-138651000D01*
X121596767Y-138603137D01*
X121518421Y-138587553D01*
X121217958Y-138463097D01*
X120947549Y-138282415D01*
X120947546Y-138282413D01*
X120717587Y-138052454D01*
X120663958Y-137972192D01*
X120536903Y-137782042D01*
X120412447Y-137481579D01*
X120370585Y-137271124D01*
X120349000Y-137162611D01*
X120349000Y-136837389D01*
X120403552Y-136563138D01*
X120412447Y-136518421D01*
X120536903Y-136217958D01*
X120717585Y-135947549D01*
X120717587Y-135947546D01*
X120947546Y-135717587D01*
X120977860Y-135697332D01*
X121217958Y-135536903D01*
X121518421Y-135412447D01*
X121624744Y-135391298D01*
X121837389Y-135349000D01*
X122162611Y-135349000D01*
X122375256Y-135391298D01*
X122375256Y-135391298D01*
G37*
G36*
X183345855Y-136799140D02*
X183409618Y-136805420D01*
X183491427Y-136830237D01*
X183532333Y-136842645D01*
X183632491Y-136896181D01*
X183645426Y-136903095D01*
X183744553Y-136984447D01*
X183825905Y-137083574D01*
X183825906Y-137083576D01*
X183886355Y-137196667D01*
X183886355Y-137196668D01*
X183923580Y-137319382D01*
X183936149Y-137447000D01*
X183923580Y-137574618D01*
X183920995Y-137583138D01*
X183886355Y-137697333D01*
X183841078Y-137782040D01*
X183825905Y-137810426D01*
X183744553Y-137909553D01*
X183645426Y-137990905D01*
X183645424Y-137990906D01*
X183532333Y-138051355D01*
X183491427Y-138063763D01*
X183409618Y-138088580D01*
X183345855Y-138094860D01*
X183313974Y-138098000D01*
X182700026Y-138098000D01*
X182668145Y-138094860D01*
X182604382Y-138088580D01*
X182522573Y-138063763D01*
X182481667Y-138051355D01*
X182368576Y-137990906D01*
X182368574Y-137990905D01*
X182269447Y-137909553D01*
X182188095Y-137810426D01*
X182172922Y-137782040D01*
X182127645Y-137697333D01*
X182093005Y-137583138D01*
X182090420Y-137574618D01*
X182077851Y-137447000D01*
X182090420Y-137319382D01*
X182127645Y-137196668D01*
X182127645Y-137196667D01*
X182188094Y-137083576D01*
X182188095Y-137083574D01*
X182269447Y-136984447D01*
X182368574Y-136903095D01*
X182381509Y-136896181D01*
X182481667Y-136842645D01*
X182522573Y-136830237D01*
X182604382Y-136805420D01*
X182668145Y-136799140D01*
X182700026Y-136796000D01*
X183313974Y-136796000D01*
X183345855Y-136799140D01*
X183345855Y-136799140D01*
G37*
G36*
X110738343Y-136103081D02*
X110884115Y-136163462D01*
X111015311Y-136251124D01*
X111126876Y-136362689D01*
X111214538Y-136493885D01*
X111274919Y-136639657D01*
X111305700Y-136794407D01*
X111305700Y-136952193D01*
X111274919Y-137106943D01*
X111214538Y-137252715D01*
X111126876Y-137383911D01*
X111015311Y-137495476D01*
X110884115Y-137583138D01*
X110738343Y-137643519D01*
X110583593Y-137674300D01*
X110425807Y-137674300D01*
X110271057Y-137643519D01*
X110125285Y-137583138D01*
X109994089Y-137495476D01*
X109882524Y-137383911D01*
X109794862Y-137252715D01*
X109734481Y-137106943D01*
X109703700Y-136952193D01*
X109703700Y-136794407D01*
X109734481Y-136639657D01*
X109794862Y-136493885D01*
X109882524Y-136362689D01*
X109994089Y-136251124D01*
X110125285Y-136163462D01*
X110271057Y-136103081D01*
X110425807Y-136072300D01*
X110583593Y-136072300D01*
X110738343Y-136103081D01*
X110738343Y-136103081D01*
G37*
G36*
X108958343Y-135083081D02*
X109104115Y-135143462D01*
X109235311Y-135231124D01*
X109346876Y-135342689D01*
X109434538Y-135473885D01*
X109494919Y-135619657D01*
X109525700Y-135774407D01*
X109525700Y-135932193D01*
X109494919Y-136086943D01*
X109434538Y-136232715D01*
X109346876Y-136363911D01*
X109235311Y-136475476D01*
X109104115Y-136563138D01*
X108958343Y-136623519D01*
X108803593Y-136654300D01*
X108645807Y-136654300D01*
X108491057Y-136623519D01*
X108345285Y-136563138D01*
X108214089Y-136475476D01*
X108102524Y-136363911D01*
X108014862Y-136232715D01*
X107954481Y-136086943D01*
X107923700Y-135932193D01*
X107923700Y-135774407D01*
X107954481Y-135619657D01*
X108014862Y-135473885D01*
X108102524Y-135342689D01*
X108214089Y-135231124D01*
X108345285Y-135143462D01*
X108491057Y-135083081D01*
X108645807Y-135052300D01*
X108803593Y-135052300D01*
X108958343Y-135083081D01*
X108958343Y-135083081D01*
G37*
G36*
X183345855Y-134799140D02*
X183409618Y-134805420D01*
X183491427Y-134830237D01*
X183532333Y-134842645D01*
X183632491Y-134896181D01*
X183645426Y-134903095D01*
X183744553Y-134984447D01*
X183825905Y-135083574D01*
X183825906Y-135083576D01*
X183886355Y-135196667D01*
X183886355Y-135196668D01*
X183923580Y-135319382D01*
X183936149Y-135447000D01*
X183923580Y-135574618D01*
X183898763Y-135656427D01*
X183886355Y-135697333D01*
X183845158Y-135774407D01*
X183825905Y-135810426D01*
X183744553Y-135909553D01*
X183645426Y-135990905D01*
X183645424Y-135990906D01*
X183532333Y-136051355D01*
X183491427Y-136063763D01*
X183409618Y-136088580D01*
X183345855Y-136094860D01*
X183313974Y-136098000D01*
X182700026Y-136098000D01*
X182668145Y-136094860D01*
X182604382Y-136088580D01*
X182522573Y-136063763D01*
X182481667Y-136051355D01*
X182368576Y-135990906D01*
X182368574Y-135990905D01*
X182269447Y-135909553D01*
X182188095Y-135810426D01*
X182168842Y-135774407D01*
X182127645Y-135697333D01*
X182115237Y-135656427D01*
X182090420Y-135574618D01*
X182077851Y-135447000D01*
X182090420Y-135319382D01*
X182127645Y-135196668D01*
X182127645Y-135196667D01*
X182188094Y-135083576D01*
X182188095Y-135083574D01*
X182269447Y-134984447D01*
X182368574Y-134903095D01*
X182381509Y-134896181D01*
X182481667Y-134842645D01*
X182522573Y-134830237D01*
X182604382Y-134805420D01*
X182668145Y-134799140D01*
X182700026Y-134796000D01*
X183313974Y-134796000D01*
X183345855Y-134799140D01*
X183345855Y-134799140D01*
G37*
G36*
X110738343Y-134063081D02*
X110884115Y-134123462D01*
X111015311Y-134211124D01*
X111126876Y-134322689D01*
X111214538Y-134453885D01*
X111274919Y-134599657D01*
X111305700Y-134754407D01*
X111305700Y-134912193D01*
X111274919Y-135066943D01*
X111214538Y-135212715D01*
X111126876Y-135343911D01*
X111015311Y-135455476D01*
X110884115Y-135543138D01*
X110738343Y-135603519D01*
X110583593Y-135634300D01*
X110425807Y-135634300D01*
X110271057Y-135603519D01*
X110125285Y-135543138D01*
X109994089Y-135455476D01*
X109882524Y-135343911D01*
X109794862Y-135212715D01*
X109734481Y-135066943D01*
X109703700Y-134912193D01*
X109703700Y-134754407D01*
X109734481Y-134599657D01*
X109794862Y-134453885D01*
X109882524Y-134322689D01*
X109994089Y-134211124D01*
X110125285Y-134123462D01*
X110271057Y-134063081D01*
X110425807Y-134032300D01*
X110583593Y-134032300D01*
X110738343Y-134063081D01*
X110738343Y-134063081D01*
G37*
G36*
X106673571Y-130451708D02*
X106978583Y-130578048D01*
X107214539Y-130735709D01*
X107253090Y-130761468D01*
X107486532Y-130994910D01*
X107486534Y-130994913D01*
X107669952Y-131269417D01*
X107796292Y-131574429D01*
X107860700Y-131898228D01*
X107860700Y-132228372D01*
X107796292Y-132552171D01*
X107669952Y-132857183D01*
X107487770Y-133129838D01*
X107486532Y-133131690D01*
X107253090Y-133365132D01*
X107253087Y-133365134D01*
X106978583Y-133548552D01*
X106673571Y-133674892D01*
X106349772Y-133739300D01*
X106019628Y-133739300D01*
X105695829Y-133674892D01*
X105390817Y-133548552D01*
X105116313Y-133365134D01*
X105116310Y-133365132D01*
X104882868Y-133131690D01*
X104881630Y-133129838D01*
X104699448Y-132857183D01*
X104573108Y-132552171D01*
X104508700Y-132228372D01*
X104508700Y-131898228D01*
X104573108Y-131574429D01*
X104699448Y-131269417D01*
X104882866Y-130994913D01*
X104882868Y-130994910D01*
X105116310Y-130761468D01*
X105154861Y-130735709D01*
X105390817Y-130578048D01*
X105695829Y-130451708D01*
X106019628Y-130387300D01*
X106349772Y-130387300D01*
X106673571Y-130451708D01*
X106673571Y-130451708D01*
G37*
G36*
X109967227Y-128772036D02*
X110067110Y-128791904D01*
X110349374Y-128908821D01*
X110603405Y-129078559D01*
X110819441Y-129294595D01*
X110989179Y-129548626D01*
X111106096Y-129830890D01*
X111118251Y-129891996D01*
X111165700Y-130130538D01*
X111165700Y-130436062D01*
X111137457Y-130578048D01*
X111106096Y-130735710D01*
X110989179Y-131017974D01*
X110819441Y-131272005D01*
X110603405Y-131488041D01*
X110349374Y-131657779D01*
X110067110Y-131774696D01*
X109967227Y-131794564D01*
X109767462Y-131834300D01*
X109461938Y-131834300D01*
X109262173Y-131794564D01*
X109162290Y-131774696D01*
X108880026Y-131657779D01*
X108625995Y-131488041D01*
X108409959Y-131272005D01*
X108240221Y-131017974D01*
X108123304Y-130735710D01*
X108091943Y-130578048D01*
X108063700Y-130436062D01*
X108063700Y-130130538D01*
X108111149Y-129891996D01*
X108123304Y-129830890D01*
X108240221Y-129548626D01*
X108409959Y-129294595D01*
X108625995Y-129078559D01*
X108880026Y-128908821D01*
X109162290Y-128791904D01*
X109262173Y-128772036D01*
X109461938Y-128732300D01*
X109767462Y-128732300D01*
X109967227Y-128772036D01*
X109967227Y-128772036D01*
G37*
G36*
X129629000Y-131454000D02*
X127927000Y-131454000D01*
X127927000Y-129752000D01*
X129629000Y-129752000D01*
X129629000Y-131454000D01*
X129629000Y-131454000D01*
G37*
G36*
X121324821Y-129764313D02*
X121324824Y-129764314D01*
X121324825Y-129764314D01*
X121485239Y-129812975D01*
X121485241Y-129812976D01*
X121485244Y-129812977D01*
X121633078Y-129891995D01*
X121762659Y-129998341D01*
X121869005Y-130127922D01*
X121948023Y-130275756D01*
X121948024Y-130275759D01*
X121948025Y-130275761D01*
X121969657Y-130347073D01*
X121996687Y-130436179D01*
X122013117Y-130603000D01*
X121996687Y-130769821D01*
X121948023Y-130930244D01*
X121869005Y-131078078D01*
X121762659Y-131207659D01*
X121633078Y-131314005D01*
X121485244Y-131393023D01*
X121485241Y-131393024D01*
X121485239Y-131393025D01*
X121324825Y-131441686D01*
X121324824Y-131441686D01*
X121324821Y-131441687D01*
X121199804Y-131454000D01*
X121116196Y-131454000D01*
X120991179Y-131441687D01*
X120991176Y-131441686D01*
X120991175Y-131441686D01*
X120830761Y-131393025D01*
X120830759Y-131393024D01*
X120830756Y-131393023D01*
X120682922Y-131314005D01*
X120553341Y-131207659D01*
X120446995Y-131078078D01*
X120367977Y-130930244D01*
X120319313Y-130769821D01*
X120302883Y-130603000D01*
X120319313Y-130436179D01*
X120346343Y-130347073D01*
X120367975Y-130275761D01*
X120367976Y-130275759D01*
X120367977Y-130275756D01*
X120446995Y-130127922D01*
X120553341Y-129998341D01*
X120682922Y-129891995D01*
X120830756Y-129812977D01*
X120830759Y-129812976D01*
X120830761Y-129812975D01*
X120991175Y-129764314D01*
X120991176Y-129764314D01*
X120991179Y-129764313D01*
X121116196Y-129752000D01*
X121199804Y-129752000D01*
X121324821Y-129764313D01*
X121324821Y-129764313D01*
G37*
G36*
X183766242Y-129083404D02*
X183803339Y-129094657D01*
X183837520Y-129112927D01*
X183867482Y-129137518D01*
X183892073Y-129167480D01*
X183910343Y-129201661D01*
X183921596Y-129238758D01*
X183926000Y-129283473D01*
X183926000Y-130176527D01*
X183921596Y-130221242D01*
X183910343Y-130258339D01*
X183892073Y-130292520D01*
X183867482Y-130322482D01*
X183837520Y-130347073D01*
X183803339Y-130365343D01*
X183766242Y-130376596D01*
X183721527Y-130381000D01*
X182278473Y-130381000D01*
X182233758Y-130376596D01*
X182196661Y-130365343D01*
X182162480Y-130347073D01*
X182132518Y-130322482D01*
X182107927Y-130292520D01*
X182089657Y-130258339D01*
X182078404Y-130221242D01*
X182074000Y-130176527D01*
X182074000Y-129283473D01*
X182078404Y-129238758D01*
X182089657Y-129201661D01*
X182107927Y-129167480D01*
X182132518Y-129137518D01*
X182162480Y-129112927D01*
X182196661Y-129094657D01*
X182233758Y-129083404D01*
X182278473Y-129079000D01*
X183721527Y-129079000D01*
X183766242Y-129083404D01*
X183766242Y-129083404D01*
G37*
G36*
X128944821Y-127224313D02*
X128944824Y-127224314D01*
X128944825Y-127224314D01*
X129105239Y-127272975D01*
X129105241Y-127272976D01*
X129105244Y-127272977D01*
X129253078Y-127351995D01*
X129382659Y-127458341D01*
X129489005Y-127587922D01*
X129568023Y-127735756D01*
X129616687Y-127896179D01*
X129633117Y-128063000D01*
X129616687Y-128229821D01*
X129616686Y-128229824D01*
X129616686Y-128229825D01*
X129570828Y-128381000D01*
X129568023Y-128390244D01*
X129489005Y-128538078D01*
X129382659Y-128667659D01*
X129253078Y-128774005D01*
X129105244Y-128853023D01*
X129105241Y-128853024D01*
X129105239Y-128853025D01*
X128944825Y-128901686D01*
X128944824Y-128901686D01*
X128944821Y-128901687D01*
X128819804Y-128914000D01*
X128736196Y-128914000D01*
X128611179Y-128901687D01*
X128611176Y-128901686D01*
X128611175Y-128901686D01*
X128450761Y-128853025D01*
X128450759Y-128853024D01*
X128450756Y-128853023D01*
X128302922Y-128774005D01*
X128173341Y-128667659D01*
X128066995Y-128538078D01*
X127987977Y-128390244D01*
X127985173Y-128381000D01*
X127939314Y-128229825D01*
X127939314Y-128229824D01*
X127939313Y-128229821D01*
X127922883Y-128063000D01*
X127939313Y-127896179D01*
X127987977Y-127735756D01*
X128066995Y-127587922D01*
X128173341Y-127458341D01*
X128302922Y-127351995D01*
X128450756Y-127272977D01*
X128450759Y-127272976D01*
X128450761Y-127272975D01*
X128611175Y-127224314D01*
X128611176Y-127224314D01*
X128611179Y-127224313D01*
X128736196Y-127212000D01*
X128819804Y-127212000D01*
X128944821Y-127224313D01*
X128944821Y-127224313D01*
G37*
G36*
X121324821Y-127224313D02*
X121324824Y-127224314D01*
X121324825Y-127224314D01*
X121485239Y-127272975D01*
X121485241Y-127272976D01*
X121485244Y-127272977D01*
X121633078Y-127351995D01*
X121762659Y-127458341D01*
X121869005Y-127587922D01*
X121948023Y-127735756D01*
X121996687Y-127896179D01*
X122013117Y-128063000D01*
X121996687Y-128229821D01*
X121996686Y-128229824D01*
X121996686Y-128229825D01*
X121950828Y-128381000D01*
X121948023Y-128390244D01*
X121869005Y-128538078D01*
X121762659Y-128667659D01*
X121633078Y-128774005D01*
X121485244Y-128853023D01*
X121485241Y-128853024D01*
X121485239Y-128853025D01*
X121324825Y-128901686D01*
X121324824Y-128901686D01*
X121324821Y-128901687D01*
X121199804Y-128914000D01*
X121116196Y-128914000D01*
X120991179Y-128901687D01*
X120991176Y-128901686D01*
X120991175Y-128901686D01*
X120830761Y-128853025D01*
X120830759Y-128853024D01*
X120830756Y-128853023D01*
X120682922Y-128774005D01*
X120553341Y-128667659D01*
X120446995Y-128538078D01*
X120367977Y-128390244D01*
X120365173Y-128381000D01*
X120319314Y-128229825D01*
X120319314Y-128229824D01*
X120319313Y-128229821D01*
X120302883Y-128063000D01*
X120319313Y-127896179D01*
X120367977Y-127735756D01*
X120446995Y-127587922D01*
X120553341Y-127458341D01*
X120682922Y-127351995D01*
X120830756Y-127272977D01*
X120830759Y-127272976D01*
X120830761Y-127272975D01*
X120991175Y-127224314D01*
X120991176Y-127224314D01*
X120991179Y-127224313D01*
X121116196Y-127212000D01*
X121199804Y-127212000D01*
X121324821Y-127224313D01*
X121324821Y-127224313D01*
G37*
G36*
X183338855Y-127082140D02*
X183402618Y-127088420D01*
X183484427Y-127113237D01*
X183525333Y-127125645D01*
X183625491Y-127179181D01*
X183638426Y-127186095D01*
X183737553Y-127267447D01*
X183818905Y-127366574D01*
X183818906Y-127366576D01*
X183879355Y-127479667D01*
X183879355Y-127479668D01*
X183916580Y-127602382D01*
X183929149Y-127730000D01*
X183916580Y-127857618D01*
X183891763Y-127939427D01*
X183879355Y-127980333D01*
X183846927Y-128041000D01*
X183818905Y-128093426D01*
X183737553Y-128192553D01*
X183638426Y-128273905D01*
X183638424Y-128273906D01*
X183525333Y-128334355D01*
X183484427Y-128346763D01*
X183402618Y-128371580D01*
X183338855Y-128377860D01*
X183306974Y-128381000D01*
X182693026Y-128381000D01*
X182661145Y-128377860D01*
X182597382Y-128371580D01*
X182515573Y-128346763D01*
X182474667Y-128334355D01*
X182361576Y-128273906D01*
X182361574Y-128273905D01*
X182262447Y-128192553D01*
X182181095Y-128093426D01*
X182153073Y-128041000D01*
X182120645Y-127980333D01*
X182108237Y-127939427D01*
X182083420Y-127857618D01*
X182070851Y-127730000D01*
X182083420Y-127602382D01*
X182120645Y-127479668D01*
X182120645Y-127479667D01*
X182181094Y-127366576D01*
X182181095Y-127366574D01*
X182262447Y-127267447D01*
X182361574Y-127186095D01*
X182374509Y-127179181D01*
X182474667Y-127125645D01*
X182515573Y-127113237D01*
X182597382Y-127088420D01*
X182661145Y-127082140D01*
X182693026Y-127079000D01*
X183306974Y-127079000D01*
X183338855Y-127082140D01*
X183338855Y-127082140D01*
G37*
G36*
X109954527Y-124978736D02*
X110054410Y-124998604D01*
X110336674Y-125115521D01*
X110590705Y-125285259D01*
X110806741Y-125501295D01*
X110976479Y-125755326D01*
X111093396Y-126037590D01*
X111093396Y-126037591D01*
X111152427Y-126334355D01*
X111153000Y-126337240D01*
X111153000Y-126642760D01*
X111093396Y-126942410D01*
X110976479Y-127224674D01*
X110806741Y-127478705D01*
X110590705Y-127694741D01*
X110336674Y-127864479D01*
X110054410Y-127981396D01*
X109954527Y-128001264D01*
X109754762Y-128041000D01*
X109449238Y-128041000D01*
X109249473Y-128001264D01*
X109149590Y-127981396D01*
X108867326Y-127864479D01*
X108613295Y-127694741D01*
X108397259Y-127478705D01*
X108227521Y-127224674D01*
X108110604Y-126942410D01*
X108051000Y-126642760D01*
X108051000Y-126337240D01*
X108051574Y-126334355D01*
X108110604Y-126037591D01*
X108110604Y-126037590D01*
X108227521Y-125755326D01*
X108397259Y-125501295D01*
X108613295Y-125285259D01*
X108867326Y-125115521D01*
X109149590Y-124998604D01*
X109249473Y-124978736D01*
X109449238Y-124939000D01*
X109754762Y-124939000D01*
X109954527Y-124978736D01*
X109954527Y-124978736D01*
G37*
G36*
X106660871Y-123098408D02*
X106965883Y-123224748D01*
X107178140Y-123366574D01*
X107240390Y-123408168D01*
X107473832Y-123641610D01*
X107473834Y-123641613D01*
X107657252Y-123916117D01*
X107783592Y-124221129D01*
X107848000Y-124544928D01*
X107848000Y-124875072D01*
X107783592Y-125198871D01*
X107657252Y-125503883D01*
X107533012Y-125689821D01*
X107473832Y-125778390D01*
X107240390Y-126011832D01*
X107240387Y-126011834D01*
X106965883Y-126195252D01*
X106775995Y-126273906D01*
X106660871Y-126321592D01*
X106337072Y-126386000D01*
X106006928Y-126386000D01*
X105683129Y-126321592D01*
X105568005Y-126273906D01*
X105378117Y-126195252D01*
X105103613Y-126011834D01*
X105103610Y-126011832D01*
X104870168Y-125778390D01*
X104810988Y-125689821D01*
X104686748Y-125503883D01*
X104560408Y-125198871D01*
X104496000Y-124875072D01*
X104496000Y-124544928D01*
X104560408Y-124221129D01*
X104686748Y-123916117D01*
X104870166Y-123641613D01*
X104870168Y-123641610D01*
X105103610Y-123408168D01*
X105165860Y-123366574D01*
X105378117Y-123224748D01*
X105683129Y-123098408D01*
X106006928Y-123034000D01*
X106337072Y-123034000D01*
X106660871Y-123098408D01*
X106660871Y-123098408D01*
G37*
G36*
X183338855Y-125082140D02*
X183402618Y-125088420D01*
X183484427Y-125113237D01*
X183525333Y-125125645D01*
X183625491Y-125179181D01*
X183638426Y-125186095D01*
X183737553Y-125267447D01*
X183818905Y-125366574D01*
X183818906Y-125366576D01*
X183879355Y-125479667D01*
X183886700Y-125503882D01*
X183916580Y-125602382D01*
X183929149Y-125730000D01*
X183916580Y-125857618D01*
X183891763Y-125939427D01*
X183879355Y-125980333D01*
X183825819Y-126080491D01*
X183818905Y-126093426D01*
X183737553Y-126192553D01*
X183638426Y-126273905D01*
X183638424Y-126273906D01*
X183525333Y-126334355D01*
X183484427Y-126346763D01*
X183402618Y-126371580D01*
X183338855Y-126377860D01*
X183306974Y-126381000D01*
X182693026Y-126381000D01*
X182661145Y-126377860D01*
X182597382Y-126371580D01*
X182515573Y-126346763D01*
X182474667Y-126334355D01*
X182361576Y-126273906D01*
X182361574Y-126273905D01*
X182262447Y-126192553D01*
X182181095Y-126093426D01*
X182174181Y-126080491D01*
X182120645Y-125980333D01*
X182108237Y-125939427D01*
X182083420Y-125857618D01*
X182070851Y-125730000D01*
X182083420Y-125602382D01*
X182113300Y-125503882D01*
X182120645Y-125479667D01*
X182181094Y-125366576D01*
X182181095Y-125366574D01*
X182262447Y-125267447D01*
X182361574Y-125186095D01*
X182374509Y-125179181D01*
X182474667Y-125125645D01*
X182515573Y-125113237D01*
X182597382Y-125088420D01*
X182661145Y-125082140D01*
X182693026Y-125079000D01*
X183306974Y-125079000D01*
X183338855Y-125082140D01*
X183338855Y-125082140D01*
G37*
G36*
X128944821Y-124684313D02*
X128944824Y-124684314D01*
X128944825Y-124684314D01*
X129105239Y-124732975D01*
X129105241Y-124732976D01*
X129105244Y-124732977D01*
X129253078Y-124811995D01*
X129382659Y-124918341D01*
X129489005Y-125047922D01*
X129568023Y-125195756D01*
X129568024Y-125195759D01*
X129568025Y-125195761D01*
X129616686Y-125356175D01*
X129616687Y-125356179D01*
X129633117Y-125523000D01*
X129616687Y-125689821D01*
X129616686Y-125689824D01*
X129616686Y-125689825D01*
X129596817Y-125755326D01*
X129568023Y-125850244D01*
X129489005Y-125998078D01*
X129382659Y-126127659D01*
X129253078Y-126234005D01*
X129105244Y-126313023D01*
X129105241Y-126313024D01*
X129105239Y-126313025D01*
X128944825Y-126361686D01*
X128944824Y-126361686D01*
X128944821Y-126361687D01*
X128819804Y-126374000D01*
X128736196Y-126374000D01*
X128611179Y-126361687D01*
X128611176Y-126361686D01*
X128611175Y-126361686D01*
X128450761Y-126313025D01*
X128450759Y-126313024D01*
X128450756Y-126313023D01*
X128302922Y-126234005D01*
X128173341Y-126127659D01*
X128066995Y-125998078D01*
X127987977Y-125850244D01*
X127959184Y-125755326D01*
X127939314Y-125689825D01*
X127939314Y-125689824D01*
X127939313Y-125689821D01*
X127922883Y-125523000D01*
X127939313Y-125356179D01*
X127939314Y-125356175D01*
X127987975Y-125195761D01*
X127987976Y-125195759D01*
X127987977Y-125195756D01*
X128066995Y-125047922D01*
X128173341Y-124918341D01*
X128302922Y-124811995D01*
X128450756Y-124732977D01*
X128450759Y-124732976D01*
X128450761Y-124732975D01*
X128611175Y-124684314D01*
X128611176Y-124684314D01*
X128611179Y-124684313D01*
X128736196Y-124672000D01*
X128819804Y-124672000D01*
X128944821Y-124684313D01*
X128944821Y-124684313D01*
G37*
G36*
X121324821Y-124684313D02*
X121324824Y-124684314D01*
X121324825Y-124684314D01*
X121485239Y-124732975D01*
X121485241Y-124732976D01*
X121485244Y-124732977D01*
X121633078Y-124811995D01*
X121762659Y-124918341D01*
X121869005Y-125047922D01*
X121948023Y-125195756D01*
X121948024Y-125195759D01*
X121948025Y-125195761D01*
X121996686Y-125356175D01*
X121996687Y-125356179D01*
X122013117Y-125523000D01*
X121996687Y-125689821D01*
X121996686Y-125689824D01*
X121996686Y-125689825D01*
X121976817Y-125755326D01*
X121948023Y-125850244D01*
X121869005Y-125998078D01*
X121762659Y-126127659D01*
X121633078Y-126234005D01*
X121485244Y-126313023D01*
X121485241Y-126313024D01*
X121485239Y-126313025D01*
X121324825Y-126361686D01*
X121324824Y-126361686D01*
X121324821Y-126361687D01*
X121199804Y-126374000D01*
X121116196Y-126374000D01*
X120991179Y-126361687D01*
X120991176Y-126361686D01*
X120991175Y-126361686D01*
X120830761Y-126313025D01*
X120830759Y-126313024D01*
X120830756Y-126313023D01*
X120682922Y-126234005D01*
X120553341Y-126127659D01*
X120446995Y-125998078D01*
X120367977Y-125850244D01*
X120339184Y-125755326D01*
X120319314Y-125689825D01*
X120319314Y-125689824D01*
X120319313Y-125689821D01*
X120302883Y-125523000D01*
X120319313Y-125356179D01*
X120319314Y-125356175D01*
X120367975Y-125195761D01*
X120367976Y-125195759D01*
X120367977Y-125195756D01*
X120446995Y-125047922D01*
X120553341Y-124918341D01*
X120682922Y-124811995D01*
X120830756Y-124732977D01*
X120830759Y-124732976D01*
X120830761Y-124732975D01*
X120991175Y-124684314D01*
X120991176Y-124684314D01*
X120991179Y-124684313D01*
X121116196Y-124672000D01*
X121199804Y-124672000D01*
X121324821Y-124684313D01*
X121324821Y-124684313D01*
G37*
G36*
X183338855Y-123082140D02*
X183402618Y-123088420D01*
X183484427Y-123113237D01*
X183525333Y-123125645D01*
X183570570Y-123149825D01*
X183638426Y-123186095D01*
X183737553Y-123267447D01*
X183818905Y-123366574D01*
X183818906Y-123366576D01*
X183879355Y-123479667D01*
X183879355Y-123479668D01*
X183916580Y-123602382D01*
X183929149Y-123730000D01*
X183916580Y-123857618D01*
X183898834Y-123916117D01*
X183879355Y-123980333D01*
X183825819Y-124080491D01*
X183818905Y-124093426D01*
X183737553Y-124192553D01*
X183638426Y-124273905D01*
X183638424Y-124273906D01*
X183525333Y-124334355D01*
X183484427Y-124346763D01*
X183402618Y-124371580D01*
X183338855Y-124377860D01*
X183306974Y-124381000D01*
X182693026Y-124381000D01*
X182661145Y-124377860D01*
X182597382Y-124371580D01*
X182515573Y-124346763D01*
X182474667Y-124334355D01*
X182361576Y-124273906D01*
X182361574Y-124273905D01*
X182262447Y-124192553D01*
X182181095Y-124093426D01*
X182174181Y-124080491D01*
X182120645Y-123980333D01*
X182101166Y-123916117D01*
X182083420Y-123857618D01*
X182070851Y-123730000D01*
X182083420Y-123602382D01*
X182120645Y-123479668D01*
X182120645Y-123479667D01*
X182181094Y-123366576D01*
X182181095Y-123366574D01*
X182262447Y-123267447D01*
X182361574Y-123186095D01*
X182429430Y-123149825D01*
X182474667Y-123125645D01*
X182515573Y-123113237D01*
X182597382Y-123088420D01*
X182661145Y-123082140D01*
X182693026Y-123079000D01*
X183306974Y-123079000D01*
X183338855Y-123082140D01*
X183338855Y-123082140D01*
G37*
G36*
X121324821Y-122144313D02*
X121324824Y-122144314D01*
X121324825Y-122144314D01*
X121485239Y-122192975D01*
X121485241Y-122192976D01*
X121485244Y-122192977D01*
X121633078Y-122271995D01*
X121762659Y-122378341D01*
X121869005Y-122507922D01*
X121948023Y-122655756D01*
X121996687Y-122816179D01*
X122013117Y-122983000D01*
X121996687Y-123149821D01*
X121996686Y-123149824D01*
X121996686Y-123149825D01*
X121961006Y-123267447D01*
X121948023Y-123310244D01*
X121869005Y-123458078D01*
X121762659Y-123587659D01*
X121633078Y-123694005D01*
X121485244Y-123773023D01*
X121485241Y-123773024D01*
X121485239Y-123773025D01*
X121324825Y-123821686D01*
X121324824Y-123821686D01*
X121324821Y-123821687D01*
X121199804Y-123834000D01*
X121116196Y-123834000D01*
X120991179Y-123821687D01*
X120991176Y-123821686D01*
X120991175Y-123821686D01*
X120830761Y-123773025D01*
X120830759Y-123773024D01*
X120830756Y-123773023D01*
X120682922Y-123694005D01*
X120553341Y-123587659D01*
X120446995Y-123458078D01*
X120367977Y-123310244D01*
X120354995Y-123267447D01*
X120319314Y-123149825D01*
X120319314Y-123149824D01*
X120319313Y-123149821D01*
X120302883Y-122983000D01*
X120319313Y-122816179D01*
X120367977Y-122655756D01*
X120446995Y-122507922D01*
X120553341Y-122378341D01*
X120682922Y-122271995D01*
X120830756Y-122192977D01*
X120830759Y-122192976D01*
X120830761Y-122192975D01*
X120991175Y-122144314D01*
X120991176Y-122144314D01*
X120991179Y-122144313D01*
X121116196Y-122132000D01*
X121199804Y-122132000D01*
X121324821Y-122144313D01*
X121324821Y-122144313D01*
G37*
G36*
X128944821Y-122144313D02*
X128944824Y-122144314D01*
X128944825Y-122144314D01*
X129105239Y-122192975D01*
X129105241Y-122192976D01*
X129105244Y-122192977D01*
X129253078Y-122271995D01*
X129382659Y-122378341D01*
X129489005Y-122507922D01*
X129568023Y-122655756D01*
X129616687Y-122816179D01*
X129633117Y-122983000D01*
X129616687Y-123149821D01*
X129616686Y-123149824D01*
X129616686Y-123149825D01*
X129581006Y-123267447D01*
X129568023Y-123310244D01*
X129489005Y-123458078D01*
X129382659Y-123587659D01*
X129253078Y-123694005D01*
X129105244Y-123773023D01*
X129105241Y-123773024D01*
X129105239Y-123773025D01*
X128944825Y-123821686D01*
X128944824Y-123821686D01*
X128944821Y-123821687D01*
X128819804Y-123834000D01*
X128736196Y-123834000D01*
X128611179Y-123821687D01*
X128611176Y-123821686D01*
X128611175Y-123821686D01*
X128450761Y-123773025D01*
X128450759Y-123773024D01*
X128450756Y-123773023D01*
X128302922Y-123694005D01*
X128173341Y-123587659D01*
X128066995Y-123458078D01*
X127987977Y-123310244D01*
X127974995Y-123267447D01*
X127939314Y-123149825D01*
X127939314Y-123149824D01*
X127939313Y-123149821D01*
X127922883Y-122983000D01*
X127939313Y-122816179D01*
X127987977Y-122655756D01*
X128066995Y-122507922D01*
X128173341Y-122378341D01*
X128302922Y-122271995D01*
X128450756Y-122192977D01*
X128450759Y-122192976D01*
X128450761Y-122192975D01*
X128611175Y-122144314D01*
X128611176Y-122144314D01*
X128611179Y-122144313D01*
X128736196Y-122132000D01*
X128819804Y-122132000D01*
X128944821Y-122144313D01*
X128944821Y-122144313D01*
G37*
G36*
X110725643Y-120129781D02*
X110871415Y-120190162D01*
X111002611Y-120277824D01*
X111114176Y-120389389D01*
X111201838Y-120520585D01*
X111262219Y-120666357D01*
X111293000Y-120821107D01*
X111293000Y-120978893D01*
X111262219Y-121133643D01*
X111201838Y-121279415D01*
X111114176Y-121410611D01*
X111002611Y-121522176D01*
X110871415Y-121609838D01*
X110725643Y-121670219D01*
X110570893Y-121701000D01*
X110413107Y-121701000D01*
X110258357Y-121670219D01*
X110112585Y-121609838D01*
X109981389Y-121522176D01*
X109869824Y-121410611D01*
X109782163Y-121279417D01*
X109753485Y-121210182D01*
X109741934Y-121188572D01*
X109726388Y-121169630D01*
X109707446Y-121154084D01*
X109685835Y-121142533D01*
X109662386Y-121135420D01*
X109638000Y-121133018D01*
X109613614Y-121135420D01*
X109590164Y-121142533D01*
X109568554Y-121154084D01*
X109549612Y-121169630D01*
X109534066Y-121188572D01*
X109522515Y-121210183D01*
X109515402Y-121233632D01*
X109513000Y-121258018D01*
X109513000Y-122721000D01*
X107911000Y-122721000D01*
X107911000Y-121119000D01*
X109566556Y-121119000D01*
X109590942Y-121116598D01*
X109614391Y-121109485D01*
X109636002Y-121097934D01*
X109654944Y-121082388D01*
X109670490Y-121063446D01*
X109682041Y-121041835D01*
X109689154Y-121018386D01*
X109691556Y-120994000D01*
X109691000Y-120988352D01*
X109691000Y-120821107D01*
X109721781Y-120666357D01*
X109782162Y-120520585D01*
X109869824Y-120389389D01*
X109981389Y-120277824D01*
X110112585Y-120190162D01*
X110258357Y-120129781D01*
X110413107Y-120099000D01*
X110570893Y-120099000D01*
X110725643Y-120129781D01*
X110725643Y-120129781D01*
G37*
G36*
X183338855Y-121082140D02*
X183402618Y-121088420D01*
X183484427Y-121113237D01*
X183525333Y-121125645D01*
X183578538Y-121154084D01*
X183638426Y-121186095D01*
X183737553Y-121267447D01*
X183818905Y-121366574D01*
X183818906Y-121366576D01*
X183879355Y-121479667D01*
X183879355Y-121479668D01*
X183916580Y-121602382D01*
X183929149Y-121730000D01*
X183916580Y-121857618D01*
X183891763Y-121939427D01*
X183879355Y-121980333D01*
X183825819Y-122080491D01*
X183818905Y-122093426D01*
X183737553Y-122192553D01*
X183638426Y-122273905D01*
X183638424Y-122273906D01*
X183525333Y-122334355D01*
X183484427Y-122346763D01*
X183402618Y-122371580D01*
X183338855Y-122377860D01*
X183306974Y-122381000D01*
X182693026Y-122381000D01*
X182661145Y-122377860D01*
X182597382Y-122371580D01*
X182515573Y-122346763D01*
X182474667Y-122334355D01*
X182361576Y-122273906D01*
X182361574Y-122273905D01*
X182262447Y-122192553D01*
X182181095Y-122093426D01*
X182174181Y-122080491D01*
X182120645Y-121980333D01*
X182108237Y-121939427D01*
X182083420Y-121857618D01*
X182070851Y-121730000D01*
X182083420Y-121602382D01*
X182120645Y-121479668D01*
X182120645Y-121479667D01*
X182181094Y-121366576D01*
X182181095Y-121366574D01*
X182262447Y-121267447D01*
X182361574Y-121186095D01*
X182421462Y-121154084D01*
X182474667Y-121125645D01*
X182515573Y-121113237D01*
X182597382Y-121088420D01*
X182661145Y-121082140D01*
X182693026Y-121079000D01*
X183306974Y-121079000D01*
X183338855Y-121082140D01*
X183338855Y-121082140D01*
G37*
G36*
X108945643Y-119109781D02*
X109091415Y-119170162D01*
X109222611Y-119257824D01*
X109334176Y-119369389D01*
X109421838Y-119500585D01*
X109482219Y-119646357D01*
X109513000Y-119801107D01*
X109513000Y-119958893D01*
X109482219Y-120113643D01*
X109421838Y-120259415D01*
X109334176Y-120390611D01*
X109222611Y-120502176D01*
X109091415Y-120589838D01*
X108945643Y-120650219D01*
X108790893Y-120681000D01*
X108633107Y-120681000D01*
X108478357Y-120650219D01*
X108332585Y-120589838D01*
X108201389Y-120502176D01*
X108089824Y-120390611D01*
X108002162Y-120259415D01*
X107941781Y-120113643D01*
X107911000Y-119958893D01*
X107911000Y-119801107D01*
X107941781Y-119646357D01*
X108002162Y-119500585D01*
X108089824Y-119369389D01*
X108201389Y-119257824D01*
X108332585Y-119170162D01*
X108478357Y-119109781D01*
X108633107Y-119079000D01*
X108790893Y-119079000D01*
X108945643Y-119109781D01*
X108945643Y-119109781D01*
G37*
G36*
X183338855Y-119082140D02*
X183402618Y-119088420D01*
X183473039Y-119109782D01*
X183525333Y-119125645D01*
X183608619Y-119170163D01*
X183638426Y-119186095D01*
X183737553Y-119267447D01*
X183818905Y-119366574D01*
X183818906Y-119366576D01*
X183879355Y-119479667D01*
X183885700Y-119500584D01*
X183916580Y-119602382D01*
X183929149Y-119730000D01*
X183916580Y-119857618D01*
X183891763Y-119939427D01*
X183879355Y-119980333D01*
X183825819Y-120080491D01*
X183818905Y-120093426D01*
X183737553Y-120192553D01*
X183638426Y-120273905D01*
X183638424Y-120273906D01*
X183525333Y-120334355D01*
X183484427Y-120346763D01*
X183402618Y-120371580D01*
X183338855Y-120377860D01*
X183306974Y-120381000D01*
X182693026Y-120381000D01*
X182661145Y-120377860D01*
X182597382Y-120371580D01*
X182515573Y-120346763D01*
X182474667Y-120334355D01*
X182361576Y-120273906D01*
X182361574Y-120273905D01*
X182262447Y-120192553D01*
X182181095Y-120093426D01*
X182174181Y-120080491D01*
X182120645Y-119980333D01*
X182108237Y-119939427D01*
X182083420Y-119857618D01*
X182070851Y-119730000D01*
X182083420Y-119602382D01*
X182114300Y-119500584D01*
X182120645Y-119479667D01*
X182181094Y-119366576D01*
X182181095Y-119366574D01*
X182262447Y-119267447D01*
X182361574Y-119186095D01*
X182391381Y-119170163D01*
X182474667Y-119125645D01*
X182526961Y-119109782D01*
X182597382Y-119088420D01*
X182661145Y-119082140D01*
X182693026Y-119079000D01*
X183306974Y-119079000D01*
X183338855Y-119082140D01*
X183338855Y-119082140D01*
G37*
G36*
X110725643Y-118089781D02*
X110871415Y-118150162D01*
X111002611Y-118237824D01*
X111114176Y-118349389D01*
X111201838Y-118480585D01*
X111262219Y-118626357D01*
X111293000Y-118781107D01*
X111293000Y-118938893D01*
X111262219Y-119093643D01*
X111201838Y-119239415D01*
X111114176Y-119370611D01*
X111002611Y-119482176D01*
X110871415Y-119569838D01*
X110725643Y-119630219D01*
X110570893Y-119661000D01*
X110413107Y-119661000D01*
X110258357Y-119630219D01*
X110112585Y-119569838D01*
X109981389Y-119482176D01*
X109869824Y-119370611D01*
X109782162Y-119239415D01*
X109721781Y-119093643D01*
X109691000Y-118938893D01*
X109691000Y-118781107D01*
X109721781Y-118626357D01*
X109782162Y-118480585D01*
X109869824Y-118349389D01*
X109981389Y-118237824D01*
X110112585Y-118150162D01*
X110258357Y-118089781D01*
X110413107Y-118059000D01*
X110570893Y-118059000D01*
X110725643Y-118089781D01*
X110725643Y-118089781D01*
G37*
G36*
X108945643Y-117069781D02*
X109091415Y-117130162D01*
X109222611Y-117217824D01*
X109334176Y-117329389D01*
X109421838Y-117460585D01*
X109482219Y-117606357D01*
X109513000Y-117761107D01*
X109513000Y-117918893D01*
X109482219Y-118073643D01*
X109421838Y-118219415D01*
X109334176Y-118350611D01*
X109222611Y-118462176D01*
X109091415Y-118549838D01*
X108945643Y-118610219D01*
X108790893Y-118641000D01*
X108633107Y-118641000D01*
X108478357Y-118610219D01*
X108332585Y-118549838D01*
X108201389Y-118462176D01*
X108089824Y-118350611D01*
X108002162Y-118219415D01*
X107941781Y-118073643D01*
X107911000Y-117918893D01*
X107911000Y-117761107D01*
X107941781Y-117606357D01*
X108002162Y-117460585D01*
X108089824Y-117329389D01*
X108201389Y-117217824D01*
X108332585Y-117130162D01*
X108478357Y-117069781D01*
X108633107Y-117039000D01*
X108790893Y-117039000D01*
X108945643Y-117069781D01*
X108945643Y-117069781D01*
G37*
G36*
X127350144Y-115891828D02*
X127438600Y-115900540D01*
X127627761Y-115957921D01*
X127802092Y-116051103D01*
X127954895Y-116176505D01*
X128080297Y-116329308D01*
X128173479Y-116503639D01*
X128230860Y-116692800D01*
X128250235Y-116889520D01*
X128230860Y-117086240D01*
X128173479Y-117275401D01*
X128080297Y-117449732D01*
X127954895Y-117602535D01*
X127802092Y-117727937D01*
X127627761Y-117821119D01*
X127438600Y-117878500D01*
X127350144Y-117887212D01*
X127291176Y-117893020D01*
X126597584Y-117893020D01*
X126538616Y-117887212D01*
X126450160Y-117878500D01*
X126260999Y-117821119D01*
X126086668Y-117727937D01*
X125933865Y-117602535D01*
X125808463Y-117449732D01*
X125715281Y-117275401D01*
X125657900Y-117086240D01*
X125638525Y-116889520D01*
X125657900Y-116692800D01*
X125715281Y-116503639D01*
X125808463Y-116329308D01*
X125933865Y-116176505D01*
X126086668Y-116051103D01*
X126260999Y-115957921D01*
X126450160Y-115900540D01*
X126538616Y-115891828D01*
X126597584Y-115886020D01*
X127291176Y-115886020D01*
X127350144Y-115891828D01*
X127350144Y-115891828D01*
G37*
G36*
X110725643Y-116049781D02*
X110871415Y-116110162D01*
X111002611Y-116197824D01*
X111114176Y-116309389D01*
X111201838Y-116440585D01*
X111262219Y-116586357D01*
X111293000Y-116741107D01*
X111293000Y-116898893D01*
X111262219Y-117053643D01*
X111201838Y-117199415D01*
X111114176Y-117330611D01*
X111002611Y-117442176D01*
X110871415Y-117529838D01*
X110725643Y-117590219D01*
X110570893Y-117621000D01*
X110413107Y-117621000D01*
X110258357Y-117590219D01*
X110112585Y-117529838D01*
X109981389Y-117442176D01*
X109869824Y-117330611D01*
X109782162Y-117199415D01*
X109721781Y-117053643D01*
X109691000Y-116898893D01*
X109691000Y-116741107D01*
X109721781Y-116586357D01*
X109782162Y-116440585D01*
X109869824Y-116309389D01*
X109981389Y-116197824D01*
X110112585Y-116110162D01*
X110258357Y-116049781D01*
X110413107Y-116019000D01*
X110570893Y-116019000D01*
X110725643Y-116049781D01*
X110725643Y-116049781D01*
G37*
G36*
X108945643Y-115029781D02*
X109091415Y-115090162D01*
X109222611Y-115177824D01*
X109334176Y-115289389D01*
X109421838Y-115420585D01*
X109482219Y-115566357D01*
X109513000Y-115721107D01*
X109513000Y-115878893D01*
X109482219Y-116033643D01*
X109421838Y-116179415D01*
X109334176Y-116310611D01*
X109222611Y-116422176D01*
X109091415Y-116509838D01*
X108945643Y-116570219D01*
X108790893Y-116601000D01*
X108633107Y-116601000D01*
X108478357Y-116570219D01*
X108332585Y-116509838D01*
X108201389Y-116422176D01*
X108089824Y-116310611D01*
X108002162Y-116179415D01*
X107941781Y-116033643D01*
X107911000Y-115878893D01*
X107911000Y-115721107D01*
X107941781Y-115566357D01*
X108002162Y-115420585D01*
X108089824Y-115289389D01*
X108201389Y-115177824D01*
X108332585Y-115090162D01*
X108478357Y-115029781D01*
X108633107Y-114999000D01*
X108790893Y-114999000D01*
X108945643Y-115029781D01*
X108945643Y-115029781D01*
G37*
G36*
X110725643Y-114009781D02*
X110871415Y-114070162D01*
X111002611Y-114157824D01*
X111114176Y-114269389D01*
X111201838Y-114400585D01*
X111262219Y-114546357D01*
X111293000Y-114701107D01*
X111293000Y-114858893D01*
X111262219Y-115013643D01*
X111201838Y-115159415D01*
X111114176Y-115290611D01*
X111002611Y-115402176D01*
X110871415Y-115489838D01*
X110725643Y-115550219D01*
X110570893Y-115581000D01*
X110413107Y-115581000D01*
X110258357Y-115550219D01*
X110112585Y-115489838D01*
X109981389Y-115402176D01*
X109869824Y-115290611D01*
X109782162Y-115159415D01*
X109721781Y-115013643D01*
X109691000Y-114858893D01*
X109691000Y-114701107D01*
X109721781Y-114546357D01*
X109782162Y-114400585D01*
X109869824Y-114269389D01*
X109981389Y-114157824D01*
X110112585Y-114070162D01*
X110258357Y-114009781D01*
X110413107Y-113979000D01*
X110570893Y-113979000D01*
X110725643Y-114009781D01*
X110725643Y-114009781D01*
G37*
G36*
X127350144Y-113351828D02*
X127438600Y-113360540D01*
X127627761Y-113417921D01*
X127802092Y-113511103D01*
X127954895Y-113636505D01*
X128080297Y-113789308D01*
X128173479Y-113963639D01*
X128230860Y-114152800D01*
X128250235Y-114349520D01*
X128230860Y-114546240D01*
X128173479Y-114735401D01*
X128080297Y-114909732D01*
X127954895Y-115062535D01*
X127802092Y-115187937D01*
X127627761Y-115281119D01*
X127438600Y-115338500D01*
X127350144Y-115347212D01*
X127291176Y-115353020D01*
X126597584Y-115353020D01*
X126538616Y-115347212D01*
X126450160Y-115338500D01*
X126260999Y-115281119D01*
X126086668Y-115187937D01*
X125933865Y-115062535D01*
X125808463Y-114909732D01*
X125715281Y-114735401D01*
X125657900Y-114546240D01*
X125638525Y-114349520D01*
X125657900Y-114152800D01*
X125715281Y-113963639D01*
X125808463Y-113789308D01*
X125933865Y-113636505D01*
X126086668Y-113511103D01*
X126260999Y-113417921D01*
X126450160Y-113360540D01*
X126538616Y-113351828D01*
X126597584Y-113346020D01*
X127291176Y-113346020D01*
X127350144Y-113351828D01*
X127350144Y-113351828D01*
G37*
G36*
X183766242Y-113083404D02*
X183803339Y-113094657D01*
X183837520Y-113112927D01*
X183867482Y-113137518D01*
X183892073Y-113167480D01*
X183910343Y-113201661D01*
X183921596Y-113238758D01*
X183926000Y-113283473D01*
X183926000Y-114176527D01*
X183921596Y-114221242D01*
X183910343Y-114258339D01*
X183892073Y-114292520D01*
X183867482Y-114322482D01*
X183837520Y-114347073D01*
X183803339Y-114365343D01*
X183766242Y-114376596D01*
X183721527Y-114381000D01*
X182278473Y-114381000D01*
X182233758Y-114376596D01*
X182196661Y-114365343D01*
X182162480Y-114347073D01*
X182132518Y-114322482D01*
X182107927Y-114292520D01*
X182089657Y-114258339D01*
X182078404Y-114221242D01*
X182074000Y-114176527D01*
X182074000Y-113283473D01*
X182078404Y-113238758D01*
X182089657Y-113201661D01*
X182107927Y-113167480D01*
X182132518Y-113137518D01*
X182162480Y-113112927D01*
X182196661Y-113094657D01*
X182233758Y-113083404D01*
X182278473Y-113079000D01*
X183721527Y-113079000D01*
X183766242Y-113083404D01*
X183766242Y-113083404D01*
G37*
G36*
X106660871Y-110398408D02*
X106965883Y-110524748D01*
X107201839Y-110682409D01*
X107240390Y-110708168D01*
X107473832Y-110941610D01*
X107473834Y-110941613D01*
X107657252Y-111216117D01*
X107783592Y-111521129D01*
X107848000Y-111844928D01*
X107848000Y-112175072D01*
X107783592Y-112498871D01*
X107657252Y-112803883D01*
X107475070Y-113076538D01*
X107473832Y-113078390D01*
X107240390Y-113311832D01*
X107240387Y-113311834D01*
X106965883Y-113495252D01*
X106660871Y-113621592D01*
X106337072Y-113686000D01*
X106006928Y-113686000D01*
X105683129Y-113621592D01*
X105378117Y-113495252D01*
X105103613Y-113311834D01*
X105103610Y-113311832D01*
X104870168Y-113078390D01*
X104868930Y-113076538D01*
X104686748Y-112803883D01*
X104560408Y-112498871D01*
X104496000Y-112175072D01*
X104496000Y-111844928D01*
X104560408Y-111521129D01*
X104686748Y-111216117D01*
X104870166Y-110941613D01*
X104870168Y-110941610D01*
X105103610Y-110708168D01*
X105142161Y-110682409D01*
X105378117Y-110524748D01*
X105683129Y-110398408D01*
X106006928Y-110334000D01*
X106337072Y-110334000D01*
X106660871Y-110398408D01*
X106660871Y-110398408D01*
G37*
G36*
X127995380Y-112813020D02*
X125893380Y-112813020D01*
X125893380Y-110806020D01*
X127995380Y-110806020D01*
X127995380Y-112813020D01*
X127995380Y-112813020D01*
G37*
G36*
X183338855Y-111082140D02*
X183402618Y-111088420D01*
X183484427Y-111113237D01*
X183525333Y-111125645D01*
X183625491Y-111179181D01*
X183638426Y-111186095D01*
X183737553Y-111267447D01*
X183818905Y-111366574D01*
X183818906Y-111366576D01*
X183879355Y-111479667D01*
X183879355Y-111479668D01*
X183916580Y-111602382D01*
X183929149Y-111730000D01*
X183916580Y-111857618D01*
X183891763Y-111939427D01*
X183879355Y-111980333D01*
X183825819Y-112080491D01*
X183818905Y-112093426D01*
X183737553Y-112192553D01*
X183638426Y-112273905D01*
X183638424Y-112273906D01*
X183525333Y-112334355D01*
X183484427Y-112346763D01*
X183402618Y-112371580D01*
X183338855Y-112377860D01*
X183306974Y-112381000D01*
X182693026Y-112381000D01*
X182661145Y-112377860D01*
X182597382Y-112371580D01*
X182515573Y-112346763D01*
X182474667Y-112334355D01*
X182361576Y-112273906D01*
X182361574Y-112273905D01*
X182262447Y-112192553D01*
X182181095Y-112093426D01*
X182174181Y-112080491D01*
X182120645Y-111980333D01*
X182108237Y-111939427D01*
X182083420Y-111857618D01*
X182070851Y-111730000D01*
X182083420Y-111602382D01*
X182120645Y-111479668D01*
X182120645Y-111479667D01*
X182181094Y-111366576D01*
X182181095Y-111366574D01*
X182262447Y-111267447D01*
X182361574Y-111186095D01*
X182374509Y-111179181D01*
X182474667Y-111125645D01*
X182515573Y-111113237D01*
X182597382Y-111088420D01*
X182661145Y-111082140D01*
X182693026Y-111079000D01*
X183306974Y-111079000D01*
X183338855Y-111082140D01*
X183338855Y-111082140D01*
G37*
G36*
X109954527Y-108718736D02*
X110054410Y-108738604D01*
X110336674Y-108855521D01*
X110590705Y-109025259D01*
X110806741Y-109241295D01*
X110976479Y-109495326D01*
X111093396Y-109777590D01*
X111113264Y-109877473D01*
X111153000Y-110077238D01*
X111153000Y-110382762D01*
X111124757Y-110524748D01*
X111093396Y-110682410D01*
X110976479Y-110964674D01*
X110806741Y-111218705D01*
X110590705Y-111434741D01*
X110336674Y-111604479D01*
X110054410Y-111721396D01*
X109954527Y-111741264D01*
X109754762Y-111781000D01*
X109449238Y-111781000D01*
X109249473Y-111741264D01*
X109149590Y-111721396D01*
X108867326Y-111604479D01*
X108613295Y-111434741D01*
X108397259Y-111218705D01*
X108227521Y-110964674D01*
X108110604Y-110682410D01*
X108079243Y-110524748D01*
X108051000Y-110382762D01*
X108051000Y-110077238D01*
X108090736Y-109877473D01*
X108110604Y-109777590D01*
X108227521Y-109495326D01*
X108397259Y-109241295D01*
X108613295Y-109025259D01*
X108867326Y-108855521D01*
X109149590Y-108738604D01*
X109249473Y-108718736D01*
X109449238Y-108679000D01*
X109754762Y-108679000D01*
X109954527Y-108718736D01*
X109954527Y-108718736D01*
G37*
G36*
X183338855Y-109082140D02*
X183402618Y-109088420D01*
X183484427Y-109113237D01*
X183525333Y-109125645D01*
X183625491Y-109179181D01*
X183638426Y-109186095D01*
X183737553Y-109267447D01*
X183818905Y-109366574D01*
X183818906Y-109366576D01*
X183879355Y-109479667D01*
X183891763Y-109520573D01*
X183916580Y-109602382D01*
X183929149Y-109730000D01*
X183916580Y-109857618D01*
X183891763Y-109939427D01*
X183879355Y-109980333D01*
X183827558Y-110077238D01*
X183818905Y-110093426D01*
X183737553Y-110192553D01*
X183638426Y-110273905D01*
X183638424Y-110273906D01*
X183525333Y-110334355D01*
X183484427Y-110346763D01*
X183402618Y-110371580D01*
X183338855Y-110377860D01*
X183306974Y-110381000D01*
X182693026Y-110381000D01*
X182661145Y-110377860D01*
X182597382Y-110371580D01*
X182515573Y-110346763D01*
X182474667Y-110334355D01*
X182361576Y-110273906D01*
X182361574Y-110273905D01*
X182262447Y-110192553D01*
X182181095Y-110093426D01*
X182172442Y-110077238D01*
X182120645Y-109980333D01*
X182108237Y-109939427D01*
X182083420Y-109857618D01*
X182070851Y-109730000D01*
X182083420Y-109602382D01*
X182108237Y-109520573D01*
X182120645Y-109479667D01*
X182181094Y-109366576D01*
X182181095Y-109366574D01*
X182262447Y-109267447D01*
X182361574Y-109186095D01*
X182374509Y-109179181D01*
X182474667Y-109125645D01*
X182515573Y-109113237D01*
X182597382Y-109088420D01*
X182661145Y-109082140D01*
X182693026Y-109079000D01*
X183306974Y-109079000D01*
X183338855Y-109082140D01*
X183338855Y-109082140D01*
G37*
G36*
X183338855Y-107082140D02*
X183402618Y-107088420D01*
X183484427Y-107113237D01*
X183525333Y-107125645D01*
X183625491Y-107179181D01*
X183638426Y-107186095D01*
X183737553Y-107267447D01*
X183818905Y-107366574D01*
X183818906Y-107366576D01*
X183879355Y-107479667D01*
X183879355Y-107479668D01*
X183916580Y-107602382D01*
X183929149Y-107730000D01*
X183916580Y-107857618D01*
X183891763Y-107939427D01*
X183879355Y-107980333D01*
X183825819Y-108080491D01*
X183818905Y-108093426D01*
X183737553Y-108192553D01*
X183638426Y-108273905D01*
X183638424Y-108273906D01*
X183525333Y-108334355D01*
X183484427Y-108346763D01*
X183402618Y-108371580D01*
X183338855Y-108377860D01*
X183306974Y-108381000D01*
X182693026Y-108381000D01*
X182661145Y-108377860D01*
X182597382Y-108371580D01*
X182515573Y-108346763D01*
X182474667Y-108334355D01*
X182361576Y-108273906D01*
X182361574Y-108273905D01*
X182262447Y-108192553D01*
X182181095Y-108093426D01*
X182174181Y-108080491D01*
X182120645Y-107980333D01*
X182108237Y-107939427D01*
X182083420Y-107857618D01*
X182070851Y-107730000D01*
X182083420Y-107602382D01*
X182120645Y-107479668D01*
X182120645Y-107479667D01*
X182181094Y-107366576D01*
X182181095Y-107366574D01*
X182262447Y-107267447D01*
X182361574Y-107186095D01*
X182374509Y-107179181D01*
X182474667Y-107125645D01*
X182515573Y-107113237D01*
X182597382Y-107088420D01*
X182661145Y-107082140D01*
X182693026Y-107079000D01*
X183306974Y-107079000D01*
X183338855Y-107082140D01*
X183338855Y-107082140D01*
G37*
G36*
X114603285Y-105165376D02*
X114603287Y-105165377D01*
X114603288Y-105165377D01*
X114840055Y-105263449D01*
X115053142Y-105405829D01*
X115234351Y-105587038D01*
X115376731Y-105800125D01*
X115474804Y-106036895D01*
X115524800Y-106288241D01*
X115524800Y-106544519D01*
X115474804Y-106795865D01*
X115376731Y-107032635D01*
X115234351Y-107245722D01*
X115053142Y-107426931D01*
X115053139Y-107426933D01*
X114840055Y-107569311D01*
X114603288Y-107667383D01*
X114603287Y-107667383D01*
X114603285Y-107667384D01*
X114351939Y-107717380D01*
X114095661Y-107717380D01*
X113844315Y-107667384D01*
X113844313Y-107667383D01*
X113844312Y-107667383D01*
X113607545Y-107569311D01*
X113394461Y-107426933D01*
X113394458Y-107426931D01*
X113213249Y-107245722D01*
X113070869Y-107032635D01*
X112972796Y-106795865D01*
X112922800Y-106544519D01*
X112922800Y-106288241D01*
X112972796Y-106036895D01*
X113070869Y-105800125D01*
X113213249Y-105587038D01*
X113394458Y-105405829D01*
X113607545Y-105263449D01*
X113844312Y-105165377D01*
X113844313Y-105165377D01*
X113844315Y-105165376D01*
X114095661Y-105115380D01*
X114351939Y-105115380D01*
X114603285Y-105165376D01*
X114603285Y-105165376D01*
G37*
G36*
X106522028Y-104478083D02*
X106676900Y-104542233D01*
X106816281Y-104635365D01*
X106934815Y-104753899D01*
X107027947Y-104893280D01*
X107092097Y-105048152D01*
X107124800Y-105212564D01*
X107124800Y-105380196D01*
X107092097Y-105544608D01*
X107027947Y-105699480D01*
X106934815Y-105838861D01*
X106816281Y-105957395D01*
X106676900Y-106050527D01*
X106522028Y-106114677D01*
X106357616Y-106147380D01*
X106189984Y-106147380D01*
X106025572Y-106114677D01*
X105870700Y-106050527D01*
X105731319Y-105957395D01*
X105612785Y-105838861D01*
X105519653Y-105699480D01*
X105455503Y-105544608D01*
X105422800Y-105380196D01*
X105422800Y-105212564D01*
X105455503Y-105048152D01*
X105519653Y-104893280D01*
X105612785Y-104753899D01*
X105731319Y-104635365D01*
X105870700Y-104542233D01*
X106025572Y-104478083D01*
X106189984Y-104445380D01*
X106357616Y-104445380D01*
X106522028Y-104478083D01*
X106522028Y-104478083D01*
G37*
G36*
X111662671Y-102774788D02*
X111967683Y-102901128D01*
X112179865Y-103042904D01*
X112242190Y-103084548D01*
X112475632Y-103317990D01*
X112475634Y-103317993D01*
X112659052Y-103592497D01*
X112785392Y-103897509D01*
X112849800Y-104221308D01*
X112849800Y-104551452D01*
X112785392Y-104875251D01*
X112659052Y-105180263D01*
X112525461Y-105380196D01*
X112475632Y-105454770D01*
X112242190Y-105688212D01*
X112242187Y-105688214D01*
X111967683Y-105871632D01*
X111662671Y-105997972D01*
X111338872Y-106062380D01*
X111008728Y-106062380D01*
X110684929Y-105997972D01*
X110379917Y-105871632D01*
X110105413Y-105688214D01*
X110105410Y-105688212D01*
X109871968Y-105454770D01*
X109822139Y-105380196D01*
X109688548Y-105180263D01*
X109562208Y-104875251D01*
X109497800Y-104551452D01*
X109497800Y-104221308D01*
X109562208Y-103897509D01*
X109688548Y-103592497D01*
X109871966Y-103317993D01*
X109871968Y-103317990D01*
X110105410Y-103084548D01*
X110167735Y-103042904D01*
X110379917Y-102901128D01*
X110684929Y-102774788D01*
X111008728Y-102710380D01*
X111338872Y-102710380D01*
X111662671Y-102774788D01*
X111662671Y-102774788D01*
G37*
G36*
X120173306Y-102377547D02*
X120281400Y-102399048D01*
X120417164Y-102455283D01*
X120539348Y-102536924D01*
X120643256Y-102640832D01*
X120724897Y-102763016D01*
X120781132Y-102898780D01*
X120809800Y-103042905D01*
X120809800Y-103189855D01*
X120781132Y-103333980D01*
X120724897Y-103469744D01*
X120643256Y-103591928D01*
X120539348Y-103695836D01*
X120417164Y-103777477D01*
X120281400Y-103833712D01*
X120173306Y-103855213D01*
X120137276Y-103862380D01*
X119990324Y-103862380D01*
X119954294Y-103855213D01*
X119846200Y-103833712D01*
X119710436Y-103777477D01*
X119588252Y-103695836D01*
X119484344Y-103591928D01*
X119402703Y-103469744D01*
X119346468Y-103333980D01*
X119317800Y-103189855D01*
X119317800Y-103042905D01*
X119346468Y-102898780D01*
X119402703Y-102763016D01*
X119484344Y-102640832D01*
X119588252Y-102536924D01*
X119710436Y-102455283D01*
X119846200Y-102399048D01*
X119954294Y-102377547D01*
X119990324Y-102370380D01*
X120137276Y-102370380D01*
X120173306Y-102377547D01*
X120173306Y-102377547D01*
G37*
G36*
X106522028Y-101938083D02*
X106676900Y-102002233D01*
X106816281Y-102095365D01*
X106934815Y-102213899D01*
X107027947Y-102353280D01*
X107092097Y-102508152D01*
X107124800Y-102672564D01*
X107124800Y-102840196D01*
X107092097Y-103004608D01*
X107027947Y-103159480D01*
X106934815Y-103298861D01*
X106816281Y-103417395D01*
X106676900Y-103510527D01*
X106522028Y-103574677D01*
X106357616Y-103607380D01*
X106189984Y-103607380D01*
X106025572Y-103574677D01*
X105870700Y-103510527D01*
X105731319Y-103417395D01*
X105612785Y-103298861D01*
X105519653Y-103159480D01*
X105455503Y-103004608D01*
X105422800Y-102840196D01*
X105422800Y-102672564D01*
X105455503Y-102508152D01*
X105519653Y-102353280D01*
X105612785Y-102213899D01*
X105731319Y-102095365D01*
X105870700Y-102002233D01*
X106025572Y-101938083D01*
X106189984Y-101905380D01*
X106357616Y-101905380D01*
X106522028Y-101938083D01*
X106522028Y-101938083D01*
G37*
G36*
X117633306Y-101107547D02*
X117741400Y-101129048D01*
X117877164Y-101185283D01*
X117999348Y-101266924D01*
X118103256Y-101370832D01*
X118184897Y-101493016D01*
X118241132Y-101628780D01*
X118262633Y-101736874D01*
X118269800Y-101772904D01*
X118269800Y-101919856D01*
X118266174Y-101938083D01*
X118241132Y-102063980D01*
X118184897Y-102199744D01*
X118103256Y-102321928D01*
X117999348Y-102425836D01*
X117877164Y-102507477D01*
X117741400Y-102563712D01*
X117633306Y-102585213D01*
X117597276Y-102592380D01*
X117450324Y-102592380D01*
X117414294Y-102585213D01*
X117306200Y-102563712D01*
X117170436Y-102507477D01*
X117048252Y-102425836D01*
X116944344Y-102321928D01*
X116862703Y-102199744D01*
X116806468Y-102063980D01*
X116781426Y-101938083D01*
X116777800Y-101919856D01*
X116777800Y-101772904D01*
X116784967Y-101736874D01*
X116806468Y-101628780D01*
X116862703Y-101493016D01*
X116944344Y-101370832D01*
X117048252Y-101266924D01*
X117170436Y-101185283D01*
X117306200Y-101129048D01*
X117414294Y-101107547D01*
X117450324Y-101100380D01*
X117597276Y-101100380D01*
X117633306Y-101107547D01*
X117633306Y-101107547D01*
G37*
G36*
X186136000Y-101935000D02*
X183434000Y-101935000D01*
X183434000Y-99233000D01*
X186136000Y-99233000D01*
X186136000Y-101935000D01*
X186136000Y-101935000D01*
G37*
G36*
X120173306Y-99837547D02*
X120281400Y-99859048D01*
X120417164Y-99915283D01*
X120539348Y-99996924D01*
X120643256Y-100100832D01*
X120724897Y-100223016D01*
X120781132Y-100358780D01*
X120809800Y-100502905D01*
X120809800Y-100649855D01*
X120781132Y-100793980D01*
X120724897Y-100929744D01*
X120643256Y-101051928D01*
X120539348Y-101155836D01*
X120417164Y-101237477D01*
X120281400Y-101293712D01*
X120173306Y-101315213D01*
X120137276Y-101322380D01*
X119990324Y-101322380D01*
X119954294Y-101315213D01*
X119846200Y-101293712D01*
X119710436Y-101237477D01*
X119588252Y-101155836D01*
X119484344Y-101051928D01*
X119402703Y-100929744D01*
X119346468Y-100793980D01*
X119317800Y-100649855D01*
X119317800Y-100502905D01*
X119346468Y-100358780D01*
X119402703Y-100223016D01*
X119484344Y-100100832D01*
X119588252Y-99996924D01*
X119710436Y-99915283D01*
X119846200Y-99859048D01*
X119954294Y-99837547D01*
X119990324Y-99830380D01*
X120137276Y-99830380D01*
X120173306Y-99837547D01*
X120173306Y-99837547D01*
G37*
G36*
X117633306Y-98567547D02*
X117741400Y-98589048D01*
X117877164Y-98645283D01*
X117999348Y-98726924D01*
X118103256Y-98830832D01*
X118184897Y-98953016D01*
X118241132Y-99088780D01*
X118269800Y-99232905D01*
X118269800Y-99379855D01*
X118241132Y-99523980D01*
X118184897Y-99659744D01*
X118103256Y-99781928D01*
X117999348Y-99885836D01*
X117877164Y-99967477D01*
X117741400Y-100023712D01*
X117633306Y-100045213D01*
X117597276Y-100052380D01*
X117450324Y-100052380D01*
X117414294Y-100045213D01*
X117306200Y-100023712D01*
X117170436Y-99967477D01*
X117048252Y-99885836D01*
X116944344Y-99781928D01*
X116862703Y-99659744D01*
X116806468Y-99523980D01*
X116777800Y-99379855D01*
X116777800Y-99232905D01*
X116806468Y-99088780D01*
X116862703Y-98953016D01*
X116944344Y-98830832D01*
X117048252Y-98726924D01*
X117170436Y-98645283D01*
X117306200Y-98589048D01*
X117414294Y-98567547D01*
X117450324Y-98560380D01*
X117597276Y-98560380D01*
X117633306Y-98567547D01*
X117633306Y-98567547D01*
G37*
G36*
X120173306Y-97297547D02*
X120281400Y-97319048D01*
X120417164Y-97375283D01*
X120539348Y-97456924D01*
X120643256Y-97560832D01*
X120724897Y-97683016D01*
X120781132Y-97818780D01*
X120809800Y-97962905D01*
X120809800Y-98109855D01*
X120781132Y-98253980D01*
X120724897Y-98389744D01*
X120643256Y-98511928D01*
X120539348Y-98615836D01*
X120417164Y-98697477D01*
X120281400Y-98753712D01*
X120173306Y-98775213D01*
X120137276Y-98782380D01*
X119990324Y-98782380D01*
X119954294Y-98775213D01*
X119846200Y-98753712D01*
X119710436Y-98697477D01*
X119588252Y-98615836D01*
X119484344Y-98511928D01*
X119402703Y-98389744D01*
X119346468Y-98253980D01*
X119317800Y-98109855D01*
X119317800Y-97962905D01*
X119346468Y-97818780D01*
X119402703Y-97683016D01*
X119484344Y-97560832D01*
X119588252Y-97456924D01*
X119710436Y-97375283D01*
X119846200Y-97319048D01*
X119954294Y-97297547D01*
X119990324Y-97290380D01*
X120137276Y-97290380D01*
X120173306Y-97297547D01*
X120173306Y-97297547D01*
G37*
G36*
X117633306Y-96027547D02*
X117741400Y-96049048D01*
X117877164Y-96105283D01*
X117999348Y-96186924D01*
X118103256Y-96290832D01*
X118184897Y-96413016D01*
X118241132Y-96548780D01*
X118269800Y-96692905D01*
X118269800Y-96839855D01*
X118241132Y-96983980D01*
X118184897Y-97119744D01*
X118103256Y-97241928D01*
X117999348Y-97345836D01*
X117877164Y-97427477D01*
X117741400Y-97483712D01*
X117633306Y-97505213D01*
X117597276Y-97512380D01*
X117450324Y-97512380D01*
X117414294Y-97505213D01*
X117306200Y-97483712D01*
X117170436Y-97427477D01*
X117048252Y-97345836D01*
X116944344Y-97241928D01*
X116862703Y-97119744D01*
X116806468Y-96983980D01*
X116777800Y-96839855D01*
X116777800Y-96692905D01*
X116806468Y-96548780D01*
X116862703Y-96413016D01*
X116944344Y-96290832D01*
X117048252Y-96186924D01*
X117170436Y-96105283D01*
X117306200Y-96049048D01*
X117414294Y-96027547D01*
X117450324Y-96020380D01*
X117597276Y-96020380D01*
X117633306Y-96027547D01*
X117633306Y-96027547D01*
G37*
G36*
X185044812Y-94258212D02*
X185179072Y-94284918D01*
X185424939Y-94386759D01*
X185598252Y-94502564D01*
X185646215Y-94534612D01*
X185834388Y-94722785D01*
X185834390Y-94722788D01*
X185982241Y-94944061D01*
X186084082Y-95189928D01*
X186136000Y-95450938D01*
X186136000Y-95717062D01*
X186084082Y-95978072D01*
X185982241Y-96223939D01*
X185855903Y-96413016D01*
X185834388Y-96445215D01*
X185646215Y-96633388D01*
X185646212Y-96633390D01*
X185424939Y-96781241D01*
X185179072Y-96883082D01*
X185048567Y-96909041D01*
X184918063Y-96935000D01*
X184651937Y-96935000D01*
X184521433Y-96909041D01*
X184390928Y-96883082D01*
X184145061Y-96781241D01*
X183923788Y-96633390D01*
X183923785Y-96633388D01*
X183735612Y-96445215D01*
X183714097Y-96413016D01*
X183587759Y-96223939D01*
X183485918Y-95978072D01*
X183434000Y-95717062D01*
X183434000Y-95450938D01*
X183485918Y-95189928D01*
X183587759Y-94944061D01*
X183735610Y-94722788D01*
X183735612Y-94722785D01*
X183923785Y-94534612D01*
X183971748Y-94502564D01*
X184145061Y-94386759D01*
X184390928Y-94284918D01*
X184525188Y-94258212D01*
X184651937Y-94233000D01*
X184918063Y-94233000D01*
X185044812Y-94258212D01*
X185044812Y-94258212D01*
G37*
G36*
X120173306Y-94757547D02*
X120281400Y-94779048D01*
X120417164Y-94835283D01*
X120539348Y-94916924D01*
X120643256Y-95020832D01*
X120724897Y-95143016D01*
X120781132Y-95278780D01*
X120809800Y-95422905D01*
X120809800Y-95569855D01*
X120781132Y-95713980D01*
X120724897Y-95849744D01*
X120643256Y-95971928D01*
X120539348Y-96075836D01*
X120417164Y-96157477D01*
X120281400Y-96213712D01*
X120173306Y-96235213D01*
X120137276Y-96242380D01*
X119990324Y-96242380D01*
X119954294Y-96235213D01*
X119846200Y-96213712D01*
X119710436Y-96157477D01*
X119588252Y-96075836D01*
X119484344Y-95971928D01*
X119402703Y-95849744D01*
X119346468Y-95713980D01*
X119317800Y-95569855D01*
X119317800Y-95422905D01*
X119346468Y-95278780D01*
X119402703Y-95143016D01*
X119484344Y-95020832D01*
X119588252Y-94916924D01*
X119710436Y-94835283D01*
X119846200Y-94779048D01*
X119954294Y-94757547D01*
X119990324Y-94750380D01*
X120137276Y-94750380D01*
X120173306Y-94757547D01*
X120173306Y-94757547D01*
G37*
G36*
X106522028Y-93768083D02*
X106676900Y-93832233D01*
X106816281Y-93925365D01*
X106934815Y-94043899D01*
X107027947Y-94183280D01*
X107092097Y-94338152D01*
X107124800Y-94502564D01*
X107124800Y-94670196D01*
X107092097Y-94834608D01*
X107027947Y-94989480D01*
X106934815Y-95128861D01*
X106816281Y-95247395D01*
X106676900Y-95340527D01*
X106522028Y-95404677D01*
X106357616Y-95437380D01*
X106189984Y-95437380D01*
X106025572Y-95404677D01*
X105870700Y-95340527D01*
X105731319Y-95247395D01*
X105612785Y-95128861D01*
X105519653Y-94989480D01*
X105455503Y-94834608D01*
X105422800Y-94670196D01*
X105422800Y-94502564D01*
X105455503Y-94338152D01*
X105519653Y-94183280D01*
X105612785Y-94043899D01*
X105731319Y-93925365D01*
X105870700Y-93832233D01*
X106025572Y-93768083D01*
X106189984Y-93735380D01*
X106357616Y-93735380D01*
X106522028Y-93768083D01*
X106522028Y-93768083D01*
G37*
G36*
X117633306Y-93487547D02*
X117741400Y-93509048D01*
X117877164Y-93565283D01*
X117999348Y-93646924D01*
X118103256Y-93750832D01*
X118184897Y-93873016D01*
X118241132Y-94008780D01*
X118269800Y-94152905D01*
X118269800Y-94299855D01*
X118241132Y-94443980D01*
X118184897Y-94579744D01*
X118103256Y-94701928D01*
X117999348Y-94805836D01*
X117877164Y-94887477D01*
X117741400Y-94943712D01*
X117633306Y-94965213D01*
X117597276Y-94972380D01*
X117450324Y-94972380D01*
X117414294Y-94965213D01*
X117306200Y-94943712D01*
X117170436Y-94887477D01*
X117048252Y-94805836D01*
X116944344Y-94701928D01*
X116862703Y-94579744D01*
X116806468Y-94443980D01*
X116777800Y-94299855D01*
X116777800Y-94152905D01*
X116806468Y-94008780D01*
X116862703Y-93873016D01*
X116944344Y-93750832D01*
X117048252Y-93646924D01*
X117170436Y-93565283D01*
X117306200Y-93509048D01*
X117414294Y-93487547D01*
X117450324Y-93480380D01*
X117597276Y-93480380D01*
X117633306Y-93487547D01*
X117633306Y-93487547D01*
G37*
G36*
X111662671Y-91344788D02*
X111967683Y-91471128D01*
X112225326Y-91643280D01*
X112242190Y-91654548D01*
X112475632Y-91887990D01*
X112475634Y-91887993D01*
X112659052Y-92162497D01*
X112785392Y-92467509D01*
X112849800Y-92791308D01*
X112849800Y-93121452D01*
X112785392Y-93445251D01*
X112659052Y-93750263D01*
X112486316Y-94008780D01*
X112475632Y-94024770D01*
X112242190Y-94258212D01*
X112242187Y-94258214D01*
X111967683Y-94441632D01*
X111743214Y-94534610D01*
X111662671Y-94567972D01*
X111338872Y-94632380D01*
X111008728Y-94632380D01*
X110684929Y-94567972D01*
X110604386Y-94534610D01*
X110379917Y-94441632D01*
X110105413Y-94258214D01*
X110105410Y-94258212D01*
X109871968Y-94024770D01*
X109861284Y-94008780D01*
X109688548Y-93750263D01*
X109562208Y-93445251D01*
X109497800Y-93121452D01*
X109497800Y-92791308D01*
X109562208Y-92467509D01*
X109688548Y-92162497D01*
X109871966Y-91887993D01*
X109871968Y-91887990D01*
X110105410Y-91654548D01*
X110122274Y-91643280D01*
X110379917Y-91471128D01*
X110684929Y-91344788D01*
X111008728Y-91280380D01*
X111338872Y-91280380D01*
X111662671Y-91344788D01*
X111662671Y-91344788D01*
G37*
G36*
X177723861Y-90888498D02*
X177830446Y-90898995D01*
X178012789Y-90954308D01*
X178103961Y-90981965D01*
X178221907Y-91045009D01*
X178356033Y-91116701D01*
X178576976Y-91298024D01*
X178758299Y-91518967D01*
X178821016Y-91636303D01*
X178893035Y-91771039D01*
X178920692Y-91862211D01*
X178976005Y-92044554D01*
X179004020Y-92329000D01*
X178976005Y-92613446D01*
X178922051Y-92791308D01*
X178893035Y-92886961D01*
X178838929Y-92988185D01*
X178758299Y-93139033D01*
X178576976Y-93359976D01*
X178356033Y-93541299D01*
X178311162Y-93565283D01*
X178103961Y-93676035D01*
X178012789Y-93703692D01*
X177830446Y-93759005D01*
X177723861Y-93769502D01*
X177617278Y-93780000D01*
X177474722Y-93780000D01*
X177368139Y-93769503D01*
X177261554Y-93759005D01*
X177079211Y-93703692D01*
X176988039Y-93676035D01*
X176780838Y-93565283D01*
X176735967Y-93541299D01*
X176515024Y-93359976D01*
X176333701Y-93139033D01*
X176253071Y-92988185D01*
X176198965Y-92886961D01*
X176169949Y-92791308D01*
X176115995Y-92613446D01*
X176087980Y-92329000D01*
X176115995Y-92044554D01*
X176171308Y-91862211D01*
X176198965Y-91771039D01*
X176270984Y-91636303D01*
X176333701Y-91518967D01*
X176515024Y-91298024D01*
X176735967Y-91116701D01*
X176870093Y-91045009D01*
X176988039Y-90981965D01*
X177079211Y-90954308D01*
X177261554Y-90898995D01*
X177368139Y-90888497D01*
X177474722Y-90878000D01*
X177617278Y-90878000D01*
X177723861Y-90888498D01*
X177723861Y-90888498D01*
G37*
G36*
X175037000Y-93630000D02*
X172435000Y-93630000D01*
X172435000Y-91028000D01*
X175037000Y-91028000D01*
X175037000Y-93630000D01*
X175037000Y-93630000D01*
G37*
G36*
X148766627Y-90660037D02*
X148879853Y-90694384D01*
X148936467Y-90711557D01*
X149075087Y-90785652D01*
X149092991Y-90795222D01*
X149128729Y-90824552D01*
X149230186Y-90907814D01*
X149291039Y-90981965D01*
X149342778Y-91045009D01*
X149342779Y-91045011D01*
X149426443Y-91201533D01*
X149426443Y-91201534D01*
X149477963Y-91371373D01*
X149491000Y-91503742D01*
X149491000Y-92392258D01*
X149477963Y-92524627D01*
X149458478Y-92588861D01*
X149426443Y-92694467D01*
X149369752Y-92800526D01*
X149342778Y-92850991D01*
X149331547Y-92864676D01*
X149230186Y-92988186D01*
X149092989Y-93100779D01*
X148936466Y-93184443D01*
X148879852Y-93201616D01*
X148766626Y-93235963D01*
X148590000Y-93253359D01*
X148413373Y-93235963D01*
X148300147Y-93201616D01*
X148243533Y-93184443D01*
X148087011Y-93100779D01*
X148087009Y-93100778D01*
X148051271Y-93071448D01*
X147949814Y-92988186D01*
X147837221Y-92850989D01*
X147753557Y-92694466D01*
X147728980Y-92613444D01*
X147702037Y-92524626D01*
X147689000Y-92392257D01*
X147689000Y-91503742D01*
X147702038Y-91371373D01*
X147753558Y-91201534D01*
X147753558Y-91201533D01*
X147837222Y-91045011D01*
X147837223Y-91045009D01*
X147888962Y-90981965D01*
X147949815Y-90907814D01*
X148051272Y-90824552D01*
X148087010Y-90795222D01*
X148104914Y-90785652D01*
X148243534Y-90711557D01*
X148300148Y-90694384D01*
X148413374Y-90660037D01*
X148590000Y-90642641D01*
X148766627Y-90660037D01*
X148766627Y-90660037D01*
G37*
G36*
X165276627Y-90660037D02*
X165389853Y-90694384D01*
X165446467Y-90711557D01*
X165585087Y-90785652D01*
X165602991Y-90795222D01*
X165638729Y-90824552D01*
X165740186Y-90907814D01*
X165801039Y-90981965D01*
X165852778Y-91045009D01*
X165852779Y-91045011D01*
X165936443Y-91201533D01*
X165936443Y-91201534D01*
X165987963Y-91371373D01*
X166001000Y-91503742D01*
X166001000Y-92392258D01*
X165987963Y-92524627D01*
X165968478Y-92588861D01*
X165936443Y-92694467D01*
X165879752Y-92800526D01*
X165852778Y-92850991D01*
X165841547Y-92864676D01*
X165740186Y-92988186D01*
X165602989Y-93100779D01*
X165446466Y-93184443D01*
X165389852Y-93201616D01*
X165276626Y-93235963D01*
X165100000Y-93253359D01*
X164923373Y-93235963D01*
X164810147Y-93201616D01*
X164753533Y-93184443D01*
X164597011Y-93100779D01*
X164597009Y-93100778D01*
X164561271Y-93071448D01*
X164459814Y-92988186D01*
X164347221Y-92850989D01*
X164263557Y-92694466D01*
X164238980Y-92613444D01*
X164212037Y-92524626D01*
X164199000Y-92392257D01*
X164199000Y-91503742D01*
X164212038Y-91371373D01*
X164263558Y-91201534D01*
X164263558Y-91201533D01*
X164347222Y-91045011D01*
X164347223Y-91045009D01*
X164398962Y-90981965D01*
X164459815Y-90907814D01*
X164561272Y-90824552D01*
X164597010Y-90795222D01*
X164614914Y-90785652D01*
X164753534Y-90711557D01*
X164810148Y-90694384D01*
X164923374Y-90660037D01*
X165100000Y-90642641D01*
X165276627Y-90660037D01*
X165276627Y-90660037D01*
G37*
G36*
X162736627Y-90660037D02*
X162849853Y-90694384D01*
X162906467Y-90711557D01*
X163045087Y-90785652D01*
X163062991Y-90795222D01*
X163098729Y-90824552D01*
X163200186Y-90907814D01*
X163261039Y-90981965D01*
X163312778Y-91045009D01*
X163312779Y-91045011D01*
X163396443Y-91201533D01*
X163396443Y-91201534D01*
X163447963Y-91371373D01*
X163461000Y-91503742D01*
X163461000Y-92392258D01*
X163447963Y-92524627D01*
X163428478Y-92588861D01*
X163396443Y-92694467D01*
X163339752Y-92800526D01*
X163312778Y-92850991D01*
X163301547Y-92864676D01*
X163200186Y-92988186D01*
X163062989Y-93100779D01*
X162906466Y-93184443D01*
X162849852Y-93201616D01*
X162736626Y-93235963D01*
X162560000Y-93253359D01*
X162383373Y-93235963D01*
X162270147Y-93201616D01*
X162213533Y-93184443D01*
X162057011Y-93100779D01*
X162057009Y-93100778D01*
X162021271Y-93071448D01*
X161919814Y-92988186D01*
X161807221Y-92850989D01*
X161723557Y-92694466D01*
X161698980Y-92613444D01*
X161672037Y-92524626D01*
X161659000Y-92392257D01*
X161659000Y-91503742D01*
X161672038Y-91371373D01*
X161723558Y-91201534D01*
X161723558Y-91201533D01*
X161807222Y-91045011D01*
X161807223Y-91045009D01*
X161858962Y-90981965D01*
X161919815Y-90907814D01*
X162021272Y-90824552D01*
X162057010Y-90795222D01*
X162074914Y-90785652D01*
X162213534Y-90711557D01*
X162270148Y-90694384D01*
X162383374Y-90660037D01*
X162560000Y-90642641D01*
X162736627Y-90660037D01*
X162736627Y-90660037D01*
G37*
G36*
X146226627Y-90660037D02*
X146339853Y-90694384D01*
X146396467Y-90711557D01*
X146535087Y-90785652D01*
X146552991Y-90795222D01*
X146588729Y-90824552D01*
X146690186Y-90907814D01*
X146751039Y-90981965D01*
X146802778Y-91045009D01*
X146802779Y-91045011D01*
X146886443Y-91201533D01*
X146886443Y-91201534D01*
X146937963Y-91371373D01*
X146951000Y-91503742D01*
X146951000Y-92392258D01*
X146937963Y-92524627D01*
X146918478Y-92588861D01*
X146886443Y-92694467D01*
X146829752Y-92800526D01*
X146802778Y-92850991D01*
X146791547Y-92864676D01*
X146690186Y-92988186D01*
X146552989Y-93100779D01*
X146396466Y-93184443D01*
X146339852Y-93201616D01*
X146226626Y-93235963D01*
X146050000Y-93253359D01*
X145873373Y-93235963D01*
X145760147Y-93201616D01*
X145703533Y-93184443D01*
X145547011Y-93100779D01*
X145547009Y-93100778D01*
X145511271Y-93071448D01*
X145409814Y-92988186D01*
X145297221Y-92850989D01*
X145213557Y-92694466D01*
X145188980Y-92613444D01*
X145162037Y-92524626D01*
X145149000Y-92392257D01*
X145149000Y-91503742D01*
X145162038Y-91371373D01*
X145213558Y-91201534D01*
X145213558Y-91201533D01*
X145297222Y-91045011D01*
X145297223Y-91045009D01*
X145348962Y-90981965D01*
X145409815Y-90907814D01*
X145511272Y-90824552D01*
X145547010Y-90795222D01*
X145564914Y-90785652D01*
X145703534Y-90711557D01*
X145760148Y-90694384D01*
X145873374Y-90660037D01*
X146050000Y-90642641D01*
X146226627Y-90660037D01*
X146226627Y-90660037D01*
G37*
G36*
X152031000Y-93249000D02*
X150229000Y-93249000D01*
X150229000Y-90647000D01*
X152031000Y-90647000D01*
X152031000Y-93249000D01*
X152031000Y-93249000D01*
G37*
G36*
X168541000Y-93249000D02*
X166739000Y-93249000D01*
X166739000Y-90647000D01*
X168541000Y-90647000D01*
X168541000Y-93249000D01*
X168541000Y-93249000D01*
G37*
G36*
X106522028Y-91228083D02*
X106676900Y-91292233D01*
X106816281Y-91385365D01*
X106934815Y-91503899D01*
X107027947Y-91643280D01*
X107092097Y-91798152D01*
X107124800Y-91962564D01*
X107124800Y-92130196D01*
X107092097Y-92294608D01*
X107027947Y-92449480D01*
X106934815Y-92588861D01*
X106816281Y-92707395D01*
X106676900Y-92800527D01*
X106522028Y-92864677D01*
X106357616Y-92897380D01*
X106189984Y-92897380D01*
X106025572Y-92864677D01*
X105870700Y-92800527D01*
X105731319Y-92707395D01*
X105612785Y-92588861D01*
X105519653Y-92449480D01*
X105455503Y-92294608D01*
X105422800Y-92130196D01*
X105422800Y-91962564D01*
X105455503Y-91798152D01*
X105519653Y-91643280D01*
X105612785Y-91503899D01*
X105731319Y-91385365D01*
X105870700Y-91292233D01*
X106025572Y-91228083D01*
X106189984Y-91195380D01*
X106357616Y-91195380D01*
X106522028Y-91228083D01*
X106522028Y-91228083D01*
G37*
G36*
X114603285Y-89675376D02*
X114603287Y-89675377D01*
X114603288Y-89675377D01*
X114840055Y-89773449D01*
X115053142Y-89915829D01*
X115234351Y-90097038D01*
X115376731Y-90310125D01*
X115474804Y-90546895D01*
X115524800Y-90798241D01*
X115524800Y-91054519D01*
X115474804Y-91305865D01*
X115376731Y-91542635D01*
X115234351Y-91755722D01*
X115053142Y-91936931D01*
X115053139Y-91936933D01*
X114840055Y-92079311D01*
X114603288Y-92177383D01*
X114603287Y-92177383D01*
X114603285Y-92177384D01*
X114351939Y-92227380D01*
X114095661Y-92227380D01*
X113844315Y-92177384D01*
X113844313Y-92177383D01*
X113844312Y-92177383D01*
X113607545Y-92079311D01*
X113394461Y-91936933D01*
X113394458Y-91936931D01*
X113213249Y-91755722D01*
X113070869Y-91542635D01*
X112972796Y-91305865D01*
X112922800Y-91054519D01*
X112922800Y-90798241D01*
X112972796Y-90546895D01*
X113070869Y-90310125D01*
X113213249Y-90097038D01*
X113394458Y-89915829D01*
X113607545Y-89773449D01*
X113844312Y-89675377D01*
X113844313Y-89675377D01*
X113844315Y-89675376D01*
X114095661Y-89625380D01*
X114351939Y-89625380D01*
X114603285Y-89675376D01*
X114603285Y-89675376D01*
G37*
G36*
X184285485Y-86851996D02*
X184285487Y-86851997D01*
X184285488Y-86851997D01*
X184522255Y-86950069D01*
X184735342Y-87092449D01*
X184916551Y-87273658D01*
X185058931Y-87486745D01*
X185157004Y-87723515D01*
X185207000Y-87974861D01*
X185207000Y-88231139D01*
X185157004Y-88482485D01*
X185058931Y-88719255D01*
X184916551Y-88932342D01*
X184735342Y-89113551D01*
X184735339Y-89113553D01*
X184522255Y-89255931D01*
X184285488Y-89354003D01*
X184285487Y-89354003D01*
X184285485Y-89354004D01*
X184034139Y-89404000D01*
X183777861Y-89404000D01*
X183526515Y-89354004D01*
X183526513Y-89354003D01*
X183526512Y-89354003D01*
X183289745Y-89255931D01*
X183076661Y-89113553D01*
X183076658Y-89113551D01*
X182895449Y-88932342D01*
X182753069Y-88719255D01*
X182654996Y-88482485D01*
X182605000Y-88231139D01*
X182605000Y-87974861D01*
X182654996Y-87723515D01*
X182753069Y-87486745D01*
X182895449Y-87273658D01*
X183076658Y-87092449D01*
X183289745Y-86950069D01*
X183526512Y-86851997D01*
X183526513Y-86851997D01*
X183526515Y-86851996D01*
X183777861Y-86802000D01*
X184034139Y-86802000D01*
X184285485Y-86851996D01*
X184285485Y-86851996D01*
G37*
G36*
X179185485Y-85651996D02*
X179185487Y-85651997D01*
X179185488Y-85651997D01*
X179422255Y-85750069D01*
X179635342Y-85892449D01*
X179816551Y-86073658D01*
X179958931Y-86286745D01*
X180057004Y-86523515D01*
X180107000Y-86774861D01*
X180107000Y-87031139D01*
X180057004Y-87282485D01*
X179958931Y-87519255D01*
X179816551Y-87732342D01*
X179635342Y-87913551D01*
X179635339Y-87913553D01*
X179422255Y-88055931D01*
X179185488Y-88154003D01*
X179185487Y-88154003D01*
X179185485Y-88154004D01*
X178934139Y-88204000D01*
X178677861Y-88204000D01*
X178426515Y-88154004D01*
X178426513Y-88154003D01*
X178426512Y-88154003D01*
X178189745Y-88055931D01*
X177976661Y-87913553D01*
X177976658Y-87913551D01*
X177795449Y-87732342D01*
X177653069Y-87519255D01*
X177554996Y-87282485D01*
X177505000Y-87031139D01*
X177505000Y-86774861D01*
X177554996Y-86523515D01*
X177653069Y-86286745D01*
X177795449Y-86073658D01*
X177976658Y-85892449D01*
X178189745Y-85750069D01*
X178426512Y-85651997D01*
X178426513Y-85651997D01*
X178426515Y-85651996D01*
X178677861Y-85602000D01*
X178934139Y-85602000D01*
X179185485Y-85651996D01*
X179185485Y-85651996D01*
G37*
G36*
X137472578Y-81207581D02*
X137663847Y-81286807D01*
X137835989Y-81401829D01*
X137982376Y-81548216D01*
X138097398Y-81720358D01*
X138176624Y-81911627D01*
X138217013Y-82114676D01*
X138217013Y-82321708D01*
X138176624Y-82524757D01*
X138097398Y-82716026D01*
X137982376Y-82888168D01*
X137835989Y-83034555D01*
X137663847Y-83149577D01*
X137472578Y-83228803D01*
X137269529Y-83269192D01*
X137062497Y-83269192D01*
X136859448Y-83228803D01*
X136668179Y-83149577D01*
X136496037Y-83034555D01*
X136349650Y-82888168D01*
X136234628Y-82716026D01*
X136155402Y-82524757D01*
X136115013Y-82321708D01*
X136115013Y-82114676D01*
X136155402Y-81911627D01*
X136234628Y-81720358D01*
X136349650Y-81548216D01*
X136496037Y-81401829D01*
X136668179Y-81286807D01*
X136859448Y-81207581D01*
X137062497Y-81167192D01*
X137269529Y-81167192D01*
X137472578Y-81207581D01*
X137472578Y-81207581D01*
G37*
G36*
X152712578Y-81207581D02*
X152903847Y-81286807D01*
X153075989Y-81401829D01*
X153222376Y-81548216D01*
X153337398Y-81720358D01*
X153416624Y-81911627D01*
X153457013Y-82114676D01*
X153457013Y-82321708D01*
X153416624Y-82524757D01*
X153337398Y-82716026D01*
X153222376Y-82888168D01*
X153075989Y-83034555D01*
X152903847Y-83149577D01*
X152712578Y-83228803D01*
X152509529Y-83269192D01*
X152302497Y-83269192D01*
X152099448Y-83228803D01*
X151908179Y-83149577D01*
X151736037Y-83034555D01*
X151589650Y-82888168D01*
X151474628Y-82716026D01*
X151395402Y-82524757D01*
X151355013Y-82321708D01*
X151355013Y-82114676D01*
X151395402Y-81911627D01*
X151474628Y-81720358D01*
X151589650Y-81548216D01*
X151736037Y-81401829D01*
X151908179Y-81286807D01*
X152099448Y-81207581D01*
X152302497Y-81167192D01*
X152509529Y-81167192D01*
X152712578Y-81207581D01*
X152712578Y-81207581D01*
G37*
G36*
X158918473Y-80681802D02*
X159109742Y-80761028D01*
X159281884Y-80876050D01*
X159428271Y-81022437D01*
X159543293Y-81194579D01*
X159622519Y-81385848D01*
X159662908Y-81588897D01*
X159662908Y-81795929D01*
X159622519Y-81998978D01*
X159543293Y-82190247D01*
X159428271Y-82362389D01*
X159281884Y-82508776D01*
X159109742Y-82623798D01*
X158918473Y-82703024D01*
X158715424Y-82743413D01*
X158508392Y-82743413D01*
X158305343Y-82703024D01*
X158114074Y-82623798D01*
X157941932Y-82508776D01*
X157795545Y-82362389D01*
X157680523Y-82190247D01*
X157601297Y-81998978D01*
X157560908Y-81795929D01*
X157560908Y-81588897D01*
X157601297Y-81385848D01*
X157680523Y-81194579D01*
X157795545Y-81022437D01*
X157941932Y-80876050D01*
X158114074Y-80761028D01*
X158305343Y-80681802D01*
X158508392Y-80641413D01*
X158715424Y-80641413D01*
X158918473Y-80681802D01*
X158918473Y-80681802D01*
G37*
G36*
X161458473Y-80681802D02*
X161649742Y-80761028D01*
X161821884Y-80876050D01*
X161968271Y-81022437D01*
X162083293Y-81194579D01*
X162162519Y-81385848D01*
X162202908Y-81588897D01*
X162202908Y-81795929D01*
X162162519Y-81998978D01*
X162083293Y-82190247D01*
X161968271Y-82362389D01*
X161821884Y-82508776D01*
X161649742Y-82623798D01*
X161458473Y-82703024D01*
X161255424Y-82743413D01*
X161048392Y-82743413D01*
X160845343Y-82703024D01*
X160654074Y-82623798D01*
X160481932Y-82508776D01*
X160335545Y-82362389D01*
X160220523Y-82190247D01*
X160141297Y-81998978D01*
X160100908Y-81795929D01*
X160100908Y-81588897D01*
X160141297Y-81385848D01*
X160220523Y-81194579D01*
X160335545Y-81022437D01*
X160481932Y-80876050D01*
X160654074Y-80761028D01*
X160845343Y-80681802D01*
X161048392Y-80641413D01*
X161255424Y-80641413D01*
X161458473Y-80681802D01*
X161458473Y-80681802D01*
G37*
G36*
X184058473Y-80681802D02*
X184249742Y-80761028D01*
X184421884Y-80876050D01*
X184568271Y-81022437D01*
X184683293Y-81194579D01*
X184762519Y-81385848D01*
X184802908Y-81588897D01*
X184802908Y-81795929D01*
X184762519Y-81998978D01*
X184683293Y-82190247D01*
X184568271Y-82362389D01*
X184421884Y-82508776D01*
X184249742Y-82623798D01*
X184058473Y-82703024D01*
X183855424Y-82743413D01*
X183648392Y-82743413D01*
X183445343Y-82703024D01*
X183254074Y-82623798D01*
X183081932Y-82508776D01*
X182935545Y-82362389D01*
X182820523Y-82190247D01*
X182741297Y-81998978D01*
X182700908Y-81795929D01*
X182700908Y-81588897D01*
X182741297Y-81385848D01*
X182820523Y-81194579D01*
X182935545Y-81022437D01*
X183081932Y-80876050D01*
X183254074Y-80761028D01*
X183445343Y-80681802D01*
X183648392Y-80641413D01*
X183855424Y-80641413D01*
X184058473Y-80681802D01*
X184058473Y-80681802D01*
G37*
G36*
X186598473Y-80681802D02*
X186789742Y-80761028D01*
X186961884Y-80876050D01*
X187108271Y-81022437D01*
X187223293Y-81194579D01*
X187302519Y-81385848D01*
X187342908Y-81588897D01*
X187342908Y-81795929D01*
X187302519Y-81998978D01*
X187223293Y-82190247D01*
X187108271Y-82362389D01*
X186961884Y-82508776D01*
X186789742Y-82623798D01*
X186598473Y-82703024D01*
X186395424Y-82743413D01*
X186188392Y-82743413D01*
X185985343Y-82703024D01*
X185794074Y-82623798D01*
X185621932Y-82508776D01*
X185475545Y-82362389D01*
X185360523Y-82190247D01*
X185281297Y-81998978D01*
X185240908Y-81795929D01*
X185240908Y-81588897D01*
X185281297Y-81385848D01*
X185360523Y-81194579D01*
X185475545Y-81022437D01*
X185621932Y-80876050D01*
X185794074Y-80761028D01*
X185985343Y-80681802D01*
X186188392Y-80641413D01*
X186395424Y-80641413D01*
X186598473Y-80681802D01*
X186598473Y-80681802D01*
G37*
G36*
X152712578Y-78667581D02*
X152903847Y-78746807D01*
X153075989Y-78861829D01*
X153222376Y-79008216D01*
X153337398Y-79180358D01*
X153416624Y-79371627D01*
X153457013Y-79574676D01*
X153457013Y-79781708D01*
X153416624Y-79984757D01*
X153337398Y-80176026D01*
X153222376Y-80348168D01*
X153075989Y-80494555D01*
X152903847Y-80609577D01*
X152712578Y-80688803D01*
X152509529Y-80729192D01*
X152302497Y-80729192D01*
X152099448Y-80688803D01*
X151908179Y-80609577D01*
X151736037Y-80494555D01*
X151589650Y-80348168D01*
X151474628Y-80176026D01*
X151395402Y-79984757D01*
X151355013Y-79781708D01*
X151355013Y-79574676D01*
X151395402Y-79371627D01*
X151474628Y-79180358D01*
X151589650Y-79008216D01*
X151736037Y-78861829D01*
X151908179Y-78746807D01*
X152099448Y-78667581D01*
X152302497Y-78627192D01*
X152509529Y-78627192D01*
X152712578Y-78667581D01*
X152712578Y-78667581D01*
G37*
G36*
X137472578Y-78667581D02*
X137663847Y-78746807D01*
X137835989Y-78861829D01*
X137982376Y-79008216D01*
X138097398Y-79180358D01*
X138176624Y-79371627D01*
X138217013Y-79574676D01*
X138217013Y-79781708D01*
X138176624Y-79984757D01*
X138097398Y-80176026D01*
X137982376Y-80348168D01*
X137835989Y-80494555D01*
X137663847Y-80609577D01*
X137472578Y-80688803D01*
X137269529Y-80729192D01*
X137062497Y-80729192D01*
X136859448Y-80688803D01*
X136668179Y-80609577D01*
X136496037Y-80494555D01*
X136349650Y-80348168D01*
X136234628Y-80176026D01*
X136155402Y-79984757D01*
X136115013Y-79781708D01*
X136115013Y-79574676D01*
X136155402Y-79371627D01*
X136234628Y-79180358D01*
X136349650Y-79008216D01*
X136496037Y-78861829D01*
X136668179Y-78746807D01*
X136859448Y-78667581D01*
X137062497Y-78627192D01*
X137269529Y-78627192D01*
X137472578Y-78667581D01*
X137472578Y-78667581D01*
G37*
G36*
X137399656Y-76367973D02*
X137545428Y-76428354D01*
X137676624Y-76516016D01*
X137788189Y-76627581D01*
X137875851Y-76758777D01*
X137936232Y-76904549D01*
X137967013Y-77059299D01*
X137967013Y-77217085D01*
X137936232Y-77371835D01*
X137875851Y-77517607D01*
X137788189Y-77648803D01*
X137676624Y-77760368D01*
X137545428Y-77848030D01*
X137399656Y-77908411D01*
X137244906Y-77939192D01*
X137087120Y-77939192D01*
X136932370Y-77908411D01*
X136786598Y-77848030D01*
X136655402Y-77760368D01*
X136543837Y-77648803D01*
X136456175Y-77517607D01*
X136395794Y-77371835D01*
X136365013Y-77217085D01*
X136365013Y-77059299D01*
X136395794Y-76904549D01*
X136456175Y-76758777D01*
X136543837Y-76627581D01*
X136655402Y-76516016D01*
X136786598Y-76428354D01*
X136932370Y-76367973D01*
X137087120Y-76337192D01*
X137244906Y-76337192D01*
X137399656Y-76367973D01*
X137399656Y-76367973D01*
G37*
G36*
X107892719Y-65007520D02*
X108081880Y-65064901D01*
X108256212Y-65158083D01*
X108409015Y-65283485D01*
X108534417Y-65436288D01*
X108627599Y-65610619D01*
X108684980Y-65799780D01*
X108699500Y-65947206D01*
X108699500Y-66640793D01*
X108684980Y-66788219D01*
X108627599Y-66977381D01*
X108534417Y-67151712D01*
X108409015Y-67304515D01*
X108256212Y-67429917D01*
X108081881Y-67523099D01*
X107892720Y-67580480D01*
X107696000Y-67599855D01*
X107499281Y-67580480D01*
X107310120Y-67523099D01*
X107135789Y-67429917D01*
X106982986Y-67304515D01*
X106857584Y-67151712D01*
X106764402Y-66977381D01*
X106735711Y-66882801D01*
X106707020Y-66788222D01*
X106692500Y-66640796D01*
X106692500Y-65947205D01*
X106698308Y-65888237D01*
X106707020Y-65799781D01*
X106764401Y-65610620D01*
X106857583Y-65436288D01*
X106982985Y-65283485D01*
X107135788Y-65158083D01*
X107310119Y-65064901D01*
X107499280Y-65007520D01*
X107696000Y-64988145D01*
X107892719Y-65007520D01*
X107892719Y-65007520D01*
G37*
G36*
X117036719Y-65007520D02*
X117225880Y-65064901D01*
X117400212Y-65158083D01*
X117553015Y-65283485D01*
X117678417Y-65436288D01*
X117771599Y-65610619D01*
X117828980Y-65799780D01*
X117843500Y-65947206D01*
X117843500Y-66640793D01*
X117828980Y-66788219D01*
X117771599Y-66977381D01*
X117678417Y-67151712D01*
X117553015Y-67304515D01*
X117400212Y-67429917D01*
X117225881Y-67523099D01*
X117036720Y-67580480D01*
X116840000Y-67599855D01*
X116643281Y-67580480D01*
X116454120Y-67523099D01*
X116279789Y-67429917D01*
X116126986Y-67304515D01*
X116001584Y-67151712D01*
X115908402Y-66977381D01*
X115879711Y-66882801D01*
X115851020Y-66788222D01*
X115836500Y-66640796D01*
X115836500Y-65947205D01*
X115842308Y-65888237D01*
X115851020Y-65799781D01*
X115908401Y-65610620D01*
X116001583Y-65436288D01*
X116126985Y-65283485D01*
X116279788Y-65158083D01*
X116454119Y-65064901D01*
X116643280Y-65007520D01*
X116840000Y-64988145D01*
X117036719Y-65007520D01*
X117036719Y-65007520D01*
G37*
G36*
X131514719Y-65007520D02*
X131703880Y-65064901D01*
X131878212Y-65158083D01*
X132031015Y-65283485D01*
X132156417Y-65436288D01*
X132249599Y-65610619D01*
X132306980Y-65799780D01*
X132321500Y-65947206D01*
X132321500Y-66640793D01*
X132306980Y-66788219D01*
X132249599Y-66977381D01*
X132156417Y-67151712D01*
X132031015Y-67304515D01*
X131878212Y-67429917D01*
X131703881Y-67523099D01*
X131514720Y-67580480D01*
X131318000Y-67599855D01*
X131121281Y-67580480D01*
X130932120Y-67523099D01*
X130757789Y-67429917D01*
X130604986Y-67304515D01*
X130479584Y-67151712D01*
X130386402Y-66977381D01*
X130357711Y-66882801D01*
X130329020Y-66788222D01*
X130314500Y-66640796D01*
X130314500Y-65947205D01*
X130320308Y-65888237D01*
X130329020Y-65799781D01*
X130386401Y-65610620D01*
X130479583Y-65436288D01*
X130604985Y-65283485D01*
X130757788Y-65158083D01*
X130932119Y-65064901D01*
X131121280Y-65007520D01*
X131318000Y-64988145D01*
X131514719Y-65007520D01*
X131514719Y-65007520D01*
G37*
G36*
X128974719Y-65007520D02*
X129163880Y-65064901D01*
X129338212Y-65158083D01*
X129491015Y-65283485D01*
X129616417Y-65436288D01*
X129709599Y-65610619D01*
X129766980Y-65799780D01*
X129781500Y-65947206D01*
X129781500Y-66640793D01*
X129766980Y-66788219D01*
X129709599Y-66977381D01*
X129616417Y-67151712D01*
X129491015Y-67304515D01*
X129338212Y-67429917D01*
X129163881Y-67523099D01*
X128974720Y-67580480D01*
X128778000Y-67599855D01*
X128581281Y-67580480D01*
X128392120Y-67523099D01*
X128217789Y-67429917D01*
X128064986Y-67304515D01*
X127939584Y-67151712D01*
X127846402Y-66977381D01*
X127817711Y-66882801D01*
X127789020Y-66788222D01*
X127774500Y-66640796D01*
X127774500Y-65947205D01*
X127780308Y-65888237D01*
X127789020Y-65799781D01*
X127846401Y-65610620D01*
X127939583Y-65436288D01*
X128064985Y-65283485D01*
X128217788Y-65158083D01*
X128392119Y-65064901D01*
X128581280Y-65007520D01*
X128778000Y-64988145D01*
X128974719Y-65007520D01*
X128974719Y-65007520D01*
G37*
G36*
X119576719Y-65007520D02*
X119765880Y-65064901D01*
X119940212Y-65158083D01*
X120093015Y-65283485D01*
X120218417Y-65436288D01*
X120311599Y-65610619D01*
X120368980Y-65799780D01*
X120383500Y-65947206D01*
X120383500Y-66640793D01*
X120368980Y-66788219D01*
X120311599Y-66977381D01*
X120218417Y-67151712D01*
X120093015Y-67304515D01*
X119940212Y-67429917D01*
X119765881Y-67523099D01*
X119576720Y-67580480D01*
X119380000Y-67599855D01*
X119183281Y-67580480D01*
X118994120Y-67523099D01*
X118819789Y-67429917D01*
X118666986Y-67304515D01*
X118541584Y-67151712D01*
X118448402Y-66977381D01*
X118419711Y-66882801D01*
X118391020Y-66788222D01*
X118376500Y-66640796D01*
X118376500Y-65947205D01*
X118382308Y-65888237D01*
X118391020Y-65799781D01*
X118448401Y-65610620D01*
X118541583Y-65436288D01*
X118666985Y-65283485D01*
X118819788Y-65158083D01*
X118994119Y-65064901D01*
X119183280Y-65007520D01*
X119380000Y-64988145D01*
X119576719Y-65007520D01*
X119576719Y-65007520D01*
G37*
G36*
X105352719Y-65007520D02*
X105541880Y-65064901D01*
X105716212Y-65158083D01*
X105869015Y-65283485D01*
X105994417Y-65436288D01*
X106087599Y-65610619D01*
X106144980Y-65799780D01*
X106159500Y-65947206D01*
X106159500Y-66640793D01*
X106144980Y-66788219D01*
X106087599Y-66977381D01*
X105994417Y-67151712D01*
X105869015Y-67304515D01*
X105716212Y-67429917D01*
X105541881Y-67523099D01*
X105352720Y-67580480D01*
X105156000Y-67599855D01*
X104959281Y-67580480D01*
X104770120Y-67523099D01*
X104595789Y-67429917D01*
X104442986Y-67304515D01*
X104317584Y-67151712D01*
X104224402Y-66977381D01*
X104195711Y-66882801D01*
X104167020Y-66788222D01*
X104152500Y-66640796D01*
X104152500Y-65947205D01*
X104158308Y-65888237D01*
X104167020Y-65799781D01*
X104224401Y-65610620D01*
X104317583Y-65436288D01*
X104442985Y-65283485D01*
X104595788Y-65158083D01*
X104770119Y-65064901D01*
X104959280Y-65007520D01*
X105156000Y-64988145D01*
X105352719Y-65007520D01*
X105352719Y-65007520D01*
G37*
G36*
X161458473Y-65441802D02*
X161649742Y-65521028D01*
X161821884Y-65636050D01*
X161968271Y-65782437D01*
X162083293Y-65954579D01*
X162162519Y-66145848D01*
X162202908Y-66348897D01*
X162202908Y-66555929D01*
X162162519Y-66758978D01*
X162083293Y-66950247D01*
X161968271Y-67122389D01*
X161821884Y-67268776D01*
X161649742Y-67383798D01*
X161458473Y-67463024D01*
X161255424Y-67503413D01*
X161048392Y-67503413D01*
X160845343Y-67463024D01*
X160654074Y-67383798D01*
X160481932Y-67268776D01*
X160335545Y-67122389D01*
X160220523Y-66950247D01*
X160141297Y-66758978D01*
X160100908Y-66555929D01*
X160100908Y-66348897D01*
X160141297Y-66145848D01*
X160220523Y-65954579D01*
X160335545Y-65782437D01*
X160481932Y-65636050D01*
X160654074Y-65521028D01*
X160845343Y-65441802D01*
X161048392Y-65401413D01*
X161255424Y-65401413D01*
X161458473Y-65441802D01*
X161458473Y-65441802D01*
G37*
G36*
X186598473Y-65441802D02*
X186789742Y-65521028D01*
X186961884Y-65636050D01*
X187108271Y-65782437D01*
X187223293Y-65954579D01*
X187302519Y-66145848D01*
X187342908Y-66348897D01*
X187342908Y-66555929D01*
X187302519Y-66758978D01*
X187223293Y-66950247D01*
X187108271Y-67122389D01*
X186961884Y-67268776D01*
X186789742Y-67383798D01*
X186598473Y-67463024D01*
X186395424Y-67503413D01*
X186188392Y-67503413D01*
X185985343Y-67463024D01*
X185794074Y-67383798D01*
X185621932Y-67268776D01*
X185475545Y-67122389D01*
X185360523Y-66950247D01*
X185281297Y-66758978D01*
X185240908Y-66555929D01*
X185240908Y-66348897D01*
X185281297Y-66145848D01*
X185360523Y-65954579D01*
X185475545Y-65782437D01*
X185621932Y-65636050D01*
X185794074Y-65521028D01*
X185985343Y-65441802D01*
X186188392Y-65401413D01*
X186395424Y-65401413D01*
X186598473Y-65441802D01*
X186598473Y-65441802D01*
G37*
G36*
X158918473Y-65441802D02*
X159109742Y-65521028D01*
X159281884Y-65636050D01*
X159428271Y-65782437D01*
X159543293Y-65954579D01*
X159622519Y-66145848D01*
X159662908Y-66348897D01*
X159662908Y-66555929D01*
X159622519Y-66758978D01*
X159543293Y-66950247D01*
X159428271Y-67122389D01*
X159281884Y-67268776D01*
X159109742Y-67383798D01*
X158918473Y-67463024D01*
X158715424Y-67503413D01*
X158508392Y-67503413D01*
X158305343Y-67463024D01*
X158114074Y-67383798D01*
X157941932Y-67268776D01*
X157795545Y-67122389D01*
X157680523Y-66950247D01*
X157601297Y-66758978D01*
X157560908Y-66555929D01*
X157560908Y-66348897D01*
X157601297Y-66145848D01*
X157680523Y-65954579D01*
X157795545Y-65782437D01*
X157941932Y-65636050D01*
X158114074Y-65521028D01*
X158305343Y-65441802D01*
X158508392Y-65401413D01*
X158715424Y-65401413D01*
X158918473Y-65441802D01*
X158918473Y-65441802D01*
G37*
G36*
X184058473Y-65441802D02*
X184249742Y-65521028D01*
X184421884Y-65636050D01*
X184568271Y-65782437D01*
X184683293Y-65954579D01*
X184762519Y-66145848D01*
X184802908Y-66348897D01*
X184802908Y-66555929D01*
X184762519Y-66758978D01*
X184683293Y-66950247D01*
X184568271Y-67122389D01*
X184421884Y-67268776D01*
X184249742Y-67383798D01*
X184058473Y-67463024D01*
X183855424Y-67503413D01*
X183648392Y-67503413D01*
X183445343Y-67463024D01*
X183254074Y-67383798D01*
X183081932Y-67268776D01*
X182935545Y-67122389D01*
X182820523Y-66950247D01*
X182741297Y-66758978D01*
X182700908Y-66555929D01*
X182700908Y-66348897D01*
X182741297Y-66145848D01*
X182820523Y-65954579D01*
X182935545Y-65782437D01*
X183081932Y-65636050D01*
X183254074Y-65521028D01*
X183445343Y-65441802D01*
X183648392Y-65401413D01*
X183855424Y-65401413D01*
X184058473Y-65441802D01*
X184058473Y-65441802D01*
G37*
G36*
X115303500Y-67345000D02*
X113296500Y-67345000D01*
X113296500Y-65243000D01*
X115303500Y-65243000D01*
X115303500Y-67345000D01*
X115303500Y-67345000D01*
G37*
G36*
X103619500Y-67345000D02*
X101612500Y-67345000D01*
X101612500Y-65243000D01*
X103619500Y-65243000D01*
X103619500Y-67345000D01*
X103619500Y-67345000D01*
G37*
G36*
X127241500Y-67345000D02*
X125234500Y-67345000D01*
X125234500Y-65243000D01*
X127241500Y-65243000D01*
X127241500Y-67345000D01*
X127241500Y-67345000D01*
G37*
G36*
X163925551Y-65682194D02*
X164071323Y-65742575D01*
X164202519Y-65830237D01*
X164314084Y-65941802D01*
X164401746Y-66072998D01*
X164462127Y-66218770D01*
X164492908Y-66373520D01*
X164492908Y-66531306D01*
X164462127Y-66686056D01*
X164401746Y-66831828D01*
X164314084Y-66963024D01*
X164202519Y-67074589D01*
X164071323Y-67162251D01*
X163925551Y-67222632D01*
X163770801Y-67253413D01*
X163613015Y-67253413D01*
X163458265Y-67222632D01*
X163312493Y-67162251D01*
X163181297Y-67074589D01*
X163069732Y-66963024D01*
X162982070Y-66831828D01*
X162921689Y-66686056D01*
X162890908Y-66531306D01*
X162890908Y-66373520D01*
X162921689Y-66218770D01*
X162982070Y-66072998D01*
X163069732Y-65941802D01*
X163181297Y-65830237D01*
X163312493Y-65742575D01*
X163458265Y-65682194D01*
X163613015Y-65651413D01*
X163770801Y-65651413D01*
X163925551Y-65682194D01*
X163925551Y-65682194D01*
G37*
G36*
X184423000Y-62519000D02*
X180321000Y-62519000D01*
X180321000Y-60417000D01*
X184423000Y-60417000D01*
X184423000Y-62519000D01*
X184423000Y-62519000D01*
G37*
G36*
X163849000Y-62519000D02*
X159747000Y-62519000D01*
X159747000Y-60417000D01*
X163849000Y-60417000D01*
X163849000Y-62519000D01*
X163849000Y-62519000D01*
G37*
G36*
X152712578Y-56067581D02*
X152903847Y-56146807D01*
X153075989Y-56261829D01*
X153222376Y-56408216D01*
X153337398Y-56580358D01*
X153416624Y-56771627D01*
X153457013Y-56974676D01*
X153457013Y-57181708D01*
X153416624Y-57384757D01*
X153337398Y-57576026D01*
X153222376Y-57748168D01*
X153075989Y-57894555D01*
X152903847Y-58009577D01*
X152712578Y-58088803D01*
X152509529Y-58129192D01*
X152302497Y-58129192D01*
X152099448Y-58088803D01*
X151908179Y-58009577D01*
X151736037Y-57894555D01*
X151589650Y-57748168D01*
X151474628Y-57576026D01*
X151395402Y-57384757D01*
X151355013Y-57181708D01*
X151355013Y-56974676D01*
X151395402Y-56771627D01*
X151474628Y-56580358D01*
X151589650Y-56408216D01*
X151736037Y-56261829D01*
X151908179Y-56146807D01*
X152099448Y-56067581D01*
X152302497Y-56027192D01*
X152509529Y-56027192D01*
X152712578Y-56067581D01*
X152712578Y-56067581D01*
G37*
G36*
X137472578Y-56067581D02*
X137663847Y-56146807D01*
X137835989Y-56261829D01*
X137982376Y-56408216D01*
X138097398Y-56580358D01*
X138176624Y-56771627D01*
X138217013Y-56974676D01*
X138217013Y-57181708D01*
X138176624Y-57384757D01*
X138097398Y-57576026D01*
X137982376Y-57748168D01*
X137835989Y-57894555D01*
X137663847Y-58009577D01*
X137472578Y-58088803D01*
X137269529Y-58129192D01*
X137062497Y-58129192D01*
X136859448Y-58088803D01*
X136668179Y-58009577D01*
X136496037Y-57894555D01*
X136349650Y-57748168D01*
X136234628Y-57576026D01*
X136155402Y-57384757D01*
X136115013Y-57181708D01*
X136115013Y-56974676D01*
X136155402Y-56771627D01*
X136234628Y-56580358D01*
X136349650Y-56408216D01*
X136496037Y-56261829D01*
X136668179Y-56146807D01*
X136859448Y-56067581D01*
X137062497Y-56027192D01*
X137269529Y-56027192D01*
X137472578Y-56067581D01*
X137472578Y-56067581D01*
G37*
G36*
X105375256Y-54391298D02*
X105481579Y-54412447D01*
X105782042Y-54536903D01*
X105861353Y-54589897D01*
X106052454Y-54717587D01*
X106282413Y-54947546D01*
X106282415Y-54947549D01*
X106463097Y-55217958D01*
X106584923Y-55512071D01*
X106587553Y-55518422D01*
X106651000Y-55837389D01*
X106651000Y-56162611D01*
X106631264Y-56261829D01*
X106587553Y-56481579D01*
X106546638Y-56580357D01*
X106463098Y-56782040D01*
X106282413Y-57052454D01*
X106052454Y-57282413D01*
X106052451Y-57282415D01*
X105782042Y-57463097D01*
X105481579Y-57587553D01*
X105375256Y-57608702D01*
X105162611Y-57651000D01*
X104837389Y-57651000D01*
X104624744Y-57608702D01*
X104518421Y-57587553D01*
X104217958Y-57463097D01*
X103947549Y-57282415D01*
X103947546Y-57282413D01*
X103717587Y-57052454D01*
X103536902Y-56782040D01*
X103453362Y-56580357D01*
X103412447Y-56481579D01*
X103368736Y-56261829D01*
X103349000Y-56162611D01*
X103349000Y-55837389D01*
X103412447Y-55518422D01*
X103415078Y-55512071D01*
X103536903Y-55217958D01*
X103717585Y-54947549D01*
X103717587Y-54947546D01*
X103947546Y-54717587D01*
X104138647Y-54589897D01*
X104217958Y-54536903D01*
X104518421Y-54412447D01*
X104624744Y-54391298D01*
X104837389Y-54349000D01*
X105162611Y-54349000D01*
X105375256Y-54391298D01*
X105375256Y-54391298D01*
G37*
G36*
X172375256Y-54391298D02*
X172481579Y-54412447D01*
X172782042Y-54536903D01*
X172861353Y-54589897D01*
X173052454Y-54717587D01*
X173282413Y-54947546D01*
X173282415Y-54947549D01*
X173463097Y-55217958D01*
X173584923Y-55512071D01*
X173587553Y-55518422D01*
X173651000Y-55837389D01*
X173651000Y-56162611D01*
X173631264Y-56261829D01*
X173587553Y-56481579D01*
X173546638Y-56580357D01*
X173463098Y-56782040D01*
X173282413Y-57052454D01*
X173052454Y-57282413D01*
X173052451Y-57282415D01*
X172782042Y-57463097D01*
X172481579Y-57587553D01*
X172375256Y-57608702D01*
X172162611Y-57651000D01*
X171837389Y-57651000D01*
X171624744Y-57608702D01*
X171518421Y-57587553D01*
X171217958Y-57463097D01*
X170947549Y-57282415D01*
X170947546Y-57282413D01*
X170717587Y-57052454D01*
X170536902Y-56782040D01*
X170453362Y-56580357D01*
X170412447Y-56481579D01*
X170368736Y-56261829D01*
X170349000Y-56162611D01*
X170349000Y-55837389D01*
X170412447Y-55518422D01*
X170415078Y-55512071D01*
X170536903Y-55217958D01*
X170717585Y-54947549D01*
X170717587Y-54947546D01*
X170947546Y-54717587D01*
X171138647Y-54589897D01*
X171217958Y-54536903D01*
X171518421Y-54412447D01*
X171624744Y-54391298D01*
X171837389Y-54349000D01*
X172162611Y-54349000D01*
X172375256Y-54391298D01*
X172375256Y-54391298D01*
G37*
G36*
X183104510Y-54420041D02*
X183228032Y-54432207D01*
X183426146Y-54492305D01*
X183608729Y-54589897D01*
X183768765Y-54721235D01*
X183900103Y-54881271D01*
X183997695Y-55063854D01*
X184057793Y-55261968D01*
X184078085Y-55468000D01*
X184057793Y-55674032D01*
X183997695Y-55872146D01*
X183900103Y-56054729D01*
X183768765Y-56214765D01*
X183608729Y-56346103D01*
X183426146Y-56443695D01*
X183228032Y-56503793D01*
X183104510Y-56515959D01*
X183073631Y-56519000D01*
X181670369Y-56519000D01*
X181639490Y-56515959D01*
X181515968Y-56503793D01*
X181317854Y-56443695D01*
X181135271Y-56346103D01*
X180975235Y-56214765D01*
X180843897Y-56054729D01*
X180746305Y-55872146D01*
X180686207Y-55674032D01*
X180665915Y-55468000D01*
X180686207Y-55261968D01*
X180746305Y-55063854D01*
X180843897Y-54881271D01*
X180975235Y-54721235D01*
X181135271Y-54589897D01*
X181317854Y-54492305D01*
X181515968Y-54432207D01*
X181639490Y-54420041D01*
X181670369Y-54417000D01*
X183073631Y-54417000D01*
X183104510Y-54420041D01*
X183104510Y-54420041D01*
G37*
G36*
X162530510Y-54420041D02*
X162654032Y-54432207D01*
X162852146Y-54492305D01*
X163034729Y-54589897D01*
X163194765Y-54721235D01*
X163326103Y-54881271D01*
X163423695Y-55063854D01*
X163483793Y-55261968D01*
X163504085Y-55468000D01*
X163483793Y-55674032D01*
X163423695Y-55872146D01*
X163326103Y-56054729D01*
X163194765Y-56214765D01*
X163034729Y-56346103D01*
X162852146Y-56443695D01*
X162654032Y-56503793D01*
X162530510Y-56515959D01*
X162499631Y-56519000D01*
X161096369Y-56519000D01*
X161065490Y-56515959D01*
X160941968Y-56503793D01*
X160743854Y-56443695D01*
X160561271Y-56346103D01*
X160401235Y-56214765D01*
X160269897Y-56054729D01*
X160172305Y-55872146D01*
X160112207Y-55674032D01*
X160091915Y-55468000D01*
X160112207Y-55261968D01*
X160172305Y-55063854D01*
X160269897Y-54881271D01*
X160401235Y-54721235D01*
X160561271Y-54589897D01*
X160743854Y-54492305D01*
X160941968Y-54432207D01*
X161065490Y-54420041D01*
X161096369Y-54417000D01*
X162499631Y-54417000D01*
X162530510Y-54420041D01*
X162530510Y-54420041D01*
G37*
G36*
X130637000Y-56469000D02*
X127935000Y-56469000D01*
X127935000Y-53767000D01*
X130637000Y-53767000D01*
X130637000Y-56469000D01*
X130637000Y-56469000D01*
G37*
G36*
X119549567Y-53792959D02*
X119680072Y-53818918D01*
X119925939Y-53920759D01*
X120104930Y-54040358D01*
X120147215Y-54068612D01*
X120335388Y-54256785D01*
X120335390Y-54256788D01*
X120483241Y-54478061D01*
X120585082Y-54723928D01*
X120585082Y-54723929D01*
X120637000Y-54984937D01*
X120637000Y-55251063D01*
X120616414Y-55354555D01*
X120585082Y-55512072D01*
X120483241Y-55757939D01*
X120406928Y-55872148D01*
X120335388Y-55979215D01*
X120147215Y-56167388D01*
X120147212Y-56167390D01*
X119925939Y-56315241D01*
X119680072Y-56417082D01*
X119549567Y-56443041D01*
X119419063Y-56469000D01*
X119152937Y-56469000D01*
X119022433Y-56443041D01*
X118891928Y-56417082D01*
X118646061Y-56315241D01*
X118424788Y-56167390D01*
X118424785Y-56167388D01*
X118236612Y-55979215D01*
X118165072Y-55872148D01*
X118088759Y-55757939D01*
X117986918Y-55512072D01*
X117955586Y-55354555D01*
X117935000Y-55251063D01*
X117935000Y-54984937D01*
X117986918Y-54723929D01*
X117986918Y-54723928D01*
X118088759Y-54478061D01*
X118236610Y-54256788D01*
X118236612Y-54256785D01*
X118424785Y-54068612D01*
X118467070Y-54040358D01*
X118646061Y-53920759D01*
X118891928Y-53818918D01*
X119022433Y-53792959D01*
X119152937Y-53767000D01*
X119419063Y-53767000D01*
X119549567Y-53792959D01*
X119549567Y-53792959D01*
G37*
G36*
X114549567Y-53792959D02*
X114680072Y-53818918D01*
X114925939Y-53920759D01*
X115104930Y-54040358D01*
X115147215Y-54068612D01*
X115335388Y-54256785D01*
X115335390Y-54256788D01*
X115483241Y-54478061D01*
X115585082Y-54723928D01*
X115585082Y-54723929D01*
X115637000Y-54984937D01*
X115637000Y-55251063D01*
X115616414Y-55354555D01*
X115585082Y-55512072D01*
X115483241Y-55757939D01*
X115406928Y-55872148D01*
X115335388Y-55979215D01*
X115147215Y-56167388D01*
X115147212Y-56167390D01*
X114925939Y-56315241D01*
X114680072Y-56417082D01*
X114549567Y-56443041D01*
X114419063Y-56469000D01*
X114152937Y-56469000D01*
X114022433Y-56443041D01*
X113891928Y-56417082D01*
X113646061Y-56315241D01*
X113424788Y-56167390D01*
X113424785Y-56167388D01*
X113236612Y-55979215D01*
X113165072Y-55872148D01*
X113088759Y-55757939D01*
X112986918Y-55512072D01*
X112955586Y-55354555D01*
X112935000Y-55251063D01*
X112935000Y-54984937D01*
X112986918Y-54723929D01*
X112986918Y-54723928D01*
X113088759Y-54478061D01*
X113236610Y-54256788D01*
X113236612Y-54256785D01*
X113424785Y-54068612D01*
X113467070Y-54040358D01*
X113646061Y-53920759D01*
X113891928Y-53818918D01*
X114022433Y-53792959D01*
X114152937Y-53767000D01*
X114419063Y-53767000D01*
X114549567Y-53792959D01*
X114549567Y-53792959D01*
G37*
G36*
X124549567Y-53792959D02*
X124680072Y-53818918D01*
X124925939Y-53920759D01*
X125104930Y-54040358D01*
X125147215Y-54068612D01*
X125335388Y-54256785D01*
X125335390Y-54256788D01*
X125483241Y-54478061D01*
X125585082Y-54723928D01*
X125585082Y-54723929D01*
X125637000Y-54984937D01*
X125637000Y-55251063D01*
X125616414Y-55354555D01*
X125585082Y-55512072D01*
X125483241Y-55757939D01*
X125406928Y-55872148D01*
X125335388Y-55979215D01*
X125147215Y-56167388D01*
X125147212Y-56167390D01*
X124925939Y-56315241D01*
X124680072Y-56417082D01*
X124549567Y-56443041D01*
X124419063Y-56469000D01*
X124152937Y-56469000D01*
X124022433Y-56443041D01*
X123891928Y-56417082D01*
X123646061Y-56315241D01*
X123424788Y-56167390D01*
X123424785Y-56167388D01*
X123236612Y-55979215D01*
X123165072Y-55872148D01*
X123088759Y-55757939D01*
X122986918Y-55512072D01*
X122955586Y-55354555D01*
X122935000Y-55251063D01*
X122935000Y-54984937D01*
X122986918Y-54723929D01*
X122986918Y-54723928D01*
X123088759Y-54478061D01*
X123236610Y-54256788D01*
X123236612Y-54256785D01*
X123424785Y-54068612D01*
X123467070Y-54040358D01*
X123646061Y-53920759D01*
X123891928Y-53818918D01*
X124022433Y-53792959D01*
X124152937Y-53767000D01*
X124419063Y-53767000D01*
X124549567Y-53792959D01*
X124549567Y-53792959D01*
G37*
G36*
X187078032Y-52682207D02*
X187276146Y-52742305D01*
X187458729Y-52839897D01*
X187618765Y-52971235D01*
X187750103Y-53131271D01*
X187847695Y-53313854D01*
X187907793Y-53511968D01*
X187923000Y-53666370D01*
X187923000Y-55269630D01*
X187907793Y-55424032D01*
X187847695Y-55622146D01*
X187750103Y-55804729D01*
X187723298Y-55837391D01*
X187618768Y-55964762D01*
X187618766Y-55964763D01*
X187618765Y-55964765D01*
X187458729Y-56096103D01*
X187276145Y-56193695D01*
X187078031Y-56253793D01*
X186872000Y-56274085D01*
X186665968Y-56253793D01*
X186467854Y-56193695D01*
X186285271Y-56096103D01*
X186221257Y-56043568D01*
X186125238Y-55964768D01*
X186125237Y-55964766D01*
X186125235Y-55964765D01*
X185993897Y-55804729D01*
X185896305Y-55622145D01*
X185836207Y-55424031D01*
X185821000Y-55269629D01*
X185821000Y-53666369D01*
X185836207Y-53511967D01*
X185896305Y-53313856D01*
X185896307Y-53313852D01*
X185993898Y-53131271D01*
X186125236Y-52971235D01*
X186285272Y-52839897D01*
X186467855Y-52742305D01*
X186665969Y-52682207D01*
X186872000Y-52661915D01*
X187078032Y-52682207D01*
X187078032Y-52682207D01*
G37*
G36*
X157504032Y-52682207D02*
X157702146Y-52742305D01*
X157884729Y-52839897D01*
X158044765Y-52971235D01*
X158176103Y-53131271D01*
X158273695Y-53313854D01*
X158333793Y-53511968D01*
X158349000Y-53666370D01*
X158349000Y-55269630D01*
X158333793Y-55424032D01*
X158273695Y-55622146D01*
X158176103Y-55804729D01*
X158149298Y-55837391D01*
X158044768Y-55964762D01*
X158044766Y-55964763D01*
X158044765Y-55964765D01*
X157884729Y-56096103D01*
X157702145Y-56193695D01*
X157504031Y-56253793D01*
X157298000Y-56274085D01*
X157091968Y-56253793D01*
X156893854Y-56193695D01*
X156711271Y-56096103D01*
X156647257Y-56043568D01*
X156551238Y-55964768D01*
X156551237Y-55964766D01*
X156551235Y-55964765D01*
X156419897Y-55804729D01*
X156322305Y-55622145D01*
X156262207Y-55424031D01*
X156247000Y-55269629D01*
X156247000Y-53666369D01*
X156262207Y-53511967D01*
X156322305Y-53313856D01*
X156322307Y-53313852D01*
X156419898Y-53131271D01*
X156551236Y-52971235D01*
X156711272Y-52839897D01*
X156893855Y-52742305D01*
X157091969Y-52682207D01*
X157298000Y-52661915D01*
X157504032Y-52682207D01*
X157504032Y-52682207D01*
G37*
G36*
X166504032Y-52682207D02*
X166702146Y-52742305D01*
X166884729Y-52839897D01*
X167044765Y-52971235D01*
X167176103Y-53131271D01*
X167273695Y-53313854D01*
X167333793Y-53511968D01*
X167349000Y-53666370D01*
X167349000Y-55269630D01*
X167333793Y-55424032D01*
X167273695Y-55622146D01*
X167176103Y-55804729D01*
X167149298Y-55837391D01*
X167044768Y-55964762D01*
X167044766Y-55964763D01*
X167044765Y-55964765D01*
X166884729Y-56096103D01*
X166702145Y-56193695D01*
X166504031Y-56253793D01*
X166298000Y-56274085D01*
X166091968Y-56253793D01*
X165893854Y-56193695D01*
X165711271Y-56096103D01*
X165647257Y-56043568D01*
X165551238Y-55964768D01*
X165551237Y-55964766D01*
X165551235Y-55964765D01*
X165419897Y-55804729D01*
X165322305Y-55622145D01*
X165262207Y-55424031D01*
X165247000Y-55269629D01*
X165247000Y-53666369D01*
X165262207Y-53511967D01*
X165322305Y-53313856D01*
X165322307Y-53313852D01*
X165419898Y-53131271D01*
X165551236Y-52971235D01*
X165711272Y-52839897D01*
X165893855Y-52742305D01*
X166091969Y-52682207D01*
X166298000Y-52661915D01*
X166504032Y-52682207D01*
X166504032Y-52682207D01*
G37*
G36*
X178078032Y-52682207D02*
X178276146Y-52742305D01*
X178458729Y-52839897D01*
X178618765Y-52971235D01*
X178750103Y-53131271D01*
X178847695Y-53313854D01*
X178907793Y-53511968D01*
X178923000Y-53666370D01*
X178923000Y-55269630D01*
X178907793Y-55424032D01*
X178847695Y-55622146D01*
X178750103Y-55804729D01*
X178723298Y-55837391D01*
X178618768Y-55964762D01*
X178618766Y-55964763D01*
X178618765Y-55964765D01*
X178458729Y-56096103D01*
X178276145Y-56193695D01*
X178078031Y-56253793D01*
X177872000Y-56274085D01*
X177665968Y-56253793D01*
X177467854Y-56193695D01*
X177285271Y-56096103D01*
X177221257Y-56043568D01*
X177125238Y-55964768D01*
X177125237Y-55964766D01*
X177125235Y-55964765D01*
X176993897Y-55804729D01*
X176896305Y-55622145D01*
X176836207Y-55424031D01*
X176821000Y-55269629D01*
X176821000Y-53666369D01*
X176836207Y-53511967D01*
X176896305Y-53313856D01*
X176896307Y-53313852D01*
X176993898Y-53131271D01*
X177125236Y-52971235D01*
X177285272Y-52839897D01*
X177467855Y-52742305D01*
X177665969Y-52682207D01*
X177872000Y-52661915D01*
X178078032Y-52682207D01*
X178078032Y-52682207D01*
G37*
G36*
X152712578Y-53527581D02*
X152903847Y-53606807D01*
X153075989Y-53721829D01*
X153222376Y-53868216D01*
X153337398Y-54040358D01*
X153416624Y-54231627D01*
X153457013Y-54434676D01*
X153457013Y-54641708D01*
X153416624Y-54844757D01*
X153337398Y-55036026D01*
X153222376Y-55208168D01*
X153075989Y-55354555D01*
X152903847Y-55469577D01*
X152712578Y-55548803D01*
X152509529Y-55589192D01*
X152302497Y-55589192D01*
X152099448Y-55548803D01*
X151908179Y-55469577D01*
X151736037Y-55354555D01*
X151589650Y-55208168D01*
X151474628Y-55036026D01*
X151395402Y-54844757D01*
X151355013Y-54641708D01*
X151355013Y-54434676D01*
X151395402Y-54231627D01*
X151474628Y-54040358D01*
X151589650Y-53868216D01*
X151736037Y-53721829D01*
X151908179Y-53606807D01*
X152099448Y-53527581D01*
X152302497Y-53487192D01*
X152509529Y-53487192D01*
X152712578Y-53527581D01*
X152712578Y-53527581D01*
G37*
G36*
X137472578Y-53527581D02*
X137663847Y-53606807D01*
X137835989Y-53721829D01*
X137982376Y-53868216D01*
X138097398Y-54040358D01*
X138176624Y-54231627D01*
X138217013Y-54434676D01*
X138217013Y-54641708D01*
X138176624Y-54844757D01*
X138097398Y-55036026D01*
X137982376Y-55208168D01*
X137835989Y-55354555D01*
X137663847Y-55469577D01*
X137472578Y-55548803D01*
X137269529Y-55589192D01*
X137062497Y-55589192D01*
X136859448Y-55548803D01*
X136668179Y-55469577D01*
X136496037Y-55354555D01*
X136349650Y-55208168D01*
X136234628Y-55036026D01*
X136155402Y-54844757D01*
X136115013Y-54641708D01*
X136115013Y-54434676D01*
X136155402Y-54231627D01*
X136234628Y-54040358D01*
X136349650Y-53868216D01*
X136496037Y-53721829D01*
X136668179Y-53606807D01*
X136859448Y-53527581D01*
X137062497Y-53487192D01*
X137269529Y-53487192D01*
X137472578Y-53527581D01*
X137472578Y-53527581D01*
G37*
G36*
X162046228Y-51649703D02*
X162201100Y-51713853D01*
X162340481Y-51806985D01*
X162459015Y-51925519D01*
X162552147Y-52064900D01*
X162616297Y-52219772D01*
X162649000Y-52384184D01*
X162649000Y-52551816D01*
X162616297Y-52716228D01*
X162552147Y-52871100D01*
X162459015Y-53010481D01*
X162340481Y-53129015D01*
X162201100Y-53222147D01*
X162046228Y-53286297D01*
X161881816Y-53319000D01*
X161714184Y-53319000D01*
X161549772Y-53286297D01*
X161394900Y-53222147D01*
X161255519Y-53129015D01*
X161136985Y-53010481D01*
X161043853Y-52871100D01*
X160979703Y-52716228D01*
X160947000Y-52551816D01*
X160947000Y-52384184D01*
X160979703Y-52219772D01*
X161043853Y-52064900D01*
X161136985Y-51925519D01*
X161255519Y-51806985D01*
X161394900Y-51713853D01*
X161549772Y-51649703D01*
X161714184Y-51617000D01*
X161881816Y-51617000D01*
X162046228Y-51649703D01*
X162046228Y-51649703D01*
G37*
G36*
X182620228Y-51649703D02*
X182775100Y-51713853D01*
X182914481Y-51806985D01*
X183033015Y-51925519D01*
X183126147Y-52064900D01*
X183190297Y-52219772D01*
X183223000Y-52384184D01*
X183223000Y-52551816D01*
X183190297Y-52716228D01*
X183126147Y-52871100D01*
X183033015Y-53010481D01*
X182914481Y-53129015D01*
X182775100Y-53222147D01*
X182620228Y-53286297D01*
X182455816Y-53319000D01*
X182288184Y-53319000D01*
X182123772Y-53286297D01*
X181968900Y-53222147D01*
X181829519Y-53129015D01*
X181710985Y-53010481D01*
X181617853Y-52871100D01*
X181553703Y-52716228D01*
X181521000Y-52551816D01*
X181521000Y-52384184D01*
X181553703Y-52219772D01*
X181617853Y-52064900D01*
X181710985Y-51925519D01*
X181829519Y-51806985D01*
X181968900Y-51713853D01*
X182123772Y-51649703D01*
X182288184Y-51617000D01*
X182455816Y-51617000D01*
X182620228Y-51649703D01*
X182620228Y-51649703D01*
G37*
M02*
