G04 #@! TF.GenerationSoftware,KiCad,Pcbnew,(5.0.1)-rc2*
G04 #@! TF.CreationDate,2018-11-05T02:02:30+01:00*
G04 #@! TF.ProjectId,panel_light_control,70616E656C5F6C696768745F636F6E74,rev?*
G04 #@! TF.SameCoordinates,Original*
G04 #@! TF.FileFunction,Copper,L3,Inr,Plane*
G04 #@! TF.FilePolarity,Positive*
%FSLAX46Y46*%
G04 Gerber Fmt 4.6, Leading zero omitted, Abs format (unit mm)*
G04 Created by KiCad (PCBNEW (5.0.1)-rc2) date 2018/11/05 2:02:30*
%MOMM*%
%LPD*%
G01*
G04 APERTURE LIST*
G04 #@! TA.AperFunction,ViaPad*
%ADD10O,1.200000X1.750000*%
G04 #@! TD*
G04 #@! TA.AperFunction,Conductor*
%ADD11C,0.100000*%
G04 #@! TD*
G04 #@! TA.AperFunction,ViaPad*
%ADD12C,1.200000*%
G04 #@! TD*
G04 #@! TA.AperFunction,ViaPad*
%ADD13O,1.750000X1.200000*%
G04 #@! TD*
G04 #@! TA.AperFunction,ViaPad*
%ADD14O,1.350000X1.350000*%
G04 #@! TD*
G04 #@! TA.AperFunction,ViaPad*
%ADD15R,1.350000X1.350000*%
G04 #@! TD*
G04 #@! TA.AperFunction,ViaPad*
%ADD16O,1.700000X2.500000*%
G04 #@! TD*
G04 #@! TA.AperFunction,ViaPad*
%ADD17R,1.700000X2.500000*%
G04 #@! TD*
G04 #@! TA.AperFunction,ViaPad*
%ADD18O,2.800000X2.800000*%
G04 #@! TD*
G04 #@! TA.AperFunction,ViaPad*
%ADD19R,2.500000X2.500000*%
G04 #@! TD*
G04 #@! TA.AperFunction,ViaPad*
%ADD20C,2.500000*%
G04 #@! TD*
G04 #@! TA.AperFunction,ViaPad*
%ADD21O,1.905000X2.500000*%
G04 #@! TD*
G04 #@! TA.AperFunction,ViaPad*
%ADD22R,1.905000X2.000000*%
G04 #@! TD*
G04 #@! TA.AperFunction,ViaPad*
%ADD23C,3.000000*%
G04 #@! TD*
G04 #@! TA.AperFunction,ViaPad*
%ADD24C,1.500000*%
G04 #@! TD*
G04 #@! TA.AperFunction,ViaPad*
%ADD25R,1.500000X1.500000*%
G04 #@! TD*
G04 #@! TA.AperFunction,ViaPad*
%ADD26R,2.600000X2.600000*%
G04 #@! TD*
G04 #@! TA.AperFunction,ViaPad*
%ADD27C,2.600000*%
G04 #@! TD*
G04 #@! TA.AperFunction,ViaPad*
%ADD28C,3.250000*%
G04 #@! TD*
G04 #@! TA.AperFunction,ViaPad*
%ADD29C,1.600000*%
G04 #@! TD*
G04 #@! TA.AperFunction,ViaPad*
%ADD30C,1.390000*%
G04 #@! TD*
G04 #@! TA.AperFunction,ViaPad*
%ADD31C,2.000000*%
G04 #@! TD*
G04 #@! TA.AperFunction,ViaPad*
%ADD32O,2.500000X1.905000*%
G04 #@! TD*
G04 #@! TA.AperFunction,ViaPad*
%ADD33R,2.000000X1.905000*%
G04 #@! TD*
G04 #@! TA.AperFunction,ViaPad*
%ADD34R,1.600000X1.600000*%
G04 #@! TD*
G04 #@! TA.AperFunction,ViaPad*
%ADD35O,1.600000X1.600000*%
G04 #@! TD*
G04 #@! TA.AperFunction,ViaPad*
%ADD36R,4.000000X2.000000*%
G04 #@! TD*
G04 #@! TA.AperFunction,ViaPad*
%ADD37O,3.300000X2.000000*%
G04 #@! TD*
G04 #@! TA.AperFunction,ViaPad*
%ADD38O,2.000000X3.500000*%
G04 #@! TD*
G04 #@! TA.AperFunction,ViaPad*
%ADD39C,0.900000*%
G04 #@! TD*
G04 #@! TA.AperFunction,ViaPad*
%ADD40C,0.800000*%
G04 #@! TD*
G04 #@! TA.AperFunction,ViaPad*
%ADD41C,0.600000*%
G04 #@! TD*
G04 #@! TA.AperFunction,Conductor*
%ADD42C,1.000000*%
G04 #@! TD*
G04 #@! TA.AperFunction,Conductor*
%ADD43C,1.500000*%
G04 #@! TD*
G04 #@! TA.AperFunction,Conductor*
%ADD44C,0.300000*%
G04 #@! TD*
G04 #@! TA.AperFunction,Conductor*
%ADD45C,0.200000*%
G04 #@! TD*
G04 #@! TA.AperFunction,Conductor*
%ADD46C,0.254000*%
G04 #@! TD*
G04 APERTURE END LIST*
D10*
G04 #@! TO.N,+5V*
G04 #@! TO.C,SPI0*
X172000000Y-143000000D03*
G04 #@! TO.N,+3.3V*
X170000000Y-143000000D03*
G04 #@! TO.N,GND*
X168000000Y-143000000D03*
G04 #@! TO.N,I2S_WS*
X166000000Y-143000000D03*
G04 #@! TO.N,I2S_MCK*
X164000000Y-143000000D03*
G04 #@! TO.N,SPI0_CS1*
X162000000Y-143000000D03*
G04 #@! TO.N,SPI0_CS0*
X160000000Y-143000000D03*
G04 #@! TO.N,SPI0_SCK*
X158000000Y-143000000D03*
G04 #@! TO.N,SPI0_MISO*
X156000000Y-143000000D03*
D11*
G04 #@! TO.N,SPI0_MOSI*
G36*
X154374505Y-142126204D02*
X154398773Y-142129804D01*
X154422572Y-142135765D01*
X154445671Y-142144030D01*
X154467850Y-142154520D01*
X154488893Y-142167132D01*
X154508599Y-142181747D01*
X154526777Y-142198223D01*
X154543253Y-142216401D01*
X154557868Y-142236107D01*
X154570480Y-142257150D01*
X154580970Y-142279329D01*
X154589235Y-142302428D01*
X154595196Y-142326227D01*
X154598796Y-142350495D01*
X154600000Y-142374999D01*
X154600000Y-143625001D01*
X154598796Y-143649505D01*
X154595196Y-143673773D01*
X154589235Y-143697572D01*
X154580970Y-143720671D01*
X154570480Y-143742850D01*
X154557868Y-143763893D01*
X154543253Y-143783599D01*
X154526777Y-143801777D01*
X154508599Y-143818253D01*
X154488893Y-143832868D01*
X154467850Y-143845480D01*
X154445671Y-143855970D01*
X154422572Y-143864235D01*
X154398773Y-143870196D01*
X154374505Y-143873796D01*
X154350001Y-143875000D01*
X153649999Y-143875000D01*
X153625495Y-143873796D01*
X153601227Y-143870196D01*
X153577428Y-143864235D01*
X153554329Y-143855970D01*
X153532150Y-143845480D01*
X153511107Y-143832868D01*
X153491401Y-143818253D01*
X153473223Y-143801777D01*
X153456747Y-143783599D01*
X153442132Y-143763893D01*
X153429520Y-143742850D01*
X153419030Y-143720671D01*
X153410765Y-143697572D01*
X153404804Y-143673773D01*
X153401204Y-143649505D01*
X153400000Y-143625001D01*
X153400000Y-142374999D01*
X153401204Y-142350495D01*
X153404804Y-142326227D01*
X153410765Y-142302428D01*
X153419030Y-142279329D01*
X153429520Y-142257150D01*
X153442132Y-142236107D01*
X153456747Y-142216401D01*
X153473223Y-142198223D01*
X153491401Y-142181747D01*
X153511107Y-142167132D01*
X153532150Y-142154520D01*
X153554329Y-142144030D01*
X153577428Y-142135765D01*
X153601227Y-142129804D01*
X153625495Y-142126204D01*
X153649999Y-142125000D01*
X154350001Y-142125000D01*
X154374505Y-142126204D01*
X154374505Y-142126204D01*
G37*
D12*
X154000000Y-143000000D03*
G04 #@! TD*
D10*
G04 #@! TO.N,+3.3V*
G04 #@! TO.C,SPI1*
X135825000Y-143002000D03*
G04 #@! TO.N,GND*
X133825000Y-143002000D03*
G04 #@! TO.N,SPI1_CS1*
X131825000Y-143002000D03*
G04 #@! TO.N,SPI1_CS0*
X129825000Y-143002000D03*
G04 #@! TO.N,SPI1_SCK*
X127825000Y-143002000D03*
G04 #@! TO.N,SPI1_MISO*
X125825000Y-143002000D03*
D11*
G04 #@! TO.N,SPI1_MOSI*
G36*
X124199505Y-142128204D02*
X124223773Y-142131804D01*
X124247572Y-142137765D01*
X124270671Y-142146030D01*
X124292850Y-142156520D01*
X124313893Y-142169132D01*
X124333599Y-142183747D01*
X124351777Y-142200223D01*
X124368253Y-142218401D01*
X124382868Y-142238107D01*
X124395480Y-142259150D01*
X124405970Y-142281329D01*
X124414235Y-142304428D01*
X124420196Y-142328227D01*
X124423796Y-142352495D01*
X124425000Y-142376999D01*
X124425000Y-143627001D01*
X124423796Y-143651505D01*
X124420196Y-143675773D01*
X124414235Y-143699572D01*
X124405970Y-143722671D01*
X124395480Y-143744850D01*
X124382868Y-143765893D01*
X124368253Y-143785599D01*
X124351777Y-143803777D01*
X124333599Y-143820253D01*
X124313893Y-143834868D01*
X124292850Y-143847480D01*
X124270671Y-143857970D01*
X124247572Y-143866235D01*
X124223773Y-143872196D01*
X124199505Y-143875796D01*
X124175001Y-143877000D01*
X123474999Y-143877000D01*
X123450495Y-143875796D01*
X123426227Y-143872196D01*
X123402428Y-143866235D01*
X123379329Y-143857970D01*
X123357150Y-143847480D01*
X123336107Y-143834868D01*
X123316401Y-143820253D01*
X123298223Y-143803777D01*
X123281747Y-143785599D01*
X123267132Y-143765893D01*
X123254520Y-143744850D01*
X123244030Y-143722671D01*
X123235765Y-143699572D01*
X123229804Y-143675773D01*
X123226204Y-143651505D01*
X123225000Y-143627001D01*
X123225000Y-142376999D01*
X123226204Y-142352495D01*
X123229804Y-142328227D01*
X123235765Y-142304428D01*
X123244030Y-142281329D01*
X123254520Y-142259150D01*
X123267132Y-142238107D01*
X123281747Y-142218401D01*
X123298223Y-142200223D01*
X123316401Y-142183747D01*
X123336107Y-142169132D01*
X123357150Y-142156520D01*
X123379329Y-142146030D01*
X123402428Y-142137765D01*
X123426227Y-142131804D01*
X123450495Y-142128204D01*
X123474999Y-142127000D01*
X124175001Y-142127000D01*
X124199505Y-142128204D01*
X124199505Y-142128204D01*
G37*
D12*
X123825000Y-143002000D03*
G04 #@! TD*
D13*
G04 #@! TO.N,+3.3V*
G04 #@! TO.C,JTAG1*
X183007000Y-135447000D03*
G04 #@! TO.N,GND*
X183007000Y-137447000D03*
G04 #@! TO.N,JTRST*
X183007000Y-139447000D03*
G04 #@! TO.N,JTDO*
X183007000Y-141447000D03*
G04 #@! TO.N,JTDI*
X183007000Y-143447000D03*
G04 #@! TO.N,JTCK*
X183007000Y-145447000D03*
D11*
G04 #@! TO.N,JTMS*
G36*
X183656505Y-146848204D02*
X183680773Y-146851804D01*
X183704572Y-146857765D01*
X183727671Y-146866030D01*
X183749850Y-146876520D01*
X183770893Y-146889132D01*
X183790599Y-146903747D01*
X183808777Y-146920223D01*
X183825253Y-146938401D01*
X183839868Y-146958107D01*
X183852480Y-146979150D01*
X183862970Y-147001329D01*
X183871235Y-147024428D01*
X183877196Y-147048227D01*
X183880796Y-147072495D01*
X183882000Y-147096999D01*
X183882000Y-147797001D01*
X183880796Y-147821505D01*
X183877196Y-147845773D01*
X183871235Y-147869572D01*
X183862970Y-147892671D01*
X183852480Y-147914850D01*
X183839868Y-147935893D01*
X183825253Y-147955599D01*
X183808777Y-147973777D01*
X183790599Y-147990253D01*
X183770893Y-148004868D01*
X183749850Y-148017480D01*
X183727671Y-148027970D01*
X183704572Y-148036235D01*
X183680773Y-148042196D01*
X183656505Y-148045796D01*
X183632001Y-148047000D01*
X182381999Y-148047000D01*
X182357495Y-148045796D01*
X182333227Y-148042196D01*
X182309428Y-148036235D01*
X182286329Y-148027970D01*
X182264150Y-148017480D01*
X182243107Y-148004868D01*
X182223401Y-147990253D01*
X182205223Y-147973777D01*
X182188747Y-147955599D01*
X182174132Y-147935893D01*
X182161520Y-147914850D01*
X182151030Y-147892671D01*
X182142765Y-147869572D01*
X182136804Y-147845773D01*
X182133204Y-147821505D01*
X182132000Y-147797001D01*
X182132000Y-147096999D01*
X182133204Y-147072495D01*
X182136804Y-147048227D01*
X182142765Y-147024428D01*
X182151030Y-147001329D01*
X182161520Y-146979150D01*
X182174132Y-146958107D01*
X182188747Y-146938401D01*
X182205223Y-146920223D01*
X182223401Y-146903747D01*
X182243107Y-146889132D01*
X182264150Y-146876520D01*
X182286329Y-146866030D01*
X182309428Y-146857765D01*
X182333227Y-146851804D01*
X182357495Y-146848204D01*
X182381999Y-146847000D01*
X183632001Y-146847000D01*
X183656505Y-146848204D01*
X183656505Y-146848204D01*
G37*
D12*
X183007000Y-147447000D03*
G04 #@! TD*
D14*
G04 #@! TO.N,Net-(J11-Pad2)*
G04 #@! TO.C,TERM1*
X118618000Y-142780000D03*
D15*
G04 #@! TO.N,Net-(R30-Pad2)*
X118618000Y-144780000D03*
G04 #@! TD*
D16*
G04 #@! TO.N,+3.3V*
G04 #@! TO.C,PS33*
X146050000Y-91948000D03*
G04 #@! TO.N,GND*
X148590000Y-91948000D03*
D17*
G04 #@! TO.N,/12V_FLT*
X151130000Y-91948000D03*
G04 #@! TD*
D18*
G04 #@! TO.N,GND*
G04 #@! TO.C,D12*
X177546000Y-92329000D03*
D19*
G04 #@! TO.N,+24V*
X173736000Y-92329000D03*
G04 #@! TD*
D20*
G04 #@! TO.N,/VIN*
G04 #@! TO.C,F1*
X183906000Y-88103000D03*
G04 #@! TO.N,+24V*
X178806000Y-86903000D03*
G04 #@! TD*
D21*
G04 #@! TO.N,Net-(Q1-Pad3)*
G04 #@! TO.C,Q1*
X131318000Y-66294000D03*
G04 #@! TO.N,LED_R*
X128778000Y-66294000D03*
D22*
G04 #@! TO.N,Net-(Q1-Pad1)*
X126238000Y-66294000D03*
G04 #@! TD*
D23*
G04 #@! TO.N,GND*
G04 #@! TO.C,J2*
X109602000Y-126490000D03*
X109602000Y-110230000D03*
D24*
G04 #@! TO.N,Net-(J2-Pad8)*
X110492000Y-114780000D03*
G04 #@! TO.N,Net-(J2-Pad6)*
X110492000Y-116820000D03*
G04 #@! TO.N,Net-(J2-Pad4)*
X110492000Y-118860000D03*
G04 #@! TO.N,Net-(J11-Pad2)*
X110492000Y-120900000D03*
G04 #@! TO.N,Net-(J2-Pad7)*
X108712000Y-115800000D03*
G04 #@! TO.N,Net-(J2-Pad5)*
X108712000Y-117840000D03*
G04 #@! TO.N,GND*
X108712000Y-119880000D03*
D25*
G04 #@! TO.N,Net-(J11-Pad1)*
X108712000Y-121920000D03*
G04 #@! TD*
D21*
G04 #@! TO.N,Net-(Q3-Pad3)*
G04 #@! TO.C,Q3*
X107696000Y-66294000D03*
G04 #@! TO.N,LED_B*
X105156000Y-66294000D03*
D22*
G04 #@! TO.N,Net-(Q3-Pad1)*
X102616000Y-66294000D03*
G04 #@! TD*
D26*
G04 #@! TO.N,+12V*
G04 #@! TO.C,J6*
X129286000Y-55118000D03*
D27*
G04 #@! TO.N,LED_R*
X124286000Y-55118000D03*
G04 #@! TO.N,LED_G*
X119286000Y-55118000D03*
G04 #@! TO.N,LED_B*
X114286000Y-55118000D03*
G04 #@! TD*
D20*
G04 #@! TO.N,GND*
G04 #@! TO.C,J13*
X114223800Y-90926380D03*
X114223800Y-106416380D03*
D28*
G04 #@! TO.N,N/C*
X111173800Y-104386380D03*
X111173800Y-92956380D03*
D29*
G04 #@! TO.N,LED_YLW-*
X106273800Y-105296380D03*
G04 #@! TO.N,GND*
X106273800Y-102756380D03*
X106273800Y-94586380D03*
G04 #@! TO.N,LED_GRN-*
X106273800Y-92046380D03*
D30*
G04 #@! TO.N,GND*
X120063800Y-103116380D03*
G04 #@! TO.N,Net-(J13-Pad7)*
X117523800Y-101846380D03*
G04 #@! TO.N,RX_N*
X120063800Y-100576380D03*
G04 #@! TO.N,PYH_VDDA*
X117523800Y-99306380D03*
X120063800Y-98036380D03*
G04 #@! TO.N,RX_P*
X117523800Y-96766380D03*
G04 #@! TO.N,TX_N*
X120063800Y-95496380D03*
G04 #@! TO.N,TX_P*
X117523800Y-94226380D03*
G04 #@! TD*
D31*
G04 #@! TO.N,Panel_W+*
G04 #@! TO.C,PS1*
X137166013Y-54538192D03*
X137166013Y-57078192D03*
G04 #@! TO.N,Panel_W-*
X152406013Y-54538192D03*
X152406013Y-57078192D03*
D24*
G04 #@! TO.N,Panel_D1*
X137166013Y-77138192D03*
D31*
G04 #@! TO.N,+24V*
X137166013Y-79678192D03*
X137166013Y-82218192D03*
G04 #@! TO.N,GND*
X152406013Y-79678192D03*
X152406013Y-82218192D03*
G04 #@! TD*
G04 #@! TO.N,GND*
G04 #@! TO.C,PS2*
X158611908Y-81692413D03*
X161151908Y-81692413D03*
G04 #@! TO.N,+24V*
X158611908Y-66452413D03*
X161151908Y-66452413D03*
D24*
G04 #@! TO.N,Panel_D2*
X163691908Y-66452413D03*
D31*
G04 #@! TO.N,Panel_Y-*
X183751908Y-81692413D03*
X186291908Y-81692413D03*
G04 #@! TO.N,Panel_Y+*
X183751908Y-66452413D03*
X186291908Y-66452413D03*
G04 #@! TD*
D13*
G04 #@! TO.N,I2C_SCL*
G04 #@! TO.C,I2C1*
X183000000Y-107730000D03*
G04 #@! TO.N,I2C_SDA*
X183000000Y-109730000D03*
G04 #@! TO.N,GND*
X183000000Y-111730000D03*
D11*
G04 #@! TO.N,+3.3V*
G36*
X183649505Y-113131204D02*
X183673773Y-113134804D01*
X183697572Y-113140765D01*
X183720671Y-113149030D01*
X183742850Y-113159520D01*
X183763893Y-113172132D01*
X183783599Y-113186747D01*
X183801777Y-113203223D01*
X183818253Y-113221401D01*
X183832868Y-113241107D01*
X183845480Y-113262150D01*
X183855970Y-113284329D01*
X183864235Y-113307428D01*
X183870196Y-113331227D01*
X183873796Y-113355495D01*
X183875000Y-113379999D01*
X183875000Y-114080001D01*
X183873796Y-114104505D01*
X183870196Y-114128773D01*
X183864235Y-114152572D01*
X183855970Y-114175671D01*
X183845480Y-114197850D01*
X183832868Y-114218893D01*
X183818253Y-114238599D01*
X183801777Y-114256777D01*
X183783599Y-114273253D01*
X183763893Y-114287868D01*
X183742850Y-114300480D01*
X183720671Y-114310970D01*
X183697572Y-114319235D01*
X183673773Y-114325196D01*
X183649505Y-114328796D01*
X183625001Y-114330000D01*
X182374999Y-114330000D01*
X182350495Y-114328796D01*
X182326227Y-114325196D01*
X182302428Y-114319235D01*
X182279329Y-114310970D01*
X182257150Y-114300480D01*
X182236107Y-114287868D01*
X182216401Y-114273253D01*
X182198223Y-114256777D01*
X182181747Y-114238599D01*
X182167132Y-114218893D01*
X182154520Y-114197850D01*
X182144030Y-114175671D01*
X182135765Y-114152572D01*
X182129804Y-114128773D01*
X182126204Y-114104505D01*
X182125000Y-114080001D01*
X182125000Y-113379999D01*
X182126204Y-113355495D01*
X182129804Y-113331227D01*
X182135765Y-113307428D01*
X182144030Y-113284329D01*
X182154520Y-113262150D01*
X182167132Y-113241107D01*
X182181747Y-113221401D01*
X182198223Y-113203223D01*
X182216401Y-113186747D01*
X182236107Y-113172132D01*
X182257150Y-113159520D01*
X182279329Y-113149030D01*
X182302428Y-113140765D01*
X182326227Y-113134804D01*
X182350495Y-113131204D01*
X182374999Y-113130000D01*
X183625001Y-113130000D01*
X183649505Y-113131204D01*
X183649505Y-113131204D01*
G37*
D12*
X183000000Y-113730000D03*
G04 #@! TD*
D13*
G04 #@! TO.N,GND*
G04 #@! TO.C,DBG1*
X183000000Y-119730000D03*
G04 #@! TO.N,DBG_RX*
X183000000Y-121730000D03*
G04 #@! TO.N,DBG_TX*
X183000000Y-123730000D03*
G04 #@! TO.N,DBG_RTS*
X183000000Y-125730000D03*
G04 #@! TO.N,DBG_CTS*
X183000000Y-127730000D03*
D11*
G04 #@! TO.N,DBG_CK*
G36*
X183649505Y-129131204D02*
X183673773Y-129134804D01*
X183697572Y-129140765D01*
X183720671Y-129149030D01*
X183742850Y-129159520D01*
X183763893Y-129172132D01*
X183783599Y-129186747D01*
X183801777Y-129203223D01*
X183818253Y-129221401D01*
X183832868Y-129241107D01*
X183845480Y-129262150D01*
X183855970Y-129284329D01*
X183864235Y-129307428D01*
X183870196Y-129331227D01*
X183873796Y-129355495D01*
X183875000Y-129379999D01*
X183875000Y-130080001D01*
X183873796Y-130104505D01*
X183870196Y-130128773D01*
X183864235Y-130152572D01*
X183855970Y-130175671D01*
X183845480Y-130197850D01*
X183832868Y-130218893D01*
X183818253Y-130238599D01*
X183801777Y-130256777D01*
X183783599Y-130273253D01*
X183763893Y-130287868D01*
X183742850Y-130300480D01*
X183720671Y-130310970D01*
X183697572Y-130319235D01*
X183673773Y-130325196D01*
X183649505Y-130328796D01*
X183625001Y-130330000D01*
X182374999Y-130330000D01*
X182350495Y-130328796D01*
X182326227Y-130325196D01*
X182302428Y-130319235D01*
X182279329Y-130310970D01*
X182257150Y-130300480D01*
X182236107Y-130287868D01*
X182216401Y-130273253D01*
X182198223Y-130256777D01*
X182181747Y-130238599D01*
X182167132Y-130218893D01*
X182154520Y-130197850D01*
X182144030Y-130175671D01*
X182135765Y-130152572D01*
X182129804Y-130128773D01*
X182126204Y-130104505D01*
X182125000Y-130080001D01*
X182125000Y-129379999D01*
X182126204Y-129355495D01*
X182129804Y-129331227D01*
X182135765Y-129307428D01*
X182144030Y-129284329D01*
X182154520Y-129262150D01*
X182167132Y-129241107D01*
X182181747Y-129221401D01*
X182198223Y-129203223D01*
X182216401Y-129186747D01*
X182236107Y-129172132D01*
X182257150Y-129159520D01*
X182279329Y-129149030D01*
X182302428Y-129140765D01*
X182326227Y-129134804D01*
X182350495Y-129131204D01*
X182374999Y-129130000D01*
X183625001Y-129130000D01*
X183649505Y-129131204D01*
X183649505Y-129131204D01*
G37*
D12*
X183000000Y-129730000D03*
G04 #@! TD*
D11*
G04 #@! TO.N,EXT_TX*
G04 #@! TO.C,UART1*
G36*
X142374505Y-142126204D02*
X142398773Y-142129804D01*
X142422572Y-142135765D01*
X142445671Y-142144030D01*
X142467850Y-142154520D01*
X142488893Y-142167132D01*
X142508599Y-142181747D01*
X142526777Y-142198223D01*
X142543253Y-142216401D01*
X142557868Y-142236107D01*
X142570480Y-142257150D01*
X142580970Y-142279329D01*
X142589235Y-142302428D01*
X142595196Y-142326227D01*
X142598796Y-142350495D01*
X142600000Y-142374999D01*
X142600000Y-143625001D01*
X142598796Y-143649505D01*
X142595196Y-143673773D01*
X142589235Y-143697572D01*
X142580970Y-143720671D01*
X142570480Y-143742850D01*
X142557868Y-143763893D01*
X142543253Y-143783599D01*
X142526777Y-143801777D01*
X142508599Y-143818253D01*
X142488893Y-143832868D01*
X142467850Y-143845480D01*
X142445671Y-143855970D01*
X142422572Y-143864235D01*
X142398773Y-143870196D01*
X142374505Y-143873796D01*
X142350001Y-143875000D01*
X141649999Y-143875000D01*
X141625495Y-143873796D01*
X141601227Y-143870196D01*
X141577428Y-143864235D01*
X141554329Y-143855970D01*
X141532150Y-143845480D01*
X141511107Y-143832868D01*
X141491401Y-143818253D01*
X141473223Y-143801777D01*
X141456747Y-143783599D01*
X141442132Y-143763893D01*
X141429520Y-143742850D01*
X141419030Y-143720671D01*
X141410765Y-143697572D01*
X141404804Y-143673773D01*
X141401204Y-143649505D01*
X141400000Y-143625001D01*
X141400000Y-142374999D01*
X141401204Y-142350495D01*
X141404804Y-142326227D01*
X141410765Y-142302428D01*
X141419030Y-142279329D01*
X141429520Y-142257150D01*
X141442132Y-142236107D01*
X141456747Y-142216401D01*
X141473223Y-142198223D01*
X141491401Y-142181747D01*
X141511107Y-142167132D01*
X141532150Y-142154520D01*
X141554329Y-142144030D01*
X141577428Y-142135765D01*
X141601227Y-142129804D01*
X141625495Y-142126204D01*
X141649999Y-142125000D01*
X142350001Y-142125000D01*
X142374505Y-142126204D01*
X142374505Y-142126204D01*
G37*
D12*
X142000000Y-143000000D03*
D10*
G04 #@! TO.N,EXT_RX*
X144000000Y-143000000D03*
G04 #@! TO.N,GND*
X146000000Y-143000000D03*
G04 #@! TO.N,+5V*
X148000000Y-143000000D03*
G04 #@! TD*
D23*
G04 #@! TO.N,GND*
G04 #@! TO.C,J11*
X109614700Y-146543300D03*
X109614700Y-130283300D03*
D24*
G04 #@! TO.N,Net-(J11-Pad8)*
X110504700Y-134833300D03*
G04 #@! TO.N,Net-(J11-Pad6)*
X110504700Y-136873300D03*
G04 #@! TO.N,Net-(J11-Pad4)*
X110504700Y-138913300D03*
G04 #@! TO.N,Net-(J11-Pad2)*
X110504700Y-140953300D03*
G04 #@! TO.N,Net-(J11-Pad7)*
X108724700Y-135853300D03*
G04 #@! TO.N,Net-(J11-Pad5)*
X108724700Y-137893300D03*
G04 #@! TO.N,GND*
X108724700Y-139933300D03*
D25*
G04 #@! TO.N,Net-(J11-Pad1)*
X108724700Y-141973300D03*
G04 #@! TD*
D22*
G04 #@! TO.N,Net-(Q2-Pad1)*
G04 #@! TO.C,Q2*
X114300000Y-66294000D03*
D21*
G04 #@! TO.N,LED_G*
X116840000Y-66294000D03*
G04 #@! TO.N,Net-(Q2-Pad3)*
X119380000Y-66294000D03*
G04 #@! TD*
D32*
G04 #@! TO.N,+5V*
G04 #@! TO.C,U1*
X126944380Y-116889520D03*
G04 #@! TO.N,GND*
X126944380Y-114349520D03*
D33*
G04 #@! TO.N,+12V*
X126944380Y-111809520D03*
G04 #@! TD*
D34*
G04 #@! TO.N,CAN_TX*
G04 #@! TO.C,U4*
X128778000Y-130603000D03*
D35*
G04 #@! TO.N,+3.3V*
X121158000Y-122983000D03*
G04 #@! TO.N,GND*
X128778000Y-128063000D03*
G04 #@! TO.N,Net-(J11-Pad2)*
X121158000Y-125523000D03*
G04 #@! TO.N,+5V*
X128778000Y-125523000D03*
G04 #@! TO.N,Net-(J11-Pad1)*
X121158000Y-128063000D03*
G04 #@! TO.N,CAN_RX*
X128778000Y-122983000D03*
G04 #@! TO.N,CAN_STBY*
X121158000Y-130603000D03*
G04 #@! TD*
D26*
G04 #@! TO.N,GND*
G04 #@! TO.C,J1*
X184785000Y-100584000D03*
D27*
G04 #@! TO.N,/VIN*
X184785000Y-95584000D03*
G04 #@! TD*
D17*
G04 #@! TO.N,/24V_FLT*
G04 #@! TO.C,PS12*
X167640000Y-91948000D03*
D16*
G04 #@! TO.N,GND*
X165100000Y-91948000D03*
G04 #@! TO.N,+12V*
X162560000Y-91948000D03*
G04 #@! TD*
D36*
G04 #@! TO.N,Panel_W+*
G04 #@! TO.C,PANEL1*
X161798000Y-61468000D03*
D37*
G04 #@! TO.N,Panel_W-*
X161798000Y-55468000D03*
D38*
G04 #@! TO.N,GND*
X166298000Y-54468000D03*
X157298000Y-54468000D03*
G04 #@! TD*
G04 #@! TO.N,GND*
G04 #@! TO.C,PANEL2*
X177872000Y-54468000D03*
X186872000Y-54468000D03*
D37*
G04 #@! TO.N,Panel_Y-*
X182372000Y-55468000D03*
D36*
G04 #@! TO.N,Panel_Y+*
X182372000Y-61468000D03*
G04 #@! TD*
D39*
G04 #@! TO.N,GND*
X151257000Y-104140000D03*
X153797000Y-104775000D03*
X145034000Y-104902000D03*
D40*
X146367500Y-114935008D03*
X152717500Y-121031008D03*
X147955000Y-120650000D03*
X144081500Y-120269008D03*
X146177000Y-122428000D03*
X148907500Y-125095008D03*
X127127000Y-96266000D03*
X126111000Y-96266000D03*
X119253000Y-93726000D03*
X116205000Y-98044000D03*
X116205000Y-95758000D03*
X116205000Y-100584000D03*
D39*
X164602112Y-94199022D03*
X163586112Y-94199022D03*
X165618112Y-94199022D03*
X148539200Y-93954600D03*
X147523200Y-93954600D03*
X149555200Y-93954600D03*
D40*
X130683000Y-97155000D03*
X130683000Y-95377000D03*
X130683000Y-96266000D03*
X129794000Y-96266000D03*
D39*
X178054000Y-94488000D03*
X177038000Y-102616000D03*
X179070000Y-94488000D03*
X178054000Y-102616000D03*
X155194000Y-92202000D03*
X177038000Y-94488000D03*
X157226000Y-86868000D03*
X156210000Y-86868000D03*
X158242000Y-86868000D03*
X155194000Y-86868000D03*
X179070000Y-95504000D03*
X179070000Y-97536000D03*
X179070000Y-96520000D03*
X179070000Y-98552000D03*
X179070000Y-99568000D03*
X179070000Y-101600000D03*
X179070000Y-100584000D03*
X179070000Y-102616000D03*
X170180000Y-98044000D03*
X170180000Y-97028000D03*
X170180000Y-96012000D03*
X170180000Y-94996000D03*
D40*
X131572000Y-97155000D03*
X129794000Y-97155000D03*
X129794000Y-95377000D03*
X131572000Y-95377000D03*
X131572000Y-96266000D03*
X123063000Y-90932000D03*
X123063000Y-101600000D03*
X127762004Y-101219000D03*
X124714000Y-101600000D03*
X133248400Y-102565192D03*
X133342595Y-98864205D03*
X118618000Y-79502000D03*
X118618000Y-80772000D03*
D39*
X105283000Y-69342000D03*
X106680000Y-70993000D03*
X118491000Y-70993000D03*
X117094000Y-69342000D03*
X129159000Y-69342000D03*
X130556000Y-70993000D03*
D40*
X109347000Y-76708000D03*
X110998000Y-83820000D03*
X127772232Y-73797232D03*
D39*
X105283000Y-70358000D03*
X117094000Y-70485000D03*
X129159000Y-70485000D03*
X157226000Y-92202000D03*
X156210000Y-92202000D03*
X158242000Y-92202000D03*
D40*
X121158000Y-93726000D03*
D39*
X131000500Y-120586500D03*
X154432000Y-132588000D03*
X156210000Y-132588000D03*
X153924000Y-107442000D03*
X148336000Y-104140000D03*
D40*
X165379404Y-117693196D03*
X173101000Y-117693196D03*
X158496000Y-112522000D03*
X127507996Y-134366000D03*
X160845500Y-116522500D03*
X143065500Y-113665008D03*
X154495500Y-125666502D03*
D39*
X136525000Y-124947680D03*
X136524996Y-126674880D03*
D40*
X176530000Y-144145000D03*
X174498000Y-144145000D03*
X122682000Y-118935500D03*
D39*
X142246175Y-109723019D03*
D40*
X136295335Y-95053581D03*
D39*
X139210732Y-111524732D03*
D40*
X151258510Y-113157000D03*
D41*
X165735000Y-131318000D03*
X165735000Y-137160000D03*
X178435000Y-127000000D03*
X178435000Y-131572000D03*
X170053000Y-131318000D03*
X173609000Y-127000000D03*
X165989000Y-147828000D03*
X187579000Y-147066000D03*
X187833000Y-138684000D03*
X187579000Y-118364000D03*
X187325000Y-128016000D03*
X187071000Y-109728000D03*
X115189000Y-144272000D03*
X103251000Y-137668000D03*
X128397000Y-147574000D03*
X142113000Y-147320000D03*
X157607000Y-103632000D03*
X163703000Y-103378000D03*
X131699000Y-110744000D03*
X131953000Y-115824000D03*
X136271000Y-108458000D03*
X104013000Y-116586000D03*
X104013000Y-120904000D03*
X103251000Y-140970000D03*
X115697000Y-132588000D03*
X115951000Y-137414000D03*
X114427000Y-121666000D03*
X114173000Y-115062000D03*
X105029000Y-99060000D03*
X109093000Y-99060000D03*
X121793000Y-98806000D03*
X119507000Y-108458000D03*
X125603000Y-108458000D03*
X132842000Y-89916000D03*
D39*
X123825000Y-120142000D03*
X143383000Y-105918000D03*
X153797000Y-108712000D03*
D40*
X166547800Y-105511600D03*
D39*
X145567400Y-108508804D03*
X158250000Y-132588004D03*
G04 #@! TO.N,+24V*
X174371000Y-94615000D03*
X173355000Y-94615000D03*
X173355000Y-95631000D03*
X173355000Y-96647000D03*
X173355000Y-97663000D03*
X173355000Y-98679000D03*
G04 #@! TO.N,+3.3V*
X147701000Y-117348000D03*
D40*
X126619000Y-90678000D03*
D39*
X144208500Y-91948000D03*
X144208500Y-92964000D03*
X144208500Y-93980000D03*
X144208500Y-94996000D03*
X144208500Y-90932000D03*
D40*
X138112500Y-96519994D03*
D39*
X147701000Y-118872000D03*
X146177000Y-118872000D03*
X146177000Y-117348000D03*
D41*
X137287000Y-135128000D03*
X131699000Y-130302000D03*
X132715000Y-124206000D03*
X125095000Y-123698000D03*
X125095000Y-129032000D03*
X145161000Y-135890000D03*
X138557000Y-139954000D03*
X130683000Y-140462000D03*
X121031000Y-134112000D03*
D39*
G04 #@! TO.N,+12V*
X153670000Y-88138000D03*
X153670000Y-89154000D03*
X153670000Y-90170000D03*
X159766000Y-88138000D03*
X159766000Y-89154000D03*
X159766000Y-90170000D03*
X116586000Y-80772000D03*
X125730000Y-74168000D03*
D40*
G04 #@! TO.N,Net-(C18-Pad1)*
X146989800Y-108508800D03*
X155625800Y-106629200D03*
G04 #@! TO.N,Net-(C19-Pad1)*
X155321000Y-130492500D03*
X138430000Y-125730000D03*
G04 #@! TO.N,SPI1_CS1*
X155773117Y-117792295D03*
G04 #@! TO.N,SPI1_CS0*
X155828976Y-116713000D03*
G04 #@! TO.N,I2S_WS*
X143065500Y-115252500D03*
X147764500Y-133350000D03*
G04 #@! TO.N,SPI0_SCK*
X162750506Y-123253500D03*
X162750500Y-127190500D03*
G04 #@! TO.N,SPI0_MISO*
X161734500Y-123253500D03*
X161734500Y-127190500D03*
G04 #@! TO.N,SPI0_MOSI*
X160718500Y-123253500D03*
X160718500Y-127190500D03*
D41*
G04 #@! TO.N,Panel_D1*
X143065500Y-122301000D03*
X152146000Y-102743000D03*
G04 #@! TO.N,Panel_D2*
X143065500Y-123126500D03*
X152908000Y-102044500D03*
D40*
G04 #@! TO.N,PWM_R*
X128143000Y-80454522D03*
X128142998Y-88900000D03*
X147383498Y-129413000D03*
G04 #@! TO.N,PWM_G*
X129794000Y-80391000D03*
X129794000Y-88328500D03*
X148164520Y-130219480D03*
G04 #@! TO.N,PWM_B*
X131445000Y-80391000D03*
X131433687Y-87628490D03*
X149034500Y-131127500D03*
G04 #@! TO.N,RMII_TXD1*
X129157729Y-93092723D03*
X140779500Y-132588000D03*
G04 #@! TO.N,RMII_TXD0*
X129721679Y-92328208D03*
X139636500Y-131445000D03*
G04 #@! TO.N,RMII_CRS*
X139636500Y-116141500D03*
X140081001Y-110744000D03*
G04 #@! TO.N,Net-(R26-Pad1)*
X132143500Y-92011508D03*
X134874000Y-90678000D03*
G04 #@! TO.N,25MHz*
X151447500Y-125730000D03*
X136270998Y-105283000D03*
G04 #@! TO.N,RMII_MDIO*
X134556508Y-92011500D03*
X141986000Y-104394000D03*
G04 #@! TO.N,Net-(R33-Pad1)*
X128397000Y-98552000D03*
X127508000Y-102743000D03*
G04 #@! TO.N,CAN_TX*
X153924000Y-137858516D03*
G04 #@! TO.N,CAN_RX*
X152730518Y-136734200D03*
G04 #@! TO.N,CAN_STBY*
X152717500Y-138747500D03*
G04 #@! TO.N,RMII_TXEN*
X130510382Y-91585000D03*
X138772312Y-123802892D03*
G04 #@! TO.N,RMII_MDC*
X147955000Y-113157000D03*
X133350000Y-92011500D03*
G04 #@! TO.N,RX_N*
X126238000Y-97519000D03*
G04 #@! TO.N,RX_P*
X126238000Y-98569000D03*
G04 #@! TO.N,TX_N*
X126238000Y-93963000D03*
G04 #@! TO.N,TX_P*
X126238000Y-95013000D03*
G04 #@! TO.N,LED0*
X175895000Y-110871000D03*
X155829000Y-115506500D03*
G04 #@! TO.N,LED1*
X173990000Y-110871000D03*
X155841530Y-114494868D03*
G04 #@! TO.N,LED2*
X172085000Y-110871000D03*
X157855110Y-107510526D03*
G04 #@! TO.N,LED3*
X170180000Y-110871000D03*
X157860996Y-108585000D03*
G04 #@! TO.N,LED4*
X168275000Y-110871000D03*
X157856805Y-109789002D03*
G04 #@! TO.N,LED5*
X166370000Y-110871000D03*
X155325185Y-109342098D03*
G04 #@! TO.N,LED6*
X155321000Y-108330998D03*
X164465000Y-110871000D03*
G04 #@! TO.N,LED7*
X162560000Y-110871000D03*
X140017500Y-119443500D03*
G04 #@! TO.N,Net-(J3-Pad8)*
X118491000Y-103378000D03*
G04 #@! TO.N,Net-(J3-Pad6)*
X118491000Y-100584000D03*
G04 #@! TO.N,PHY_RST*
X130683000Y-90362010D03*
X141605000Y-112331500D03*
G04 #@! TD*
D42*
G04 #@! TO.N,+12V*
X134112000Y-72390000D02*
X136906000Y-69596000D01*
X125730000Y-74168000D02*
X127508000Y-72390000D01*
X127508000Y-72390000D02*
X134112000Y-72390000D01*
X104648000Y-107696000D02*
X110998000Y-107696000D01*
X115111520Y-111809520D02*
X126944380Y-111809520D01*
X102616000Y-105664000D02*
X104648000Y-107696000D01*
X102616000Y-103784582D02*
X102616000Y-105664000D01*
X113284000Y-61722000D02*
X110998000Y-64008000D01*
X110998000Y-107696000D02*
X115111520Y-111809520D01*
X110998000Y-64008000D02*
X110998000Y-70866000D01*
X110998000Y-70866000D02*
X102616000Y-79248000D01*
X102616000Y-79248000D02*
X102616000Y-103784582D01*
X113284000Y-61722000D02*
X124460000Y-61722000D01*
X124460000Y-61722000D02*
X126238000Y-59944000D01*
D43*
G04 #@! TO.N,+5V*
X172000000Y-143000000D02*
X172000000Y-143976000D01*
X172000000Y-143976000D02*
X169989500Y-145986500D01*
X169989500Y-145986500D02*
X148018500Y-145986500D01*
X148018500Y-145986500D02*
X146875500Y-145986500D01*
X148000000Y-145968000D02*
X148000000Y-143000000D01*
X148018500Y-145986500D02*
X148000000Y-145968000D01*
X122682000Y-145986500D02*
X147388500Y-145986500D01*
X119457480Y-116889520D02*
X117792500Y-118554500D01*
X126944380Y-116889520D02*
X119457480Y-116889520D01*
X117792500Y-118554500D02*
X117792500Y-139001500D01*
X117792500Y-139001500D02*
X120904000Y-142113000D01*
X120904000Y-142113000D02*
X120904000Y-144208500D01*
X120904000Y-144208500D02*
X122682000Y-145986500D01*
D44*
G04 #@! TO.N,Net-(C18-Pad1)*
X149733000Y-105765600D02*
X146989800Y-108508800D01*
X155625800Y-106629200D02*
X154762200Y-105765600D01*
X154762200Y-105765600D02*
X149733000Y-105765600D01*
D45*
G04 #@! TO.N,PWM_R*
X128143000Y-88899998D02*
X128142998Y-88900000D01*
D44*
X128143000Y-80454522D02*
X128143000Y-88899998D01*
G04 #@! TO.N,PWM_G*
X129794000Y-80391000D02*
X129794000Y-88328500D01*
D45*
G04 #@! TO.N,PWM_B*
X131445000Y-87617177D02*
X131433687Y-87628490D01*
D44*
X131445000Y-80391000D02*
X131445000Y-87617177D01*
G04 #@! TD*
D46*
G04 #@! TO.N,GND*
G36*
X126519612Y-92155218D02*
X128334644Y-93970250D01*
X128375846Y-93997780D01*
X129229399Y-94351333D01*
X129278000Y-94361000D01*
X132035394Y-94361000D01*
X132461000Y-94786606D01*
X132461000Y-98026737D01*
X132126782Y-98833612D01*
X128289000Y-102671394D01*
X128289000Y-102587649D01*
X128170100Y-102300599D01*
X127950401Y-102080900D01*
X127663351Y-101962000D01*
X127352649Y-101962000D01*
X127065599Y-102080900D01*
X126845900Y-102300599D01*
X126727000Y-102587649D01*
X126727000Y-102898351D01*
X126845900Y-103185401D01*
X127065599Y-103405100D01*
X127352649Y-103524000D01*
X127436394Y-103524000D01*
X126519612Y-104440782D01*
X125712737Y-104775000D01*
X117873263Y-104775000D01*
X117066388Y-104440782D01*
X115015218Y-102389612D01*
X114681000Y-101582737D01*
X114681000Y-99092350D01*
X116447800Y-99092350D01*
X116447800Y-99520410D01*
X116611611Y-99915885D01*
X116914295Y-100218569D01*
X117309770Y-100382380D01*
X117729165Y-100382380D01*
X117710000Y-100428649D01*
X117710000Y-100739351D01*
X117722853Y-100770380D01*
X117309770Y-100770380D01*
X116914295Y-100934191D01*
X116611611Y-101236875D01*
X116447800Y-101632350D01*
X116447800Y-102060410D01*
X116611611Y-102455885D01*
X116914295Y-102758569D01*
X117309770Y-102922380D01*
X117737830Y-102922380D01*
X117915862Y-102848637D01*
X117828900Y-102935599D01*
X117710000Y-103222649D01*
X117710000Y-103533351D01*
X117828900Y-103820401D01*
X118048599Y-104040100D01*
X118335649Y-104159000D01*
X118646351Y-104159000D01*
X118933401Y-104040100D01*
X119153100Y-103820401D01*
X119272000Y-103533351D01*
X119272000Y-103222649D01*
X119153100Y-102935599D01*
X118933401Y-102715900D01*
X118646351Y-102597000D01*
X118335649Y-102597000D01*
X118266042Y-102625832D01*
X118435989Y-102455885D01*
X118599800Y-102060410D01*
X118599800Y-101632350D01*
X118489060Y-101365000D01*
X118646351Y-101365000D01*
X118933401Y-101246100D01*
X119105335Y-101074166D01*
X119151611Y-101185885D01*
X119454295Y-101488569D01*
X119849770Y-101652380D01*
X120277830Y-101652380D01*
X120673305Y-101488569D01*
X120975989Y-101185885D01*
X121139800Y-100790410D01*
X121139800Y-100362350D01*
X120975989Y-99966875D01*
X120673305Y-99664191D01*
X120277830Y-99500380D01*
X119849770Y-99500380D01*
X119454295Y-99664191D01*
X119151611Y-99966875D01*
X119100872Y-100089371D01*
X118933401Y-99921900D01*
X118646351Y-99803000D01*
X118482747Y-99803000D01*
X118599800Y-99520410D01*
X118599800Y-99092350D01*
X118435989Y-98696875D01*
X118133305Y-98394191D01*
X117737830Y-98230380D01*
X117309770Y-98230380D01*
X116914295Y-98394191D01*
X116611611Y-98696875D01*
X116447800Y-99092350D01*
X114681000Y-99092350D01*
X114681000Y-96552350D01*
X116447800Y-96552350D01*
X116447800Y-96980410D01*
X116611611Y-97375885D01*
X116914295Y-97678569D01*
X117309770Y-97842380D01*
X117737830Y-97842380D01*
X117786186Y-97822350D01*
X118987800Y-97822350D01*
X118987800Y-98250410D01*
X119151611Y-98645885D01*
X119454295Y-98948569D01*
X119849770Y-99112380D01*
X120277830Y-99112380D01*
X120673305Y-98948569D01*
X120975989Y-98645885D01*
X121139800Y-98250410D01*
X121139800Y-97822350D01*
X120975989Y-97426875D01*
X120912763Y-97363649D01*
X125457000Y-97363649D01*
X125457000Y-97674351D01*
X125575900Y-97961401D01*
X125658499Y-98044000D01*
X125575900Y-98126599D01*
X125457000Y-98413649D01*
X125457000Y-98724351D01*
X125575900Y-99011401D01*
X125795599Y-99231100D01*
X126082649Y-99350000D01*
X126393351Y-99350000D01*
X126680401Y-99231100D01*
X126900100Y-99011401D01*
X127019000Y-98724351D01*
X127019000Y-98413649D01*
X127011959Y-98396649D01*
X127616000Y-98396649D01*
X127616000Y-98707351D01*
X127734900Y-98994401D01*
X127954599Y-99214100D01*
X128241649Y-99333000D01*
X128552351Y-99333000D01*
X128839401Y-99214100D01*
X129059100Y-98994401D01*
X129178000Y-98707351D01*
X129178000Y-98396649D01*
X129059100Y-98109599D01*
X128839401Y-97889900D01*
X128552351Y-97771000D01*
X128241649Y-97771000D01*
X127954599Y-97889900D01*
X127734900Y-98109599D01*
X127616000Y-98396649D01*
X127011959Y-98396649D01*
X126900100Y-98126599D01*
X126817501Y-98044000D01*
X126900100Y-97961401D01*
X127019000Y-97674351D01*
X127019000Y-97363649D01*
X126900100Y-97076599D01*
X126680401Y-96856900D01*
X126393351Y-96738000D01*
X126082649Y-96738000D01*
X125795599Y-96856900D01*
X125575900Y-97076599D01*
X125457000Y-97363649D01*
X120912763Y-97363649D01*
X120673305Y-97124191D01*
X120277830Y-96960380D01*
X119849770Y-96960380D01*
X119454295Y-97124191D01*
X119151611Y-97426875D01*
X118987800Y-97822350D01*
X117786186Y-97822350D01*
X118133305Y-97678569D01*
X118435989Y-97375885D01*
X118599800Y-96980410D01*
X118599800Y-96552350D01*
X118435989Y-96156875D01*
X118133305Y-95854191D01*
X117737830Y-95690380D01*
X117309770Y-95690380D01*
X116914295Y-95854191D01*
X116611611Y-96156875D01*
X116447800Y-96552350D01*
X114681000Y-96552350D01*
X114681000Y-94759263D01*
X114990380Y-94012350D01*
X116447800Y-94012350D01*
X116447800Y-94440410D01*
X116611611Y-94835885D01*
X116914295Y-95138569D01*
X117309770Y-95302380D01*
X117737830Y-95302380D01*
X117786186Y-95282350D01*
X118987800Y-95282350D01*
X118987800Y-95710410D01*
X119151611Y-96105885D01*
X119454295Y-96408569D01*
X119849770Y-96572380D01*
X120277830Y-96572380D01*
X120673305Y-96408569D01*
X120975989Y-96105885D01*
X121139800Y-95710410D01*
X121139800Y-95282350D01*
X120975989Y-94886875D01*
X120673305Y-94584191D01*
X120277830Y-94420380D01*
X119849770Y-94420380D01*
X119454295Y-94584191D01*
X119151611Y-94886875D01*
X118987800Y-95282350D01*
X117786186Y-95282350D01*
X118133305Y-95138569D01*
X118435989Y-94835885D01*
X118599800Y-94440410D01*
X118599800Y-94012350D01*
X118515011Y-93807649D01*
X125457000Y-93807649D01*
X125457000Y-94118351D01*
X125575900Y-94405401D01*
X125658499Y-94488000D01*
X125575900Y-94570599D01*
X125457000Y-94857649D01*
X125457000Y-95168351D01*
X125575900Y-95455401D01*
X125795599Y-95675100D01*
X126082649Y-95794000D01*
X126393351Y-95794000D01*
X126680401Y-95675100D01*
X126900100Y-95455401D01*
X127019000Y-95168351D01*
X127019000Y-94857649D01*
X126900100Y-94570599D01*
X126817501Y-94488000D01*
X126900100Y-94405401D01*
X127019000Y-94118351D01*
X127019000Y-93807649D01*
X126900100Y-93520599D01*
X126680401Y-93300900D01*
X126393351Y-93182000D01*
X126082649Y-93182000D01*
X125795599Y-93300900D01*
X125575900Y-93520599D01*
X125457000Y-93807649D01*
X118515011Y-93807649D01*
X118435989Y-93616875D01*
X118133305Y-93314191D01*
X117737830Y-93150380D01*
X117309770Y-93150380D01*
X116914295Y-93314191D01*
X116611611Y-93616875D01*
X116447800Y-94012350D01*
X114990380Y-94012350D01*
X115015218Y-93952388D01*
X116812388Y-92155218D01*
X117619263Y-91821000D01*
X125712737Y-91821000D01*
X126519612Y-92155218D01*
X126519612Y-92155218D01*
G37*
X126519612Y-92155218D02*
X128334644Y-93970250D01*
X128375846Y-93997780D01*
X129229399Y-94351333D01*
X129278000Y-94361000D01*
X132035394Y-94361000D01*
X132461000Y-94786606D01*
X132461000Y-98026737D01*
X132126782Y-98833612D01*
X128289000Y-102671394D01*
X128289000Y-102587649D01*
X128170100Y-102300599D01*
X127950401Y-102080900D01*
X127663351Y-101962000D01*
X127352649Y-101962000D01*
X127065599Y-102080900D01*
X126845900Y-102300599D01*
X126727000Y-102587649D01*
X126727000Y-102898351D01*
X126845900Y-103185401D01*
X127065599Y-103405100D01*
X127352649Y-103524000D01*
X127436394Y-103524000D01*
X126519612Y-104440782D01*
X125712737Y-104775000D01*
X117873263Y-104775000D01*
X117066388Y-104440782D01*
X115015218Y-102389612D01*
X114681000Y-101582737D01*
X114681000Y-99092350D01*
X116447800Y-99092350D01*
X116447800Y-99520410D01*
X116611611Y-99915885D01*
X116914295Y-100218569D01*
X117309770Y-100382380D01*
X117729165Y-100382380D01*
X117710000Y-100428649D01*
X117710000Y-100739351D01*
X117722853Y-100770380D01*
X117309770Y-100770380D01*
X116914295Y-100934191D01*
X116611611Y-101236875D01*
X116447800Y-101632350D01*
X116447800Y-102060410D01*
X116611611Y-102455885D01*
X116914295Y-102758569D01*
X117309770Y-102922380D01*
X117737830Y-102922380D01*
X117915862Y-102848637D01*
X117828900Y-102935599D01*
X117710000Y-103222649D01*
X117710000Y-103533351D01*
X117828900Y-103820401D01*
X118048599Y-104040100D01*
X118335649Y-104159000D01*
X118646351Y-104159000D01*
X118933401Y-104040100D01*
X119153100Y-103820401D01*
X119272000Y-103533351D01*
X119272000Y-103222649D01*
X119153100Y-102935599D01*
X118933401Y-102715900D01*
X118646351Y-102597000D01*
X118335649Y-102597000D01*
X118266042Y-102625832D01*
X118435989Y-102455885D01*
X118599800Y-102060410D01*
X118599800Y-101632350D01*
X118489060Y-101365000D01*
X118646351Y-101365000D01*
X118933401Y-101246100D01*
X119105335Y-101074166D01*
X119151611Y-101185885D01*
X119454295Y-101488569D01*
X119849770Y-101652380D01*
X120277830Y-101652380D01*
X120673305Y-101488569D01*
X120975989Y-101185885D01*
X121139800Y-100790410D01*
X121139800Y-100362350D01*
X120975989Y-99966875D01*
X120673305Y-99664191D01*
X120277830Y-99500380D01*
X119849770Y-99500380D01*
X119454295Y-99664191D01*
X119151611Y-99966875D01*
X119100872Y-100089371D01*
X118933401Y-99921900D01*
X118646351Y-99803000D01*
X118482747Y-99803000D01*
X118599800Y-99520410D01*
X118599800Y-99092350D01*
X118435989Y-98696875D01*
X118133305Y-98394191D01*
X117737830Y-98230380D01*
X117309770Y-98230380D01*
X116914295Y-98394191D01*
X116611611Y-98696875D01*
X116447800Y-99092350D01*
X114681000Y-99092350D01*
X114681000Y-96552350D01*
X116447800Y-96552350D01*
X116447800Y-96980410D01*
X116611611Y-97375885D01*
X116914295Y-97678569D01*
X117309770Y-97842380D01*
X117737830Y-97842380D01*
X117786186Y-97822350D01*
X118987800Y-97822350D01*
X118987800Y-98250410D01*
X119151611Y-98645885D01*
X119454295Y-98948569D01*
X119849770Y-99112380D01*
X120277830Y-99112380D01*
X120673305Y-98948569D01*
X120975989Y-98645885D01*
X121139800Y-98250410D01*
X121139800Y-97822350D01*
X120975989Y-97426875D01*
X120912763Y-97363649D01*
X125457000Y-97363649D01*
X125457000Y-97674351D01*
X125575900Y-97961401D01*
X125658499Y-98044000D01*
X125575900Y-98126599D01*
X125457000Y-98413649D01*
X125457000Y-98724351D01*
X125575900Y-99011401D01*
X125795599Y-99231100D01*
X126082649Y-99350000D01*
X126393351Y-99350000D01*
X126680401Y-99231100D01*
X126900100Y-99011401D01*
X127019000Y-98724351D01*
X127019000Y-98413649D01*
X127011959Y-98396649D01*
X127616000Y-98396649D01*
X127616000Y-98707351D01*
X127734900Y-98994401D01*
X127954599Y-99214100D01*
X128241649Y-99333000D01*
X128552351Y-99333000D01*
X128839401Y-99214100D01*
X129059100Y-98994401D01*
X129178000Y-98707351D01*
X129178000Y-98396649D01*
X129059100Y-98109599D01*
X128839401Y-97889900D01*
X128552351Y-97771000D01*
X128241649Y-97771000D01*
X127954599Y-97889900D01*
X127734900Y-98109599D01*
X127616000Y-98396649D01*
X127011959Y-98396649D01*
X126900100Y-98126599D01*
X126817501Y-98044000D01*
X126900100Y-97961401D01*
X127019000Y-97674351D01*
X127019000Y-97363649D01*
X126900100Y-97076599D01*
X126680401Y-96856900D01*
X126393351Y-96738000D01*
X126082649Y-96738000D01*
X125795599Y-96856900D01*
X125575900Y-97076599D01*
X125457000Y-97363649D01*
X120912763Y-97363649D01*
X120673305Y-97124191D01*
X120277830Y-96960380D01*
X119849770Y-96960380D01*
X119454295Y-97124191D01*
X119151611Y-97426875D01*
X118987800Y-97822350D01*
X117786186Y-97822350D01*
X118133305Y-97678569D01*
X118435989Y-97375885D01*
X118599800Y-96980410D01*
X118599800Y-96552350D01*
X118435989Y-96156875D01*
X118133305Y-95854191D01*
X117737830Y-95690380D01*
X117309770Y-95690380D01*
X116914295Y-95854191D01*
X116611611Y-96156875D01*
X116447800Y-96552350D01*
X114681000Y-96552350D01*
X114681000Y-94759263D01*
X114990380Y-94012350D01*
X116447800Y-94012350D01*
X116447800Y-94440410D01*
X116611611Y-94835885D01*
X116914295Y-95138569D01*
X117309770Y-95302380D01*
X117737830Y-95302380D01*
X117786186Y-95282350D01*
X118987800Y-95282350D01*
X118987800Y-95710410D01*
X119151611Y-96105885D01*
X119454295Y-96408569D01*
X119849770Y-96572380D01*
X120277830Y-96572380D01*
X120673305Y-96408569D01*
X120975989Y-96105885D01*
X121139800Y-95710410D01*
X121139800Y-95282350D01*
X120975989Y-94886875D01*
X120673305Y-94584191D01*
X120277830Y-94420380D01*
X119849770Y-94420380D01*
X119454295Y-94584191D01*
X119151611Y-94886875D01*
X118987800Y-95282350D01*
X117786186Y-95282350D01*
X118133305Y-95138569D01*
X118435989Y-94835885D01*
X118599800Y-94440410D01*
X118599800Y-94012350D01*
X118515011Y-93807649D01*
X125457000Y-93807649D01*
X125457000Y-94118351D01*
X125575900Y-94405401D01*
X125658499Y-94488000D01*
X125575900Y-94570599D01*
X125457000Y-94857649D01*
X125457000Y-95168351D01*
X125575900Y-95455401D01*
X125795599Y-95675100D01*
X126082649Y-95794000D01*
X126393351Y-95794000D01*
X126680401Y-95675100D01*
X126900100Y-95455401D01*
X127019000Y-95168351D01*
X127019000Y-94857649D01*
X126900100Y-94570599D01*
X126817501Y-94488000D01*
X126900100Y-94405401D01*
X127019000Y-94118351D01*
X127019000Y-93807649D01*
X126900100Y-93520599D01*
X126680401Y-93300900D01*
X126393351Y-93182000D01*
X126082649Y-93182000D01*
X125795599Y-93300900D01*
X125575900Y-93520599D01*
X125457000Y-93807649D01*
X118515011Y-93807649D01*
X118435989Y-93616875D01*
X118133305Y-93314191D01*
X117737830Y-93150380D01*
X117309770Y-93150380D01*
X116914295Y-93314191D01*
X116611611Y-93616875D01*
X116447800Y-94012350D01*
X114990380Y-94012350D01*
X115015218Y-93952388D01*
X116812388Y-92155218D01*
X117619263Y-91821000D01*
X125712737Y-91821000D01*
X126519612Y-92155218D01*
G04 #@! TO.N,+12V*
G36*
X132615612Y-52277218D02*
X133904782Y-53566388D01*
X134239000Y-54373263D01*
X134239000Y-55380000D01*
X134248667Y-55428601D01*
X134602220Y-56282154D01*
X134629750Y-56323356D01*
X135039013Y-56732619D01*
X135039013Y-57501279D01*
X135362830Y-58283040D01*
X135961165Y-58881375D01*
X136742926Y-59205192D01*
X137511586Y-59205192D01*
X155748782Y-77442388D01*
X156083000Y-78249263D01*
X156083000Y-79510000D01*
X156092900Y-79559159D01*
X156449804Y-80409329D01*
X156477961Y-80450824D01*
X156723967Y-80692188D01*
X156484908Y-81269326D01*
X156484908Y-82115500D01*
X156808725Y-82897261D01*
X157407060Y-83495596D01*
X158188821Y-83819413D01*
X159034995Y-83819413D01*
X159816756Y-83495596D01*
X159881908Y-83430444D01*
X159947060Y-83495596D01*
X160728821Y-83819413D01*
X161574995Y-83819413D01*
X162356756Y-83495596D01*
X162413352Y-83439000D01*
X162769394Y-83439000D01*
X163195000Y-83864606D01*
X163195000Y-90991316D01*
X163123000Y-91353286D01*
X163123000Y-92542713D01*
X163134229Y-92599165D01*
X162997489Y-92735905D01*
X162692813Y-92862106D01*
X162590919Y-92964000D01*
X161588606Y-92964000D01*
X161163000Y-92538394D01*
X161163000Y-92194000D01*
X161153333Y-92145399D01*
X161125803Y-92104197D01*
X160625803Y-91604197D01*
X160584601Y-91576667D01*
X160536000Y-91567000D01*
X159685907Y-91567000D01*
X159578916Y-91308701D01*
X159135299Y-90865084D01*
X158555685Y-90625000D01*
X157928315Y-90625000D01*
X157734000Y-90705488D01*
X157539685Y-90625000D01*
X156912315Y-90625000D01*
X156718000Y-90705488D01*
X156523685Y-90625000D01*
X155896315Y-90625000D01*
X155702000Y-90705488D01*
X155507685Y-90625000D01*
X154880315Y-90625000D01*
X154300701Y-90865084D01*
X153857084Y-91308701D01*
X153750093Y-91567000D01*
X153179263Y-91567000D01*
X153129079Y-91546213D01*
X153129079Y-90698000D01*
X153041611Y-90258267D01*
X152792522Y-89885478D01*
X152419733Y-89636389D01*
X151980000Y-89548921D01*
X150688527Y-89548921D01*
X147693921Y-86554315D01*
X153617000Y-86554315D01*
X153617000Y-87181685D01*
X153857084Y-87761299D01*
X154300701Y-88204916D01*
X154880315Y-88445000D01*
X155507685Y-88445000D01*
X155702000Y-88364512D01*
X155896315Y-88445000D01*
X156523685Y-88445000D01*
X156718000Y-88364512D01*
X156912315Y-88445000D01*
X157539685Y-88445000D01*
X157734000Y-88364512D01*
X157928315Y-88445000D01*
X158555685Y-88445000D01*
X159135299Y-88204916D01*
X159578916Y-87761299D01*
X159819000Y-87181685D01*
X159819000Y-86554315D01*
X159578916Y-85974701D01*
X159135299Y-85531084D01*
X158555685Y-85291000D01*
X157928315Y-85291000D01*
X157734000Y-85371488D01*
X157539685Y-85291000D01*
X156912315Y-85291000D01*
X156718000Y-85371488D01*
X156523685Y-85291000D01*
X155896315Y-85291000D01*
X155702000Y-85371488D01*
X155507685Y-85291000D01*
X154880315Y-85291000D01*
X154300701Y-85531084D01*
X153857084Y-85974701D01*
X153617000Y-86554315D01*
X147693921Y-86554315D01*
X147527218Y-86387612D01*
X147193000Y-85580737D01*
X147193000Y-82796000D01*
X147183333Y-82747399D01*
X146829780Y-81893846D01*
X146802250Y-81852644D01*
X144204711Y-79255105D01*
X150279013Y-79255105D01*
X150279013Y-80101279D01*
X150602830Y-80883040D01*
X150667982Y-80948192D01*
X150602830Y-81013344D01*
X150279013Y-81795105D01*
X150279013Y-82641279D01*
X150602830Y-83423040D01*
X151201165Y-84021375D01*
X151982926Y-84345192D01*
X152829100Y-84345192D01*
X153610861Y-84021375D01*
X154209196Y-83423040D01*
X154533013Y-82641279D01*
X154533013Y-81795105D01*
X154209196Y-81013344D01*
X154144044Y-80948192D01*
X154209196Y-80883040D01*
X154533013Y-80101279D01*
X154533013Y-79255105D01*
X154209196Y-78473344D01*
X153610861Y-77875009D01*
X152829100Y-77551192D01*
X151982926Y-77551192D01*
X151201165Y-77875009D01*
X150602830Y-78473344D01*
X150279013Y-79255105D01*
X144204711Y-79255105D01*
X132906599Y-67956993D01*
X133276845Y-67402879D01*
X133397500Y-66796307D01*
X133397500Y-65791692D01*
X133276845Y-65185120D01*
X132817235Y-64497265D01*
X132129379Y-64037655D01*
X131318000Y-63876261D01*
X130506620Y-64037655D01*
X130048000Y-64344095D01*
X129589379Y-64037655D01*
X128837753Y-63888147D01*
X124921218Y-59971612D01*
X124587000Y-59164737D01*
X124587000Y-57545000D01*
X124768760Y-57545000D01*
X125660785Y-57175511D01*
X126343511Y-56492785D01*
X126713000Y-55600760D01*
X126713000Y-54635240D01*
X126343511Y-53743215D01*
X125660785Y-53060489D01*
X125309141Y-52914833D01*
X125954309Y-52275766D01*
X126763106Y-51943000D01*
X131808737Y-51943000D01*
X132615612Y-52277218D01*
X132615612Y-52277218D01*
G37*
X132615612Y-52277218D02*
X133904782Y-53566388D01*
X134239000Y-54373263D01*
X134239000Y-55380000D01*
X134248667Y-55428601D01*
X134602220Y-56282154D01*
X134629750Y-56323356D01*
X135039013Y-56732619D01*
X135039013Y-57501279D01*
X135362830Y-58283040D01*
X135961165Y-58881375D01*
X136742926Y-59205192D01*
X137511586Y-59205192D01*
X155748782Y-77442388D01*
X156083000Y-78249263D01*
X156083000Y-79510000D01*
X156092900Y-79559159D01*
X156449804Y-80409329D01*
X156477961Y-80450824D01*
X156723967Y-80692188D01*
X156484908Y-81269326D01*
X156484908Y-82115500D01*
X156808725Y-82897261D01*
X157407060Y-83495596D01*
X158188821Y-83819413D01*
X159034995Y-83819413D01*
X159816756Y-83495596D01*
X159881908Y-83430444D01*
X159947060Y-83495596D01*
X160728821Y-83819413D01*
X161574995Y-83819413D01*
X162356756Y-83495596D01*
X162413352Y-83439000D01*
X162769394Y-83439000D01*
X163195000Y-83864606D01*
X163195000Y-90991316D01*
X163123000Y-91353286D01*
X163123000Y-92542713D01*
X163134229Y-92599165D01*
X162997489Y-92735905D01*
X162692813Y-92862106D01*
X162590919Y-92964000D01*
X161588606Y-92964000D01*
X161163000Y-92538394D01*
X161163000Y-92194000D01*
X161153333Y-92145399D01*
X161125803Y-92104197D01*
X160625803Y-91604197D01*
X160584601Y-91576667D01*
X160536000Y-91567000D01*
X159685907Y-91567000D01*
X159578916Y-91308701D01*
X159135299Y-90865084D01*
X158555685Y-90625000D01*
X157928315Y-90625000D01*
X157734000Y-90705488D01*
X157539685Y-90625000D01*
X156912315Y-90625000D01*
X156718000Y-90705488D01*
X156523685Y-90625000D01*
X155896315Y-90625000D01*
X155702000Y-90705488D01*
X155507685Y-90625000D01*
X154880315Y-90625000D01*
X154300701Y-90865084D01*
X153857084Y-91308701D01*
X153750093Y-91567000D01*
X153179263Y-91567000D01*
X153129079Y-91546213D01*
X153129079Y-90698000D01*
X153041611Y-90258267D01*
X152792522Y-89885478D01*
X152419733Y-89636389D01*
X151980000Y-89548921D01*
X150688527Y-89548921D01*
X147693921Y-86554315D01*
X153617000Y-86554315D01*
X153617000Y-87181685D01*
X153857084Y-87761299D01*
X154300701Y-88204916D01*
X154880315Y-88445000D01*
X155507685Y-88445000D01*
X155702000Y-88364512D01*
X155896315Y-88445000D01*
X156523685Y-88445000D01*
X156718000Y-88364512D01*
X156912315Y-88445000D01*
X157539685Y-88445000D01*
X157734000Y-88364512D01*
X157928315Y-88445000D01*
X158555685Y-88445000D01*
X159135299Y-88204916D01*
X159578916Y-87761299D01*
X159819000Y-87181685D01*
X159819000Y-86554315D01*
X159578916Y-85974701D01*
X159135299Y-85531084D01*
X158555685Y-85291000D01*
X157928315Y-85291000D01*
X157734000Y-85371488D01*
X157539685Y-85291000D01*
X156912315Y-85291000D01*
X156718000Y-85371488D01*
X156523685Y-85291000D01*
X155896315Y-85291000D01*
X155702000Y-85371488D01*
X155507685Y-85291000D01*
X154880315Y-85291000D01*
X154300701Y-85531084D01*
X153857084Y-85974701D01*
X153617000Y-86554315D01*
X147693921Y-86554315D01*
X147527218Y-86387612D01*
X147193000Y-85580737D01*
X147193000Y-82796000D01*
X147183333Y-82747399D01*
X146829780Y-81893846D01*
X146802250Y-81852644D01*
X144204711Y-79255105D01*
X150279013Y-79255105D01*
X150279013Y-80101279D01*
X150602830Y-80883040D01*
X150667982Y-80948192D01*
X150602830Y-81013344D01*
X150279013Y-81795105D01*
X150279013Y-82641279D01*
X150602830Y-83423040D01*
X151201165Y-84021375D01*
X151982926Y-84345192D01*
X152829100Y-84345192D01*
X153610861Y-84021375D01*
X154209196Y-83423040D01*
X154533013Y-82641279D01*
X154533013Y-81795105D01*
X154209196Y-81013344D01*
X154144044Y-80948192D01*
X154209196Y-80883040D01*
X154533013Y-80101279D01*
X154533013Y-79255105D01*
X154209196Y-78473344D01*
X153610861Y-77875009D01*
X152829100Y-77551192D01*
X151982926Y-77551192D01*
X151201165Y-77875009D01*
X150602830Y-78473344D01*
X150279013Y-79255105D01*
X144204711Y-79255105D01*
X132906599Y-67956993D01*
X133276845Y-67402879D01*
X133397500Y-66796307D01*
X133397500Y-65791692D01*
X133276845Y-65185120D01*
X132817235Y-64497265D01*
X132129379Y-64037655D01*
X131318000Y-63876261D01*
X130506620Y-64037655D01*
X130048000Y-64344095D01*
X129589379Y-64037655D01*
X128837753Y-63888147D01*
X124921218Y-59971612D01*
X124587000Y-59164737D01*
X124587000Y-57545000D01*
X124768760Y-57545000D01*
X125660785Y-57175511D01*
X126343511Y-56492785D01*
X126713000Y-55600760D01*
X126713000Y-54635240D01*
X126343511Y-53743215D01*
X125660785Y-53060489D01*
X125309141Y-52914833D01*
X125954309Y-52275766D01*
X126763106Y-51943000D01*
X131808737Y-51943000D01*
X132615612Y-52277218D01*
G04 #@! TO.N,+3.3V*
G36*
X127612001Y-88326496D02*
X127480898Y-88457599D01*
X127361998Y-88744649D01*
X127361998Y-89055351D01*
X127480898Y-89342401D01*
X127700597Y-89562100D01*
X127987647Y-89681000D01*
X128298349Y-89681000D01*
X128585399Y-89562100D01*
X128805098Y-89342401D01*
X128923998Y-89055351D01*
X128923998Y-88744649D01*
X128805098Y-88457599D01*
X128674000Y-88326501D01*
X128674000Y-87757000D01*
X129260999Y-87757000D01*
X129131900Y-87886099D01*
X129013000Y-88173149D01*
X129013000Y-88483851D01*
X129131900Y-88770901D01*
X129351599Y-88990600D01*
X129638649Y-89109500D01*
X129949351Y-89109500D01*
X130236401Y-88990600D01*
X130456100Y-88770901D01*
X130575000Y-88483851D01*
X130575000Y-88173149D01*
X130456100Y-87886099D01*
X130327001Y-87757000D01*
X130652687Y-87757000D01*
X130652687Y-87783841D01*
X130771587Y-88070891D01*
X130991286Y-88290590D01*
X131278336Y-88409490D01*
X131589038Y-88409490D01*
X131876088Y-88290590D01*
X132095787Y-88070891D01*
X132214687Y-87783841D01*
X132214687Y-87757000D01*
X145912766Y-87757000D01*
X147550605Y-88463800D01*
X149891536Y-90946606D01*
X149891536Y-93194447D01*
X149720496Y-93123600D01*
X149552271Y-93123600D01*
X149749576Y-92828312D01*
X149821000Y-92469239D01*
X149821000Y-91426762D01*
X149749576Y-91067688D01*
X149477501Y-90660499D01*
X149070312Y-90388424D01*
X148590000Y-90292884D01*
X148109689Y-90388424D01*
X147702500Y-90660499D01*
X147430424Y-91067688D01*
X147359000Y-91426761D01*
X147359000Y-92469238D01*
X147430424Y-92828311D01*
X147627729Y-93123600D01*
X147357904Y-93123600D01*
X147052476Y-93250112D01*
X146818712Y-93483876D01*
X146692200Y-93789304D01*
X146692200Y-94119896D01*
X146818712Y-94425324D01*
X147052476Y-94659088D01*
X147357904Y-94785600D01*
X147688496Y-94785600D01*
X147993924Y-94659088D01*
X148031200Y-94621812D01*
X148068476Y-94659088D01*
X148373904Y-94785600D01*
X148704496Y-94785600D01*
X149009924Y-94659088D01*
X149047200Y-94621812D01*
X149084476Y-94659088D01*
X149389904Y-94785600D01*
X149720496Y-94785600D01*
X150025924Y-94659088D01*
X150259688Y-94425324D01*
X150386200Y-94119896D01*
X150386200Y-93789304D01*
X150302181Y-93586464D01*
X151980000Y-93586464D01*
X152128659Y-93556894D01*
X152254686Y-93472686D01*
X152262393Y-93461151D01*
X162924583Y-104769535D01*
X162966667Y-104799017D01*
X164652680Y-105526606D01*
X164703000Y-105537000D01*
X165766800Y-105537000D01*
X165766800Y-105666951D01*
X165885700Y-105954001D01*
X166105399Y-106173700D01*
X166392449Y-106292600D01*
X166703151Y-106292600D01*
X166990201Y-106173700D01*
X167209900Y-105954001D01*
X167328800Y-105666951D01*
X167328800Y-105537000D01*
X183224394Y-105537000D01*
X184150000Y-106462606D01*
X184150000Y-107273778D01*
X183982261Y-107022739D01*
X183657767Y-106805919D01*
X183371616Y-106749000D01*
X182628384Y-106749000D01*
X182342233Y-106805919D01*
X182017739Y-107022739D01*
X181800919Y-107347233D01*
X181724782Y-107730000D01*
X181800919Y-108112767D01*
X182017739Y-108437261D01*
X182342233Y-108654081D01*
X182628384Y-108711000D01*
X183371616Y-108711000D01*
X183657767Y-108654081D01*
X183982261Y-108437261D01*
X184150000Y-108186222D01*
X184150000Y-109273778D01*
X183982261Y-109022739D01*
X183657767Y-108805919D01*
X183371616Y-108749000D01*
X182628384Y-108749000D01*
X182342233Y-108805919D01*
X182017739Y-109022739D01*
X181800919Y-109347233D01*
X181724782Y-109730000D01*
X181800919Y-110112767D01*
X182017739Y-110437261D01*
X182342233Y-110654081D01*
X182628384Y-110711000D01*
X183371616Y-110711000D01*
X183657767Y-110654081D01*
X183982261Y-110437261D01*
X184150000Y-110186222D01*
X184150000Y-111273778D01*
X183982261Y-111022739D01*
X183657767Y-110805919D01*
X183371616Y-110749000D01*
X182628384Y-110749000D01*
X182342233Y-110805919D01*
X182017739Y-111022739D01*
X181800919Y-111347233D01*
X181724782Y-111730000D01*
X181800919Y-112112767D01*
X182017739Y-112437261D01*
X182342233Y-112654081D01*
X182628384Y-112711000D01*
X183371616Y-112711000D01*
X183657767Y-112654081D01*
X183982261Y-112437261D01*
X184150000Y-112186222D01*
X184150000Y-119273778D01*
X183982261Y-119022739D01*
X183657767Y-118805919D01*
X183371616Y-118749000D01*
X182628384Y-118749000D01*
X182342233Y-118805919D01*
X182017739Y-119022739D01*
X181800919Y-119347233D01*
X181724782Y-119730000D01*
X181800919Y-120112767D01*
X182017739Y-120437261D01*
X182342233Y-120654081D01*
X182628384Y-120711000D01*
X183371616Y-120711000D01*
X183657767Y-120654081D01*
X183982261Y-120437261D01*
X184150000Y-120186222D01*
X184150000Y-121273778D01*
X183982261Y-121022739D01*
X183657767Y-120805919D01*
X183371616Y-120749000D01*
X182628384Y-120749000D01*
X182342233Y-120805919D01*
X182017739Y-121022739D01*
X181800919Y-121347233D01*
X181724782Y-121730000D01*
X181800919Y-122112767D01*
X182017739Y-122437261D01*
X182342233Y-122654081D01*
X182628384Y-122711000D01*
X183371616Y-122711000D01*
X183657767Y-122654081D01*
X183982261Y-122437261D01*
X184150000Y-122186222D01*
X184150000Y-123273778D01*
X183982261Y-123022739D01*
X183657767Y-122805919D01*
X183371616Y-122749000D01*
X182628384Y-122749000D01*
X182342233Y-122805919D01*
X182017739Y-123022739D01*
X181800919Y-123347233D01*
X181724782Y-123730000D01*
X181800919Y-124112767D01*
X182017739Y-124437261D01*
X182342233Y-124654081D01*
X182628384Y-124711000D01*
X183371616Y-124711000D01*
X183657767Y-124654081D01*
X183982261Y-124437261D01*
X184150000Y-124186222D01*
X184150000Y-125273778D01*
X183982261Y-125022739D01*
X183657767Y-124805919D01*
X183371616Y-124749000D01*
X182628384Y-124749000D01*
X182342233Y-124805919D01*
X182017739Y-125022739D01*
X181800919Y-125347233D01*
X181724782Y-125730000D01*
X181800919Y-126112767D01*
X182017739Y-126437261D01*
X182342233Y-126654081D01*
X182628384Y-126711000D01*
X183371616Y-126711000D01*
X183657767Y-126654081D01*
X183982261Y-126437261D01*
X184150000Y-126186222D01*
X184150000Y-127273778D01*
X183982261Y-127022739D01*
X183657767Y-126805919D01*
X183371616Y-126749000D01*
X182628384Y-126749000D01*
X182342233Y-126805919D01*
X182017739Y-127022739D01*
X181800919Y-127347233D01*
X181724782Y-127730000D01*
X181800919Y-128112767D01*
X182017739Y-128437261D01*
X182342233Y-128654081D01*
X182628384Y-128711000D01*
X183371616Y-128711000D01*
X183657767Y-128654081D01*
X183982261Y-128437261D01*
X184150000Y-128186222D01*
X184150000Y-129038594D01*
X184076463Y-128928537D01*
X183869330Y-128790136D01*
X183625001Y-128741536D01*
X182374999Y-128741536D01*
X182130670Y-128790136D01*
X181923537Y-128928537D01*
X181785136Y-129135670D01*
X181736536Y-129379999D01*
X181736536Y-130080001D01*
X181785136Y-130324330D01*
X181923537Y-130531463D01*
X182130670Y-130669864D01*
X182374999Y-130718464D01*
X183625001Y-130718464D01*
X183869330Y-130669864D01*
X184076463Y-130531463D01*
X184150000Y-130421406D01*
X184150000Y-136980302D01*
X183989261Y-136739739D01*
X183664767Y-136522919D01*
X183378616Y-136466000D01*
X182635384Y-136466000D01*
X182349233Y-136522919D01*
X182024739Y-136739739D01*
X181807919Y-137064233D01*
X181731782Y-137447000D01*
X181807919Y-137829767D01*
X182024739Y-138154261D01*
X182349233Y-138371081D01*
X182635384Y-138428000D01*
X183378616Y-138428000D01*
X183664767Y-138371081D01*
X183989261Y-138154261D01*
X184150000Y-137913698D01*
X184150000Y-138980302D01*
X183989261Y-138739739D01*
X183664767Y-138522919D01*
X183378616Y-138466000D01*
X182635384Y-138466000D01*
X182349233Y-138522919D01*
X182024739Y-138739739D01*
X181807919Y-139064233D01*
X181731782Y-139447000D01*
X181807919Y-139829767D01*
X182024739Y-140154261D01*
X182349233Y-140371081D01*
X182635384Y-140428000D01*
X183378616Y-140428000D01*
X183664767Y-140371081D01*
X183989261Y-140154261D01*
X184150000Y-139913698D01*
X184150000Y-140980302D01*
X183989261Y-140739739D01*
X183664767Y-140522919D01*
X183378616Y-140466000D01*
X182635384Y-140466000D01*
X182349233Y-140522919D01*
X182024739Y-140739739D01*
X181807919Y-141064233D01*
X181731782Y-141447000D01*
X181807919Y-141829767D01*
X182024739Y-142154261D01*
X182349233Y-142371081D01*
X182635384Y-142428000D01*
X183378616Y-142428000D01*
X183664767Y-142371081D01*
X183989261Y-142154261D01*
X184150000Y-141913698D01*
X184150000Y-142965394D01*
X184144029Y-142971365D01*
X183989261Y-142739739D01*
X183664767Y-142522919D01*
X183378616Y-142466000D01*
X182635384Y-142466000D01*
X182349233Y-142522919D01*
X182024739Y-142739739D01*
X181807919Y-143064233D01*
X181731782Y-143447000D01*
X181807919Y-143829767D01*
X181848834Y-143891000D01*
X177270138Y-143891000D01*
X177192100Y-143702599D01*
X176972401Y-143482900D01*
X176685351Y-143364000D01*
X176374649Y-143364000D01*
X176087599Y-143482900D01*
X175867900Y-143702599D01*
X175789862Y-143891000D01*
X175238138Y-143891000D01*
X175160100Y-143702599D01*
X174940401Y-143482900D01*
X174653351Y-143364000D01*
X174342649Y-143364000D01*
X174055599Y-143482900D01*
X173835900Y-143702599D01*
X173757862Y-143891000D01*
X173136248Y-143891000D01*
X173131000Y-143864615D01*
X173131000Y-142888609D01*
X173065378Y-142558706D01*
X172925499Y-142349363D01*
X172924081Y-142342233D01*
X172707261Y-142017739D01*
X172382766Y-141800919D01*
X172000000Y-141724782D01*
X171617233Y-141800919D01*
X171292739Y-142017739D01*
X171075919Y-142342234D01*
X171074501Y-142349363D01*
X170934622Y-142558707D01*
X170869000Y-142888610D01*
X170869000Y-143507525D01*
X170485525Y-143891000D01*
X168768240Y-143891000D01*
X168924081Y-143657767D01*
X168981000Y-143371615D01*
X168981000Y-142628384D01*
X168924081Y-142342233D01*
X168707261Y-142017739D01*
X168382766Y-141800919D01*
X168000000Y-141724782D01*
X167617233Y-141800919D01*
X167292739Y-142017739D01*
X167075919Y-142342234D01*
X167019000Y-142628385D01*
X167019000Y-143371616D01*
X167075919Y-143657767D01*
X167231761Y-143891000D01*
X166768240Y-143891000D01*
X166924081Y-143657767D01*
X166981000Y-143371615D01*
X166981000Y-142628384D01*
X166924081Y-142342233D01*
X166707261Y-142017739D01*
X166382766Y-141800919D01*
X166000000Y-141724782D01*
X165617233Y-141800919D01*
X165292739Y-142017739D01*
X165075919Y-142342234D01*
X165019000Y-142628385D01*
X165019000Y-143371616D01*
X165075919Y-143657767D01*
X165231761Y-143891000D01*
X164768240Y-143891000D01*
X164924081Y-143657767D01*
X164981000Y-143371615D01*
X164981000Y-142628384D01*
X164924081Y-142342233D01*
X164707261Y-142017739D01*
X164382766Y-141800919D01*
X164000000Y-141724782D01*
X163617233Y-141800919D01*
X163292739Y-142017739D01*
X163075919Y-142342234D01*
X163019000Y-142628385D01*
X163019000Y-143371616D01*
X163075919Y-143657767D01*
X163231761Y-143891000D01*
X162768240Y-143891000D01*
X162924081Y-143657767D01*
X162981000Y-143371615D01*
X162981000Y-142628384D01*
X162924081Y-142342233D01*
X162707261Y-142017739D01*
X162382766Y-141800919D01*
X162000000Y-141724782D01*
X161617233Y-141800919D01*
X161292739Y-142017739D01*
X161075919Y-142342234D01*
X161019000Y-142628385D01*
X161019000Y-143371616D01*
X161075919Y-143657767D01*
X161231761Y-143891000D01*
X160768240Y-143891000D01*
X160924081Y-143657767D01*
X160981000Y-143371615D01*
X160981000Y-142628384D01*
X160924081Y-142342233D01*
X160707261Y-142017739D01*
X160382766Y-141800919D01*
X160000000Y-141724782D01*
X159617233Y-141800919D01*
X159292739Y-142017739D01*
X159075919Y-142342234D01*
X159019000Y-142628385D01*
X159019000Y-143371616D01*
X159075919Y-143657767D01*
X159231761Y-143891000D01*
X158768240Y-143891000D01*
X158924081Y-143657767D01*
X158981000Y-143371615D01*
X158981000Y-142628384D01*
X158924081Y-142342233D01*
X158707261Y-142017739D01*
X158382766Y-141800919D01*
X158000000Y-141724782D01*
X157617233Y-141800919D01*
X157292739Y-142017739D01*
X157075919Y-142342234D01*
X157019000Y-142628385D01*
X157019000Y-143371616D01*
X157075919Y-143657767D01*
X157231761Y-143891000D01*
X156768240Y-143891000D01*
X156924081Y-143657767D01*
X156981000Y-143371615D01*
X156981000Y-142628384D01*
X156924081Y-142342233D01*
X156707261Y-142017739D01*
X156382766Y-141800919D01*
X156000000Y-141724782D01*
X155617233Y-141800919D01*
X155292739Y-142017739D01*
X155075919Y-142342234D01*
X155019000Y-142628385D01*
X155019000Y-143371616D01*
X155075919Y-143657767D01*
X155231761Y-143891000D01*
X154925385Y-143891000D01*
X154939864Y-143869330D01*
X154988464Y-143625001D01*
X154988464Y-142374999D01*
X154939864Y-142130670D01*
X154801463Y-141923537D01*
X154594330Y-141785136D01*
X154350001Y-141736536D01*
X153649999Y-141736536D01*
X153405670Y-141785136D01*
X153198537Y-141923537D01*
X153060136Y-142130670D01*
X153011536Y-142374999D01*
X153011536Y-143625001D01*
X153060136Y-143869330D01*
X153074615Y-143891000D01*
X149131000Y-143891000D01*
X149131000Y-142888609D01*
X149065378Y-142558706D01*
X148925499Y-142349363D01*
X148924081Y-142342233D01*
X148707261Y-142017739D01*
X148382766Y-141800919D01*
X148000000Y-141724782D01*
X147617233Y-141800919D01*
X147292739Y-142017739D01*
X147075919Y-142342234D01*
X147074501Y-142349364D01*
X146959681Y-142521205D01*
X146924081Y-142342233D01*
X146707261Y-142017739D01*
X146382766Y-141800919D01*
X146000000Y-141724782D01*
X145617233Y-141800919D01*
X145292739Y-142017739D01*
X145075919Y-142342234D01*
X145019000Y-142628385D01*
X145019000Y-143371616D01*
X145075919Y-143657767D01*
X145231761Y-143891000D01*
X144768240Y-143891000D01*
X144924081Y-143657767D01*
X144981000Y-143371615D01*
X144981000Y-142628384D01*
X144924081Y-142342233D01*
X144707261Y-142017739D01*
X144382766Y-141800919D01*
X144000000Y-141724782D01*
X143617233Y-141800919D01*
X143292739Y-142017739D01*
X143075919Y-142342234D01*
X143019000Y-142628385D01*
X143019000Y-143371616D01*
X143075919Y-143657767D01*
X143231761Y-143891000D01*
X142925385Y-143891000D01*
X142939864Y-143869330D01*
X142988464Y-143625001D01*
X142988464Y-142374999D01*
X142939864Y-142130670D01*
X142801463Y-141923537D01*
X142594330Y-141785136D01*
X142350001Y-141736536D01*
X141649999Y-141736536D01*
X141405670Y-141785136D01*
X141198537Y-141923537D01*
X141060136Y-142130670D01*
X141011536Y-142374999D01*
X141011536Y-143625001D01*
X141060136Y-143869330D01*
X141074615Y-143891000D01*
X134594576Y-143891000D01*
X134749081Y-143659767D01*
X134806000Y-143373615D01*
X134806000Y-142630384D01*
X134749081Y-142344233D01*
X134532261Y-142019739D01*
X134207766Y-141802919D01*
X133825000Y-141726782D01*
X133442233Y-141802919D01*
X133117739Y-142019739D01*
X132900919Y-142344234D01*
X132844000Y-142630385D01*
X132844000Y-143373616D01*
X132900919Y-143659767D01*
X133055425Y-143891000D01*
X132594576Y-143891000D01*
X132749081Y-143659767D01*
X132806000Y-143373615D01*
X132806000Y-142630384D01*
X132749081Y-142344233D01*
X132532261Y-142019739D01*
X132207766Y-141802919D01*
X131825000Y-141726782D01*
X131442233Y-141802919D01*
X131117739Y-142019739D01*
X130900919Y-142344234D01*
X130844000Y-142630385D01*
X130844000Y-143373616D01*
X130900919Y-143659767D01*
X131055425Y-143891000D01*
X130594576Y-143891000D01*
X130749081Y-143659767D01*
X130806000Y-143373615D01*
X130806000Y-142630384D01*
X130749081Y-142344233D01*
X130532261Y-142019739D01*
X130207766Y-141802919D01*
X129825000Y-141726782D01*
X129442233Y-141802919D01*
X129117739Y-142019739D01*
X128900919Y-142344234D01*
X128844000Y-142630385D01*
X128844000Y-143373616D01*
X128900919Y-143659767D01*
X129055425Y-143891000D01*
X128594576Y-143891000D01*
X128749081Y-143659767D01*
X128806000Y-143373615D01*
X128806000Y-142630384D01*
X128749081Y-142344233D01*
X128532261Y-142019739D01*
X128207766Y-141802919D01*
X127825000Y-141726782D01*
X127442233Y-141802919D01*
X127117739Y-142019739D01*
X126900919Y-142344234D01*
X126844000Y-142630385D01*
X126844000Y-143373616D01*
X126900919Y-143659767D01*
X127055425Y-143891000D01*
X126594576Y-143891000D01*
X126749081Y-143659767D01*
X126806000Y-143373615D01*
X126806000Y-142630384D01*
X126749081Y-142344233D01*
X126532261Y-142019739D01*
X126207766Y-141802919D01*
X125825000Y-141726782D01*
X125442233Y-141802919D01*
X125117739Y-142019739D01*
X124900919Y-142344234D01*
X124844000Y-142630385D01*
X124844000Y-143373616D01*
X124900919Y-143659767D01*
X125055425Y-143891000D01*
X124751721Y-143891000D01*
X124764864Y-143871330D01*
X124813464Y-143627001D01*
X124813464Y-142376999D01*
X124764864Y-142132670D01*
X124626463Y-141925537D01*
X124419330Y-141787136D01*
X124175001Y-141738536D01*
X123474999Y-141738536D01*
X123230670Y-141787136D01*
X123023537Y-141925537D01*
X122885136Y-142132670D01*
X122836536Y-142376999D01*
X122836536Y-143627001D01*
X122885136Y-143871330D01*
X122898279Y-143891000D01*
X122185975Y-143891000D01*
X122035000Y-143740025D01*
X122035000Y-142224385D01*
X122057156Y-142112999D01*
X122035000Y-142001613D01*
X122035000Y-142001609D01*
X121969378Y-141671706D01*
X121719405Y-141297595D01*
X121624972Y-141234497D01*
X118923500Y-138533025D01*
X118923500Y-136605955D01*
X120019000Y-136605955D01*
X120019000Y-137394045D01*
X120320589Y-138122146D01*
X120877854Y-138679411D01*
X121605955Y-138981000D01*
X122394045Y-138981000D01*
X123122146Y-138679411D01*
X123209408Y-138592149D01*
X151936500Y-138592149D01*
X151936500Y-138902851D01*
X152055400Y-139189901D01*
X152275099Y-139409600D01*
X152562149Y-139528500D01*
X152872851Y-139528500D01*
X153159901Y-139409600D01*
X153379600Y-139189901D01*
X153498500Y-138902851D01*
X153498500Y-138592149D01*
X153459869Y-138498886D01*
X153481599Y-138520616D01*
X153768649Y-138639516D01*
X154079351Y-138639516D01*
X154366401Y-138520616D01*
X154586100Y-138300917D01*
X154705000Y-138013867D01*
X154705000Y-137703165D01*
X154586100Y-137416115D01*
X154366401Y-137196416D01*
X154079351Y-137077516D01*
X153768649Y-137077516D01*
X153481599Y-137196416D01*
X153261900Y-137416115D01*
X153143000Y-137703165D01*
X153143000Y-138013867D01*
X153181631Y-138107130D01*
X153159901Y-138085400D01*
X152872851Y-137966500D01*
X152562149Y-137966500D01*
X152275099Y-138085400D01*
X152055400Y-138305099D01*
X151936500Y-138592149D01*
X123209408Y-138592149D01*
X123679411Y-138122146D01*
X123981000Y-137394045D01*
X123981000Y-136605955D01*
X123969773Y-136578849D01*
X151949518Y-136578849D01*
X151949518Y-136889551D01*
X152068418Y-137176601D01*
X152288117Y-137396300D01*
X152575167Y-137515200D01*
X152885869Y-137515200D01*
X153172919Y-137396300D01*
X153392618Y-137176601D01*
X153455603Y-137024541D01*
X165054000Y-137024541D01*
X165054000Y-137295459D01*
X165157676Y-137545756D01*
X165349244Y-137737324D01*
X165599541Y-137841000D01*
X165870459Y-137841000D01*
X166120756Y-137737324D01*
X166312324Y-137545756D01*
X166416000Y-137295459D01*
X166416000Y-137024541D01*
X166312324Y-136774244D01*
X166144035Y-136605955D01*
X170019000Y-136605955D01*
X170019000Y-137394045D01*
X170320589Y-138122146D01*
X170877854Y-138679411D01*
X171605955Y-138981000D01*
X172394045Y-138981000D01*
X173122146Y-138679411D01*
X173679411Y-138122146D01*
X173981000Y-137394045D01*
X173981000Y-136605955D01*
X173679411Y-135877854D01*
X173122146Y-135320589D01*
X172394045Y-135019000D01*
X171605955Y-135019000D01*
X170877854Y-135320589D01*
X170320589Y-135877854D01*
X170019000Y-136605955D01*
X166144035Y-136605955D01*
X166120756Y-136582676D01*
X165870459Y-136479000D01*
X165599541Y-136479000D01*
X165349244Y-136582676D01*
X165157676Y-136774244D01*
X165054000Y-137024541D01*
X153455603Y-137024541D01*
X153511518Y-136889551D01*
X153511518Y-136578849D01*
X153392618Y-136291799D01*
X153172919Y-136072100D01*
X152885869Y-135953200D01*
X152575167Y-135953200D01*
X152288117Y-136072100D01*
X152068418Y-136291799D01*
X151949518Y-136578849D01*
X123969773Y-136578849D01*
X123679411Y-135877854D01*
X123122146Y-135320589D01*
X122394045Y-135019000D01*
X121605955Y-135019000D01*
X120877854Y-135320589D01*
X120320589Y-135877854D01*
X120019000Y-136605955D01*
X118923500Y-136605955D01*
X118923500Y-134210649D01*
X126726996Y-134210649D01*
X126726996Y-134521351D01*
X126845896Y-134808401D01*
X127065595Y-135028100D01*
X127352645Y-135147000D01*
X127663347Y-135147000D01*
X127950397Y-135028100D01*
X128170096Y-134808401D01*
X128288996Y-134521351D01*
X128288996Y-134210649D01*
X128170096Y-133923599D01*
X127950397Y-133703900D01*
X127663347Y-133585000D01*
X127352645Y-133585000D01*
X127065595Y-133703900D01*
X126845896Y-133923599D01*
X126726996Y-134210649D01*
X118923500Y-134210649D01*
X118923500Y-132432649D01*
X139998500Y-132432649D01*
X139998500Y-132743351D01*
X140117400Y-133030401D01*
X140337099Y-133250100D01*
X140624149Y-133369000D01*
X140934851Y-133369000D01*
X141221901Y-133250100D01*
X141277352Y-133194649D01*
X146983500Y-133194649D01*
X146983500Y-133505351D01*
X147102400Y-133792401D01*
X147322099Y-134012100D01*
X147609149Y-134131000D01*
X147919851Y-134131000D01*
X148206901Y-134012100D01*
X148426600Y-133792401D01*
X148545500Y-133505351D01*
X148545500Y-133194649D01*
X148426600Y-132907599D01*
X148206901Y-132687900D01*
X147919851Y-132569000D01*
X147609149Y-132569000D01*
X147322099Y-132687900D01*
X147102400Y-132907599D01*
X146983500Y-133194649D01*
X141277352Y-133194649D01*
X141441600Y-133030401D01*
X141560500Y-132743351D01*
X141560500Y-132432649D01*
X141556381Y-132422704D01*
X153601000Y-132422704D01*
X153601000Y-132753296D01*
X153727512Y-133058724D01*
X153961276Y-133292488D01*
X154266704Y-133419000D01*
X154597296Y-133419000D01*
X154902724Y-133292488D01*
X155136488Y-133058724D01*
X155263000Y-132753296D01*
X155263000Y-132422704D01*
X155379000Y-132422704D01*
X155379000Y-132753296D01*
X155505512Y-133058724D01*
X155739276Y-133292488D01*
X156044704Y-133419000D01*
X156375296Y-133419000D01*
X156680724Y-133292488D01*
X156914488Y-133058724D01*
X157041000Y-132753296D01*
X157041000Y-132422708D01*
X157419000Y-132422708D01*
X157419000Y-132753300D01*
X157545512Y-133058728D01*
X157779276Y-133292492D01*
X158084704Y-133419004D01*
X158415296Y-133419004D01*
X158720724Y-133292492D01*
X158954488Y-133058728D01*
X159081000Y-132753300D01*
X159081000Y-132422708D01*
X158954488Y-132117280D01*
X158720724Y-131883516D01*
X158415296Y-131757004D01*
X158084704Y-131757004D01*
X157779276Y-131883516D01*
X157545512Y-132117280D01*
X157419000Y-132422708D01*
X157041000Y-132422708D01*
X157041000Y-132422704D01*
X156914488Y-132117276D01*
X156680724Y-131883512D01*
X156375296Y-131757000D01*
X156044704Y-131757000D01*
X155739276Y-131883512D01*
X155505512Y-132117276D01*
X155379000Y-132422704D01*
X155263000Y-132422704D01*
X155136488Y-132117276D01*
X154902724Y-131883512D01*
X154597296Y-131757000D01*
X154266704Y-131757000D01*
X153961276Y-131883512D01*
X153727512Y-132117276D01*
X153601000Y-132422704D01*
X141556381Y-132422704D01*
X141441600Y-132145599D01*
X141221901Y-131925900D01*
X140934851Y-131807000D01*
X140624149Y-131807000D01*
X140337099Y-131925900D01*
X140117400Y-132145599D01*
X139998500Y-132432649D01*
X118923500Y-132432649D01*
X118923500Y-130603000D01*
X119953863Y-130603000D01*
X120045522Y-131063803D01*
X120306547Y-131454453D01*
X120697197Y-131715478D01*
X121041682Y-131784000D01*
X121274318Y-131784000D01*
X121618803Y-131715478D01*
X122009453Y-131454453D01*
X122270478Y-131063803D01*
X122362137Y-130603000D01*
X122270478Y-130142197D01*
X122043833Y-129803000D01*
X127589536Y-129803000D01*
X127589536Y-131403000D01*
X127619106Y-131551659D01*
X127703314Y-131677686D01*
X127829341Y-131761894D01*
X127978000Y-131791464D01*
X129578000Y-131791464D01*
X129726659Y-131761894D01*
X129852686Y-131677686D01*
X129936894Y-131551659D01*
X129966464Y-131403000D01*
X129966464Y-131289649D01*
X138855500Y-131289649D01*
X138855500Y-131600351D01*
X138974400Y-131887401D01*
X139194099Y-132107100D01*
X139481149Y-132226000D01*
X139791851Y-132226000D01*
X140078901Y-132107100D01*
X140298600Y-131887401D01*
X140417500Y-131600351D01*
X140417500Y-131289649D01*
X140298600Y-131002599D01*
X140078901Y-130782900D01*
X139791851Y-130664000D01*
X139481149Y-130664000D01*
X139194099Y-130782900D01*
X138974400Y-131002599D01*
X138855500Y-131289649D01*
X129966464Y-131289649D01*
X129966464Y-129803000D01*
X129936894Y-129654341D01*
X129852686Y-129528314D01*
X129726659Y-129444106D01*
X129578000Y-129414536D01*
X127978000Y-129414536D01*
X127829341Y-129444106D01*
X127703314Y-129528314D01*
X127619106Y-129654341D01*
X127589536Y-129803000D01*
X122043833Y-129803000D01*
X122009453Y-129751547D01*
X121618803Y-129490522D01*
X121274318Y-129422000D01*
X121041682Y-129422000D01*
X120697197Y-129490522D01*
X120306547Y-129751547D01*
X120045522Y-130142197D01*
X119953863Y-130603000D01*
X118923500Y-130603000D01*
X118923500Y-129257649D01*
X146602498Y-129257649D01*
X146602498Y-129568351D01*
X146721398Y-129855401D01*
X146941097Y-130075100D01*
X147228147Y-130194000D01*
X147383520Y-130194000D01*
X147383520Y-130374831D01*
X147502420Y-130661881D01*
X147722119Y-130881580D01*
X148009169Y-131000480D01*
X148253500Y-131000480D01*
X148253500Y-131282851D01*
X148372400Y-131569901D01*
X148592099Y-131789600D01*
X148879149Y-131908500D01*
X149189851Y-131908500D01*
X149476901Y-131789600D01*
X149696600Y-131569901D01*
X149815500Y-131282851D01*
X149815500Y-130972149D01*
X149696600Y-130685099D01*
X149476901Y-130465400D01*
X149189851Y-130346500D01*
X148945520Y-130346500D01*
X148945520Y-130337149D01*
X154540000Y-130337149D01*
X154540000Y-130647851D01*
X154658900Y-130934901D01*
X154878599Y-131154600D01*
X155165649Y-131273500D01*
X155476351Y-131273500D01*
X155695945Y-131182541D01*
X165054000Y-131182541D01*
X165054000Y-131453459D01*
X165157676Y-131703756D01*
X165349244Y-131895324D01*
X165599541Y-131999000D01*
X165870459Y-131999000D01*
X166120756Y-131895324D01*
X166312324Y-131703756D01*
X166416000Y-131453459D01*
X166416000Y-131182541D01*
X169372000Y-131182541D01*
X169372000Y-131453459D01*
X169475676Y-131703756D01*
X169667244Y-131895324D01*
X169917541Y-131999000D01*
X170188459Y-131999000D01*
X170438756Y-131895324D01*
X170630324Y-131703756D01*
X170734000Y-131453459D01*
X170734000Y-131436541D01*
X177754000Y-131436541D01*
X177754000Y-131707459D01*
X177857676Y-131957756D01*
X178049244Y-132149324D01*
X178299541Y-132253000D01*
X178570459Y-132253000D01*
X178820756Y-132149324D01*
X179012324Y-131957756D01*
X179116000Y-131707459D01*
X179116000Y-131436541D01*
X179012324Y-131186244D01*
X178820756Y-130994676D01*
X178570459Y-130891000D01*
X178299541Y-130891000D01*
X178049244Y-130994676D01*
X177857676Y-131186244D01*
X177754000Y-131436541D01*
X170734000Y-131436541D01*
X170734000Y-131182541D01*
X170630324Y-130932244D01*
X170438756Y-130740676D01*
X170188459Y-130637000D01*
X169917541Y-130637000D01*
X169667244Y-130740676D01*
X169475676Y-130932244D01*
X169372000Y-131182541D01*
X166416000Y-131182541D01*
X166312324Y-130932244D01*
X166120756Y-130740676D01*
X165870459Y-130637000D01*
X165599541Y-130637000D01*
X165349244Y-130740676D01*
X165157676Y-130932244D01*
X165054000Y-131182541D01*
X155695945Y-131182541D01*
X155763401Y-131154600D01*
X155983100Y-130934901D01*
X156102000Y-130647851D01*
X156102000Y-130337149D01*
X155983100Y-130050099D01*
X155763401Y-129830400D01*
X155476351Y-129711500D01*
X155165649Y-129711500D01*
X154878599Y-129830400D01*
X154658900Y-130050099D01*
X154540000Y-130337149D01*
X148945520Y-130337149D01*
X148945520Y-130064129D01*
X148826620Y-129777079D01*
X148606921Y-129557380D01*
X148319871Y-129438480D01*
X148164498Y-129438480D01*
X148164498Y-129257649D01*
X148045598Y-128970599D01*
X147825899Y-128750900D01*
X147538849Y-128632000D01*
X147228147Y-128632000D01*
X146941097Y-128750900D01*
X146721398Y-128970599D01*
X146602498Y-129257649D01*
X118923500Y-129257649D01*
X118923500Y-128063000D01*
X119953863Y-128063000D01*
X120045522Y-128523803D01*
X120306547Y-128914453D01*
X120697197Y-129175478D01*
X121041682Y-129244000D01*
X121274318Y-129244000D01*
X121618803Y-129175478D01*
X122009453Y-128914453D01*
X122270478Y-128523803D01*
X122362137Y-128063000D01*
X127573863Y-128063000D01*
X127665522Y-128523803D01*
X127926547Y-128914453D01*
X128317197Y-129175478D01*
X128661682Y-129244000D01*
X128894318Y-129244000D01*
X129238803Y-129175478D01*
X129629453Y-128914453D01*
X129890478Y-128523803D01*
X129982137Y-128063000D01*
X129890478Y-127602197D01*
X129629453Y-127211547D01*
X129238803Y-126950522D01*
X128894318Y-126882000D01*
X128661682Y-126882000D01*
X128317197Y-126950522D01*
X127926547Y-127211547D01*
X127665522Y-127602197D01*
X127573863Y-128063000D01*
X122362137Y-128063000D01*
X122270478Y-127602197D01*
X122009453Y-127211547D01*
X121618803Y-126950522D01*
X121274318Y-126882000D01*
X121041682Y-126882000D01*
X120697197Y-126950522D01*
X120306547Y-127211547D01*
X120045522Y-127602197D01*
X119953863Y-128063000D01*
X118923500Y-128063000D01*
X118923500Y-125523000D01*
X119953863Y-125523000D01*
X120045522Y-125983803D01*
X120306547Y-126374453D01*
X120697197Y-126635478D01*
X121041682Y-126704000D01*
X121274318Y-126704000D01*
X121618803Y-126635478D01*
X122009453Y-126374453D01*
X122270478Y-125983803D01*
X122362137Y-125523000D01*
X127573863Y-125523000D01*
X127665522Y-125983803D01*
X127926547Y-126374453D01*
X128317197Y-126635478D01*
X128661682Y-126704000D01*
X128894318Y-126704000D01*
X129238803Y-126635478D01*
X129427215Y-126509584D01*
X135693996Y-126509584D01*
X135693996Y-126840176D01*
X135820508Y-127145604D01*
X136054272Y-127379368D01*
X136359700Y-127505880D01*
X136690292Y-127505880D01*
X136995720Y-127379368D01*
X137229484Y-127145604D01*
X137275235Y-127035149D01*
X159937500Y-127035149D01*
X159937500Y-127345851D01*
X160056400Y-127632901D01*
X160276099Y-127852600D01*
X160563149Y-127971500D01*
X160873851Y-127971500D01*
X161160901Y-127852600D01*
X161226500Y-127787001D01*
X161292099Y-127852600D01*
X161579149Y-127971500D01*
X161889851Y-127971500D01*
X162176901Y-127852600D01*
X162242500Y-127787001D01*
X162308099Y-127852600D01*
X162595149Y-127971500D01*
X162905851Y-127971500D01*
X163192901Y-127852600D01*
X163412600Y-127632901D01*
X163531500Y-127345851D01*
X163531500Y-127035149D01*
X163460832Y-126864541D01*
X172928000Y-126864541D01*
X172928000Y-127135459D01*
X173031676Y-127385756D01*
X173223244Y-127577324D01*
X173473541Y-127681000D01*
X173744459Y-127681000D01*
X173994756Y-127577324D01*
X174186324Y-127385756D01*
X174290000Y-127135459D01*
X174290000Y-126864541D01*
X177754000Y-126864541D01*
X177754000Y-127135459D01*
X177857676Y-127385756D01*
X178049244Y-127577324D01*
X178299541Y-127681000D01*
X178570459Y-127681000D01*
X178820756Y-127577324D01*
X179012324Y-127385756D01*
X179116000Y-127135459D01*
X179116000Y-126864541D01*
X179012324Y-126614244D01*
X178820756Y-126422676D01*
X178570459Y-126319000D01*
X178299541Y-126319000D01*
X178049244Y-126422676D01*
X177857676Y-126614244D01*
X177754000Y-126864541D01*
X174290000Y-126864541D01*
X174186324Y-126614244D01*
X173994756Y-126422676D01*
X173744459Y-126319000D01*
X173473541Y-126319000D01*
X173223244Y-126422676D01*
X173031676Y-126614244D01*
X172928000Y-126864541D01*
X163460832Y-126864541D01*
X163412600Y-126748099D01*
X163192901Y-126528400D01*
X162905851Y-126409500D01*
X162595149Y-126409500D01*
X162308099Y-126528400D01*
X162242500Y-126593999D01*
X162176901Y-126528400D01*
X161889851Y-126409500D01*
X161579149Y-126409500D01*
X161292099Y-126528400D01*
X161226500Y-126593999D01*
X161160901Y-126528400D01*
X160873851Y-126409500D01*
X160563149Y-126409500D01*
X160276099Y-126528400D01*
X160056400Y-126748099D01*
X159937500Y-127035149D01*
X137275235Y-127035149D01*
X137355996Y-126840176D01*
X137355996Y-126509584D01*
X137229484Y-126204156D01*
X136995720Y-125970392D01*
X136690292Y-125843880D01*
X136359700Y-125843880D01*
X136054272Y-125970392D01*
X135820508Y-126204156D01*
X135693996Y-126509584D01*
X129427215Y-126509584D01*
X129629453Y-126374453D01*
X129890478Y-125983803D01*
X129982137Y-125523000D01*
X129890478Y-125062197D01*
X129703513Y-124782384D01*
X135694000Y-124782384D01*
X135694000Y-125112976D01*
X135820512Y-125418404D01*
X136054276Y-125652168D01*
X136359704Y-125778680D01*
X136690296Y-125778680D01*
X136995724Y-125652168D01*
X137073243Y-125574649D01*
X137649000Y-125574649D01*
X137649000Y-125885351D01*
X137767900Y-126172401D01*
X137987599Y-126392100D01*
X138274649Y-126511000D01*
X138585351Y-126511000D01*
X138872401Y-126392100D01*
X139092100Y-126172401D01*
X139211000Y-125885351D01*
X139211000Y-125574649D01*
X139092100Y-125287599D01*
X138872401Y-125067900D01*
X138585351Y-124949000D01*
X138274649Y-124949000D01*
X137987599Y-125067900D01*
X137767900Y-125287599D01*
X137649000Y-125574649D01*
X137073243Y-125574649D01*
X137229488Y-125418404D01*
X137356000Y-125112976D01*
X137356000Y-124939657D01*
X148126500Y-124939657D01*
X148126500Y-125250359D01*
X148245400Y-125537409D01*
X148465099Y-125757108D01*
X148752149Y-125876008D01*
X149062851Y-125876008D01*
X149349901Y-125757108D01*
X149532360Y-125574649D01*
X150666500Y-125574649D01*
X150666500Y-125885351D01*
X150785400Y-126172401D01*
X151005099Y-126392100D01*
X151292149Y-126511000D01*
X151602851Y-126511000D01*
X151889901Y-126392100D01*
X152109600Y-126172401D01*
X152228500Y-125885351D01*
X152228500Y-125574649D01*
X152202199Y-125511151D01*
X153714500Y-125511151D01*
X153714500Y-125821853D01*
X153833400Y-126108903D01*
X154053099Y-126328602D01*
X154340149Y-126447502D01*
X154650851Y-126447502D01*
X154937901Y-126328602D01*
X155157600Y-126108903D01*
X155276500Y-125821853D01*
X155276500Y-125511151D01*
X155157600Y-125224101D01*
X154937901Y-125004402D01*
X154650851Y-124885502D01*
X154340149Y-124885502D01*
X154053099Y-125004402D01*
X153833400Y-125224101D01*
X153714500Y-125511151D01*
X152202199Y-125511151D01*
X152109600Y-125287599D01*
X151889901Y-125067900D01*
X151602851Y-124949000D01*
X151292149Y-124949000D01*
X151005099Y-125067900D01*
X150785400Y-125287599D01*
X150666500Y-125574649D01*
X149532360Y-125574649D01*
X149569600Y-125537409D01*
X149688500Y-125250359D01*
X149688500Y-124939657D01*
X149569600Y-124652607D01*
X149349901Y-124432908D01*
X149062851Y-124314008D01*
X148752149Y-124314008D01*
X148465099Y-124432908D01*
X148245400Y-124652607D01*
X148126500Y-124939657D01*
X137356000Y-124939657D01*
X137356000Y-124782384D01*
X137229488Y-124476956D01*
X136995724Y-124243192D01*
X136690296Y-124116680D01*
X136359704Y-124116680D01*
X136054276Y-124243192D01*
X135820512Y-124476956D01*
X135694000Y-124782384D01*
X129703513Y-124782384D01*
X129629453Y-124671547D01*
X129238803Y-124410522D01*
X128894318Y-124342000D01*
X128661682Y-124342000D01*
X128317197Y-124410522D01*
X127926547Y-124671547D01*
X127665522Y-125062197D01*
X127573863Y-125523000D01*
X122362137Y-125523000D01*
X122270478Y-125062197D01*
X122009453Y-124671547D01*
X121618803Y-124410522D01*
X121274318Y-124342000D01*
X121041682Y-124342000D01*
X120697197Y-124410522D01*
X120306547Y-124671547D01*
X120045522Y-125062197D01*
X119953863Y-125523000D01*
X118923500Y-125523000D01*
X118923500Y-122983000D01*
X127573863Y-122983000D01*
X127665522Y-123443803D01*
X127926547Y-123834453D01*
X128317197Y-124095478D01*
X128661682Y-124164000D01*
X128894318Y-124164000D01*
X129238803Y-124095478D01*
X129629453Y-123834453D01*
X129754344Y-123647541D01*
X137991312Y-123647541D01*
X137991312Y-123958243D01*
X138110212Y-124245293D01*
X138329911Y-124464992D01*
X138616961Y-124583892D01*
X138927663Y-124583892D01*
X139214713Y-124464992D01*
X139434412Y-124245293D01*
X139553312Y-123958243D01*
X139553312Y-123647541D01*
X139434412Y-123360491D01*
X139214713Y-123140792D01*
X138927663Y-123021892D01*
X138616961Y-123021892D01*
X138329911Y-123140792D01*
X138110212Y-123360491D01*
X137991312Y-123647541D01*
X129754344Y-123647541D01*
X129890478Y-123443803D01*
X129982137Y-122983000D01*
X129890478Y-122522197D01*
X129652168Y-122165541D01*
X142384500Y-122165541D01*
X142384500Y-122436459D01*
X142488176Y-122686756D01*
X142515170Y-122713750D01*
X142488176Y-122740744D01*
X142384500Y-122991041D01*
X142384500Y-123261959D01*
X142488176Y-123512256D01*
X142679744Y-123703824D01*
X142930041Y-123807500D01*
X143200959Y-123807500D01*
X143451256Y-123703824D01*
X143642824Y-123512256D01*
X143746500Y-123261959D01*
X143746500Y-122991041D01*
X143642824Y-122740744D01*
X143615830Y-122713750D01*
X143642824Y-122686756D01*
X143746500Y-122436459D01*
X143746500Y-122272649D01*
X145396000Y-122272649D01*
X145396000Y-122583351D01*
X145514900Y-122870401D01*
X145734599Y-123090100D01*
X146021649Y-123209000D01*
X146332351Y-123209000D01*
X146599968Y-123098149D01*
X159937500Y-123098149D01*
X159937500Y-123408851D01*
X160056400Y-123695901D01*
X160276099Y-123915600D01*
X160563149Y-124034500D01*
X160873851Y-124034500D01*
X161160901Y-123915600D01*
X161226500Y-123850001D01*
X161292099Y-123915600D01*
X161579149Y-124034500D01*
X161889851Y-124034500D01*
X162176901Y-123915600D01*
X162242503Y-123849998D01*
X162308105Y-123915600D01*
X162595155Y-124034500D01*
X162905857Y-124034500D01*
X163192907Y-123915600D01*
X163412606Y-123695901D01*
X163531506Y-123408851D01*
X163531506Y-123098149D01*
X163412606Y-122811099D01*
X163192907Y-122591400D01*
X162905857Y-122472500D01*
X162595155Y-122472500D01*
X162308105Y-122591400D01*
X162242503Y-122657002D01*
X162176901Y-122591400D01*
X161889851Y-122472500D01*
X161579149Y-122472500D01*
X161292099Y-122591400D01*
X161226500Y-122656999D01*
X161160901Y-122591400D01*
X160873851Y-122472500D01*
X160563149Y-122472500D01*
X160276099Y-122591400D01*
X160056400Y-122811099D01*
X159937500Y-123098149D01*
X146599968Y-123098149D01*
X146619401Y-123090100D01*
X146839100Y-122870401D01*
X146958000Y-122583351D01*
X146958000Y-122272649D01*
X146839100Y-121985599D01*
X146619401Y-121765900D01*
X146332351Y-121647000D01*
X146021649Y-121647000D01*
X145734599Y-121765900D01*
X145514900Y-121985599D01*
X145396000Y-122272649D01*
X143746500Y-122272649D01*
X143746500Y-122165541D01*
X143642824Y-121915244D01*
X143451256Y-121723676D01*
X143200959Y-121620000D01*
X142930041Y-121620000D01*
X142679744Y-121723676D01*
X142488176Y-121915244D01*
X142384500Y-122165541D01*
X129652168Y-122165541D01*
X129629453Y-122131547D01*
X129238803Y-121870522D01*
X128894318Y-121802000D01*
X128661682Y-121802000D01*
X128317197Y-121870522D01*
X127926547Y-122131547D01*
X127665522Y-122522197D01*
X127573863Y-122983000D01*
X118923500Y-122983000D01*
X118923500Y-119976704D01*
X122994000Y-119976704D01*
X122994000Y-120307296D01*
X123120512Y-120612724D01*
X123354276Y-120846488D01*
X123659704Y-120973000D01*
X123990296Y-120973000D01*
X124295724Y-120846488D01*
X124529488Y-120612724D01*
X124608817Y-120421204D01*
X130169500Y-120421204D01*
X130169500Y-120751796D01*
X130296012Y-121057224D01*
X130529776Y-121290988D01*
X130835204Y-121417500D01*
X131165796Y-121417500D01*
X131471224Y-121290988D01*
X131704988Y-121057224D01*
X131831500Y-120751796D01*
X131831500Y-120421204D01*
X131704988Y-120115776D01*
X131471224Y-119882012D01*
X131165796Y-119755500D01*
X130835204Y-119755500D01*
X130529776Y-119882012D01*
X130296012Y-120115776D01*
X130169500Y-120421204D01*
X124608817Y-120421204D01*
X124656000Y-120307296D01*
X124656000Y-119976704D01*
X124529488Y-119671276D01*
X124295724Y-119437512D01*
X123990296Y-119311000D01*
X123659704Y-119311000D01*
X123354276Y-119437512D01*
X123120512Y-119671276D01*
X122994000Y-119976704D01*
X118923500Y-119976704D01*
X118923500Y-119022975D01*
X119166326Y-118780149D01*
X121901000Y-118780149D01*
X121901000Y-119090851D01*
X122019900Y-119377901D01*
X122239599Y-119597600D01*
X122526649Y-119716500D01*
X122837351Y-119716500D01*
X123124401Y-119597600D01*
X123344100Y-119377901D01*
X123381276Y-119288149D01*
X139236500Y-119288149D01*
X139236500Y-119598851D01*
X139355400Y-119885901D01*
X139575099Y-120105600D01*
X139862149Y-120224500D01*
X140172851Y-120224500D01*
X140440449Y-120113657D01*
X143300500Y-120113657D01*
X143300500Y-120424359D01*
X143419400Y-120711409D01*
X143639099Y-120931108D01*
X143926149Y-121050008D01*
X144236851Y-121050008D01*
X144523901Y-120931108D01*
X144743600Y-120711409D01*
X144833384Y-120494649D01*
X147174000Y-120494649D01*
X147174000Y-120805351D01*
X147292900Y-121092401D01*
X147512599Y-121312100D01*
X147799649Y-121431000D01*
X148110351Y-121431000D01*
X148397401Y-121312100D01*
X148617100Y-121092401D01*
X148706878Y-120875657D01*
X151936500Y-120875657D01*
X151936500Y-121186359D01*
X152055400Y-121473409D01*
X152275099Y-121693108D01*
X152562149Y-121812008D01*
X152872851Y-121812008D01*
X153159901Y-121693108D01*
X153379600Y-121473409D01*
X153498500Y-121186359D01*
X153498500Y-120875657D01*
X153379600Y-120588607D01*
X153159901Y-120368908D01*
X152872851Y-120250008D01*
X152562149Y-120250008D01*
X152275099Y-120368908D01*
X152055400Y-120588607D01*
X151936500Y-120875657D01*
X148706878Y-120875657D01*
X148736000Y-120805351D01*
X148736000Y-120494649D01*
X148617100Y-120207599D01*
X148397401Y-119987900D01*
X148110351Y-119869000D01*
X147799649Y-119869000D01*
X147512599Y-119987900D01*
X147292900Y-120207599D01*
X147174000Y-120494649D01*
X144833384Y-120494649D01*
X144862500Y-120424359D01*
X144862500Y-120113657D01*
X144743600Y-119826607D01*
X144523901Y-119606908D01*
X144236851Y-119488008D01*
X143926149Y-119488008D01*
X143639099Y-119606908D01*
X143419400Y-119826607D01*
X143300500Y-120113657D01*
X140440449Y-120113657D01*
X140459901Y-120105600D01*
X140679600Y-119885901D01*
X140798500Y-119598851D01*
X140798500Y-119288149D01*
X140679600Y-119001099D01*
X140459901Y-118781400D01*
X140172851Y-118662500D01*
X139862149Y-118662500D01*
X139575099Y-118781400D01*
X139355400Y-119001099D01*
X139236500Y-119288149D01*
X123381276Y-119288149D01*
X123463000Y-119090851D01*
X123463000Y-118780149D01*
X123344100Y-118493099D01*
X123124401Y-118273400D01*
X122837351Y-118154500D01*
X122526649Y-118154500D01*
X122239599Y-118273400D01*
X122019900Y-118493099D01*
X121901000Y-118780149D01*
X119166326Y-118780149D01*
X119925955Y-118020520D01*
X125939306Y-118020520D01*
X126126574Y-118145649D01*
X126515545Y-118223020D01*
X127373215Y-118223020D01*
X127762186Y-118145649D01*
X128203279Y-117850919D01*
X128346253Y-117636944D01*
X154992117Y-117636944D01*
X154992117Y-117947646D01*
X155111017Y-118234696D01*
X155330716Y-118454395D01*
X155617766Y-118573295D01*
X155928468Y-118573295D01*
X156215518Y-118454395D01*
X156435217Y-118234696D01*
X156554117Y-117947646D01*
X156554117Y-117636944D01*
X156513069Y-117537845D01*
X164598404Y-117537845D01*
X164598404Y-117848547D01*
X164717304Y-118135597D01*
X164937003Y-118355296D01*
X165224053Y-118474196D01*
X165534755Y-118474196D01*
X165821805Y-118355296D01*
X166041504Y-118135597D01*
X166160404Y-117848547D01*
X166160404Y-117537845D01*
X172320000Y-117537845D01*
X172320000Y-117848547D01*
X172438900Y-118135597D01*
X172658599Y-118355296D01*
X172945649Y-118474196D01*
X173256351Y-118474196D01*
X173543401Y-118355296D01*
X173763100Y-118135597D01*
X173882000Y-117848547D01*
X173882000Y-117537845D01*
X173763100Y-117250795D01*
X173543401Y-117031096D01*
X173256351Y-116912196D01*
X172945649Y-116912196D01*
X172658599Y-117031096D01*
X172438900Y-117250795D01*
X172320000Y-117537845D01*
X166160404Y-117537845D01*
X166041504Y-117250795D01*
X165821805Y-117031096D01*
X165534755Y-116912196D01*
X165224053Y-116912196D01*
X164937003Y-117031096D01*
X164717304Y-117250795D01*
X164598404Y-117537845D01*
X156513069Y-117537845D01*
X156435217Y-117349894D01*
X156365900Y-117280577D01*
X156491076Y-117155401D01*
X156609976Y-116868351D01*
X156609976Y-116557649D01*
X156531069Y-116367149D01*
X160064500Y-116367149D01*
X160064500Y-116677851D01*
X160183400Y-116964901D01*
X160403099Y-117184600D01*
X160690149Y-117303500D01*
X161000851Y-117303500D01*
X161287901Y-117184600D01*
X161507600Y-116964901D01*
X161626500Y-116677851D01*
X161626500Y-116367149D01*
X161507600Y-116080099D01*
X161287901Y-115860400D01*
X161000851Y-115741500D01*
X160690149Y-115741500D01*
X160403099Y-115860400D01*
X160183400Y-116080099D01*
X160064500Y-116367149D01*
X156531069Y-116367149D01*
X156491076Y-116270599D01*
X156330239Y-116109762D01*
X156491100Y-115948901D01*
X156610000Y-115661851D01*
X156610000Y-115351149D01*
X156491100Y-115064099D01*
X156433950Y-115006949D01*
X156503630Y-114937269D01*
X156622530Y-114650219D01*
X156622530Y-114339517D01*
X156503630Y-114052467D01*
X156283931Y-113832768D01*
X155996881Y-113713868D01*
X155686179Y-113713868D01*
X155399129Y-113832768D01*
X155179430Y-114052467D01*
X155060530Y-114339517D01*
X155060530Y-114650219D01*
X155179430Y-114937269D01*
X155236580Y-114994419D01*
X155166900Y-115064099D01*
X155048000Y-115351149D01*
X155048000Y-115661851D01*
X155166900Y-115948901D01*
X155327737Y-116109738D01*
X155166876Y-116270599D01*
X155047976Y-116557649D01*
X155047976Y-116868351D01*
X155166876Y-117155401D01*
X155236193Y-117224718D01*
X155111017Y-117349894D01*
X154992117Y-117636944D01*
X128346253Y-117636944D01*
X128498009Y-117409826D01*
X128601504Y-116889520D01*
X128498009Y-116369214D01*
X128203279Y-115928121D01*
X127844724Y-115688541D01*
X131272000Y-115688541D01*
X131272000Y-115959459D01*
X131375676Y-116209756D01*
X131567244Y-116401324D01*
X131817541Y-116505000D01*
X132088459Y-116505000D01*
X132338756Y-116401324D01*
X132530324Y-116209756D01*
X132622944Y-115986149D01*
X138855500Y-115986149D01*
X138855500Y-116296851D01*
X138974400Y-116583901D01*
X139194099Y-116803600D01*
X139481149Y-116922500D01*
X139791851Y-116922500D01*
X140078901Y-116803600D01*
X140298600Y-116583901D01*
X140417500Y-116296851D01*
X140417500Y-115986149D01*
X140298600Y-115699099D01*
X140078901Y-115479400D01*
X139791851Y-115360500D01*
X139481149Y-115360500D01*
X139194099Y-115479400D01*
X138974400Y-115699099D01*
X138855500Y-115986149D01*
X132622944Y-115986149D01*
X132634000Y-115959459D01*
X132634000Y-115688541D01*
X132530324Y-115438244D01*
X132338756Y-115246676D01*
X132088459Y-115143000D01*
X131817541Y-115143000D01*
X131567244Y-115246676D01*
X131375676Y-115438244D01*
X131272000Y-115688541D01*
X127844724Y-115688541D01*
X127762186Y-115633391D01*
X127692452Y-115619520D01*
X127762186Y-115605649D01*
X128203279Y-115310919D01*
X128346116Y-115097149D01*
X142284500Y-115097149D01*
X142284500Y-115407851D01*
X142403400Y-115694901D01*
X142623099Y-115914600D01*
X142910149Y-116033500D01*
X143220851Y-116033500D01*
X143507901Y-115914600D01*
X143727600Y-115694901D01*
X143846500Y-115407851D01*
X143846500Y-115097149D01*
X143727600Y-114810099D01*
X143697158Y-114779657D01*
X145586500Y-114779657D01*
X145586500Y-115090359D01*
X145705400Y-115377409D01*
X145925099Y-115597108D01*
X146212149Y-115716008D01*
X146522851Y-115716008D01*
X146809901Y-115597108D01*
X147029600Y-115377409D01*
X147148500Y-115090359D01*
X147148500Y-114779657D01*
X147029600Y-114492607D01*
X146809901Y-114272908D01*
X146522851Y-114154008D01*
X146212149Y-114154008D01*
X145925099Y-114272908D01*
X145705400Y-114492607D01*
X145586500Y-114779657D01*
X143697158Y-114779657D01*
X143507901Y-114590400D01*
X143220851Y-114471500D01*
X142910149Y-114471500D01*
X142623099Y-114590400D01*
X142403400Y-114810099D01*
X142284500Y-115097149D01*
X128346116Y-115097149D01*
X128498009Y-114869826D01*
X128601504Y-114349520D01*
X128498009Y-113829214D01*
X128284488Y-113509657D01*
X142284500Y-113509657D01*
X142284500Y-113820359D01*
X142403400Y-114107409D01*
X142623099Y-114327108D01*
X142910149Y-114446008D01*
X143220851Y-114446008D01*
X143507901Y-114327108D01*
X143727600Y-114107409D01*
X143846500Y-113820359D01*
X143846500Y-113509657D01*
X143727600Y-113222607D01*
X143507901Y-113002908D01*
X143504862Y-113001649D01*
X147174000Y-113001649D01*
X147174000Y-113312351D01*
X147292900Y-113599401D01*
X147512599Y-113819100D01*
X147799649Y-113938000D01*
X148110351Y-113938000D01*
X148397401Y-113819100D01*
X148617100Y-113599401D01*
X148736000Y-113312351D01*
X148736000Y-113001649D01*
X150477510Y-113001649D01*
X150477510Y-113312351D01*
X150596410Y-113599401D01*
X150816109Y-113819100D01*
X151103159Y-113938000D01*
X151413861Y-113938000D01*
X151700911Y-113819100D01*
X151920610Y-113599401D01*
X152039510Y-113312351D01*
X152039510Y-113001649D01*
X151920610Y-112714599D01*
X151700911Y-112494900D01*
X151413861Y-112376000D01*
X151103159Y-112376000D01*
X150816109Y-112494900D01*
X150596410Y-112714599D01*
X150477510Y-113001649D01*
X148736000Y-113001649D01*
X148617100Y-112714599D01*
X148397401Y-112494900D01*
X148110351Y-112376000D01*
X147799649Y-112376000D01*
X147512599Y-112494900D01*
X147292900Y-112714599D01*
X147174000Y-113001649D01*
X143504862Y-113001649D01*
X143220851Y-112884008D01*
X142910149Y-112884008D01*
X142623099Y-113002908D01*
X142403400Y-113222607D01*
X142284500Y-113509657D01*
X128284488Y-113509657D01*
X128203279Y-113388121D01*
X127847631Y-113150484D01*
X127944380Y-113150484D01*
X128093039Y-113120914D01*
X128219066Y-113036706D01*
X128303274Y-112910679D01*
X128332844Y-112762020D01*
X128332844Y-110857020D01*
X128303274Y-110708361D01*
X128236577Y-110608541D01*
X131018000Y-110608541D01*
X131018000Y-110879459D01*
X131121676Y-111129756D01*
X131313244Y-111321324D01*
X131563541Y-111425000D01*
X131834459Y-111425000D01*
X131992745Y-111359436D01*
X138379732Y-111359436D01*
X138379732Y-111690028D01*
X138506244Y-111995456D01*
X138740008Y-112229220D01*
X139045436Y-112355732D01*
X139376028Y-112355732D01*
X139681456Y-112229220D01*
X139734527Y-112176149D01*
X140824000Y-112176149D01*
X140824000Y-112486851D01*
X140942900Y-112773901D01*
X141162599Y-112993600D01*
X141449649Y-113112500D01*
X141760351Y-113112500D01*
X142047401Y-112993600D01*
X142267100Y-112773901D01*
X142386000Y-112486851D01*
X142386000Y-112366649D01*
X157715000Y-112366649D01*
X157715000Y-112677351D01*
X157833900Y-112964401D01*
X158053599Y-113184100D01*
X158340649Y-113303000D01*
X158651351Y-113303000D01*
X158938401Y-113184100D01*
X159158100Y-112964401D01*
X159277000Y-112677351D01*
X159277000Y-112366649D01*
X159158100Y-112079599D01*
X158938401Y-111859900D01*
X158651351Y-111741000D01*
X158340649Y-111741000D01*
X158053599Y-111859900D01*
X157833900Y-112079599D01*
X157715000Y-112366649D01*
X142386000Y-112366649D01*
X142386000Y-112176149D01*
X142267100Y-111889099D01*
X142047401Y-111669400D01*
X141760351Y-111550500D01*
X141449649Y-111550500D01*
X141162599Y-111669400D01*
X140942900Y-111889099D01*
X140824000Y-112176149D01*
X139734527Y-112176149D01*
X139915220Y-111995456D01*
X140041732Y-111690028D01*
X140041732Y-111525000D01*
X140236352Y-111525000D01*
X140523402Y-111406100D01*
X140743101Y-111186401D01*
X140862001Y-110899351D01*
X140862001Y-110715649D01*
X161779000Y-110715649D01*
X161779000Y-111026351D01*
X161897900Y-111313401D01*
X162117599Y-111533100D01*
X162404649Y-111652000D01*
X162715351Y-111652000D01*
X163002401Y-111533100D01*
X163222100Y-111313401D01*
X163341000Y-111026351D01*
X163341000Y-110715649D01*
X163684000Y-110715649D01*
X163684000Y-111026351D01*
X163802900Y-111313401D01*
X164022599Y-111533100D01*
X164309649Y-111652000D01*
X164620351Y-111652000D01*
X164907401Y-111533100D01*
X165127100Y-111313401D01*
X165246000Y-111026351D01*
X165246000Y-110715649D01*
X165589000Y-110715649D01*
X165589000Y-111026351D01*
X165707900Y-111313401D01*
X165927599Y-111533100D01*
X166214649Y-111652000D01*
X166525351Y-111652000D01*
X166812401Y-111533100D01*
X167032100Y-111313401D01*
X167151000Y-111026351D01*
X167151000Y-110715649D01*
X167494000Y-110715649D01*
X167494000Y-111026351D01*
X167612900Y-111313401D01*
X167832599Y-111533100D01*
X168119649Y-111652000D01*
X168430351Y-111652000D01*
X168717401Y-111533100D01*
X168937100Y-111313401D01*
X169056000Y-111026351D01*
X169056000Y-110715649D01*
X169399000Y-110715649D01*
X169399000Y-111026351D01*
X169517900Y-111313401D01*
X169737599Y-111533100D01*
X170024649Y-111652000D01*
X170335351Y-111652000D01*
X170622401Y-111533100D01*
X170842100Y-111313401D01*
X170961000Y-111026351D01*
X170961000Y-110715649D01*
X171304000Y-110715649D01*
X171304000Y-111026351D01*
X171422900Y-111313401D01*
X171642599Y-111533100D01*
X171929649Y-111652000D01*
X172240351Y-111652000D01*
X172527401Y-111533100D01*
X172747100Y-111313401D01*
X172866000Y-111026351D01*
X172866000Y-110715649D01*
X173209000Y-110715649D01*
X173209000Y-111026351D01*
X173327900Y-111313401D01*
X173547599Y-111533100D01*
X173834649Y-111652000D01*
X174145351Y-111652000D01*
X174432401Y-111533100D01*
X174652100Y-111313401D01*
X174771000Y-111026351D01*
X174771000Y-110715649D01*
X175114000Y-110715649D01*
X175114000Y-111026351D01*
X175232900Y-111313401D01*
X175452599Y-111533100D01*
X175739649Y-111652000D01*
X176050351Y-111652000D01*
X176337401Y-111533100D01*
X176557100Y-111313401D01*
X176676000Y-111026351D01*
X176676000Y-110715649D01*
X176557100Y-110428599D01*
X176337401Y-110208900D01*
X176050351Y-110090000D01*
X175739649Y-110090000D01*
X175452599Y-110208900D01*
X175232900Y-110428599D01*
X175114000Y-110715649D01*
X174771000Y-110715649D01*
X174652100Y-110428599D01*
X174432401Y-110208900D01*
X174145351Y-110090000D01*
X173834649Y-110090000D01*
X173547599Y-110208900D01*
X173327900Y-110428599D01*
X173209000Y-110715649D01*
X172866000Y-110715649D01*
X172747100Y-110428599D01*
X172527401Y-110208900D01*
X172240351Y-110090000D01*
X171929649Y-110090000D01*
X171642599Y-110208900D01*
X171422900Y-110428599D01*
X171304000Y-110715649D01*
X170961000Y-110715649D01*
X170842100Y-110428599D01*
X170622401Y-110208900D01*
X170335351Y-110090000D01*
X170024649Y-110090000D01*
X169737599Y-110208900D01*
X169517900Y-110428599D01*
X169399000Y-110715649D01*
X169056000Y-110715649D01*
X168937100Y-110428599D01*
X168717401Y-110208900D01*
X168430351Y-110090000D01*
X168119649Y-110090000D01*
X167832599Y-110208900D01*
X167612900Y-110428599D01*
X167494000Y-110715649D01*
X167151000Y-110715649D01*
X167032100Y-110428599D01*
X166812401Y-110208900D01*
X166525351Y-110090000D01*
X166214649Y-110090000D01*
X165927599Y-110208900D01*
X165707900Y-110428599D01*
X165589000Y-110715649D01*
X165246000Y-110715649D01*
X165127100Y-110428599D01*
X164907401Y-110208900D01*
X164620351Y-110090000D01*
X164309649Y-110090000D01*
X164022599Y-110208900D01*
X163802900Y-110428599D01*
X163684000Y-110715649D01*
X163341000Y-110715649D01*
X163222100Y-110428599D01*
X163002401Y-110208900D01*
X162715351Y-110090000D01*
X162404649Y-110090000D01*
X162117599Y-110208900D01*
X161897900Y-110428599D01*
X161779000Y-110715649D01*
X140862001Y-110715649D01*
X140862001Y-110588649D01*
X140743101Y-110301599D01*
X140523402Y-110081900D01*
X140236352Y-109963000D01*
X139925650Y-109963000D01*
X139638600Y-110081900D01*
X139418901Y-110301599D01*
X139300001Y-110588649D01*
X139300001Y-110693732D01*
X139045436Y-110693732D01*
X138740008Y-110820244D01*
X138506244Y-111054008D01*
X138379732Y-111359436D01*
X131992745Y-111359436D01*
X132084756Y-111321324D01*
X132276324Y-111129756D01*
X132380000Y-110879459D01*
X132380000Y-110608541D01*
X132276324Y-110358244D01*
X132084756Y-110166676D01*
X131834459Y-110063000D01*
X131563541Y-110063000D01*
X131313244Y-110166676D01*
X131121676Y-110358244D01*
X131018000Y-110608541D01*
X128236577Y-110608541D01*
X128219066Y-110582334D01*
X128093039Y-110498126D01*
X127944380Y-110468556D01*
X125944380Y-110468556D01*
X125795721Y-110498126D01*
X125669694Y-110582334D01*
X125585486Y-110708361D01*
X125555916Y-110857020D01*
X125555916Y-110928520D01*
X115476442Y-110928520D01*
X115316000Y-110768078D01*
X115316000Y-109557723D01*
X141415175Y-109557723D01*
X141415175Y-109888315D01*
X141541687Y-110193743D01*
X141775451Y-110427507D01*
X142080879Y-110554019D01*
X142411471Y-110554019D01*
X142716899Y-110427507D01*
X142950663Y-110193743D01*
X143077175Y-109888315D01*
X143077175Y-109557723D01*
X142950663Y-109252295D01*
X142716899Y-109018531D01*
X142411471Y-108892019D01*
X142080879Y-108892019D01*
X141775451Y-109018531D01*
X141541687Y-109252295D01*
X141415175Y-109557723D01*
X115316000Y-109557723D01*
X115316000Y-108322541D01*
X118826000Y-108322541D01*
X118826000Y-108593459D01*
X118929676Y-108843756D01*
X119121244Y-109035324D01*
X119371541Y-109139000D01*
X119642459Y-109139000D01*
X119892756Y-109035324D01*
X120084324Y-108843756D01*
X120188000Y-108593459D01*
X120188000Y-108322541D01*
X124922000Y-108322541D01*
X124922000Y-108593459D01*
X125025676Y-108843756D01*
X125217244Y-109035324D01*
X125467541Y-109139000D01*
X125738459Y-109139000D01*
X125988756Y-109035324D01*
X126180324Y-108843756D01*
X126284000Y-108593459D01*
X126284000Y-108322541D01*
X135590000Y-108322541D01*
X135590000Y-108593459D01*
X135693676Y-108843756D01*
X135885244Y-109035324D01*
X136135541Y-109139000D01*
X136406459Y-109139000D01*
X136656756Y-109035324D01*
X136848324Y-108843756D01*
X136952000Y-108593459D01*
X136952000Y-108343508D01*
X144736400Y-108343508D01*
X144736400Y-108674100D01*
X144862912Y-108979528D01*
X145096676Y-109213292D01*
X145402104Y-109339804D01*
X145732696Y-109339804D01*
X146038124Y-109213292D01*
X146271888Y-108979528D01*
X146305661Y-108897993D01*
X146327700Y-108951201D01*
X146547399Y-109170900D01*
X146834449Y-109289800D01*
X147145151Y-109289800D01*
X147432201Y-109170900D01*
X147651900Y-108951201D01*
X147770800Y-108664151D01*
X147770800Y-108546704D01*
X152966000Y-108546704D01*
X152966000Y-108877296D01*
X153092512Y-109182724D01*
X153326276Y-109416488D01*
X153631704Y-109543000D01*
X153962296Y-109543000D01*
X154267724Y-109416488D01*
X154501488Y-109182724D01*
X154628000Y-108877296D01*
X154628000Y-108698800D01*
X154658900Y-108773399D01*
X154724142Y-108838641D01*
X154663085Y-108899697D01*
X154544185Y-109186747D01*
X154544185Y-109497449D01*
X154663085Y-109784499D01*
X154882784Y-110004198D01*
X155169834Y-110123098D01*
X155480536Y-110123098D01*
X155767586Y-110004198D01*
X155987285Y-109784499D01*
X156106185Y-109497449D01*
X156106185Y-109186747D01*
X155987285Y-108899697D01*
X155922044Y-108834456D01*
X155983100Y-108773399D01*
X156102000Y-108486349D01*
X156102000Y-108175647D01*
X155983100Y-107888597D01*
X155763401Y-107668898D01*
X155476351Y-107549998D01*
X155165649Y-107549998D01*
X154878599Y-107668898D01*
X154658900Y-107888597D01*
X154540000Y-108175647D01*
X154540000Y-108334253D01*
X154501488Y-108241276D01*
X154400712Y-108140500D01*
X154628488Y-107912724D01*
X154755000Y-107607296D01*
X154755000Y-107276704D01*
X154628488Y-106971276D01*
X154394724Y-106737512D01*
X154089296Y-106611000D01*
X153758704Y-106611000D01*
X153453276Y-106737512D01*
X153219512Y-106971276D01*
X153093000Y-107276704D01*
X153093000Y-107607296D01*
X153219512Y-107912724D01*
X153320288Y-108013500D01*
X153092512Y-108241276D01*
X152966000Y-108546704D01*
X147770800Y-108546704D01*
X147770800Y-108478747D01*
X149952948Y-106296600D01*
X154542253Y-106296600D01*
X154844800Y-106599148D01*
X154844800Y-106784551D01*
X154963700Y-107071601D01*
X155183399Y-107291300D01*
X155470449Y-107410200D01*
X155781151Y-107410200D01*
X155913993Y-107355175D01*
X157074110Y-107355175D01*
X157074110Y-107665877D01*
X157193010Y-107952927D01*
X157290789Y-108050706D01*
X157198896Y-108142599D01*
X157079996Y-108429649D01*
X157079996Y-108740351D01*
X157198896Y-109027401D01*
X157356401Y-109184906D01*
X157194705Y-109346601D01*
X157075805Y-109633651D01*
X157075805Y-109944353D01*
X157194705Y-110231403D01*
X157414404Y-110451102D01*
X157701454Y-110570002D01*
X158012156Y-110570002D01*
X158299206Y-110451102D01*
X158518905Y-110231403D01*
X158637805Y-109944353D01*
X158637805Y-109633651D01*
X158518905Y-109346601D01*
X158361401Y-109189097D01*
X158523096Y-109027401D01*
X158641996Y-108740351D01*
X158641996Y-108429649D01*
X158523096Y-108142599D01*
X158425317Y-108044820D01*
X158517210Y-107952927D01*
X158636110Y-107665877D01*
X158636110Y-107355175D01*
X158517210Y-107068125D01*
X158297511Y-106848426D01*
X158010461Y-106729526D01*
X157699759Y-106729526D01*
X157412709Y-106848426D01*
X157193010Y-107068125D01*
X157074110Y-107355175D01*
X155913993Y-107355175D01*
X156068201Y-107291300D01*
X156287900Y-107071601D01*
X156406800Y-106784551D01*
X156406800Y-106473849D01*
X156287900Y-106186799D01*
X156068201Y-105967100D01*
X155781151Y-105848200D01*
X155595748Y-105848200D01*
X155174652Y-105427105D01*
X155145029Y-105382771D01*
X154969386Y-105265410D01*
X154814494Y-105234600D01*
X154814490Y-105234600D01*
X154762200Y-105224199D01*
X154709910Y-105234600D01*
X154506096Y-105234600D01*
X154628000Y-104940296D01*
X154628000Y-104609704D01*
X154501488Y-104304276D01*
X154267724Y-104070512D01*
X153962296Y-103944000D01*
X153631704Y-103944000D01*
X153326276Y-104070512D01*
X153092512Y-104304276D01*
X152966000Y-104609704D01*
X152966000Y-104940296D01*
X153087904Y-105234600D01*
X149785294Y-105234600D01*
X149733000Y-105224198D01*
X149680706Y-105234600D01*
X149525814Y-105265410D01*
X149350171Y-105382771D01*
X149320550Y-105427102D01*
X147019853Y-107727800D01*
X146834449Y-107727800D01*
X146547399Y-107846700D01*
X146327700Y-108066399D01*
X146305659Y-108119611D01*
X146271888Y-108038080D01*
X146038124Y-107804316D01*
X145732696Y-107677804D01*
X145402104Y-107677804D01*
X145096676Y-107804316D01*
X144862912Y-108038080D01*
X144736400Y-108343508D01*
X136952000Y-108343508D01*
X136952000Y-108322541D01*
X136848324Y-108072244D01*
X136656756Y-107880676D01*
X136406459Y-107777000D01*
X136135541Y-107777000D01*
X135885244Y-107880676D01*
X135693676Y-108072244D01*
X135590000Y-108322541D01*
X126284000Y-108322541D01*
X126180324Y-108072244D01*
X125988756Y-107880676D01*
X125738459Y-107777000D01*
X125467541Y-107777000D01*
X125217244Y-107880676D01*
X125025676Y-108072244D01*
X124922000Y-108322541D01*
X120188000Y-108322541D01*
X120084324Y-108072244D01*
X119892756Y-107880676D01*
X119642459Y-107777000D01*
X119371541Y-107777000D01*
X119121244Y-107880676D01*
X118929676Y-108072244D01*
X118826000Y-108322541D01*
X115316000Y-108322541D01*
X115316000Y-107630762D01*
X115606495Y-107340267D01*
X115854800Y-106740806D01*
X115854800Y-106091954D01*
X115606495Y-105492493D01*
X115316000Y-105201998D01*
X115316000Y-103408816D01*
X116725039Y-104817855D01*
X116848645Y-104900445D01*
X117702198Y-105253998D01*
X117848000Y-105283000D01*
X125738000Y-105283000D01*
X125883802Y-105253998D01*
X126188835Y-105127649D01*
X135489998Y-105127649D01*
X135489998Y-105438351D01*
X135608898Y-105725401D01*
X135828597Y-105945100D01*
X136115647Y-106064000D01*
X136426349Y-106064000D01*
X136713399Y-105945100D01*
X136905795Y-105752704D01*
X142552000Y-105752704D01*
X142552000Y-106083296D01*
X142678512Y-106388724D01*
X142912276Y-106622488D01*
X143217704Y-106749000D01*
X143548296Y-106749000D01*
X143853724Y-106622488D01*
X144087488Y-106388724D01*
X144214000Y-106083296D01*
X144214000Y-105752704D01*
X144087488Y-105447276D01*
X143853724Y-105213512D01*
X143548296Y-105087000D01*
X143217704Y-105087000D01*
X142912276Y-105213512D01*
X142678512Y-105447276D01*
X142552000Y-105752704D01*
X136905795Y-105752704D01*
X136933098Y-105725401D01*
X137051998Y-105438351D01*
X137051998Y-105127649D01*
X136933098Y-104840599D01*
X136713399Y-104620900D01*
X136426349Y-104502000D01*
X136115647Y-104502000D01*
X135828597Y-104620900D01*
X135608898Y-104840599D01*
X135489998Y-105127649D01*
X126188835Y-105127649D01*
X126737355Y-104900445D01*
X126860961Y-104817855D01*
X127440167Y-104238649D01*
X141205000Y-104238649D01*
X141205000Y-104549351D01*
X141323900Y-104836401D01*
X141543599Y-105056100D01*
X141830649Y-105175000D01*
X142141351Y-105175000D01*
X142428401Y-105056100D01*
X142648100Y-104836401D01*
X142689395Y-104736704D01*
X144203000Y-104736704D01*
X144203000Y-105067296D01*
X144329512Y-105372724D01*
X144563276Y-105606488D01*
X144868704Y-105733000D01*
X145199296Y-105733000D01*
X145504724Y-105606488D01*
X145738488Y-105372724D01*
X145865000Y-105067296D01*
X145865000Y-104736704D01*
X145738488Y-104431276D01*
X145504724Y-104197512D01*
X145199296Y-104071000D01*
X144868704Y-104071000D01*
X144563276Y-104197512D01*
X144329512Y-104431276D01*
X144203000Y-104736704D01*
X142689395Y-104736704D01*
X142767000Y-104549351D01*
X142767000Y-104238649D01*
X142657671Y-103974704D01*
X147505000Y-103974704D01*
X147505000Y-104305296D01*
X147631512Y-104610724D01*
X147865276Y-104844488D01*
X148170704Y-104971000D01*
X148501296Y-104971000D01*
X148806724Y-104844488D01*
X149040488Y-104610724D01*
X149167000Y-104305296D01*
X149167000Y-103974704D01*
X150426000Y-103974704D01*
X150426000Y-104305296D01*
X150552512Y-104610724D01*
X150786276Y-104844488D01*
X151091704Y-104971000D01*
X151422296Y-104971000D01*
X151727724Y-104844488D01*
X151961488Y-104610724D01*
X152088000Y-104305296D01*
X152088000Y-103974704D01*
X151961488Y-103669276D01*
X151788753Y-103496541D01*
X156926000Y-103496541D01*
X156926000Y-103767459D01*
X157029676Y-104017756D01*
X157221244Y-104209324D01*
X157471541Y-104313000D01*
X157742459Y-104313000D01*
X157992756Y-104209324D01*
X158184324Y-104017756D01*
X158288000Y-103767459D01*
X158288000Y-103496541D01*
X158184324Y-103246244D01*
X157992756Y-103054676D01*
X157742459Y-102951000D01*
X157471541Y-102951000D01*
X157221244Y-103054676D01*
X157029676Y-103246244D01*
X156926000Y-103496541D01*
X151788753Y-103496541D01*
X151727724Y-103435512D01*
X151422296Y-103309000D01*
X151091704Y-103309000D01*
X150786276Y-103435512D01*
X150552512Y-103669276D01*
X150426000Y-103974704D01*
X149167000Y-103974704D01*
X149040488Y-103669276D01*
X148806724Y-103435512D01*
X148501296Y-103309000D01*
X148170704Y-103309000D01*
X147865276Y-103435512D01*
X147631512Y-103669276D01*
X147505000Y-103974704D01*
X142657671Y-103974704D01*
X142648100Y-103951599D01*
X142428401Y-103731900D01*
X142141351Y-103613000D01*
X141830649Y-103613000D01*
X141543599Y-103731900D01*
X141323900Y-103951599D01*
X141205000Y-104238649D01*
X127440167Y-104238649D01*
X129268975Y-102409841D01*
X132467400Y-102409841D01*
X132467400Y-102720543D01*
X132586300Y-103007593D01*
X132805999Y-103227292D01*
X133093049Y-103346192D01*
X133403751Y-103346192D01*
X133690801Y-103227292D01*
X133910500Y-103007593D01*
X134029400Y-102720543D01*
X134029400Y-102607541D01*
X151465000Y-102607541D01*
X151465000Y-102878459D01*
X151568676Y-103128756D01*
X151760244Y-103320324D01*
X152010541Y-103424000D01*
X152281459Y-103424000D01*
X152531756Y-103320324D01*
X152723324Y-103128756D01*
X152827000Y-102878459D01*
X152827000Y-102725500D01*
X153043459Y-102725500D01*
X153293756Y-102621824D01*
X153485324Y-102430256D01*
X153589000Y-102179959D01*
X153589000Y-101909041D01*
X153485324Y-101658744D01*
X153293756Y-101467176D01*
X153043459Y-101363500D01*
X152772541Y-101363500D01*
X152522244Y-101467176D01*
X152330676Y-101658744D01*
X152227000Y-101909041D01*
X152227000Y-102062000D01*
X152010541Y-102062000D01*
X151760244Y-102165676D01*
X151568676Y-102357244D01*
X151465000Y-102607541D01*
X134029400Y-102607541D01*
X134029400Y-102409841D01*
X133910500Y-102122791D01*
X133690801Y-101903092D01*
X133403751Y-101784192D01*
X133093049Y-101784192D01*
X132805999Y-101903092D01*
X132586300Y-102122791D01*
X132467400Y-102409841D01*
X129268975Y-102409841D01*
X132503855Y-99174961D01*
X132579236Y-99062145D01*
X132680495Y-99306606D01*
X132900194Y-99526305D01*
X133187244Y-99645205D01*
X133497946Y-99645205D01*
X133784996Y-99526305D01*
X134004695Y-99306606D01*
X134123595Y-99019556D01*
X134123595Y-98708854D01*
X134004695Y-98421804D01*
X133784996Y-98202105D01*
X133497946Y-98083205D01*
X133187244Y-98083205D01*
X132942639Y-98184524D01*
X132969000Y-98052000D01*
X132969000Y-94898230D01*
X135514335Y-94898230D01*
X135514335Y-95208932D01*
X135633235Y-95495982D01*
X135852934Y-95715681D01*
X136139984Y-95834581D01*
X136450686Y-95834581D01*
X136737736Y-95715681D01*
X136957435Y-95495982D01*
X137076335Y-95208932D01*
X137076335Y-94898230D01*
X136957435Y-94611180D01*
X136737736Y-94391481D01*
X136450686Y-94272581D01*
X136139984Y-94272581D01*
X135852934Y-94391481D01*
X135633235Y-94611180D01*
X135514335Y-94898230D01*
X132969000Y-94898230D01*
X132969000Y-94734000D01*
X132939998Y-94588198D01*
X132857408Y-94464592D01*
X132357408Y-93964592D01*
X132233802Y-93882002D01*
X132088000Y-93853000D01*
X129363110Y-93853000D01*
X129600130Y-93754823D01*
X129819829Y-93535124D01*
X129938729Y-93248074D01*
X129938729Y-93083651D01*
X130164080Y-92990308D01*
X130383779Y-92770609D01*
X130502679Y-92483559D01*
X130502679Y-92366000D01*
X130665733Y-92366000D01*
X130952783Y-92247100D01*
X131172482Y-92027401D01*
X131243413Y-91856157D01*
X131362500Y-91856157D01*
X131362500Y-92166859D01*
X131481400Y-92453909D01*
X131701099Y-92673608D01*
X131988149Y-92792508D01*
X132298851Y-92792508D01*
X132585901Y-92673608D01*
X132746754Y-92512755D01*
X132907599Y-92673600D01*
X133194649Y-92792500D01*
X133505351Y-92792500D01*
X133792401Y-92673600D01*
X133953254Y-92512747D01*
X134114107Y-92673600D01*
X134401157Y-92792500D01*
X134711859Y-92792500D01*
X134998909Y-92673600D01*
X135218608Y-92453901D01*
X135337508Y-92166851D01*
X135337508Y-91856149D01*
X135218608Y-91569099D01*
X135085324Y-91435815D01*
X135316401Y-91340100D01*
X135536100Y-91120401D01*
X135655000Y-90833351D01*
X135655000Y-90522649D01*
X135536100Y-90235599D01*
X135316401Y-90015900D01*
X135029351Y-89897000D01*
X134718649Y-89897000D01*
X134431599Y-90015900D01*
X134211900Y-90235599D01*
X134093000Y-90522649D01*
X134093000Y-90833351D01*
X134211900Y-91120401D01*
X134345184Y-91253685D01*
X134114107Y-91349400D01*
X133953254Y-91510253D01*
X133792401Y-91349400D01*
X133505351Y-91230500D01*
X133194649Y-91230500D01*
X132907599Y-91349400D01*
X132746746Y-91510253D01*
X132585901Y-91349408D01*
X132298851Y-91230508D01*
X131988149Y-91230508D01*
X131701099Y-91349408D01*
X131481400Y-91569107D01*
X131362500Y-91856157D01*
X131243413Y-91856157D01*
X131291382Y-91740351D01*
X131291382Y-91429649D01*
X131172482Y-91142599D01*
X131074908Y-91045025D01*
X131125401Y-91024110D01*
X131345100Y-90804411D01*
X131464000Y-90517361D01*
X131464000Y-90206659D01*
X131345100Y-89919609D01*
X131206032Y-89780541D01*
X132161000Y-89780541D01*
X132161000Y-90051459D01*
X132264676Y-90301756D01*
X132456244Y-90493324D01*
X132706541Y-90597000D01*
X132977459Y-90597000D01*
X133227756Y-90493324D01*
X133419324Y-90301756D01*
X133523000Y-90051459D01*
X133523000Y-89780541D01*
X133419324Y-89530244D01*
X133227756Y-89338676D01*
X132977459Y-89235000D01*
X132706541Y-89235000D01*
X132456244Y-89338676D01*
X132264676Y-89530244D01*
X132161000Y-89780541D01*
X131206032Y-89780541D01*
X131125401Y-89699910D01*
X130838351Y-89581010D01*
X130527649Y-89581010D01*
X130240599Y-89699910D01*
X130020900Y-89919609D01*
X129902000Y-90206659D01*
X129902000Y-90517361D01*
X130020900Y-90804411D01*
X130118474Y-90901985D01*
X130067981Y-90922900D01*
X129848282Y-91142599D01*
X129729382Y-91429649D01*
X129729382Y-91547208D01*
X129566328Y-91547208D01*
X129279278Y-91666108D01*
X129059579Y-91885807D01*
X128940679Y-92172857D01*
X128940679Y-92337280D01*
X128715328Y-92430623D01*
X128495629Y-92650322D01*
X128376729Y-92937372D01*
X128376729Y-93248074D01*
X128409142Y-93326326D01*
X126860961Y-91778145D01*
X126737355Y-91695555D01*
X125883802Y-91342002D01*
X125738000Y-91313000D01*
X123750533Y-91313000D01*
X123844000Y-91087351D01*
X123844000Y-90776649D01*
X123725100Y-90489599D01*
X123505401Y-90269900D01*
X123218351Y-90151000D01*
X122907649Y-90151000D01*
X122620599Y-90269900D01*
X122400900Y-90489599D01*
X122282000Y-90776649D01*
X122282000Y-91087351D01*
X122375467Y-91313000D01*
X117594000Y-91313000D01*
X117448198Y-91342002D01*
X116594645Y-91695555D01*
X116471039Y-91778145D01*
X115316000Y-92933184D01*
X115316000Y-92140762D01*
X115606495Y-91850267D01*
X115854800Y-91250806D01*
X115854800Y-90601954D01*
X115606495Y-90002493D01*
X115316000Y-89711998D01*
X115316000Y-88682606D01*
X116241606Y-87757000D01*
X127612001Y-87757000D01*
X127612001Y-88326496D01*
X127612001Y-88326496D01*
G37*
X127612001Y-88326496D02*
X127480898Y-88457599D01*
X127361998Y-88744649D01*
X127361998Y-89055351D01*
X127480898Y-89342401D01*
X127700597Y-89562100D01*
X127987647Y-89681000D01*
X128298349Y-89681000D01*
X128585399Y-89562100D01*
X128805098Y-89342401D01*
X128923998Y-89055351D01*
X128923998Y-88744649D01*
X128805098Y-88457599D01*
X128674000Y-88326501D01*
X128674000Y-87757000D01*
X129260999Y-87757000D01*
X129131900Y-87886099D01*
X129013000Y-88173149D01*
X129013000Y-88483851D01*
X129131900Y-88770901D01*
X129351599Y-88990600D01*
X129638649Y-89109500D01*
X129949351Y-89109500D01*
X130236401Y-88990600D01*
X130456100Y-88770901D01*
X130575000Y-88483851D01*
X130575000Y-88173149D01*
X130456100Y-87886099D01*
X130327001Y-87757000D01*
X130652687Y-87757000D01*
X130652687Y-87783841D01*
X130771587Y-88070891D01*
X130991286Y-88290590D01*
X131278336Y-88409490D01*
X131589038Y-88409490D01*
X131876088Y-88290590D01*
X132095787Y-88070891D01*
X132214687Y-87783841D01*
X132214687Y-87757000D01*
X145912766Y-87757000D01*
X147550605Y-88463800D01*
X149891536Y-90946606D01*
X149891536Y-93194447D01*
X149720496Y-93123600D01*
X149552271Y-93123600D01*
X149749576Y-92828312D01*
X149821000Y-92469239D01*
X149821000Y-91426762D01*
X149749576Y-91067688D01*
X149477501Y-90660499D01*
X149070312Y-90388424D01*
X148590000Y-90292884D01*
X148109689Y-90388424D01*
X147702500Y-90660499D01*
X147430424Y-91067688D01*
X147359000Y-91426761D01*
X147359000Y-92469238D01*
X147430424Y-92828311D01*
X147627729Y-93123600D01*
X147357904Y-93123600D01*
X147052476Y-93250112D01*
X146818712Y-93483876D01*
X146692200Y-93789304D01*
X146692200Y-94119896D01*
X146818712Y-94425324D01*
X147052476Y-94659088D01*
X147357904Y-94785600D01*
X147688496Y-94785600D01*
X147993924Y-94659088D01*
X148031200Y-94621812D01*
X148068476Y-94659088D01*
X148373904Y-94785600D01*
X148704496Y-94785600D01*
X149009924Y-94659088D01*
X149047200Y-94621812D01*
X149084476Y-94659088D01*
X149389904Y-94785600D01*
X149720496Y-94785600D01*
X150025924Y-94659088D01*
X150259688Y-94425324D01*
X150386200Y-94119896D01*
X150386200Y-93789304D01*
X150302181Y-93586464D01*
X151980000Y-93586464D01*
X152128659Y-93556894D01*
X152254686Y-93472686D01*
X152262393Y-93461151D01*
X162924583Y-104769535D01*
X162966667Y-104799017D01*
X164652680Y-105526606D01*
X164703000Y-105537000D01*
X165766800Y-105537000D01*
X165766800Y-105666951D01*
X165885700Y-105954001D01*
X166105399Y-106173700D01*
X166392449Y-106292600D01*
X166703151Y-106292600D01*
X166990201Y-106173700D01*
X167209900Y-105954001D01*
X167328800Y-105666951D01*
X167328800Y-105537000D01*
X183224394Y-105537000D01*
X184150000Y-106462606D01*
X184150000Y-107273778D01*
X183982261Y-107022739D01*
X183657767Y-106805919D01*
X183371616Y-106749000D01*
X182628384Y-106749000D01*
X182342233Y-106805919D01*
X182017739Y-107022739D01*
X181800919Y-107347233D01*
X181724782Y-107730000D01*
X181800919Y-108112767D01*
X182017739Y-108437261D01*
X182342233Y-108654081D01*
X182628384Y-108711000D01*
X183371616Y-108711000D01*
X183657767Y-108654081D01*
X183982261Y-108437261D01*
X184150000Y-108186222D01*
X184150000Y-109273778D01*
X183982261Y-109022739D01*
X183657767Y-108805919D01*
X183371616Y-108749000D01*
X182628384Y-108749000D01*
X182342233Y-108805919D01*
X182017739Y-109022739D01*
X181800919Y-109347233D01*
X181724782Y-109730000D01*
X181800919Y-110112767D01*
X182017739Y-110437261D01*
X182342233Y-110654081D01*
X182628384Y-110711000D01*
X183371616Y-110711000D01*
X183657767Y-110654081D01*
X183982261Y-110437261D01*
X184150000Y-110186222D01*
X184150000Y-111273778D01*
X183982261Y-111022739D01*
X183657767Y-110805919D01*
X183371616Y-110749000D01*
X182628384Y-110749000D01*
X182342233Y-110805919D01*
X182017739Y-111022739D01*
X181800919Y-111347233D01*
X181724782Y-111730000D01*
X181800919Y-112112767D01*
X182017739Y-112437261D01*
X182342233Y-112654081D01*
X182628384Y-112711000D01*
X183371616Y-112711000D01*
X183657767Y-112654081D01*
X183982261Y-112437261D01*
X184150000Y-112186222D01*
X184150000Y-119273778D01*
X183982261Y-119022739D01*
X183657767Y-118805919D01*
X183371616Y-118749000D01*
X182628384Y-118749000D01*
X182342233Y-118805919D01*
X182017739Y-119022739D01*
X181800919Y-119347233D01*
X181724782Y-119730000D01*
X181800919Y-120112767D01*
X182017739Y-120437261D01*
X182342233Y-120654081D01*
X182628384Y-120711000D01*
X183371616Y-120711000D01*
X183657767Y-120654081D01*
X183982261Y-120437261D01*
X184150000Y-120186222D01*
X184150000Y-121273778D01*
X183982261Y-121022739D01*
X183657767Y-120805919D01*
X183371616Y-120749000D01*
X182628384Y-120749000D01*
X182342233Y-120805919D01*
X182017739Y-121022739D01*
X181800919Y-121347233D01*
X181724782Y-121730000D01*
X181800919Y-122112767D01*
X182017739Y-122437261D01*
X182342233Y-122654081D01*
X182628384Y-122711000D01*
X183371616Y-122711000D01*
X183657767Y-122654081D01*
X183982261Y-122437261D01*
X184150000Y-122186222D01*
X184150000Y-123273778D01*
X183982261Y-123022739D01*
X183657767Y-122805919D01*
X183371616Y-122749000D01*
X182628384Y-122749000D01*
X182342233Y-122805919D01*
X182017739Y-123022739D01*
X181800919Y-123347233D01*
X181724782Y-123730000D01*
X181800919Y-124112767D01*
X182017739Y-124437261D01*
X182342233Y-124654081D01*
X182628384Y-124711000D01*
X183371616Y-124711000D01*
X183657767Y-124654081D01*
X183982261Y-124437261D01*
X184150000Y-124186222D01*
X184150000Y-125273778D01*
X183982261Y-125022739D01*
X183657767Y-124805919D01*
X183371616Y-124749000D01*
X182628384Y-124749000D01*
X182342233Y-124805919D01*
X182017739Y-125022739D01*
X181800919Y-125347233D01*
X181724782Y-125730000D01*
X181800919Y-126112767D01*
X182017739Y-126437261D01*
X182342233Y-126654081D01*
X182628384Y-126711000D01*
X183371616Y-126711000D01*
X183657767Y-126654081D01*
X183982261Y-126437261D01*
X184150000Y-126186222D01*
X184150000Y-127273778D01*
X183982261Y-127022739D01*
X183657767Y-126805919D01*
X183371616Y-126749000D01*
X182628384Y-126749000D01*
X182342233Y-126805919D01*
X182017739Y-127022739D01*
X181800919Y-127347233D01*
X181724782Y-127730000D01*
X181800919Y-128112767D01*
X182017739Y-128437261D01*
X182342233Y-128654081D01*
X182628384Y-128711000D01*
X183371616Y-128711000D01*
X183657767Y-128654081D01*
X183982261Y-128437261D01*
X184150000Y-128186222D01*
X184150000Y-129038594D01*
X184076463Y-128928537D01*
X183869330Y-128790136D01*
X183625001Y-128741536D01*
X182374999Y-128741536D01*
X182130670Y-128790136D01*
X181923537Y-128928537D01*
X181785136Y-129135670D01*
X181736536Y-129379999D01*
X181736536Y-130080001D01*
X181785136Y-130324330D01*
X181923537Y-130531463D01*
X182130670Y-130669864D01*
X182374999Y-130718464D01*
X183625001Y-130718464D01*
X183869330Y-130669864D01*
X184076463Y-130531463D01*
X184150000Y-130421406D01*
X184150000Y-136980302D01*
X183989261Y-136739739D01*
X183664767Y-136522919D01*
X183378616Y-136466000D01*
X182635384Y-136466000D01*
X182349233Y-136522919D01*
X182024739Y-136739739D01*
X181807919Y-137064233D01*
X181731782Y-137447000D01*
X181807919Y-137829767D01*
X182024739Y-138154261D01*
X182349233Y-138371081D01*
X182635384Y-138428000D01*
X183378616Y-138428000D01*
X183664767Y-138371081D01*
X183989261Y-138154261D01*
X184150000Y-137913698D01*
X184150000Y-138980302D01*
X183989261Y-138739739D01*
X183664767Y-138522919D01*
X183378616Y-138466000D01*
X182635384Y-138466000D01*
X182349233Y-138522919D01*
X182024739Y-138739739D01*
X181807919Y-139064233D01*
X181731782Y-139447000D01*
X181807919Y-139829767D01*
X182024739Y-140154261D01*
X182349233Y-140371081D01*
X182635384Y-140428000D01*
X183378616Y-140428000D01*
X183664767Y-140371081D01*
X183989261Y-140154261D01*
X184150000Y-139913698D01*
X184150000Y-140980302D01*
X183989261Y-140739739D01*
X183664767Y-140522919D01*
X183378616Y-140466000D01*
X182635384Y-140466000D01*
X182349233Y-140522919D01*
X182024739Y-140739739D01*
X181807919Y-141064233D01*
X181731782Y-141447000D01*
X181807919Y-141829767D01*
X182024739Y-142154261D01*
X182349233Y-142371081D01*
X182635384Y-142428000D01*
X183378616Y-142428000D01*
X183664767Y-142371081D01*
X183989261Y-142154261D01*
X184150000Y-141913698D01*
X184150000Y-142965394D01*
X184144029Y-142971365D01*
X183989261Y-142739739D01*
X183664767Y-142522919D01*
X183378616Y-142466000D01*
X182635384Y-142466000D01*
X182349233Y-142522919D01*
X182024739Y-142739739D01*
X181807919Y-143064233D01*
X181731782Y-143447000D01*
X181807919Y-143829767D01*
X181848834Y-143891000D01*
X177270138Y-143891000D01*
X177192100Y-143702599D01*
X176972401Y-143482900D01*
X176685351Y-143364000D01*
X176374649Y-143364000D01*
X176087599Y-143482900D01*
X175867900Y-143702599D01*
X175789862Y-143891000D01*
X175238138Y-143891000D01*
X175160100Y-143702599D01*
X174940401Y-143482900D01*
X174653351Y-143364000D01*
X174342649Y-143364000D01*
X174055599Y-143482900D01*
X173835900Y-143702599D01*
X173757862Y-143891000D01*
X173136248Y-143891000D01*
X173131000Y-143864615D01*
X173131000Y-142888609D01*
X173065378Y-142558706D01*
X172925499Y-142349363D01*
X172924081Y-142342233D01*
X172707261Y-142017739D01*
X172382766Y-141800919D01*
X172000000Y-141724782D01*
X171617233Y-141800919D01*
X171292739Y-142017739D01*
X171075919Y-142342234D01*
X171074501Y-142349363D01*
X170934622Y-142558707D01*
X170869000Y-142888610D01*
X170869000Y-143507525D01*
X170485525Y-143891000D01*
X168768240Y-143891000D01*
X168924081Y-143657767D01*
X168981000Y-143371615D01*
X168981000Y-142628384D01*
X168924081Y-142342233D01*
X168707261Y-142017739D01*
X168382766Y-141800919D01*
X168000000Y-141724782D01*
X167617233Y-141800919D01*
X167292739Y-142017739D01*
X167075919Y-142342234D01*
X167019000Y-142628385D01*
X167019000Y-143371616D01*
X167075919Y-143657767D01*
X167231761Y-143891000D01*
X166768240Y-143891000D01*
X166924081Y-143657767D01*
X166981000Y-143371615D01*
X166981000Y-142628384D01*
X166924081Y-142342233D01*
X166707261Y-142017739D01*
X166382766Y-141800919D01*
X166000000Y-141724782D01*
X165617233Y-141800919D01*
X165292739Y-142017739D01*
X165075919Y-142342234D01*
X165019000Y-142628385D01*
X165019000Y-143371616D01*
X165075919Y-143657767D01*
X165231761Y-143891000D01*
X164768240Y-143891000D01*
X164924081Y-143657767D01*
X164981000Y-143371615D01*
X164981000Y-142628384D01*
X164924081Y-142342233D01*
X164707261Y-142017739D01*
X164382766Y-141800919D01*
X164000000Y-141724782D01*
X163617233Y-141800919D01*
X163292739Y-142017739D01*
X163075919Y-142342234D01*
X163019000Y-142628385D01*
X163019000Y-143371616D01*
X163075919Y-143657767D01*
X163231761Y-143891000D01*
X162768240Y-143891000D01*
X162924081Y-143657767D01*
X162981000Y-143371615D01*
X162981000Y-142628384D01*
X162924081Y-142342233D01*
X162707261Y-142017739D01*
X162382766Y-141800919D01*
X162000000Y-141724782D01*
X161617233Y-141800919D01*
X161292739Y-142017739D01*
X161075919Y-142342234D01*
X161019000Y-142628385D01*
X161019000Y-143371616D01*
X161075919Y-143657767D01*
X161231761Y-143891000D01*
X160768240Y-143891000D01*
X160924081Y-143657767D01*
X160981000Y-143371615D01*
X160981000Y-142628384D01*
X160924081Y-142342233D01*
X160707261Y-142017739D01*
X160382766Y-141800919D01*
X160000000Y-141724782D01*
X159617233Y-141800919D01*
X159292739Y-142017739D01*
X159075919Y-142342234D01*
X159019000Y-142628385D01*
X159019000Y-143371616D01*
X159075919Y-143657767D01*
X159231761Y-143891000D01*
X158768240Y-143891000D01*
X158924081Y-143657767D01*
X158981000Y-143371615D01*
X158981000Y-142628384D01*
X158924081Y-142342233D01*
X158707261Y-142017739D01*
X158382766Y-141800919D01*
X158000000Y-141724782D01*
X157617233Y-141800919D01*
X157292739Y-142017739D01*
X157075919Y-142342234D01*
X157019000Y-142628385D01*
X157019000Y-143371616D01*
X157075919Y-143657767D01*
X157231761Y-143891000D01*
X156768240Y-143891000D01*
X156924081Y-143657767D01*
X156981000Y-143371615D01*
X156981000Y-142628384D01*
X156924081Y-142342233D01*
X156707261Y-142017739D01*
X156382766Y-141800919D01*
X156000000Y-141724782D01*
X155617233Y-141800919D01*
X155292739Y-142017739D01*
X155075919Y-142342234D01*
X155019000Y-142628385D01*
X155019000Y-143371616D01*
X155075919Y-143657767D01*
X155231761Y-143891000D01*
X154925385Y-143891000D01*
X154939864Y-143869330D01*
X154988464Y-143625001D01*
X154988464Y-142374999D01*
X154939864Y-142130670D01*
X154801463Y-141923537D01*
X154594330Y-141785136D01*
X154350001Y-141736536D01*
X153649999Y-141736536D01*
X153405670Y-141785136D01*
X153198537Y-141923537D01*
X153060136Y-142130670D01*
X153011536Y-142374999D01*
X153011536Y-143625001D01*
X153060136Y-143869330D01*
X153074615Y-143891000D01*
X149131000Y-143891000D01*
X149131000Y-142888609D01*
X149065378Y-142558706D01*
X148925499Y-142349363D01*
X148924081Y-142342233D01*
X148707261Y-142017739D01*
X148382766Y-141800919D01*
X148000000Y-141724782D01*
X147617233Y-141800919D01*
X147292739Y-142017739D01*
X147075919Y-142342234D01*
X147074501Y-142349364D01*
X146959681Y-142521205D01*
X146924081Y-142342233D01*
X146707261Y-142017739D01*
X146382766Y-141800919D01*
X146000000Y-141724782D01*
X145617233Y-141800919D01*
X145292739Y-142017739D01*
X145075919Y-142342234D01*
X145019000Y-142628385D01*
X145019000Y-143371616D01*
X145075919Y-143657767D01*
X145231761Y-143891000D01*
X144768240Y-143891000D01*
X144924081Y-143657767D01*
X144981000Y-143371615D01*
X144981000Y-142628384D01*
X144924081Y-142342233D01*
X144707261Y-142017739D01*
X144382766Y-141800919D01*
X144000000Y-141724782D01*
X143617233Y-141800919D01*
X143292739Y-142017739D01*
X143075919Y-142342234D01*
X143019000Y-142628385D01*
X143019000Y-143371616D01*
X143075919Y-143657767D01*
X143231761Y-143891000D01*
X142925385Y-143891000D01*
X142939864Y-143869330D01*
X142988464Y-143625001D01*
X142988464Y-142374999D01*
X142939864Y-142130670D01*
X142801463Y-141923537D01*
X142594330Y-141785136D01*
X142350001Y-141736536D01*
X141649999Y-141736536D01*
X141405670Y-141785136D01*
X141198537Y-141923537D01*
X141060136Y-142130670D01*
X141011536Y-142374999D01*
X141011536Y-143625001D01*
X141060136Y-143869330D01*
X141074615Y-143891000D01*
X134594576Y-143891000D01*
X134749081Y-143659767D01*
X134806000Y-143373615D01*
X134806000Y-142630384D01*
X134749081Y-142344233D01*
X134532261Y-142019739D01*
X134207766Y-141802919D01*
X133825000Y-141726782D01*
X133442233Y-141802919D01*
X133117739Y-142019739D01*
X132900919Y-142344234D01*
X132844000Y-142630385D01*
X132844000Y-143373616D01*
X132900919Y-143659767D01*
X133055425Y-143891000D01*
X132594576Y-143891000D01*
X132749081Y-143659767D01*
X132806000Y-143373615D01*
X132806000Y-142630384D01*
X132749081Y-142344233D01*
X132532261Y-142019739D01*
X132207766Y-141802919D01*
X131825000Y-141726782D01*
X131442233Y-141802919D01*
X131117739Y-142019739D01*
X130900919Y-142344234D01*
X130844000Y-142630385D01*
X130844000Y-143373616D01*
X130900919Y-143659767D01*
X131055425Y-143891000D01*
X130594576Y-143891000D01*
X130749081Y-143659767D01*
X130806000Y-143373615D01*
X130806000Y-142630384D01*
X130749081Y-142344233D01*
X130532261Y-142019739D01*
X130207766Y-141802919D01*
X129825000Y-141726782D01*
X129442233Y-141802919D01*
X129117739Y-142019739D01*
X128900919Y-142344234D01*
X128844000Y-142630385D01*
X128844000Y-143373616D01*
X128900919Y-143659767D01*
X129055425Y-143891000D01*
X128594576Y-143891000D01*
X128749081Y-143659767D01*
X128806000Y-143373615D01*
X128806000Y-142630384D01*
X128749081Y-142344233D01*
X128532261Y-142019739D01*
X128207766Y-141802919D01*
X127825000Y-141726782D01*
X127442233Y-141802919D01*
X127117739Y-142019739D01*
X126900919Y-142344234D01*
X126844000Y-142630385D01*
X126844000Y-143373616D01*
X126900919Y-143659767D01*
X127055425Y-143891000D01*
X126594576Y-143891000D01*
X126749081Y-143659767D01*
X126806000Y-143373615D01*
X126806000Y-142630384D01*
X126749081Y-142344233D01*
X126532261Y-142019739D01*
X126207766Y-141802919D01*
X125825000Y-141726782D01*
X125442233Y-141802919D01*
X125117739Y-142019739D01*
X124900919Y-142344234D01*
X124844000Y-142630385D01*
X124844000Y-143373616D01*
X124900919Y-143659767D01*
X125055425Y-143891000D01*
X124751721Y-143891000D01*
X124764864Y-143871330D01*
X124813464Y-143627001D01*
X124813464Y-142376999D01*
X124764864Y-142132670D01*
X124626463Y-141925537D01*
X124419330Y-141787136D01*
X124175001Y-141738536D01*
X123474999Y-141738536D01*
X123230670Y-141787136D01*
X123023537Y-141925537D01*
X122885136Y-142132670D01*
X122836536Y-142376999D01*
X122836536Y-143627001D01*
X122885136Y-143871330D01*
X122898279Y-143891000D01*
X122185975Y-143891000D01*
X122035000Y-143740025D01*
X122035000Y-142224385D01*
X122057156Y-142112999D01*
X122035000Y-142001613D01*
X122035000Y-142001609D01*
X121969378Y-141671706D01*
X121719405Y-141297595D01*
X121624972Y-141234497D01*
X118923500Y-138533025D01*
X118923500Y-136605955D01*
X120019000Y-136605955D01*
X120019000Y-137394045D01*
X120320589Y-138122146D01*
X120877854Y-138679411D01*
X121605955Y-138981000D01*
X122394045Y-138981000D01*
X123122146Y-138679411D01*
X123209408Y-138592149D01*
X151936500Y-138592149D01*
X151936500Y-138902851D01*
X152055400Y-139189901D01*
X152275099Y-139409600D01*
X152562149Y-139528500D01*
X152872851Y-139528500D01*
X153159901Y-139409600D01*
X153379600Y-139189901D01*
X153498500Y-138902851D01*
X153498500Y-138592149D01*
X153459869Y-138498886D01*
X153481599Y-138520616D01*
X153768649Y-138639516D01*
X154079351Y-138639516D01*
X154366401Y-138520616D01*
X154586100Y-138300917D01*
X154705000Y-138013867D01*
X154705000Y-137703165D01*
X154586100Y-137416115D01*
X154366401Y-137196416D01*
X154079351Y-137077516D01*
X153768649Y-137077516D01*
X153481599Y-137196416D01*
X153261900Y-137416115D01*
X153143000Y-137703165D01*
X153143000Y-138013867D01*
X153181631Y-138107130D01*
X153159901Y-138085400D01*
X152872851Y-137966500D01*
X152562149Y-137966500D01*
X152275099Y-138085400D01*
X152055400Y-138305099D01*
X151936500Y-138592149D01*
X123209408Y-138592149D01*
X123679411Y-138122146D01*
X123981000Y-137394045D01*
X123981000Y-136605955D01*
X123969773Y-136578849D01*
X151949518Y-136578849D01*
X151949518Y-136889551D01*
X152068418Y-137176601D01*
X152288117Y-137396300D01*
X152575167Y-137515200D01*
X152885869Y-137515200D01*
X153172919Y-137396300D01*
X153392618Y-137176601D01*
X153455603Y-137024541D01*
X165054000Y-137024541D01*
X165054000Y-137295459D01*
X165157676Y-137545756D01*
X165349244Y-137737324D01*
X165599541Y-137841000D01*
X165870459Y-137841000D01*
X166120756Y-137737324D01*
X166312324Y-137545756D01*
X166416000Y-137295459D01*
X166416000Y-137024541D01*
X166312324Y-136774244D01*
X166144035Y-136605955D01*
X170019000Y-136605955D01*
X170019000Y-137394045D01*
X170320589Y-138122146D01*
X170877854Y-138679411D01*
X171605955Y-138981000D01*
X172394045Y-138981000D01*
X173122146Y-138679411D01*
X173679411Y-138122146D01*
X173981000Y-137394045D01*
X173981000Y-136605955D01*
X173679411Y-135877854D01*
X173122146Y-135320589D01*
X172394045Y-135019000D01*
X171605955Y-135019000D01*
X170877854Y-135320589D01*
X170320589Y-135877854D01*
X170019000Y-136605955D01*
X166144035Y-136605955D01*
X166120756Y-136582676D01*
X165870459Y-136479000D01*
X165599541Y-136479000D01*
X165349244Y-136582676D01*
X165157676Y-136774244D01*
X165054000Y-137024541D01*
X153455603Y-137024541D01*
X153511518Y-136889551D01*
X153511518Y-136578849D01*
X153392618Y-136291799D01*
X153172919Y-136072100D01*
X152885869Y-135953200D01*
X152575167Y-135953200D01*
X152288117Y-136072100D01*
X152068418Y-136291799D01*
X151949518Y-136578849D01*
X123969773Y-136578849D01*
X123679411Y-135877854D01*
X123122146Y-135320589D01*
X122394045Y-135019000D01*
X121605955Y-135019000D01*
X120877854Y-135320589D01*
X120320589Y-135877854D01*
X120019000Y-136605955D01*
X118923500Y-136605955D01*
X118923500Y-134210649D01*
X126726996Y-134210649D01*
X126726996Y-134521351D01*
X126845896Y-134808401D01*
X127065595Y-135028100D01*
X127352645Y-135147000D01*
X127663347Y-135147000D01*
X127950397Y-135028100D01*
X128170096Y-134808401D01*
X128288996Y-134521351D01*
X128288996Y-134210649D01*
X128170096Y-133923599D01*
X127950397Y-133703900D01*
X127663347Y-133585000D01*
X127352645Y-133585000D01*
X127065595Y-133703900D01*
X126845896Y-133923599D01*
X126726996Y-134210649D01*
X118923500Y-134210649D01*
X118923500Y-132432649D01*
X139998500Y-132432649D01*
X139998500Y-132743351D01*
X140117400Y-133030401D01*
X140337099Y-133250100D01*
X140624149Y-133369000D01*
X140934851Y-133369000D01*
X141221901Y-133250100D01*
X141277352Y-133194649D01*
X146983500Y-133194649D01*
X146983500Y-133505351D01*
X147102400Y-133792401D01*
X147322099Y-134012100D01*
X147609149Y-134131000D01*
X147919851Y-134131000D01*
X148206901Y-134012100D01*
X148426600Y-133792401D01*
X148545500Y-133505351D01*
X148545500Y-133194649D01*
X148426600Y-132907599D01*
X148206901Y-132687900D01*
X147919851Y-132569000D01*
X147609149Y-132569000D01*
X147322099Y-132687900D01*
X147102400Y-132907599D01*
X146983500Y-133194649D01*
X141277352Y-133194649D01*
X141441600Y-133030401D01*
X141560500Y-132743351D01*
X141560500Y-132432649D01*
X141556381Y-132422704D01*
X153601000Y-132422704D01*
X153601000Y-132753296D01*
X153727512Y-133058724D01*
X153961276Y-133292488D01*
X154266704Y-133419000D01*
X154597296Y-133419000D01*
X154902724Y-133292488D01*
X155136488Y-133058724D01*
X155263000Y-132753296D01*
X155263000Y-132422704D01*
X155379000Y-132422704D01*
X155379000Y-132753296D01*
X155505512Y-133058724D01*
X155739276Y-133292488D01*
X156044704Y-133419000D01*
X156375296Y-133419000D01*
X156680724Y-133292488D01*
X156914488Y-133058724D01*
X157041000Y-132753296D01*
X157041000Y-132422708D01*
X157419000Y-132422708D01*
X157419000Y-132753300D01*
X157545512Y-133058728D01*
X157779276Y-133292492D01*
X158084704Y-133419004D01*
X158415296Y-133419004D01*
X158720724Y-133292492D01*
X158954488Y-133058728D01*
X159081000Y-132753300D01*
X159081000Y-132422708D01*
X158954488Y-132117280D01*
X158720724Y-131883516D01*
X158415296Y-131757004D01*
X158084704Y-131757004D01*
X157779276Y-131883516D01*
X157545512Y-132117280D01*
X157419000Y-132422708D01*
X157041000Y-132422708D01*
X157041000Y-132422704D01*
X156914488Y-132117276D01*
X156680724Y-131883512D01*
X156375296Y-131757000D01*
X156044704Y-131757000D01*
X155739276Y-131883512D01*
X155505512Y-132117276D01*
X155379000Y-132422704D01*
X155263000Y-132422704D01*
X155136488Y-132117276D01*
X154902724Y-131883512D01*
X154597296Y-131757000D01*
X154266704Y-131757000D01*
X153961276Y-131883512D01*
X153727512Y-132117276D01*
X153601000Y-132422704D01*
X141556381Y-132422704D01*
X141441600Y-132145599D01*
X141221901Y-131925900D01*
X140934851Y-131807000D01*
X140624149Y-131807000D01*
X140337099Y-131925900D01*
X140117400Y-132145599D01*
X139998500Y-132432649D01*
X118923500Y-132432649D01*
X118923500Y-130603000D01*
X119953863Y-130603000D01*
X120045522Y-131063803D01*
X120306547Y-131454453D01*
X120697197Y-131715478D01*
X121041682Y-131784000D01*
X121274318Y-131784000D01*
X121618803Y-131715478D01*
X122009453Y-131454453D01*
X122270478Y-131063803D01*
X122362137Y-130603000D01*
X122270478Y-130142197D01*
X122043833Y-129803000D01*
X127589536Y-129803000D01*
X127589536Y-131403000D01*
X127619106Y-131551659D01*
X127703314Y-131677686D01*
X127829341Y-131761894D01*
X127978000Y-131791464D01*
X129578000Y-131791464D01*
X129726659Y-131761894D01*
X129852686Y-131677686D01*
X129936894Y-131551659D01*
X129966464Y-131403000D01*
X129966464Y-131289649D01*
X138855500Y-131289649D01*
X138855500Y-131600351D01*
X138974400Y-131887401D01*
X139194099Y-132107100D01*
X139481149Y-132226000D01*
X139791851Y-132226000D01*
X140078901Y-132107100D01*
X140298600Y-131887401D01*
X140417500Y-131600351D01*
X140417500Y-131289649D01*
X140298600Y-131002599D01*
X140078901Y-130782900D01*
X139791851Y-130664000D01*
X139481149Y-130664000D01*
X139194099Y-130782900D01*
X138974400Y-131002599D01*
X138855500Y-131289649D01*
X129966464Y-131289649D01*
X129966464Y-129803000D01*
X129936894Y-129654341D01*
X129852686Y-129528314D01*
X129726659Y-129444106D01*
X129578000Y-129414536D01*
X127978000Y-129414536D01*
X127829341Y-129444106D01*
X127703314Y-129528314D01*
X127619106Y-129654341D01*
X127589536Y-129803000D01*
X122043833Y-129803000D01*
X122009453Y-129751547D01*
X121618803Y-129490522D01*
X121274318Y-129422000D01*
X121041682Y-129422000D01*
X120697197Y-129490522D01*
X120306547Y-129751547D01*
X120045522Y-130142197D01*
X119953863Y-130603000D01*
X118923500Y-130603000D01*
X118923500Y-129257649D01*
X146602498Y-129257649D01*
X146602498Y-129568351D01*
X146721398Y-129855401D01*
X146941097Y-130075100D01*
X147228147Y-130194000D01*
X147383520Y-130194000D01*
X147383520Y-130374831D01*
X147502420Y-130661881D01*
X147722119Y-130881580D01*
X148009169Y-131000480D01*
X148253500Y-131000480D01*
X148253500Y-131282851D01*
X148372400Y-131569901D01*
X148592099Y-131789600D01*
X148879149Y-131908500D01*
X149189851Y-131908500D01*
X149476901Y-131789600D01*
X149696600Y-131569901D01*
X149815500Y-131282851D01*
X149815500Y-130972149D01*
X149696600Y-130685099D01*
X149476901Y-130465400D01*
X149189851Y-130346500D01*
X148945520Y-130346500D01*
X148945520Y-130337149D01*
X154540000Y-130337149D01*
X154540000Y-130647851D01*
X154658900Y-130934901D01*
X154878599Y-131154600D01*
X155165649Y-131273500D01*
X155476351Y-131273500D01*
X155695945Y-131182541D01*
X165054000Y-131182541D01*
X165054000Y-131453459D01*
X165157676Y-131703756D01*
X165349244Y-131895324D01*
X165599541Y-131999000D01*
X165870459Y-131999000D01*
X166120756Y-131895324D01*
X166312324Y-131703756D01*
X166416000Y-131453459D01*
X166416000Y-131182541D01*
X169372000Y-131182541D01*
X169372000Y-131453459D01*
X169475676Y-131703756D01*
X169667244Y-131895324D01*
X169917541Y-131999000D01*
X170188459Y-131999000D01*
X170438756Y-131895324D01*
X170630324Y-131703756D01*
X170734000Y-131453459D01*
X170734000Y-131436541D01*
X177754000Y-131436541D01*
X177754000Y-131707459D01*
X177857676Y-131957756D01*
X178049244Y-132149324D01*
X178299541Y-132253000D01*
X178570459Y-132253000D01*
X178820756Y-132149324D01*
X179012324Y-131957756D01*
X179116000Y-131707459D01*
X179116000Y-131436541D01*
X179012324Y-131186244D01*
X178820756Y-130994676D01*
X178570459Y-130891000D01*
X178299541Y-130891000D01*
X178049244Y-130994676D01*
X177857676Y-131186244D01*
X177754000Y-131436541D01*
X170734000Y-131436541D01*
X170734000Y-131182541D01*
X170630324Y-130932244D01*
X170438756Y-130740676D01*
X170188459Y-130637000D01*
X169917541Y-130637000D01*
X169667244Y-130740676D01*
X169475676Y-130932244D01*
X169372000Y-131182541D01*
X166416000Y-131182541D01*
X166312324Y-130932244D01*
X166120756Y-130740676D01*
X165870459Y-130637000D01*
X165599541Y-130637000D01*
X165349244Y-130740676D01*
X165157676Y-130932244D01*
X165054000Y-131182541D01*
X155695945Y-131182541D01*
X155763401Y-131154600D01*
X155983100Y-130934901D01*
X156102000Y-130647851D01*
X156102000Y-130337149D01*
X155983100Y-130050099D01*
X155763401Y-129830400D01*
X155476351Y-129711500D01*
X155165649Y-129711500D01*
X154878599Y-129830400D01*
X154658900Y-130050099D01*
X154540000Y-130337149D01*
X148945520Y-130337149D01*
X148945520Y-130064129D01*
X148826620Y-129777079D01*
X148606921Y-129557380D01*
X148319871Y-129438480D01*
X148164498Y-129438480D01*
X148164498Y-129257649D01*
X148045598Y-128970599D01*
X147825899Y-128750900D01*
X147538849Y-128632000D01*
X147228147Y-128632000D01*
X146941097Y-128750900D01*
X146721398Y-128970599D01*
X146602498Y-129257649D01*
X118923500Y-129257649D01*
X118923500Y-128063000D01*
X119953863Y-128063000D01*
X120045522Y-128523803D01*
X120306547Y-128914453D01*
X120697197Y-129175478D01*
X121041682Y-129244000D01*
X121274318Y-129244000D01*
X121618803Y-129175478D01*
X122009453Y-128914453D01*
X122270478Y-128523803D01*
X122362137Y-128063000D01*
X127573863Y-128063000D01*
X127665522Y-128523803D01*
X127926547Y-128914453D01*
X128317197Y-129175478D01*
X128661682Y-129244000D01*
X128894318Y-129244000D01*
X129238803Y-129175478D01*
X129629453Y-128914453D01*
X129890478Y-128523803D01*
X129982137Y-128063000D01*
X129890478Y-127602197D01*
X129629453Y-127211547D01*
X129238803Y-126950522D01*
X128894318Y-126882000D01*
X128661682Y-126882000D01*
X128317197Y-126950522D01*
X127926547Y-127211547D01*
X127665522Y-127602197D01*
X127573863Y-128063000D01*
X122362137Y-128063000D01*
X122270478Y-127602197D01*
X122009453Y-127211547D01*
X121618803Y-126950522D01*
X121274318Y-126882000D01*
X121041682Y-126882000D01*
X120697197Y-126950522D01*
X120306547Y-127211547D01*
X120045522Y-127602197D01*
X119953863Y-128063000D01*
X118923500Y-128063000D01*
X118923500Y-125523000D01*
X119953863Y-125523000D01*
X120045522Y-125983803D01*
X120306547Y-126374453D01*
X120697197Y-126635478D01*
X121041682Y-126704000D01*
X121274318Y-126704000D01*
X121618803Y-126635478D01*
X122009453Y-126374453D01*
X122270478Y-125983803D01*
X122362137Y-125523000D01*
X127573863Y-125523000D01*
X127665522Y-125983803D01*
X127926547Y-126374453D01*
X128317197Y-126635478D01*
X128661682Y-126704000D01*
X128894318Y-126704000D01*
X129238803Y-126635478D01*
X129427215Y-126509584D01*
X135693996Y-126509584D01*
X135693996Y-126840176D01*
X135820508Y-127145604D01*
X136054272Y-127379368D01*
X136359700Y-127505880D01*
X136690292Y-127505880D01*
X136995720Y-127379368D01*
X137229484Y-127145604D01*
X137275235Y-127035149D01*
X159937500Y-127035149D01*
X159937500Y-127345851D01*
X160056400Y-127632901D01*
X160276099Y-127852600D01*
X160563149Y-127971500D01*
X160873851Y-127971500D01*
X161160901Y-127852600D01*
X161226500Y-127787001D01*
X161292099Y-127852600D01*
X161579149Y-127971500D01*
X161889851Y-127971500D01*
X162176901Y-127852600D01*
X162242500Y-127787001D01*
X162308099Y-127852600D01*
X162595149Y-127971500D01*
X162905851Y-127971500D01*
X163192901Y-127852600D01*
X163412600Y-127632901D01*
X163531500Y-127345851D01*
X163531500Y-127035149D01*
X163460832Y-126864541D01*
X172928000Y-126864541D01*
X172928000Y-127135459D01*
X173031676Y-127385756D01*
X173223244Y-127577324D01*
X173473541Y-127681000D01*
X173744459Y-127681000D01*
X173994756Y-127577324D01*
X174186324Y-127385756D01*
X174290000Y-127135459D01*
X174290000Y-126864541D01*
X177754000Y-126864541D01*
X177754000Y-127135459D01*
X177857676Y-127385756D01*
X178049244Y-127577324D01*
X178299541Y-127681000D01*
X178570459Y-127681000D01*
X178820756Y-127577324D01*
X179012324Y-127385756D01*
X179116000Y-127135459D01*
X179116000Y-126864541D01*
X179012324Y-126614244D01*
X178820756Y-126422676D01*
X178570459Y-126319000D01*
X178299541Y-126319000D01*
X178049244Y-126422676D01*
X177857676Y-126614244D01*
X177754000Y-126864541D01*
X174290000Y-126864541D01*
X174186324Y-126614244D01*
X173994756Y-126422676D01*
X173744459Y-126319000D01*
X173473541Y-126319000D01*
X173223244Y-126422676D01*
X173031676Y-126614244D01*
X172928000Y-126864541D01*
X163460832Y-126864541D01*
X163412600Y-126748099D01*
X163192901Y-126528400D01*
X162905851Y-126409500D01*
X162595149Y-126409500D01*
X162308099Y-126528400D01*
X162242500Y-126593999D01*
X162176901Y-126528400D01*
X161889851Y-126409500D01*
X161579149Y-126409500D01*
X161292099Y-126528400D01*
X161226500Y-126593999D01*
X161160901Y-126528400D01*
X160873851Y-126409500D01*
X160563149Y-126409500D01*
X160276099Y-126528400D01*
X160056400Y-126748099D01*
X159937500Y-127035149D01*
X137275235Y-127035149D01*
X137355996Y-126840176D01*
X137355996Y-126509584D01*
X137229484Y-126204156D01*
X136995720Y-125970392D01*
X136690292Y-125843880D01*
X136359700Y-125843880D01*
X136054272Y-125970392D01*
X135820508Y-126204156D01*
X135693996Y-126509584D01*
X129427215Y-126509584D01*
X129629453Y-126374453D01*
X129890478Y-125983803D01*
X129982137Y-125523000D01*
X129890478Y-125062197D01*
X129703513Y-124782384D01*
X135694000Y-124782384D01*
X135694000Y-125112976D01*
X135820512Y-125418404D01*
X136054276Y-125652168D01*
X136359704Y-125778680D01*
X136690296Y-125778680D01*
X136995724Y-125652168D01*
X137073243Y-125574649D01*
X137649000Y-125574649D01*
X137649000Y-125885351D01*
X137767900Y-126172401D01*
X137987599Y-126392100D01*
X138274649Y-126511000D01*
X138585351Y-126511000D01*
X138872401Y-126392100D01*
X139092100Y-126172401D01*
X139211000Y-125885351D01*
X139211000Y-125574649D01*
X139092100Y-125287599D01*
X138872401Y-125067900D01*
X138585351Y-124949000D01*
X138274649Y-124949000D01*
X137987599Y-125067900D01*
X137767900Y-125287599D01*
X137649000Y-125574649D01*
X137073243Y-125574649D01*
X137229488Y-125418404D01*
X137356000Y-125112976D01*
X137356000Y-124939657D01*
X148126500Y-124939657D01*
X148126500Y-125250359D01*
X148245400Y-125537409D01*
X148465099Y-125757108D01*
X148752149Y-125876008D01*
X149062851Y-125876008D01*
X149349901Y-125757108D01*
X149532360Y-125574649D01*
X150666500Y-125574649D01*
X150666500Y-125885351D01*
X150785400Y-126172401D01*
X151005099Y-126392100D01*
X151292149Y-126511000D01*
X151602851Y-126511000D01*
X151889901Y-126392100D01*
X152109600Y-126172401D01*
X152228500Y-125885351D01*
X152228500Y-125574649D01*
X152202199Y-125511151D01*
X153714500Y-125511151D01*
X153714500Y-125821853D01*
X153833400Y-126108903D01*
X154053099Y-126328602D01*
X154340149Y-126447502D01*
X154650851Y-126447502D01*
X154937901Y-126328602D01*
X155157600Y-126108903D01*
X155276500Y-125821853D01*
X155276500Y-125511151D01*
X155157600Y-125224101D01*
X154937901Y-125004402D01*
X154650851Y-124885502D01*
X154340149Y-124885502D01*
X154053099Y-125004402D01*
X153833400Y-125224101D01*
X153714500Y-125511151D01*
X152202199Y-125511151D01*
X152109600Y-125287599D01*
X151889901Y-125067900D01*
X151602851Y-124949000D01*
X151292149Y-124949000D01*
X151005099Y-125067900D01*
X150785400Y-125287599D01*
X150666500Y-125574649D01*
X149532360Y-125574649D01*
X149569600Y-125537409D01*
X149688500Y-125250359D01*
X149688500Y-124939657D01*
X149569600Y-124652607D01*
X149349901Y-124432908D01*
X149062851Y-124314008D01*
X148752149Y-124314008D01*
X148465099Y-124432908D01*
X148245400Y-124652607D01*
X148126500Y-124939657D01*
X137356000Y-124939657D01*
X137356000Y-124782384D01*
X137229488Y-124476956D01*
X136995724Y-124243192D01*
X136690296Y-124116680D01*
X136359704Y-124116680D01*
X136054276Y-124243192D01*
X135820512Y-124476956D01*
X135694000Y-124782384D01*
X129703513Y-124782384D01*
X129629453Y-124671547D01*
X129238803Y-124410522D01*
X128894318Y-124342000D01*
X128661682Y-124342000D01*
X128317197Y-124410522D01*
X127926547Y-124671547D01*
X127665522Y-125062197D01*
X127573863Y-125523000D01*
X122362137Y-125523000D01*
X122270478Y-125062197D01*
X122009453Y-124671547D01*
X121618803Y-124410522D01*
X121274318Y-124342000D01*
X121041682Y-124342000D01*
X120697197Y-124410522D01*
X120306547Y-124671547D01*
X120045522Y-125062197D01*
X119953863Y-125523000D01*
X118923500Y-125523000D01*
X118923500Y-122983000D01*
X127573863Y-122983000D01*
X127665522Y-123443803D01*
X127926547Y-123834453D01*
X128317197Y-124095478D01*
X128661682Y-124164000D01*
X128894318Y-124164000D01*
X129238803Y-124095478D01*
X129629453Y-123834453D01*
X129754344Y-123647541D01*
X137991312Y-123647541D01*
X137991312Y-123958243D01*
X138110212Y-124245293D01*
X138329911Y-124464992D01*
X138616961Y-124583892D01*
X138927663Y-124583892D01*
X139214713Y-124464992D01*
X139434412Y-124245293D01*
X139553312Y-123958243D01*
X139553312Y-123647541D01*
X139434412Y-123360491D01*
X139214713Y-123140792D01*
X138927663Y-123021892D01*
X138616961Y-123021892D01*
X138329911Y-123140792D01*
X138110212Y-123360491D01*
X137991312Y-123647541D01*
X129754344Y-123647541D01*
X129890478Y-123443803D01*
X129982137Y-122983000D01*
X129890478Y-122522197D01*
X129652168Y-122165541D01*
X142384500Y-122165541D01*
X142384500Y-122436459D01*
X142488176Y-122686756D01*
X142515170Y-122713750D01*
X142488176Y-122740744D01*
X142384500Y-122991041D01*
X142384500Y-123261959D01*
X142488176Y-123512256D01*
X142679744Y-123703824D01*
X142930041Y-123807500D01*
X143200959Y-123807500D01*
X143451256Y-123703824D01*
X143642824Y-123512256D01*
X143746500Y-123261959D01*
X143746500Y-122991041D01*
X143642824Y-122740744D01*
X143615830Y-122713750D01*
X143642824Y-122686756D01*
X143746500Y-122436459D01*
X143746500Y-122272649D01*
X145396000Y-122272649D01*
X145396000Y-122583351D01*
X145514900Y-122870401D01*
X145734599Y-123090100D01*
X146021649Y-123209000D01*
X146332351Y-123209000D01*
X146599968Y-123098149D01*
X159937500Y-123098149D01*
X159937500Y-123408851D01*
X160056400Y-123695901D01*
X160276099Y-123915600D01*
X160563149Y-124034500D01*
X160873851Y-124034500D01*
X161160901Y-123915600D01*
X161226500Y-123850001D01*
X161292099Y-123915600D01*
X161579149Y-124034500D01*
X161889851Y-124034500D01*
X162176901Y-123915600D01*
X162242503Y-123849998D01*
X162308105Y-123915600D01*
X162595155Y-124034500D01*
X162905857Y-124034500D01*
X163192907Y-123915600D01*
X163412606Y-123695901D01*
X163531506Y-123408851D01*
X163531506Y-123098149D01*
X163412606Y-122811099D01*
X163192907Y-122591400D01*
X162905857Y-122472500D01*
X162595155Y-122472500D01*
X162308105Y-122591400D01*
X162242503Y-122657002D01*
X162176901Y-122591400D01*
X161889851Y-122472500D01*
X161579149Y-122472500D01*
X161292099Y-122591400D01*
X161226500Y-122656999D01*
X161160901Y-122591400D01*
X160873851Y-122472500D01*
X160563149Y-122472500D01*
X160276099Y-122591400D01*
X160056400Y-122811099D01*
X159937500Y-123098149D01*
X146599968Y-123098149D01*
X146619401Y-123090100D01*
X146839100Y-122870401D01*
X146958000Y-122583351D01*
X146958000Y-122272649D01*
X146839100Y-121985599D01*
X146619401Y-121765900D01*
X146332351Y-121647000D01*
X146021649Y-121647000D01*
X145734599Y-121765900D01*
X145514900Y-121985599D01*
X145396000Y-122272649D01*
X143746500Y-122272649D01*
X143746500Y-122165541D01*
X143642824Y-121915244D01*
X143451256Y-121723676D01*
X143200959Y-121620000D01*
X142930041Y-121620000D01*
X142679744Y-121723676D01*
X142488176Y-121915244D01*
X142384500Y-122165541D01*
X129652168Y-122165541D01*
X129629453Y-122131547D01*
X129238803Y-121870522D01*
X128894318Y-121802000D01*
X128661682Y-121802000D01*
X128317197Y-121870522D01*
X127926547Y-122131547D01*
X127665522Y-122522197D01*
X127573863Y-122983000D01*
X118923500Y-122983000D01*
X118923500Y-119976704D01*
X122994000Y-119976704D01*
X122994000Y-120307296D01*
X123120512Y-120612724D01*
X123354276Y-120846488D01*
X123659704Y-120973000D01*
X123990296Y-120973000D01*
X124295724Y-120846488D01*
X124529488Y-120612724D01*
X124608817Y-120421204D01*
X130169500Y-120421204D01*
X130169500Y-120751796D01*
X130296012Y-121057224D01*
X130529776Y-121290988D01*
X130835204Y-121417500D01*
X131165796Y-121417500D01*
X131471224Y-121290988D01*
X131704988Y-121057224D01*
X131831500Y-120751796D01*
X131831500Y-120421204D01*
X131704988Y-120115776D01*
X131471224Y-119882012D01*
X131165796Y-119755500D01*
X130835204Y-119755500D01*
X130529776Y-119882012D01*
X130296012Y-120115776D01*
X130169500Y-120421204D01*
X124608817Y-120421204D01*
X124656000Y-120307296D01*
X124656000Y-119976704D01*
X124529488Y-119671276D01*
X124295724Y-119437512D01*
X123990296Y-119311000D01*
X123659704Y-119311000D01*
X123354276Y-119437512D01*
X123120512Y-119671276D01*
X122994000Y-119976704D01*
X118923500Y-119976704D01*
X118923500Y-119022975D01*
X119166326Y-118780149D01*
X121901000Y-118780149D01*
X121901000Y-119090851D01*
X122019900Y-119377901D01*
X122239599Y-119597600D01*
X122526649Y-119716500D01*
X122837351Y-119716500D01*
X123124401Y-119597600D01*
X123344100Y-119377901D01*
X123381276Y-119288149D01*
X139236500Y-119288149D01*
X139236500Y-119598851D01*
X139355400Y-119885901D01*
X139575099Y-120105600D01*
X139862149Y-120224500D01*
X140172851Y-120224500D01*
X140440449Y-120113657D01*
X143300500Y-120113657D01*
X143300500Y-120424359D01*
X143419400Y-120711409D01*
X143639099Y-120931108D01*
X143926149Y-121050008D01*
X144236851Y-121050008D01*
X144523901Y-120931108D01*
X144743600Y-120711409D01*
X144833384Y-120494649D01*
X147174000Y-120494649D01*
X147174000Y-120805351D01*
X147292900Y-121092401D01*
X147512599Y-121312100D01*
X147799649Y-121431000D01*
X148110351Y-121431000D01*
X148397401Y-121312100D01*
X148617100Y-121092401D01*
X148706878Y-120875657D01*
X151936500Y-120875657D01*
X151936500Y-121186359D01*
X152055400Y-121473409D01*
X152275099Y-121693108D01*
X152562149Y-121812008D01*
X152872851Y-121812008D01*
X153159901Y-121693108D01*
X153379600Y-121473409D01*
X153498500Y-121186359D01*
X153498500Y-120875657D01*
X153379600Y-120588607D01*
X153159901Y-120368908D01*
X152872851Y-120250008D01*
X152562149Y-120250008D01*
X152275099Y-120368908D01*
X152055400Y-120588607D01*
X151936500Y-120875657D01*
X148706878Y-120875657D01*
X148736000Y-120805351D01*
X148736000Y-120494649D01*
X148617100Y-120207599D01*
X148397401Y-119987900D01*
X148110351Y-119869000D01*
X147799649Y-119869000D01*
X147512599Y-119987900D01*
X147292900Y-120207599D01*
X147174000Y-120494649D01*
X144833384Y-120494649D01*
X144862500Y-120424359D01*
X144862500Y-120113657D01*
X144743600Y-119826607D01*
X144523901Y-119606908D01*
X144236851Y-119488008D01*
X143926149Y-119488008D01*
X143639099Y-119606908D01*
X143419400Y-119826607D01*
X143300500Y-120113657D01*
X140440449Y-120113657D01*
X140459901Y-120105600D01*
X140679600Y-119885901D01*
X140798500Y-119598851D01*
X140798500Y-119288149D01*
X140679600Y-119001099D01*
X140459901Y-118781400D01*
X140172851Y-118662500D01*
X139862149Y-118662500D01*
X139575099Y-118781400D01*
X139355400Y-119001099D01*
X139236500Y-119288149D01*
X123381276Y-119288149D01*
X123463000Y-119090851D01*
X123463000Y-118780149D01*
X123344100Y-118493099D01*
X123124401Y-118273400D01*
X122837351Y-118154500D01*
X122526649Y-118154500D01*
X122239599Y-118273400D01*
X122019900Y-118493099D01*
X121901000Y-118780149D01*
X119166326Y-118780149D01*
X119925955Y-118020520D01*
X125939306Y-118020520D01*
X126126574Y-118145649D01*
X126515545Y-118223020D01*
X127373215Y-118223020D01*
X127762186Y-118145649D01*
X128203279Y-117850919D01*
X128346253Y-117636944D01*
X154992117Y-117636944D01*
X154992117Y-117947646D01*
X155111017Y-118234696D01*
X155330716Y-118454395D01*
X155617766Y-118573295D01*
X155928468Y-118573295D01*
X156215518Y-118454395D01*
X156435217Y-118234696D01*
X156554117Y-117947646D01*
X156554117Y-117636944D01*
X156513069Y-117537845D01*
X164598404Y-117537845D01*
X164598404Y-117848547D01*
X164717304Y-118135597D01*
X164937003Y-118355296D01*
X165224053Y-118474196D01*
X165534755Y-118474196D01*
X165821805Y-118355296D01*
X166041504Y-118135597D01*
X166160404Y-117848547D01*
X166160404Y-117537845D01*
X172320000Y-117537845D01*
X172320000Y-117848547D01*
X172438900Y-118135597D01*
X172658599Y-118355296D01*
X172945649Y-118474196D01*
X173256351Y-118474196D01*
X173543401Y-118355296D01*
X173763100Y-118135597D01*
X173882000Y-117848547D01*
X173882000Y-117537845D01*
X173763100Y-117250795D01*
X173543401Y-117031096D01*
X173256351Y-116912196D01*
X172945649Y-116912196D01*
X172658599Y-117031096D01*
X172438900Y-117250795D01*
X172320000Y-117537845D01*
X166160404Y-117537845D01*
X166041504Y-117250795D01*
X165821805Y-117031096D01*
X165534755Y-116912196D01*
X165224053Y-116912196D01*
X164937003Y-117031096D01*
X164717304Y-117250795D01*
X164598404Y-117537845D01*
X156513069Y-117537845D01*
X156435217Y-117349894D01*
X156365900Y-117280577D01*
X156491076Y-117155401D01*
X156609976Y-116868351D01*
X156609976Y-116557649D01*
X156531069Y-116367149D01*
X160064500Y-116367149D01*
X160064500Y-116677851D01*
X160183400Y-116964901D01*
X160403099Y-117184600D01*
X160690149Y-117303500D01*
X161000851Y-117303500D01*
X161287901Y-117184600D01*
X161507600Y-116964901D01*
X161626500Y-116677851D01*
X161626500Y-116367149D01*
X161507600Y-116080099D01*
X161287901Y-115860400D01*
X161000851Y-115741500D01*
X160690149Y-115741500D01*
X160403099Y-115860400D01*
X160183400Y-116080099D01*
X160064500Y-116367149D01*
X156531069Y-116367149D01*
X156491076Y-116270599D01*
X156330239Y-116109762D01*
X156491100Y-115948901D01*
X156610000Y-115661851D01*
X156610000Y-115351149D01*
X156491100Y-115064099D01*
X156433950Y-115006949D01*
X156503630Y-114937269D01*
X156622530Y-114650219D01*
X156622530Y-114339517D01*
X156503630Y-114052467D01*
X156283931Y-113832768D01*
X155996881Y-113713868D01*
X155686179Y-113713868D01*
X155399129Y-113832768D01*
X155179430Y-114052467D01*
X155060530Y-114339517D01*
X155060530Y-114650219D01*
X155179430Y-114937269D01*
X155236580Y-114994419D01*
X155166900Y-115064099D01*
X155048000Y-115351149D01*
X155048000Y-115661851D01*
X155166900Y-115948901D01*
X155327737Y-116109738D01*
X155166876Y-116270599D01*
X155047976Y-116557649D01*
X155047976Y-116868351D01*
X155166876Y-117155401D01*
X155236193Y-117224718D01*
X155111017Y-117349894D01*
X154992117Y-117636944D01*
X128346253Y-117636944D01*
X128498009Y-117409826D01*
X128601504Y-116889520D01*
X128498009Y-116369214D01*
X128203279Y-115928121D01*
X127844724Y-115688541D01*
X131272000Y-115688541D01*
X131272000Y-115959459D01*
X131375676Y-116209756D01*
X131567244Y-116401324D01*
X131817541Y-116505000D01*
X132088459Y-116505000D01*
X132338756Y-116401324D01*
X132530324Y-116209756D01*
X132622944Y-115986149D01*
X138855500Y-115986149D01*
X138855500Y-116296851D01*
X138974400Y-116583901D01*
X139194099Y-116803600D01*
X139481149Y-116922500D01*
X139791851Y-116922500D01*
X140078901Y-116803600D01*
X140298600Y-116583901D01*
X140417500Y-116296851D01*
X140417500Y-115986149D01*
X140298600Y-115699099D01*
X140078901Y-115479400D01*
X139791851Y-115360500D01*
X139481149Y-115360500D01*
X139194099Y-115479400D01*
X138974400Y-115699099D01*
X138855500Y-115986149D01*
X132622944Y-115986149D01*
X132634000Y-115959459D01*
X132634000Y-115688541D01*
X132530324Y-115438244D01*
X132338756Y-115246676D01*
X132088459Y-115143000D01*
X131817541Y-115143000D01*
X131567244Y-115246676D01*
X131375676Y-115438244D01*
X131272000Y-115688541D01*
X127844724Y-115688541D01*
X127762186Y-115633391D01*
X127692452Y-115619520D01*
X127762186Y-115605649D01*
X128203279Y-115310919D01*
X128346116Y-115097149D01*
X142284500Y-115097149D01*
X142284500Y-115407851D01*
X142403400Y-115694901D01*
X142623099Y-115914600D01*
X142910149Y-116033500D01*
X143220851Y-116033500D01*
X143507901Y-115914600D01*
X143727600Y-115694901D01*
X143846500Y-115407851D01*
X143846500Y-115097149D01*
X143727600Y-114810099D01*
X143697158Y-114779657D01*
X145586500Y-114779657D01*
X145586500Y-115090359D01*
X145705400Y-115377409D01*
X145925099Y-115597108D01*
X146212149Y-115716008D01*
X146522851Y-115716008D01*
X146809901Y-115597108D01*
X147029600Y-115377409D01*
X147148500Y-115090359D01*
X147148500Y-114779657D01*
X147029600Y-114492607D01*
X146809901Y-114272908D01*
X146522851Y-114154008D01*
X146212149Y-114154008D01*
X145925099Y-114272908D01*
X145705400Y-114492607D01*
X145586500Y-114779657D01*
X143697158Y-114779657D01*
X143507901Y-114590400D01*
X143220851Y-114471500D01*
X142910149Y-114471500D01*
X142623099Y-114590400D01*
X142403400Y-114810099D01*
X142284500Y-115097149D01*
X128346116Y-115097149D01*
X128498009Y-114869826D01*
X128601504Y-114349520D01*
X128498009Y-113829214D01*
X128284488Y-113509657D01*
X142284500Y-113509657D01*
X142284500Y-113820359D01*
X142403400Y-114107409D01*
X142623099Y-114327108D01*
X142910149Y-114446008D01*
X143220851Y-114446008D01*
X143507901Y-114327108D01*
X143727600Y-114107409D01*
X143846500Y-113820359D01*
X143846500Y-113509657D01*
X143727600Y-113222607D01*
X143507901Y-113002908D01*
X143504862Y-113001649D01*
X147174000Y-113001649D01*
X147174000Y-113312351D01*
X147292900Y-113599401D01*
X147512599Y-113819100D01*
X147799649Y-113938000D01*
X148110351Y-113938000D01*
X148397401Y-113819100D01*
X148617100Y-113599401D01*
X148736000Y-113312351D01*
X148736000Y-113001649D01*
X150477510Y-113001649D01*
X150477510Y-113312351D01*
X150596410Y-113599401D01*
X150816109Y-113819100D01*
X151103159Y-113938000D01*
X151413861Y-113938000D01*
X151700911Y-113819100D01*
X151920610Y-113599401D01*
X152039510Y-113312351D01*
X152039510Y-113001649D01*
X151920610Y-112714599D01*
X151700911Y-112494900D01*
X151413861Y-112376000D01*
X151103159Y-112376000D01*
X150816109Y-112494900D01*
X150596410Y-112714599D01*
X150477510Y-113001649D01*
X148736000Y-113001649D01*
X148617100Y-112714599D01*
X148397401Y-112494900D01*
X148110351Y-112376000D01*
X147799649Y-112376000D01*
X147512599Y-112494900D01*
X147292900Y-112714599D01*
X147174000Y-113001649D01*
X143504862Y-113001649D01*
X143220851Y-112884008D01*
X142910149Y-112884008D01*
X142623099Y-113002908D01*
X142403400Y-113222607D01*
X142284500Y-113509657D01*
X128284488Y-113509657D01*
X128203279Y-113388121D01*
X127847631Y-113150484D01*
X127944380Y-113150484D01*
X128093039Y-113120914D01*
X128219066Y-113036706D01*
X128303274Y-112910679D01*
X128332844Y-112762020D01*
X128332844Y-110857020D01*
X128303274Y-110708361D01*
X128236577Y-110608541D01*
X131018000Y-110608541D01*
X131018000Y-110879459D01*
X131121676Y-111129756D01*
X131313244Y-111321324D01*
X131563541Y-111425000D01*
X131834459Y-111425000D01*
X131992745Y-111359436D01*
X138379732Y-111359436D01*
X138379732Y-111690028D01*
X138506244Y-111995456D01*
X138740008Y-112229220D01*
X139045436Y-112355732D01*
X139376028Y-112355732D01*
X139681456Y-112229220D01*
X139734527Y-112176149D01*
X140824000Y-112176149D01*
X140824000Y-112486851D01*
X140942900Y-112773901D01*
X141162599Y-112993600D01*
X141449649Y-113112500D01*
X141760351Y-113112500D01*
X142047401Y-112993600D01*
X142267100Y-112773901D01*
X142386000Y-112486851D01*
X142386000Y-112366649D01*
X157715000Y-112366649D01*
X157715000Y-112677351D01*
X157833900Y-112964401D01*
X158053599Y-113184100D01*
X158340649Y-113303000D01*
X158651351Y-113303000D01*
X158938401Y-113184100D01*
X159158100Y-112964401D01*
X159277000Y-112677351D01*
X159277000Y-112366649D01*
X159158100Y-112079599D01*
X158938401Y-111859900D01*
X158651351Y-111741000D01*
X158340649Y-111741000D01*
X158053599Y-111859900D01*
X157833900Y-112079599D01*
X157715000Y-112366649D01*
X142386000Y-112366649D01*
X142386000Y-112176149D01*
X142267100Y-111889099D01*
X142047401Y-111669400D01*
X141760351Y-111550500D01*
X141449649Y-111550500D01*
X141162599Y-111669400D01*
X140942900Y-111889099D01*
X140824000Y-112176149D01*
X139734527Y-112176149D01*
X139915220Y-111995456D01*
X140041732Y-111690028D01*
X140041732Y-111525000D01*
X140236352Y-111525000D01*
X140523402Y-111406100D01*
X140743101Y-111186401D01*
X140862001Y-110899351D01*
X140862001Y-110715649D01*
X161779000Y-110715649D01*
X161779000Y-111026351D01*
X161897900Y-111313401D01*
X162117599Y-111533100D01*
X162404649Y-111652000D01*
X162715351Y-111652000D01*
X163002401Y-111533100D01*
X163222100Y-111313401D01*
X163341000Y-111026351D01*
X163341000Y-110715649D01*
X163684000Y-110715649D01*
X163684000Y-111026351D01*
X163802900Y-111313401D01*
X164022599Y-111533100D01*
X164309649Y-111652000D01*
X164620351Y-111652000D01*
X164907401Y-111533100D01*
X165127100Y-111313401D01*
X165246000Y-111026351D01*
X165246000Y-110715649D01*
X165589000Y-110715649D01*
X165589000Y-111026351D01*
X165707900Y-111313401D01*
X165927599Y-111533100D01*
X166214649Y-111652000D01*
X166525351Y-111652000D01*
X166812401Y-111533100D01*
X167032100Y-111313401D01*
X167151000Y-111026351D01*
X167151000Y-110715649D01*
X167494000Y-110715649D01*
X167494000Y-111026351D01*
X167612900Y-111313401D01*
X167832599Y-111533100D01*
X168119649Y-111652000D01*
X168430351Y-111652000D01*
X168717401Y-111533100D01*
X168937100Y-111313401D01*
X169056000Y-111026351D01*
X169056000Y-110715649D01*
X169399000Y-110715649D01*
X169399000Y-111026351D01*
X169517900Y-111313401D01*
X169737599Y-111533100D01*
X170024649Y-111652000D01*
X170335351Y-111652000D01*
X170622401Y-111533100D01*
X170842100Y-111313401D01*
X170961000Y-111026351D01*
X170961000Y-110715649D01*
X171304000Y-110715649D01*
X171304000Y-111026351D01*
X171422900Y-111313401D01*
X171642599Y-111533100D01*
X171929649Y-111652000D01*
X172240351Y-111652000D01*
X172527401Y-111533100D01*
X172747100Y-111313401D01*
X172866000Y-111026351D01*
X172866000Y-110715649D01*
X173209000Y-110715649D01*
X173209000Y-111026351D01*
X173327900Y-111313401D01*
X173547599Y-111533100D01*
X173834649Y-111652000D01*
X174145351Y-111652000D01*
X174432401Y-111533100D01*
X174652100Y-111313401D01*
X174771000Y-111026351D01*
X174771000Y-110715649D01*
X175114000Y-110715649D01*
X175114000Y-111026351D01*
X175232900Y-111313401D01*
X175452599Y-111533100D01*
X175739649Y-111652000D01*
X176050351Y-111652000D01*
X176337401Y-111533100D01*
X176557100Y-111313401D01*
X176676000Y-111026351D01*
X176676000Y-110715649D01*
X176557100Y-110428599D01*
X176337401Y-110208900D01*
X176050351Y-110090000D01*
X175739649Y-110090000D01*
X175452599Y-110208900D01*
X175232900Y-110428599D01*
X175114000Y-110715649D01*
X174771000Y-110715649D01*
X174652100Y-110428599D01*
X174432401Y-110208900D01*
X174145351Y-110090000D01*
X173834649Y-110090000D01*
X173547599Y-110208900D01*
X173327900Y-110428599D01*
X173209000Y-110715649D01*
X172866000Y-110715649D01*
X172747100Y-110428599D01*
X172527401Y-110208900D01*
X172240351Y-110090000D01*
X171929649Y-110090000D01*
X171642599Y-110208900D01*
X171422900Y-110428599D01*
X171304000Y-110715649D01*
X170961000Y-110715649D01*
X170842100Y-110428599D01*
X170622401Y-110208900D01*
X170335351Y-110090000D01*
X170024649Y-110090000D01*
X169737599Y-110208900D01*
X169517900Y-110428599D01*
X169399000Y-110715649D01*
X169056000Y-110715649D01*
X168937100Y-110428599D01*
X168717401Y-110208900D01*
X168430351Y-110090000D01*
X168119649Y-110090000D01*
X167832599Y-110208900D01*
X167612900Y-110428599D01*
X167494000Y-110715649D01*
X167151000Y-110715649D01*
X167032100Y-110428599D01*
X166812401Y-110208900D01*
X166525351Y-110090000D01*
X166214649Y-110090000D01*
X165927599Y-110208900D01*
X165707900Y-110428599D01*
X165589000Y-110715649D01*
X165246000Y-110715649D01*
X165127100Y-110428599D01*
X164907401Y-110208900D01*
X164620351Y-110090000D01*
X164309649Y-110090000D01*
X164022599Y-110208900D01*
X163802900Y-110428599D01*
X163684000Y-110715649D01*
X163341000Y-110715649D01*
X163222100Y-110428599D01*
X163002401Y-110208900D01*
X162715351Y-110090000D01*
X162404649Y-110090000D01*
X162117599Y-110208900D01*
X161897900Y-110428599D01*
X161779000Y-110715649D01*
X140862001Y-110715649D01*
X140862001Y-110588649D01*
X140743101Y-110301599D01*
X140523402Y-110081900D01*
X140236352Y-109963000D01*
X139925650Y-109963000D01*
X139638600Y-110081900D01*
X139418901Y-110301599D01*
X139300001Y-110588649D01*
X139300001Y-110693732D01*
X139045436Y-110693732D01*
X138740008Y-110820244D01*
X138506244Y-111054008D01*
X138379732Y-111359436D01*
X131992745Y-111359436D01*
X132084756Y-111321324D01*
X132276324Y-111129756D01*
X132380000Y-110879459D01*
X132380000Y-110608541D01*
X132276324Y-110358244D01*
X132084756Y-110166676D01*
X131834459Y-110063000D01*
X131563541Y-110063000D01*
X131313244Y-110166676D01*
X131121676Y-110358244D01*
X131018000Y-110608541D01*
X128236577Y-110608541D01*
X128219066Y-110582334D01*
X128093039Y-110498126D01*
X127944380Y-110468556D01*
X125944380Y-110468556D01*
X125795721Y-110498126D01*
X125669694Y-110582334D01*
X125585486Y-110708361D01*
X125555916Y-110857020D01*
X125555916Y-110928520D01*
X115476442Y-110928520D01*
X115316000Y-110768078D01*
X115316000Y-109557723D01*
X141415175Y-109557723D01*
X141415175Y-109888315D01*
X141541687Y-110193743D01*
X141775451Y-110427507D01*
X142080879Y-110554019D01*
X142411471Y-110554019D01*
X142716899Y-110427507D01*
X142950663Y-110193743D01*
X143077175Y-109888315D01*
X143077175Y-109557723D01*
X142950663Y-109252295D01*
X142716899Y-109018531D01*
X142411471Y-108892019D01*
X142080879Y-108892019D01*
X141775451Y-109018531D01*
X141541687Y-109252295D01*
X141415175Y-109557723D01*
X115316000Y-109557723D01*
X115316000Y-108322541D01*
X118826000Y-108322541D01*
X118826000Y-108593459D01*
X118929676Y-108843756D01*
X119121244Y-109035324D01*
X119371541Y-109139000D01*
X119642459Y-109139000D01*
X119892756Y-109035324D01*
X120084324Y-108843756D01*
X120188000Y-108593459D01*
X120188000Y-108322541D01*
X124922000Y-108322541D01*
X124922000Y-108593459D01*
X125025676Y-108843756D01*
X125217244Y-109035324D01*
X125467541Y-109139000D01*
X125738459Y-109139000D01*
X125988756Y-109035324D01*
X126180324Y-108843756D01*
X126284000Y-108593459D01*
X126284000Y-108322541D01*
X135590000Y-108322541D01*
X135590000Y-108593459D01*
X135693676Y-108843756D01*
X135885244Y-109035324D01*
X136135541Y-109139000D01*
X136406459Y-109139000D01*
X136656756Y-109035324D01*
X136848324Y-108843756D01*
X136952000Y-108593459D01*
X136952000Y-108343508D01*
X144736400Y-108343508D01*
X144736400Y-108674100D01*
X144862912Y-108979528D01*
X145096676Y-109213292D01*
X145402104Y-109339804D01*
X145732696Y-109339804D01*
X146038124Y-109213292D01*
X146271888Y-108979528D01*
X146305661Y-108897993D01*
X146327700Y-108951201D01*
X146547399Y-109170900D01*
X146834449Y-109289800D01*
X147145151Y-109289800D01*
X147432201Y-109170900D01*
X147651900Y-108951201D01*
X147770800Y-108664151D01*
X147770800Y-108546704D01*
X152966000Y-108546704D01*
X152966000Y-108877296D01*
X153092512Y-109182724D01*
X153326276Y-109416488D01*
X153631704Y-109543000D01*
X153962296Y-109543000D01*
X154267724Y-109416488D01*
X154501488Y-109182724D01*
X154628000Y-108877296D01*
X154628000Y-108698800D01*
X154658900Y-108773399D01*
X154724142Y-108838641D01*
X154663085Y-108899697D01*
X154544185Y-109186747D01*
X154544185Y-109497449D01*
X154663085Y-109784499D01*
X154882784Y-110004198D01*
X155169834Y-110123098D01*
X155480536Y-110123098D01*
X155767586Y-110004198D01*
X155987285Y-109784499D01*
X156106185Y-109497449D01*
X156106185Y-109186747D01*
X155987285Y-108899697D01*
X155922044Y-108834456D01*
X155983100Y-108773399D01*
X156102000Y-108486349D01*
X156102000Y-108175647D01*
X155983100Y-107888597D01*
X155763401Y-107668898D01*
X155476351Y-107549998D01*
X155165649Y-107549998D01*
X154878599Y-107668898D01*
X154658900Y-107888597D01*
X154540000Y-108175647D01*
X154540000Y-108334253D01*
X154501488Y-108241276D01*
X154400712Y-108140500D01*
X154628488Y-107912724D01*
X154755000Y-107607296D01*
X154755000Y-107276704D01*
X154628488Y-106971276D01*
X154394724Y-106737512D01*
X154089296Y-106611000D01*
X153758704Y-106611000D01*
X153453276Y-106737512D01*
X153219512Y-106971276D01*
X153093000Y-107276704D01*
X153093000Y-107607296D01*
X153219512Y-107912724D01*
X153320288Y-108013500D01*
X153092512Y-108241276D01*
X152966000Y-108546704D01*
X147770800Y-108546704D01*
X147770800Y-108478747D01*
X149952948Y-106296600D01*
X154542253Y-106296600D01*
X154844800Y-106599148D01*
X154844800Y-106784551D01*
X154963700Y-107071601D01*
X155183399Y-107291300D01*
X155470449Y-107410200D01*
X155781151Y-107410200D01*
X155913993Y-107355175D01*
X157074110Y-107355175D01*
X157074110Y-107665877D01*
X157193010Y-107952927D01*
X157290789Y-108050706D01*
X157198896Y-108142599D01*
X157079996Y-108429649D01*
X157079996Y-108740351D01*
X157198896Y-109027401D01*
X157356401Y-109184906D01*
X157194705Y-109346601D01*
X157075805Y-109633651D01*
X157075805Y-109944353D01*
X157194705Y-110231403D01*
X157414404Y-110451102D01*
X157701454Y-110570002D01*
X158012156Y-110570002D01*
X158299206Y-110451102D01*
X158518905Y-110231403D01*
X158637805Y-109944353D01*
X158637805Y-109633651D01*
X158518905Y-109346601D01*
X158361401Y-109189097D01*
X158523096Y-109027401D01*
X158641996Y-108740351D01*
X158641996Y-108429649D01*
X158523096Y-108142599D01*
X158425317Y-108044820D01*
X158517210Y-107952927D01*
X158636110Y-107665877D01*
X158636110Y-107355175D01*
X158517210Y-107068125D01*
X158297511Y-106848426D01*
X158010461Y-106729526D01*
X157699759Y-106729526D01*
X157412709Y-106848426D01*
X157193010Y-107068125D01*
X157074110Y-107355175D01*
X155913993Y-107355175D01*
X156068201Y-107291300D01*
X156287900Y-107071601D01*
X156406800Y-106784551D01*
X156406800Y-106473849D01*
X156287900Y-106186799D01*
X156068201Y-105967100D01*
X155781151Y-105848200D01*
X155595748Y-105848200D01*
X155174652Y-105427105D01*
X155145029Y-105382771D01*
X154969386Y-105265410D01*
X154814494Y-105234600D01*
X154814490Y-105234600D01*
X154762200Y-105224199D01*
X154709910Y-105234600D01*
X154506096Y-105234600D01*
X154628000Y-104940296D01*
X154628000Y-104609704D01*
X154501488Y-104304276D01*
X154267724Y-104070512D01*
X153962296Y-103944000D01*
X153631704Y-103944000D01*
X153326276Y-104070512D01*
X153092512Y-104304276D01*
X152966000Y-104609704D01*
X152966000Y-104940296D01*
X153087904Y-105234600D01*
X149785294Y-105234600D01*
X149733000Y-105224198D01*
X149680706Y-105234600D01*
X149525814Y-105265410D01*
X149350171Y-105382771D01*
X149320550Y-105427102D01*
X147019853Y-107727800D01*
X146834449Y-107727800D01*
X146547399Y-107846700D01*
X146327700Y-108066399D01*
X146305659Y-108119611D01*
X146271888Y-108038080D01*
X146038124Y-107804316D01*
X145732696Y-107677804D01*
X145402104Y-107677804D01*
X145096676Y-107804316D01*
X144862912Y-108038080D01*
X144736400Y-108343508D01*
X136952000Y-108343508D01*
X136952000Y-108322541D01*
X136848324Y-108072244D01*
X136656756Y-107880676D01*
X136406459Y-107777000D01*
X136135541Y-107777000D01*
X135885244Y-107880676D01*
X135693676Y-108072244D01*
X135590000Y-108322541D01*
X126284000Y-108322541D01*
X126180324Y-108072244D01*
X125988756Y-107880676D01*
X125738459Y-107777000D01*
X125467541Y-107777000D01*
X125217244Y-107880676D01*
X125025676Y-108072244D01*
X124922000Y-108322541D01*
X120188000Y-108322541D01*
X120084324Y-108072244D01*
X119892756Y-107880676D01*
X119642459Y-107777000D01*
X119371541Y-107777000D01*
X119121244Y-107880676D01*
X118929676Y-108072244D01*
X118826000Y-108322541D01*
X115316000Y-108322541D01*
X115316000Y-107630762D01*
X115606495Y-107340267D01*
X115854800Y-106740806D01*
X115854800Y-106091954D01*
X115606495Y-105492493D01*
X115316000Y-105201998D01*
X115316000Y-103408816D01*
X116725039Y-104817855D01*
X116848645Y-104900445D01*
X117702198Y-105253998D01*
X117848000Y-105283000D01*
X125738000Y-105283000D01*
X125883802Y-105253998D01*
X126188835Y-105127649D01*
X135489998Y-105127649D01*
X135489998Y-105438351D01*
X135608898Y-105725401D01*
X135828597Y-105945100D01*
X136115647Y-106064000D01*
X136426349Y-106064000D01*
X136713399Y-105945100D01*
X136905795Y-105752704D01*
X142552000Y-105752704D01*
X142552000Y-106083296D01*
X142678512Y-106388724D01*
X142912276Y-106622488D01*
X143217704Y-106749000D01*
X143548296Y-106749000D01*
X143853724Y-106622488D01*
X144087488Y-106388724D01*
X144214000Y-106083296D01*
X144214000Y-105752704D01*
X144087488Y-105447276D01*
X143853724Y-105213512D01*
X143548296Y-105087000D01*
X143217704Y-105087000D01*
X142912276Y-105213512D01*
X142678512Y-105447276D01*
X142552000Y-105752704D01*
X136905795Y-105752704D01*
X136933098Y-105725401D01*
X137051998Y-105438351D01*
X137051998Y-105127649D01*
X136933098Y-104840599D01*
X136713399Y-104620900D01*
X136426349Y-104502000D01*
X136115647Y-104502000D01*
X135828597Y-104620900D01*
X135608898Y-104840599D01*
X135489998Y-105127649D01*
X126188835Y-105127649D01*
X126737355Y-104900445D01*
X126860961Y-104817855D01*
X127440167Y-104238649D01*
X141205000Y-104238649D01*
X141205000Y-104549351D01*
X141323900Y-104836401D01*
X141543599Y-105056100D01*
X141830649Y-105175000D01*
X142141351Y-105175000D01*
X142428401Y-105056100D01*
X142648100Y-104836401D01*
X142689395Y-104736704D01*
X144203000Y-104736704D01*
X144203000Y-105067296D01*
X144329512Y-105372724D01*
X144563276Y-105606488D01*
X144868704Y-105733000D01*
X145199296Y-105733000D01*
X145504724Y-105606488D01*
X145738488Y-105372724D01*
X145865000Y-105067296D01*
X145865000Y-104736704D01*
X145738488Y-104431276D01*
X145504724Y-104197512D01*
X145199296Y-104071000D01*
X144868704Y-104071000D01*
X144563276Y-104197512D01*
X144329512Y-104431276D01*
X144203000Y-104736704D01*
X142689395Y-104736704D01*
X142767000Y-104549351D01*
X142767000Y-104238649D01*
X142657671Y-103974704D01*
X147505000Y-103974704D01*
X147505000Y-104305296D01*
X147631512Y-104610724D01*
X147865276Y-104844488D01*
X148170704Y-104971000D01*
X148501296Y-104971000D01*
X148806724Y-104844488D01*
X149040488Y-104610724D01*
X149167000Y-104305296D01*
X149167000Y-103974704D01*
X150426000Y-103974704D01*
X150426000Y-104305296D01*
X150552512Y-104610724D01*
X150786276Y-104844488D01*
X151091704Y-104971000D01*
X151422296Y-104971000D01*
X151727724Y-104844488D01*
X151961488Y-104610724D01*
X152088000Y-104305296D01*
X152088000Y-103974704D01*
X151961488Y-103669276D01*
X151788753Y-103496541D01*
X156926000Y-103496541D01*
X156926000Y-103767459D01*
X157029676Y-104017756D01*
X157221244Y-104209324D01*
X157471541Y-104313000D01*
X157742459Y-104313000D01*
X157992756Y-104209324D01*
X158184324Y-104017756D01*
X158288000Y-103767459D01*
X158288000Y-103496541D01*
X158184324Y-103246244D01*
X157992756Y-103054676D01*
X157742459Y-102951000D01*
X157471541Y-102951000D01*
X157221244Y-103054676D01*
X157029676Y-103246244D01*
X156926000Y-103496541D01*
X151788753Y-103496541D01*
X151727724Y-103435512D01*
X151422296Y-103309000D01*
X151091704Y-103309000D01*
X150786276Y-103435512D01*
X150552512Y-103669276D01*
X150426000Y-103974704D01*
X149167000Y-103974704D01*
X149040488Y-103669276D01*
X148806724Y-103435512D01*
X148501296Y-103309000D01*
X148170704Y-103309000D01*
X147865276Y-103435512D01*
X147631512Y-103669276D01*
X147505000Y-103974704D01*
X142657671Y-103974704D01*
X142648100Y-103951599D01*
X142428401Y-103731900D01*
X142141351Y-103613000D01*
X141830649Y-103613000D01*
X141543599Y-103731900D01*
X141323900Y-103951599D01*
X141205000Y-104238649D01*
X127440167Y-104238649D01*
X129268975Y-102409841D01*
X132467400Y-102409841D01*
X132467400Y-102720543D01*
X132586300Y-103007593D01*
X132805999Y-103227292D01*
X133093049Y-103346192D01*
X133403751Y-103346192D01*
X133690801Y-103227292D01*
X133910500Y-103007593D01*
X134029400Y-102720543D01*
X134029400Y-102607541D01*
X151465000Y-102607541D01*
X151465000Y-102878459D01*
X151568676Y-103128756D01*
X151760244Y-103320324D01*
X152010541Y-103424000D01*
X152281459Y-103424000D01*
X152531756Y-103320324D01*
X152723324Y-103128756D01*
X152827000Y-102878459D01*
X152827000Y-102725500D01*
X153043459Y-102725500D01*
X153293756Y-102621824D01*
X153485324Y-102430256D01*
X153589000Y-102179959D01*
X153589000Y-101909041D01*
X153485324Y-101658744D01*
X153293756Y-101467176D01*
X153043459Y-101363500D01*
X152772541Y-101363500D01*
X152522244Y-101467176D01*
X152330676Y-101658744D01*
X152227000Y-101909041D01*
X152227000Y-102062000D01*
X152010541Y-102062000D01*
X151760244Y-102165676D01*
X151568676Y-102357244D01*
X151465000Y-102607541D01*
X134029400Y-102607541D01*
X134029400Y-102409841D01*
X133910500Y-102122791D01*
X133690801Y-101903092D01*
X133403751Y-101784192D01*
X133093049Y-101784192D01*
X132805999Y-101903092D01*
X132586300Y-102122791D01*
X132467400Y-102409841D01*
X129268975Y-102409841D01*
X132503855Y-99174961D01*
X132579236Y-99062145D01*
X132680495Y-99306606D01*
X132900194Y-99526305D01*
X133187244Y-99645205D01*
X133497946Y-99645205D01*
X133784996Y-99526305D01*
X134004695Y-99306606D01*
X134123595Y-99019556D01*
X134123595Y-98708854D01*
X134004695Y-98421804D01*
X133784996Y-98202105D01*
X133497946Y-98083205D01*
X133187244Y-98083205D01*
X132942639Y-98184524D01*
X132969000Y-98052000D01*
X132969000Y-94898230D01*
X135514335Y-94898230D01*
X135514335Y-95208932D01*
X135633235Y-95495982D01*
X135852934Y-95715681D01*
X136139984Y-95834581D01*
X136450686Y-95834581D01*
X136737736Y-95715681D01*
X136957435Y-95495982D01*
X137076335Y-95208932D01*
X137076335Y-94898230D01*
X136957435Y-94611180D01*
X136737736Y-94391481D01*
X136450686Y-94272581D01*
X136139984Y-94272581D01*
X135852934Y-94391481D01*
X135633235Y-94611180D01*
X135514335Y-94898230D01*
X132969000Y-94898230D01*
X132969000Y-94734000D01*
X132939998Y-94588198D01*
X132857408Y-94464592D01*
X132357408Y-93964592D01*
X132233802Y-93882002D01*
X132088000Y-93853000D01*
X129363110Y-93853000D01*
X129600130Y-93754823D01*
X129819829Y-93535124D01*
X129938729Y-93248074D01*
X129938729Y-93083651D01*
X130164080Y-92990308D01*
X130383779Y-92770609D01*
X130502679Y-92483559D01*
X130502679Y-92366000D01*
X130665733Y-92366000D01*
X130952783Y-92247100D01*
X131172482Y-92027401D01*
X131243413Y-91856157D01*
X131362500Y-91856157D01*
X131362500Y-92166859D01*
X131481400Y-92453909D01*
X131701099Y-92673608D01*
X131988149Y-92792508D01*
X132298851Y-92792508D01*
X132585901Y-92673608D01*
X132746754Y-92512755D01*
X132907599Y-92673600D01*
X133194649Y-92792500D01*
X133505351Y-92792500D01*
X133792401Y-92673600D01*
X133953254Y-92512747D01*
X134114107Y-92673600D01*
X134401157Y-92792500D01*
X134711859Y-92792500D01*
X134998909Y-92673600D01*
X135218608Y-92453901D01*
X135337508Y-92166851D01*
X135337508Y-91856149D01*
X135218608Y-91569099D01*
X135085324Y-91435815D01*
X135316401Y-91340100D01*
X135536100Y-91120401D01*
X135655000Y-90833351D01*
X135655000Y-90522649D01*
X135536100Y-90235599D01*
X135316401Y-90015900D01*
X135029351Y-89897000D01*
X134718649Y-89897000D01*
X134431599Y-90015900D01*
X134211900Y-90235599D01*
X134093000Y-90522649D01*
X134093000Y-90833351D01*
X134211900Y-91120401D01*
X134345184Y-91253685D01*
X134114107Y-91349400D01*
X133953254Y-91510253D01*
X133792401Y-91349400D01*
X133505351Y-91230500D01*
X133194649Y-91230500D01*
X132907599Y-91349400D01*
X132746746Y-91510253D01*
X132585901Y-91349408D01*
X132298851Y-91230508D01*
X131988149Y-91230508D01*
X131701099Y-91349408D01*
X131481400Y-91569107D01*
X131362500Y-91856157D01*
X131243413Y-91856157D01*
X131291382Y-91740351D01*
X131291382Y-91429649D01*
X131172482Y-91142599D01*
X131074908Y-91045025D01*
X131125401Y-91024110D01*
X131345100Y-90804411D01*
X131464000Y-90517361D01*
X131464000Y-90206659D01*
X131345100Y-89919609D01*
X131206032Y-89780541D01*
X132161000Y-89780541D01*
X132161000Y-90051459D01*
X132264676Y-90301756D01*
X132456244Y-90493324D01*
X132706541Y-90597000D01*
X132977459Y-90597000D01*
X133227756Y-90493324D01*
X133419324Y-90301756D01*
X133523000Y-90051459D01*
X133523000Y-89780541D01*
X133419324Y-89530244D01*
X133227756Y-89338676D01*
X132977459Y-89235000D01*
X132706541Y-89235000D01*
X132456244Y-89338676D01*
X132264676Y-89530244D01*
X132161000Y-89780541D01*
X131206032Y-89780541D01*
X131125401Y-89699910D01*
X130838351Y-89581010D01*
X130527649Y-89581010D01*
X130240599Y-89699910D01*
X130020900Y-89919609D01*
X129902000Y-90206659D01*
X129902000Y-90517361D01*
X130020900Y-90804411D01*
X130118474Y-90901985D01*
X130067981Y-90922900D01*
X129848282Y-91142599D01*
X129729382Y-91429649D01*
X129729382Y-91547208D01*
X129566328Y-91547208D01*
X129279278Y-91666108D01*
X129059579Y-91885807D01*
X128940679Y-92172857D01*
X128940679Y-92337280D01*
X128715328Y-92430623D01*
X128495629Y-92650322D01*
X128376729Y-92937372D01*
X128376729Y-93248074D01*
X128409142Y-93326326D01*
X126860961Y-91778145D01*
X126737355Y-91695555D01*
X125883802Y-91342002D01*
X125738000Y-91313000D01*
X123750533Y-91313000D01*
X123844000Y-91087351D01*
X123844000Y-90776649D01*
X123725100Y-90489599D01*
X123505401Y-90269900D01*
X123218351Y-90151000D01*
X122907649Y-90151000D01*
X122620599Y-90269900D01*
X122400900Y-90489599D01*
X122282000Y-90776649D01*
X122282000Y-91087351D01*
X122375467Y-91313000D01*
X117594000Y-91313000D01*
X117448198Y-91342002D01*
X116594645Y-91695555D01*
X116471039Y-91778145D01*
X115316000Y-92933184D01*
X115316000Y-92140762D01*
X115606495Y-91850267D01*
X115854800Y-91250806D01*
X115854800Y-90601954D01*
X115606495Y-90002493D01*
X115316000Y-89711998D01*
X115316000Y-88682606D01*
X116241606Y-87757000D01*
X127612001Y-87757000D01*
X127612001Y-88326496D01*
G04 #@! TD*
M02*
