G04 #@! TF.GenerationSoftware,KiCad,Pcbnew,(5.0.1)-rc2*
G04 #@! TF.CreationDate,2018-11-05T02:02:30+01:00*
G04 #@! TF.ProjectId,panel_light_control,70616E656C5F6C696768745F636F6E74,rev?*
G04 #@! TF.SameCoordinates,Original*
G04 #@! TF.FileFunction,Legend,Bot*
G04 #@! TF.FilePolarity,Positive*
%FSLAX46Y46*%
G04 Gerber Fmt 4.6, Leading zero omitted, Abs format (unit mm)*
G04 Created by KiCad (PCBNEW (5.0.1)-rc2) date 2018/11/05 2:02:30*
%MOMM*%
%LPD*%
G01*
G04 APERTURE LIST*
%ADD10C,0.150000*%
%ADD11C,0.010000*%
G04 APERTURE END LIST*
D10*
X122853380Y-101009404D02*
X123120047Y-100628452D01*
X123310523Y-101009404D02*
X123310523Y-100209404D01*
X123005761Y-100209404D01*
X122929571Y-100247500D01*
X122891476Y-100285595D01*
X122853380Y-100361785D01*
X122853380Y-100476071D01*
X122891476Y-100552261D01*
X122929571Y-100590357D01*
X123005761Y-100628452D01*
X123310523Y-100628452D01*
X122586714Y-100209404D02*
X122053380Y-101009404D01*
X122053380Y-100209404D02*
X122586714Y-101009404D01*
X121748619Y-101009404D02*
X121748619Y-100209404D01*
X121291476Y-101009404D01*
X121291476Y-100209404D01*
X115912833Y-97135904D02*
X116179500Y-96754952D01*
X116369976Y-97135904D02*
X116369976Y-96335904D01*
X116065214Y-96335904D01*
X115989023Y-96374000D01*
X115950928Y-96412095D01*
X115912833Y-96488285D01*
X115912833Y-96602571D01*
X115950928Y-96678761D01*
X115989023Y-96716857D01*
X116065214Y-96754952D01*
X116369976Y-96754952D01*
X115646166Y-96335904D02*
X115112833Y-97135904D01*
X115112833Y-96335904D02*
X115646166Y-97135904D01*
X114808071Y-97135904D02*
X114808071Y-96335904D01*
X114503309Y-96335904D01*
X114427119Y-96374000D01*
X114389023Y-96412095D01*
X114350928Y-96488285D01*
X114350928Y-96602571D01*
X114389023Y-96678761D01*
X114427119Y-96716857D01*
X114503309Y-96754952D01*
X114808071Y-96754952D01*
X123266071Y-95129404D02*
X122808928Y-95129404D01*
X123037500Y-95929404D02*
X123037500Y-95129404D01*
X122618452Y-95129404D02*
X122085119Y-95929404D01*
X122085119Y-95129404D02*
X122618452Y-95929404D01*
X121780357Y-95929404D02*
X121780357Y-95129404D01*
X121323214Y-95929404D01*
X121323214Y-95129404D01*
X116452523Y-93795904D02*
X115995380Y-93795904D01*
X116223952Y-94595904D02*
X116223952Y-93795904D01*
X115804904Y-93795904D02*
X115271571Y-94595904D01*
X115271571Y-93795904D02*
X115804904Y-94595904D01*
X114966809Y-94595904D02*
X114966809Y-93795904D01*
X114662047Y-93795904D01*
X114585857Y-93834000D01*
X114547761Y-93872095D01*
X114509666Y-93948285D01*
X114509666Y-94062571D01*
X114547761Y-94138761D01*
X114585857Y-94176857D01*
X114662047Y-94214952D01*
X114966809Y-94214952D01*
X108311904Y-92525952D02*
X108311904Y-92068809D01*
X108311904Y-92297380D02*
X107511904Y-92297380D01*
X107626190Y-92221190D01*
X107702380Y-92145000D01*
X107740476Y-92068809D01*
X108083333Y-92830714D02*
X108083333Y-93211666D01*
X108311904Y-92754523D02*
X107511904Y-93021190D01*
X108311904Y-93287857D01*
X108235714Y-94011666D02*
X108273809Y-93973571D01*
X108311904Y-93859285D01*
X108311904Y-93783095D01*
X108273809Y-93668809D01*
X108197619Y-93592619D01*
X108121428Y-93554523D01*
X107969047Y-93516428D01*
X107854761Y-93516428D01*
X107702380Y-93554523D01*
X107626190Y-93592619D01*
X107550000Y-93668809D01*
X107511904Y-93783095D01*
X107511904Y-93859285D01*
X107550000Y-93973571D01*
X107588095Y-94011666D01*
X107511904Y-94240238D02*
X107511904Y-94697380D01*
X108311904Y-94468809D02*
X107511904Y-94468809D01*
X107588095Y-102603476D02*
X107550000Y-102641571D01*
X107511904Y-102717761D01*
X107511904Y-102908238D01*
X107550000Y-102984428D01*
X107588095Y-103022523D01*
X107664285Y-103060619D01*
X107740476Y-103060619D01*
X107854761Y-103022523D01*
X108311904Y-102565380D01*
X108311904Y-103060619D01*
X108273809Y-103365380D02*
X108311904Y-103479666D01*
X108311904Y-103670142D01*
X108273809Y-103746333D01*
X108235714Y-103784428D01*
X108159523Y-103822523D01*
X108083333Y-103822523D01*
X108007142Y-103784428D01*
X107969047Y-103746333D01*
X107930952Y-103670142D01*
X107892857Y-103517761D01*
X107854761Y-103441571D01*
X107816666Y-103403476D01*
X107740476Y-103365380D01*
X107664285Y-103365380D01*
X107588095Y-103403476D01*
X107550000Y-103441571D01*
X107511904Y-103517761D01*
X107511904Y-103708238D01*
X107550000Y-103822523D01*
X108311904Y-104165380D02*
X107511904Y-104165380D01*
X107511904Y-104470142D01*
X107550000Y-104546333D01*
X107588095Y-104584428D01*
X107664285Y-104622523D01*
X107778571Y-104622523D01*
X107854761Y-104584428D01*
X107892857Y-104546333D01*
X107930952Y-104470142D01*
X107930952Y-104165380D01*
X108311904Y-104965380D02*
X107511904Y-104965380D01*
X107511904Y-105155857D01*
X107550000Y-105270142D01*
X107626190Y-105346333D01*
X107702380Y-105384428D01*
X107854761Y-105422523D01*
X107969047Y-105422523D01*
X108121428Y-105384428D01*
X108197619Y-105346333D01*
X108273809Y-105270142D01*
X108311904Y-105155857D01*
X108311904Y-104965380D01*
X113741095Y-121189714D02*
X113779190Y-121227809D01*
X113893476Y-121265904D01*
X113969666Y-121265904D01*
X114083952Y-121227809D01*
X114160142Y-121151619D01*
X114198238Y-121075428D01*
X114236333Y-120923047D01*
X114236333Y-120808761D01*
X114198238Y-120656380D01*
X114160142Y-120580190D01*
X114083952Y-120504000D01*
X113969666Y-120465904D01*
X113893476Y-120465904D01*
X113779190Y-120504000D01*
X113741095Y-120542095D01*
X113436333Y-121037333D02*
X113055380Y-121037333D01*
X113512523Y-121265904D02*
X113245857Y-120465904D01*
X112979190Y-121265904D01*
X112712523Y-121265904D02*
X112712523Y-120465904D01*
X112255380Y-121265904D01*
X112255380Y-120465904D01*
X111493476Y-121265904D02*
X111874428Y-121265904D01*
X111874428Y-120465904D01*
X107105333Y-122205714D02*
X107143428Y-122243809D01*
X107257714Y-122281904D01*
X107333904Y-122281904D01*
X107448190Y-122243809D01*
X107524380Y-122167619D01*
X107562476Y-122091428D01*
X107600571Y-121939047D01*
X107600571Y-121824761D01*
X107562476Y-121672380D01*
X107524380Y-121596190D01*
X107448190Y-121520000D01*
X107333904Y-121481904D01*
X107257714Y-121481904D01*
X107143428Y-121520000D01*
X107105333Y-121558095D01*
X106800571Y-122053333D02*
X106419619Y-122053333D01*
X106876761Y-122281904D02*
X106610095Y-121481904D01*
X106343428Y-122281904D01*
X106076761Y-122281904D02*
X106076761Y-121481904D01*
X105619619Y-122281904D01*
X105619619Y-121481904D01*
X105238666Y-122281904D02*
X105238666Y-121481904D01*
X105238666Y-121862857D02*
X104781523Y-121862857D01*
X104781523Y-122281904D02*
X104781523Y-121481904D01*
X107105333Y-142271714D02*
X107143428Y-142309809D01*
X107257714Y-142347904D01*
X107333904Y-142347904D01*
X107448190Y-142309809D01*
X107524380Y-142233619D01*
X107562476Y-142157428D01*
X107600571Y-142005047D01*
X107600571Y-141890761D01*
X107562476Y-141738380D01*
X107524380Y-141662190D01*
X107448190Y-141586000D01*
X107333904Y-141547904D01*
X107257714Y-141547904D01*
X107143428Y-141586000D01*
X107105333Y-141624095D01*
X106800571Y-142119333D02*
X106419619Y-142119333D01*
X106876761Y-142347904D02*
X106610095Y-141547904D01*
X106343428Y-142347904D01*
X106076761Y-142347904D02*
X106076761Y-141547904D01*
X105619619Y-142347904D01*
X105619619Y-141547904D01*
X105238666Y-142347904D02*
X105238666Y-141547904D01*
X105238666Y-141928857D02*
X104781523Y-141928857D01*
X104781523Y-142347904D02*
X104781523Y-141547904D01*
X113741095Y-141255714D02*
X113779190Y-141293809D01*
X113893476Y-141331904D01*
X113969666Y-141331904D01*
X114083952Y-141293809D01*
X114160142Y-141217619D01*
X114198238Y-141141428D01*
X114236333Y-140989047D01*
X114236333Y-140874761D01*
X114198238Y-140722380D01*
X114160142Y-140646190D01*
X114083952Y-140570000D01*
X113969666Y-140531904D01*
X113893476Y-140531904D01*
X113779190Y-140570000D01*
X113741095Y-140608095D01*
X113436333Y-141103333D02*
X113055380Y-141103333D01*
X113512523Y-141331904D02*
X113245857Y-140531904D01*
X112979190Y-141331904D01*
X112712523Y-141331904D02*
X112712523Y-140531904D01*
X112255380Y-141331904D01*
X112255380Y-140531904D01*
X111493476Y-141331904D02*
X111874428Y-141331904D01*
X111874428Y-140531904D01*
X183133904Y-64460333D02*
X183181523Y-64412714D01*
X183276761Y-64269857D01*
X183324380Y-64174619D01*
X183372000Y-64031761D01*
X183419619Y-63793666D01*
X183419619Y-63603190D01*
X183372000Y-63365095D01*
X183324380Y-63222238D01*
X183276761Y-63127000D01*
X183181523Y-62984142D01*
X183133904Y-62936523D01*
X182752952Y-63698428D02*
X181991047Y-63698428D01*
X182372000Y-64079380D02*
X182372000Y-63317476D01*
X181610095Y-64460333D02*
X181562476Y-64412714D01*
X181467238Y-64269857D01*
X181419619Y-64174619D01*
X181372000Y-64031761D01*
X181324380Y-63793666D01*
X181324380Y-63603190D01*
X181372000Y-63365095D01*
X181419619Y-63222238D01*
X181467238Y-63127000D01*
X181562476Y-62984142D01*
X181610095Y-62936523D01*
X162559904Y-64460333D02*
X162607523Y-64412714D01*
X162702761Y-64269857D01*
X162750380Y-64174619D01*
X162798000Y-64031761D01*
X162845619Y-63793666D01*
X162845619Y-63603190D01*
X162798000Y-63365095D01*
X162750380Y-63222238D01*
X162702761Y-63127000D01*
X162607523Y-62984142D01*
X162559904Y-62936523D01*
X162178952Y-63698428D02*
X161417047Y-63698428D01*
X161798000Y-64079380D02*
X161798000Y-63317476D01*
X161036095Y-64460333D02*
X160988476Y-64412714D01*
X160893238Y-64269857D01*
X160845619Y-64174619D01*
X160798000Y-64031761D01*
X160750380Y-63793666D01*
X160750380Y-63603190D01*
X160798000Y-63365095D01*
X160845619Y-63222238D01*
X160893238Y-63127000D01*
X160988476Y-62984142D01*
X161036095Y-62936523D01*
X131040000Y-148677261D02*
X130897142Y-148724880D01*
X130659047Y-148724880D01*
X130563809Y-148677261D01*
X130516190Y-148629642D01*
X130468571Y-148534404D01*
X130468571Y-148439166D01*
X130516190Y-148343928D01*
X130563809Y-148296309D01*
X130659047Y-148248690D01*
X130849523Y-148201071D01*
X130944761Y-148153452D01*
X130992380Y-148105833D01*
X131040000Y-148010595D01*
X131040000Y-147915357D01*
X130992380Y-147820119D01*
X130944761Y-147772500D01*
X130849523Y-147724880D01*
X130611428Y-147724880D01*
X130468571Y-147772500D01*
X130040000Y-148724880D02*
X130040000Y-147724880D01*
X129659047Y-147724880D01*
X129563809Y-147772500D01*
X129516190Y-147820119D01*
X129468571Y-147915357D01*
X129468571Y-148058214D01*
X129516190Y-148153452D01*
X129563809Y-148201071D01*
X129659047Y-148248690D01*
X130040000Y-148248690D01*
X129040000Y-148724880D02*
X129040000Y-147724880D01*
X128040000Y-148724880D02*
X128611428Y-148724880D01*
X128325714Y-148724880D02*
X128325714Y-147724880D01*
X128420952Y-147867738D01*
X128516190Y-147962976D01*
X128611428Y-148010595D01*
X146978428Y-147851880D02*
X146978428Y-148661404D01*
X146930809Y-148756642D01*
X146883190Y-148804261D01*
X146787952Y-148851880D01*
X146597476Y-148851880D01*
X146502238Y-148804261D01*
X146454619Y-148756642D01*
X146407000Y-148661404D01*
X146407000Y-147851880D01*
X145978428Y-148566166D02*
X145502238Y-148566166D01*
X146073666Y-148851880D02*
X145740333Y-147851880D01*
X145407000Y-148851880D01*
X144502238Y-148851880D02*
X144835571Y-148375690D01*
X145073666Y-148851880D02*
X145073666Y-147851880D01*
X144692714Y-147851880D01*
X144597476Y-147899500D01*
X144549857Y-147947119D01*
X144502238Y-148042357D01*
X144502238Y-148185214D01*
X144549857Y-148280452D01*
X144597476Y-148328071D01*
X144692714Y-148375690D01*
X145073666Y-148375690D01*
X144216523Y-147851880D02*
X143645095Y-147851880D01*
X143930809Y-148851880D02*
X143930809Y-147851880D01*
X142787952Y-148851880D02*
X143359380Y-148851880D01*
X143073666Y-148851880D02*
X143073666Y-147851880D01*
X143168904Y-147994738D01*
X143264142Y-148089976D01*
X143359380Y-148137595D01*
X166155285Y-148677261D02*
X166012428Y-148724880D01*
X165774333Y-148724880D01*
X165679095Y-148677261D01*
X165631476Y-148629642D01*
X165583857Y-148534404D01*
X165583857Y-148439166D01*
X165631476Y-148343928D01*
X165679095Y-148296309D01*
X165774333Y-148248690D01*
X165964809Y-148201071D01*
X166060047Y-148153452D01*
X166107666Y-148105833D01*
X166155285Y-148010595D01*
X166155285Y-147915357D01*
X166107666Y-147820119D01*
X166060047Y-147772500D01*
X165964809Y-147724880D01*
X165726714Y-147724880D01*
X165583857Y-147772500D01*
X165155285Y-148724880D02*
X165155285Y-147724880D01*
X164774333Y-147724880D01*
X164679095Y-147772500D01*
X164631476Y-147820119D01*
X164583857Y-147915357D01*
X164583857Y-148058214D01*
X164631476Y-148153452D01*
X164679095Y-148201071D01*
X164774333Y-148248690D01*
X165155285Y-148248690D01*
X164155285Y-148724880D02*
X164155285Y-147724880D01*
X163488619Y-147724880D02*
X163393380Y-147724880D01*
X163298142Y-147772500D01*
X163250523Y-147820119D01*
X163202904Y-147915357D01*
X163155285Y-148105833D01*
X163155285Y-148343928D01*
X163202904Y-148534404D01*
X163250523Y-148629642D01*
X163298142Y-148677261D01*
X163393380Y-148724880D01*
X163488619Y-148724880D01*
X163583857Y-148677261D01*
X163631476Y-148629642D01*
X163679095Y-148534404D01*
X163726714Y-148343928D01*
X163726714Y-148105833D01*
X163679095Y-147915357D01*
X163631476Y-147820119D01*
X163583857Y-147772500D01*
X163488619Y-147724880D01*
X162012428Y-147677261D02*
X162869571Y-148962976D01*
X161679095Y-148724880D02*
X161679095Y-147724880D01*
X161250523Y-147820119D02*
X161202904Y-147772500D01*
X161107666Y-147724880D01*
X160869571Y-147724880D01*
X160774333Y-147772500D01*
X160726714Y-147820119D01*
X160679095Y-147915357D01*
X160679095Y-148010595D01*
X160726714Y-148153452D01*
X161298142Y-148724880D01*
X160679095Y-148724880D01*
X160298142Y-148677261D02*
X160155285Y-148724880D01*
X159917190Y-148724880D01*
X159821952Y-148677261D01*
X159774333Y-148629642D01*
X159726714Y-148534404D01*
X159726714Y-148439166D01*
X159774333Y-148343928D01*
X159821952Y-148296309D01*
X159917190Y-148248690D01*
X160107666Y-148201071D01*
X160202904Y-148153452D01*
X160250523Y-148105833D01*
X160298142Y-148010595D01*
X160298142Y-147915357D01*
X160250523Y-147820119D01*
X160202904Y-147772500D01*
X160107666Y-147724880D01*
X159869571Y-147724880D01*
X159726714Y-147772500D01*
X187666380Y-139771642D02*
X188380666Y-139771642D01*
X188523523Y-139724023D01*
X188618761Y-139628785D01*
X188666380Y-139485928D01*
X188666380Y-139390690D01*
X187666380Y-140104976D02*
X187666380Y-140676404D01*
X188666380Y-140390690D02*
X187666380Y-140390690D01*
X188380666Y-140962119D02*
X188380666Y-141438309D01*
X188666380Y-140866880D02*
X187666380Y-141200214D01*
X188666380Y-141533547D01*
X187714000Y-142390690D02*
X187666380Y-142295452D01*
X187666380Y-142152595D01*
X187714000Y-142009738D01*
X187809238Y-141914500D01*
X187904476Y-141866880D01*
X188094952Y-141819261D01*
X188237809Y-141819261D01*
X188428285Y-141866880D01*
X188523523Y-141914500D01*
X188618761Y-142009738D01*
X188666380Y-142152595D01*
X188666380Y-142247833D01*
X188618761Y-142390690D01*
X188571142Y-142438309D01*
X188237809Y-142438309D01*
X188237809Y-142247833D01*
X188666380Y-143390690D02*
X188666380Y-142819261D01*
X188666380Y-143104976D02*
X187666380Y-143104976D01*
X187809238Y-143009738D01*
X187904476Y-142914500D01*
X187952095Y-142819261D01*
X188666380Y-123039404D02*
X187666380Y-123039404D01*
X187666380Y-123277500D01*
X187714000Y-123420357D01*
X187809238Y-123515595D01*
X187904476Y-123563214D01*
X188094952Y-123610833D01*
X188237809Y-123610833D01*
X188428285Y-123563214D01*
X188523523Y-123515595D01*
X188618761Y-123420357D01*
X188666380Y-123277500D01*
X188666380Y-123039404D01*
X188142571Y-124372738D02*
X188190190Y-124515595D01*
X188237809Y-124563214D01*
X188333047Y-124610833D01*
X188475904Y-124610833D01*
X188571142Y-124563214D01*
X188618761Y-124515595D01*
X188666380Y-124420357D01*
X188666380Y-124039404D01*
X187666380Y-124039404D01*
X187666380Y-124372738D01*
X187714000Y-124467976D01*
X187761619Y-124515595D01*
X187856857Y-124563214D01*
X187952095Y-124563214D01*
X188047333Y-124515595D01*
X188094952Y-124467976D01*
X188142571Y-124372738D01*
X188142571Y-124039404D01*
X187714000Y-125563214D02*
X187666380Y-125467976D01*
X187666380Y-125325119D01*
X187714000Y-125182261D01*
X187809238Y-125087023D01*
X187904476Y-125039404D01*
X188094952Y-124991785D01*
X188237809Y-124991785D01*
X188428285Y-125039404D01*
X188523523Y-125087023D01*
X188618761Y-125182261D01*
X188666380Y-125325119D01*
X188666380Y-125420357D01*
X188618761Y-125563214D01*
X188571142Y-125610833D01*
X188237809Y-125610833D01*
X188237809Y-125420357D01*
X188666380Y-126563214D02*
X188666380Y-125991785D01*
X188666380Y-126277500D02*
X187666380Y-126277500D01*
X187809238Y-126182261D01*
X187904476Y-126087023D01*
X187952095Y-125991785D01*
X188666380Y-109355119D02*
X187666380Y-109355119D01*
X187761619Y-109783690D02*
X187714000Y-109831309D01*
X187666380Y-109926547D01*
X187666380Y-110164642D01*
X187714000Y-110259880D01*
X187761619Y-110307500D01*
X187856857Y-110355119D01*
X187952095Y-110355119D01*
X188094952Y-110307500D01*
X188666380Y-109736071D01*
X188666380Y-110355119D01*
X188571142Y-111355119D02*
X188618761Y-111307500D01*
X188666380Y-111164642D01*
X188666380Y-111069404D01*
X188618761Y-110926547D01*
X188523523Y-110831309D01*
X188428285Y-110783690D01*
X188237809Y-110736071D01*
X188094952Y-110736071D01*
X187904476Y-110783690D01*
X187809238Y-110831309D01*
X187714000Y-110926547D01*
X187666380Y-111069404D01*
X187666380Y-111164642D01*
X187714000Y-111307500D01*
X187761619Y-111355119D01*
X188666380Y-112307500D02*
X188666380Y-111736071D01*
X188666380Y-112021785D02*
X187666380Y-112021785D01*
X187809238Y-111926547D01*
X187904476Y-111831309D01*
X187952095Y-111736071D01*
X188666380Y-95694809D02*
X187666380Y-95694809D01*
X187666380Y-96075761D01*
X187714000Y-96171000D01*
X187761619Y-96218619D01*
X187856857Y-96266238D01*
X187999714Y-96266238D01*
X188094952Y-96218619D01*
X188142571Y-96171000D01*
X188190190Y-96075761D01*
X188190190Y-95694809D01*
X187666380Y-96599571D02*
X188666380Y-96837666D01*
X187952095Y-97028142D01*
X188666380Y-97218619D01*
X187666380Y-97456714D01*
X188666380Y-98409095D02*
X188190190Y-98075761D01*
X188666380Y-97837666D02*
X187666380Y-97837666D01*
X187666380Y-98218619D01*
X187714000Y-98313857D01*
X187761619Y-98361476D01*
X187856857Y-98409095D01*
X187999714Y-98409095D01*
X188094952Y-98361476D01*
X188142571Y-98313857D01*
X188190190Y-98218619D01*
X188190190Y-97837666D01*
X188666380Y-99599571D02*
X187666380Y-99599571D01*
X188666380Y-100075761D02*
X187666380Y-100075761D01*
X188666380Y-100647190D01*
X187666380Y-100647190D01*
X184919619Y-58872380D02*
X184919619Y-57872380D01*
X184538666Y-57872380D01*
X184443428Y-57920000D01*
X184395809Y-57967619D01*
X184348190Y-58062857D01*
X184348190Y-58205714D01*
X184395809Y-58300952D01*
X184443428Y-58348571D01*
X184538666Y-58396190D01*
X184919619Y-58396190D01*
X183967238Y-58586666D02*
X183491047Y-58586666D01*
X184062476Y-58872380D02*
X183729142Y-57872380D01*
X183395809Y-58872380D01*
X183062476Y-58872380D02*
X183062476Y-57872380D01*
X182491047Y-58872380D01*
X182491047Y-57872380D01*
X182014857Y-58348571D02*
X181681523Y-58348571D01*
X181538666Y-58872380D02*
X182014857Y-58872380D01*
X182014857Y-57872380D01*
X181538666Y-57872380D01*
X180633904Y-58872380D02*
X181110095Y-58872380D01*
X181110095Y-57872380D01*
X180348190Y-57967619D02*
X180300571Y-57920000D01*
X180205333Y-57872380D01*
X179967238Y-57872380D01*
X179872000Y-57920000D01*
X179824380Y-57967619D01*
X179776761Y-58062857D01*
X179776761Y-58158095D01*
X179824380Y-58300952D01*
X180395809Y-58872380D01*
X179776761Y-58872380D01*
X164345619Y-58872380D02*
X164345619Y-57872380D01*
X163964666Y-57872380D01*
X163869428Y-57920000D01*
X163821809Y-57967619D01*
X163774190Y-58062857D01*
X163774190Y-58205714D01*
X163821809Y-58300952D01*
X163869428Y-58348571D01*
X163964666Y-58396190D01*
X164345619Y-58396190D01*
X163393238Y-58586666D02*
X162917047Y-58586666D01*
X163488476Y-58872380D02*
X163155142Y-57872380D01*
X162821809Y-58872380D01*
X162488476Y-58872380D02*
X162488476Y-57872380D01*
X161917047Y-58872380D01*
X161917047Y-57872380D01*
X161440857Y-58348571D02*
X161107523Y-58348571D01*
X160964666Y-58872380D02*
X161440857Y-58872380D01*
X161440857Y-57872380D01*
X160964666Y-57872380D01*
X160059904Y-58872380D02*
X160536095Y-58872380D01*
X160536095Y-57872380D01*
X159202761Y-58872380D02*
X159774190Y-58872380D01*
X159488476Y-58872380D02*
X159488476Y-57872380D01*
X159583714Y-58015238D01*
X159678952Y-58110476D01*
X159774190Y-58158095D01*
X126158095Y-52141380D02*
X126491428Y-51665190D01*
X126729523Y-52141380D02*
X126729523Y-51141380D01*
X126348571Y-51141380D01*
X126253333Y-51189000D01*
X126205714Y-51236619D01*
X126158095Y-51331857D01*
X126158095Y-51474714D01*
X126205714Y-51569952D01*
X126253333Y-51617571D01*
X126348571Y-51665190D01*
X126729523Y-51665190D01*
X125205714Y-51189000D02*
X125300952Y-51141380D01*
X125443809Y-51141380D01*
X125586666Y-51189000D01*
X125681904Y-51284238D01*
X125729523Y-51379476D01*
X125777142Y-51569952D01*
X125777142Y-51712809D01*
X125729523Y-51903285D01*
X125681904Y-51998523D01*
X125586666Y-52093761D01*
X125443809Y-52141380D01*
X125348571Y-52141380D01*
X125205714Y-52093761D01*
X125158095Y-52046142D01*
X125158095Y-51712809D01*
X125348571Y-51712809D01*
X124396190Y-51617571D02*
X124253333Y-51665190D01*
X124205714Y-51712809D01*
X124158095Y-51808047D01*
X124158095Y-51950904D01*
X124205714Y-52046142D01*
X124253333Y-52093761D01*
X124348571Y-52141380D01*
X124729523Y-52141380D01*
X124729523Y-51141380D01*
X124396190Y-51141380D01*
X124300952Y-51189000D01*
X124253333Y-51236619D01*
X124205714Y-51331857D01*
X124205714Y-51427095D01*
X124253333Y-51522333D01*
X124300952Y-51569952D01*
X124396190Y-51617571D01*
X124729523Y-51617571D01*
X122491428Y-52141380D02*
X122967619Y-52141380D01*
X122967619Y-51141380D01*
X122158095Y-51617571D02*
X121824761Y-51617571D01*
X121681904Y-52141380D02*
X122158095Y-52141380D01*
X122158095Y-51141380D01*
X121681904Y-51141380D01*
X121253333Y-52141380D02*
X121253333Y-51141380D01*
X121015238Y-51141380D01*
X120872380Y-51189000D01*
X120777142Y-51284238D01*
X120729523Y-51379476D01*
X120681904Y-51569952D01*
X120681904Y-51712809D01*
X120729523Y-51903285D01*
X120777142Y-51998523D01*
X120872380Y-52093761D01*
X121015238Y-52141380D01*
X121253333Y-52141380D01*
X119300952Y-51141380D02*
X119110476Y-51141380D01*
X119015238Y-51189000D01*
X118920000Y-51284238D01*
X118872380Y-51474714D01*
X118872380Y-51808047D01*
X118920000Y-51998523D01*
X119015238Y-52093761D01*
X119110476Y-52141380D01*
X119300952Y-52141380D01*
X119396190Y-52093761D01*
X119491428Y-51998523D01*
X119539047Y-51808047D01*
X119539047Y-51474714D01*
X119491428Y-51284238D01*
X119396190Y-51189000D01*
X119300952Y-51141380D01*
X118443809Y-51141380D02*
X118443809Y-51950904D01*
X118396190Y-52046142D01*
X118348571Y-52093761D01*
X118253333Y-52141380D01*
X118062857Y-52141380D01*
X117967619Y-52093761D01*
X117920000Y-52046142D01*
X117872380Y-51950904D01*
X117872380Y-51141380D01*
X117539047Y-51141380D02*
X116967619Y-51141380D01*
X117253333Y-52141380D02*
X117253333Y-51141380D01*
X129343142Y-57258285D02*
X129343142Y-57867809D01*
X129647904Y-57563047D02*
X129038380Y-57563047D01*
X129647904Y-58667809D02*
X129647904Y-58210666D01*
X129647904Y-58439238D02*
X128847904Y-58439238D01*
X128962190Y-58363047D01*
X129038380Y-58286857D01*
X129076476Y-58210666D01*
X128924095Y-58972571D02*
X128886000Y-59010666D01*
X128847904Y-59086857D01*
X128847904Y-59277333D01*
X128886000Y-59353523D01*
X128924095Y-59391619D01*
X129000285Y-59429714D01*
X129076476Y-59429714D01*
X129190761Y-59391619D01*
X129647904Y-58934476D01*
X129647904Y-59429714D01*
X128847904Y-59658285D02*
X129647904Y-59924952D01*
X128847904Y-60191619D01*
X129571714Y-60915428D02*
X129609809Y-60877333D01*
X129647904Y-60763047D01*
X129647904Y-60686857D01*
X129609809Y-60572571D01*
X129533619Y-60496380D01*
X129457428Y-60458285D01*
X129305047Y-60420190D01*
X129190761Y-60420190D01*
X129038380Y-60458285D01*
X128962190Y-60496380D01*
X128886000Y-60572571D01*
X128847904Y-60686857D01*
X128847904Y-60763047D01*
X128886000Y-60877333D01*
X128924095Y-60915428D01*
X128847904Y-61410666D02*
X128847904Y-61563047D01*
X128886000Y-61639238D01*
X128962190Y-61715428D01*
X129114571Y-61753523D01*
X129381238Y-61753523D01*
X129533619Y-61715428D01*
X129609809Y-61639238D01*
X129647904Y-61563047D01*
X129647904Y-61410666D01*
X129609809Y-61334476D01*
X129533619Y-61258285D01*
X129381238Y-61220190D01*
X129114571Y-61220190D01*
X128962190Y-61258285D01*
X128886000Y-61334476D01*
X128847904Y-61410666D01*
X129647904Y-62096380D02*
X128847904Y-62096380D01*
X129419333Y-62363047D01*
X128847904Y-62629714D01*
X129647904Y-62629714D01*
X124652570Y-57258285D02*
X123852570Y-57258285D01*
X124652570Y-57715428D02*
X124195427Y-57372571D01*
X123852570Y-57715428D02*
X124309713Y-57258285D01*
X124728761Y-57867809D02*
X124728761Y-58477333D01*
X124652570Y-59124952D02*
X124271618Y-58858285D01*
X124652570Y-58667809D02*
X123852570Y-58667809D01*
X123852570Y-58972571D01*
X123890666Y-59048761D01*
X123928761Y-59086856D01*
X124004951Y-59124952D01*
X124119237Y-59124952D01*
X124195427Y-59086856D01*
X124233523Y-59048761D01*
X124271618Y-58972571D01*
X124271618Y-58667809D01*
X124233523Y-59467809D02*
X124233523Y-59734476D01*
X124652570Y-59848761D02*
X124652570Y-59467809D01*
X123852570Y-59467809D01*
X123852570Y-59848761D01*
X124652570Y-60191618D02*
X123852570Y-60191618D01*
X123852570Y-60382095D01*
X123890666Y-60496380D01*
X123966856Y-60572571D01*
X124043046Y-60610666D01*
X124195427Y-60648761D01*
X124309713Y-60648761D01*
X124462094Y-60610666D01*
X124538285Y-60572571D01*
X124614475Y-60496380D01*
X124652570Y-60382095D01*
X124652570Y-60191618D01*
X119657237Y-57258285D02*
X118857237Y-57258285D01*
X119657237Y-57715428D02*
X119200094Y-57372570D01*
X118857237Y-57715428D02*
X119314380Y-57258285D01*
X119733428Y-57867808D02*
X119733428Y-58477332D01*
X118895333Y-59086856D02*
X118857237Y-59010666D01*
X118857237Y-58896380D01*
X118895333Y-58782094D01*
X118971523Y-58705904D01*
X119047713Y-58667808D01*
X119200094Y-58629713D01*
X119314380Y-58629713D01*
X119466761Y-58667808D01*
X119542952Y-58705904D01*
X119619142Y-58782094D01*
X119657237Y-58896380D01*
X119657237Y-58972570D01*
X119619142Y-59086856D01*
X119581047Y-59124951D01*
X119314380Y-59124951D01*
X119314380Y-58972570D01*
X119657237Y-59924951D02*
X119276285Y-59658285D01*
X119657237Y-59467808D02*
X118857237Y-59467808D01*
X118857237Y-59772570D01*
X118895333Y-59848761D01*
X118933428Y-59886856D01*
X119009618Y-59924951D01*
X119123904Y-59924951D01*
X119200094Y-59886856D01*
X119238190Y-59848761D01*
X119276285Y-59772570D01*
X119276285Y-59467808D01*
X119238190Y-60267808D02*
X119238190Y-60534475D01*
X119657237Y-60648761D02*
X119657237Y-60267808D01*
X118857237Y-60267808D01*
X118857237Y-60648761D01*
X119238190Y-60991618D02*
X119238190Y-61258285D01*
X119657237Y-61372570D02*
X119657237Y-60991618D01*
X118857237Y-60991618D01*
X118857237Y-61372570D01*
X119657237Y-61715428D02*
X118857237Y-61715428D01*
X119657237Y-62172570D01*
X118857237Y-62172570D01*
X114661904Y-57258285D02*
X113861904Y-57258285D01*
X114661904Y-57715428D02*
X114204761Y-57372571D01*
X113861904Y-57715428D02*
X114319047Y-57258285D01*
X114738095Y-57867809D02*
X114738095Y-58477333D01*
X114242857Y-58934475D02*
X114280952Y-59048761D01*
X114319047Y-59086856D01*
X114395238Y-59124952D01*
X114509523Y-59124952D01*
X114585714Y-59086856D01*
X114623809Y-59048761D01*
X114661904Y-58972571D01*
X114661904Y-58667809D01*
X113861904Y-58667809D01*
X113861904Y-58934475D01*
X113900000Y-59010666D01*
X113938095Y-59048761D01*
X114014285Y-59086856D01*
X114090476Y-59086856D01*
X114166666Y-59048761D01*
X114204761Y-59010666D01*
X114242857Y-58934475D01*
X114242857Y-58667809D01*
X114661904Y-59848761D02*
X114661904Y-59467809D01*
X113861904Y-59467809D01*
X113861904Y-60115428D02*
X114509523Y-60115428D01*
X114585714Y-60153523D01*
X114623809Y-60191618D01*
X114661904Y-60267809D01*
X114661904Y-60420190D01*
X114623809Y-60496380D01*
X114585714Y-60534475D01*
X114509523Y-60572571D01*
X113861904Y-60572571D01*
X114242857Y-60953523D02*
X114242857Y-61220190D01*
X114661904Y-61334475D02*
X114661904Y-60953523D01*
X113861904Y-60953523D01*
X113861904Y-61334475D01*
X102925571Y-94996428D02*
X102925571Y-95329761D01*
X103449380Y-95472619D02*
X103449380Y-94996428D01*
X102449380Y-94996428D01*
X102449380Y-95472619D01*
X102449380Y-95758333D02*
X102449380Y-96329761D01*
X103449380Y-96044047D02*
X102449380Y-96044047D01*
X103449380Y-96663095D02*
X102449380Y-96663095D01*
X102925571Y-96663095D02*
X102925571Y-97234523D01*
X103449380Y-97234523D02*
X102449380Y-97234523D01*
X102925571Y-97710714D02*
X102925571Y-98044047D01*
X103449380Y-98186904D02*
X103449380Y-97710714D01*
X102449380Y-97710714D01*
X102449380Y-98186904D01*
X103449380Y-99186904D02*
X102973190Y-98853571D01*
X103449380Y-98615476D02*
X102449380Y-98615476D01*
X102449380Y-98996428D01*
X102497000Y-99091666D01*
X102544619Y-99139285D01*
X102639857Y-99186904D01*
X102782714Y-99186904D01*
X102877952Y-99139285D01*
X102925571Y-99091666D01*
X102973190Y-98996428D01*
X102973190Y-98615476D01*
X103449380Y-99615476D02*
X102449380Y-99615476D01*
X103449380Y-100186904D01*
X102449380Y-100186904D01*
X102925571Y-100663095D02*
X102925571Y-100996428D01*
X103449380Y-101139285D02*
X103449380Y-100663095D01*
X102449380Y-100663095D01*
X102449380Y-101139285D01*
X102449380Y-101425000D02*
X102449380Y-101996428D01*
X103449380Y-101710714D02*
X102449380Y-101710714D01*
X103354142Y-135477619D02*
X103401761Y-135430000D01*
X103449380Y-135287142D01*
X103449380Y-135191904D01*
X103401761Y-135049047D01*
X103306523Y-134953809D01*
X103211285Y-134906190D01*
X103020809Y-134858571D01*
X102877952Y-134858571D01*
X102687476Y-134906190D01*
X102592238Y-134953809D01*
X102497000Y-135049047D01*
X102449380Y-135191904D01*
X102449380Y-135287142D01*
X102497000Y-135430000D01*
X102544619Y-135477619D01*
X103163666Y-135858571D02*
X103163666Y-136334761D01*
X103449380Y-135763333D02*
X102449380Y-136096666D01*
X103449380Y-136430000D01*
X103449380Y-136763333D02*
X102449380Y-136763333D01*
X103449380Y-137334761D01*
X102449380Y-137334761D01*
X103544619Y-137572857D02*
X103544619Y-138334761D01*
X102449380Y-138430000D02*
X102449380Y-139001428D01*
X103449380Y-138715714D02*
X102449380Y-138715714D01*
X103449380Y-139334761D02*
X102449380Y-139334761D01*
X102925571Y-139334761D02*
X102925571Y-139906190D01*
X103449380Y-139906190D02*
X102449380Y-139906190D01*
X103449380Y-140953809D02*
X102973190Y-140620476D01*
X103449380Y-140382380D02*
X102449380Y-140382380D01*
X102449380Y-140763333D01*
X102497000Y-140858571D01*
X102544619Y-140906190D01*
X102639857Y-140953809D01*
X102782714Y-140953809D01*
X102877952Y-140906190D01*
X102925571Y-140858571D01*
X102973190Y-140763333D01*
X102973190Y-140382380D01*
X102449380Y-141382380D02*
X103258904Y-141382380D01*
X103354142Y-141430000D01*
X103401761Y-141477619D01*
X103449380Y-141572857D01*
X103449380Y-141763333D01*
X103401761Y-141858571D01*
X103354142Y-141906190D01*
X103258904Y-141953809D01*
X102449380Y-141953809D01*
X103354142Y-117467142D02*
X103401761Y-117419523D01*
X103449380Y-117276666D01*
X103449380Y-117181428D01*
X103401761Y-117038571D01*
X103306523Y-116943333D01*
X103211285Y-116895714D01*
X103020809Y-116848095D01*
X102877952Y-116848095D01*
X102687476Y-116895714D01*
X102592238Y-116943333D01*
X102497000Y-117038571D01*
X102449380Y-117181428D01*
X102449380Y-117276666D01*
X102497000Y-117419523D01*
X102544619Y-117467142D01*
X103163666Y-117848095D02*
X103163666Y-118324285D01*
X103449380Y-117752857D02*
X102449380Y-118086190D01*
X103449380Y-118419523D01*
X103449380Y-118752857D02*
X102449380Y-118752857D01*
X103449380Y-119324285D01*
X102449380Y-119324285D01*
X182048142Y-94094476D02*
X182048142Y-94704000D01*
X182352904Y-94399238D02*
X181743380Y-94399238D01*
X181629095Y-95046857D02*
X181591000Y-95084952D01*
X181552904Y-95161142D01*
X181552904Y-95351619D01*
X181591000Y-95427809D01*
X181629095Y-95465904D01*
X181705285Y-95504000D01*
X181781476Y-95504000D01*
X181895761Y-95465904D01*
X182352904Y-95008761D01*
X182352904Y-95504000D01*
X181819571Y-96189714D02*
X182352904Y-96189714D01*
X181514809Y-95999238D02*
X182086238Y-95808761D01*
X182086238Y-96304000D01*
X181552904Y-96494476D02*
X182352904Y-96761142D01*
X181552904Y-97027809D01*
X181591000Y-100101476D02*
X181552904Y-100025285D01*
X181552904Y-99911000D01*
X181591000Y-99796714D01*
X181667190Y-99720523D01*
X181743380Y-99682428D01*
X181895761Y-99644333D01*
X182010047Y-99644333D01*
X182162428Y-99682428D01*
X182238619Y-99720523D01*
X182314809Y-99796714D01*
X182352904Y-99911000D01*
X182352904Y-99987190D01*
X182314809Y-100101476D01*
X182276714Y-100139571D01*
X182010047Y-100139571D01*
X182010047Y-99987190D01*
X182352904Y-100482428D02*
X181552904Y-100482428D01*
X182352904Y-100939571D01*
X181552904Y-100939571D01*
X182352904Y-101320523D02*
X181552904Y-101320523D01*
X181552904Y-101511000D01*
X181591000Y-101625285D01*
X181667190Y-101701476D01*
X181743380Y-101739571D01*
X181895761Y-101777666D01*
X182010047Y-101777666D01*
X182162428Y-101739571D01*
X182238619Y-101701476D01*
X182314809Y-101625285D01*
X182352904Y-101511000D01*
X182352904Y-101320523D01*
X116998714Y-141421142D02*
X117036809Y-141383047D01*
X117074904Y-141268761D01*
X117074904Y-141192571D01*
X117036809Y-141078285D01*
X116960619Y-141002095D01*
X116884428Y-140964000D01*
X116732047Y-140925904D01*
X116617761Y-140925904D01*
X116465380Y-140964000D01*
X116389190Y-141002095D01*
X116313000Y-141078285D01*
X116274904Y-141192571D01*
X116274904Y-141268761D01*
X116313000Y-141383047D01*
X116351095Y-141421142D01*
X116846333Y-141725904D02*
X116846333Y-142106857D01*
X117074904Y-141649714D02*
X116274904Y-141916380D01*
X117074904Y-142183047D01*
X117074904Y-142449714D02*
X116274904Y-142449714D01*
X117074904Y-142906857D01*
X116274904Y-142906857D01*
X116274904Y-143783047D02*
X116274904Y-144240190D01*
X117074904Y-144011619D02*
X116274904Y-144011619D01*
X116655857Y-144506857D02*
X116655857Y-144773523D01*
X117074904Y-144887809D02*
X117074904Y-144506857D01*
X116274904Y-144506857D01*
X116274904Y-144887809D01*
X117074904Y-145687809D02*
X116693952Y-145421142D01*
X117074904Y-145230666D02*
X116274904Y-145230666D01*
X116274904Y-145535428D01*
X116313000Y-145611619D01*
X116351095Y-145649714D01*
X116427285Y-145687809D01*
X116541571Y-145687809D01*
X116617761Y-145649714D01*
X116655857Y-145611619D01*
X116693952Y-145535428D01*
X116693952Y-145230666D01*
X117074904Y-146030666D02*
X116274904Y-146030666D01*
X116846333Y-146297333D01*
X116274904Y-146564000D01*
X117074904Y-146564000D01*
X135820142Y-144450000D02*
X135820142Y-145059523D01*
X136124904Y-144754761D02*
X135515380Y-144754761D01*
X135324904Y-145364285D02*
X135324904Y-145859523D01*
X135629666Y-145592857D01*
X135629666Y-145707142D01*
X135667761Y-145783333D01*
X135705857Y-145821428D01*
X135782047Y-145859523D01*
X135972523Y-145859523D01*
X136048714Y-145821428D01*
X136086809Y-145783333D01*
X136124904Y-145707142D01*
X136124904Y-145478571D01*
X136086809Y-145402380D01*
X136048714Y-145364285D01*
X136048714Y-146202380D02*
X136086809Y-146240476D01*
X136124904Y-146202380D01*
X136086809Y-146164285D01*
X136048714Y-146202380D01*
X136124904Y-146202380D01*
X135324904Y-146507142D02*
X135324904Y-147002380D01*
X135629666Y-146735714D01*
X135629666Y-146850000D01*
X135667761Y-146926190D01*
X135705857Y-146964285D01*
X135782047Y-147002380D01*
X135972523Y-147002380D01*
X136048714Y-146964285D01*
X136086809Y-146926190D01*
X136124904Y-146850000D01*
X136124904Y-146621428D01*
X136086809Y-146545238D01*
X136048714Y-146507142D01*
X135324904Y-147230952D02*
X136124904Y-147497619D01*
X135324904Y-147764285D01*
X133458000Y-144869048D02*
X133419904Y-144792857D01*
X133419904Y-144678572D01*
X133458000Y-144564286D01*
X133534190Y-144488095D01*
X133610380Y-144450000D01*
X133762761Y-144411905D01*
X133877047Y-144411905D01*
X134029428Y-144450000D01*
X134105619Y-144488095D01*
X134181809Y-144564286D01*
X134219904Y-144678572D01*
X134219904Y-144754762D01*
X134181809Y-144869048D01*
X134143714Y-144907143D01*
X133877047Y-144907143D01*
X133877047Y-144754762D01*
X134219904Y-145250000D02*
X133419904Y-145250000D01*
X134219904Y-145707143D01*
X133419904Y-145707143D01*
X134219904Y-146088095D02*
X133419904Y-146088095D01*
X133419904Y-146278572D01*
X133458000Y-146392857D01*
X133534190Y-146469048D01*
X133610380Y-146507143D01*
X133762761Y-146545238D01*
X133877047Y-146545238D01*
X134029428Y-146507143D01*
X134105619Y-146469048D01*
X134181809Y-146392857D01*
X134219904Y-146278572D01*
X134219904Y-146088095D01*
X148012142Y-144450000D02*
X148012142Y-145059523D01*
X148316904Y-144754761D02*
X147707380Y-144754761D01*
X147516904Y-145821428D02*
X147516904Y-145440476D01*
X147897857Y-145402380D01*
X147859761Y-145440476D01*
X147821666Y-145516666D01*
X147821666Y-145707142D01*
X147859761Y-145783333D01*
X147897857Y-145821428D01*
X147974047Y-145859523D01*
X148164523Y-145859523D01*
X148240714Y-145821428D01*
X148278809Y-145783333D01*
X148316904Y-145707142D01*
X148316904Y-145516666D01*
X148278809Y-145440476D01*
X148240714Y-145402380D01*
X148240714Y-146202380D02*
X148278809Y-146240476D01*
X148316904Y-146202380D01*
X148278809Y-146164285D01*
X148240714Y-146202380D01*
X148316904Y-146202380D01*
X147516904Y-146735714D02*
X147516904Y-146811904D01*
X147555000Y-146888095D01*
X147593095Y-146926190D01*
X147669285Y-146964285D01*
X147821666Y-147002380D01*
X148012142Y-147002380D01*
X148164523Y-146964285D01*
X148240714Y-146926190D01*
X148278809Y-146888095D01*
X148316904Y-146811904D01*
X148316904Y-146735714D01*
X148278809Y-146659523D01*
X148240714Y-146621428D01*
X148164523Y-146583333D01*
X148012142Y-146545238D01*
X147821666Y-146545238D01*
X147669285Y-146583333D01*
X147593095Y-146621428D01*
X147555000Y-146659523D01*
X147516904Y-146735714D01*
X147516904Y-147230952D02*
X148316904Y-147497619D01*
X147516904Y-147764285D01*
X145650000Y-144869048D02*
X145611904Y-144792857D01*
X145611904Y-144678572D01*
X145650000Y-144564286D01*
X145726190Y-144488095D01*
X145802380Y-144450000D01*
X145954761Y-144411905D01*
X146069047Y-144411905D01*
X146221428Y-144450000D01*
X146297619Y-144488095D01*
X146373809Y-144564286D01*
X146411904Y-144678572D01*
X146411904Y-144754762D01*
X146373809Y-144869048D01*
X146335714Y-144907143D01*
X146069047Y-144907143D01*
X146069047Y-144754762D01*
X146411904Y-145250000D02*
X145611904Y-145250000D01*
X146411904Y-145707143D01*
X145611904Y-145707143D01*
X146411904Y-146088095D02*
X145611904Y-146088095D01*
X145611904Y-146278572D01*
X145650000Y-146392857D01*
X145726190Y-146469048D01*
X145802380Y-146507143D01*
X145954761Y-146545238D01*
X146069047Y-146545238D01*
X146221428Y-146507143D01*
X146297619Y-146469048D01*
X146373809Y-146392857D01*
X146411904Y-146278572D01*
X146411904Y-146088095D01*
X172142142Y-144450000D02*
X172142142Y-145059523D01*
X172446904Y-144754761D02*
X171837380Y-144754761D01*
X171646904Y-145821428D02*
X171646904Y-145440476D01*
X172027857Y-145402380D01*
X171989761Y-145440476D01*
X171951666Y-145516666D01*
X171951666Y-145707142D01*
X171989761Y-145783333D01*
X172027857Y-145821428D01*
X172104047Y-145859523D01*
X172294523Y-145859523D01*
X172370714Y-145821428D01*
X172408809Y-145783333D01*
X172446904Y-145707142D01*
X172446904Y-145516666D01*
X172408809Y-145440476D01*
X172370714Y-145402380D01*
X172370714Y-146202380D02*
X172408809Y-146240476D01*
X172446904Y-146202380D01*
X172408809Y-146164285D01*
X172370714Y-146202380D01*
X172446904Y-146202380D01*
X171646904Y-146735714D02*
X171646904Y-146811904D01*
X171685000Y-146888095D01*
X171723095Y-146926190D01*
X171799285Y-146964285D01*
X171951666Y-147002380D01*
X172142142Y-147002380D01*
X172294523Y-146964285D01*
X172370714Y-146926190D01*
X172408809Y-146888095D01*
X172446904Y-146811904D01*
X172446904Y-146735714D01*
X172408809Y-146659523D01*
X172370714Y-146621428D01*
X172294523Y-146583333D01*
X172142142Y-146545238D01*
X171951666Y-146545238D01*
X171799285Y-146583333D01*
X171723095Y-146621428D01*
X171685000Y-146659523D01*
X171646904Y-146735714D01*
X171646904Y-147230952D02*
X172446904Y-147497619D01*
X171646904Y-147764285D01*
X167677439Y-144869048D02*
X167639343Y-144792857D01*
X167639343Y-144678572D01*
X167677439Y-144564286D01*
X167753629Y-144488095D01*
X167829819Y-144450000D01*
X167982200Y-144411905D01*
X168096486Y-144411905D01*
X168248867Y-144450000D01*
X168325058Y-144488095D01*
X168401248Y-144564286D01*
X168439343Y-144678572D01*
X168439343Y-144754762D01*
X168401248Y-144869048D01*
X168363153Y-144907143D01*
X168096486Y-144907143D01*
X168096486Y-144754762D01*
X168439343Y-145250000D02*
X167639343Y-145250000D01*
X168439343Y-145707143D01*
X167639343Y-145707143D01*
X168439343Y-146088095D02*
X167639343Y-146088095D01*
X167639343Y-146278572D01*
X167677439Y-146392857D01*
X167753629Y-146469048D01*
X167829819Y-146507143D01*
X167982200Y-146545238D01*
X168096486Y-146545238D01*
X168248867Y-146507143D01*
X168325058Y-146469048D01*
X168401248Y-146392857D01*
X168439343Y-146278572D01*
X168439343Y-146088095D01*
X170138358Y-144450000D02*
X170138358Y-145059523D01*
X170443120Y-144754761D02*
X169833596Y-144754761D01*
X169643120Y-145364285D02*
X169643120Y-145859523D01*
X169947882Y-145592857D01*
X169947882Y-145707142D01*
X169985977Y-145783333D01*
X170024073Y-145821428D01*
X170100263Y-145859523D01*
X170290739Y-145859523D01*
X170366930Y-145821428D01*
X170405025Y-145783333D01*
X170443120Y-145707142D01*
X170443120Y-145478571D01*
X170405025Y-145402380D01*
X170366930Y-145364285D01*
X170366930Y-146202380D02*
X170405025Y-146240476D01*
X170443120Y-146202380D01*
X170405025Y-146164285D01*
X170366930Y-146202380D01*
X170443120Y-146202380D01*
X169643120Y-146507142D02*
X169643120Y-147002380D01*
X169947882Y-146735714D01*
X169947882Y-146850000D01*
X169985977Y-146926190D01*
X170024073Y-146964285D01*
X170100263Y-147002380D01*
X170290739Y-147002380D01*
X170366930Y-146964285D01*
X170405025Y-146926190D01*
X170443120Y-146850000D01*
X170443120Y-146621428D01*
X170405025Y-146545238D01*
X170366930Y-146507142D01*
X169643120Y-147230952D02*
X170443120Y-147497619D01*
X169643120Y-147764285D01*
X187845429Y-113722142D02*
X187235905Y-113722142D01*
X187540667Y-114026904D02*
X187540667Y-113417380D01*
X186931143Y-113226904D02*
X186435905Y-113226904D01*
X186702571Y-113531666D01*
X186588286Y-113531666D01*
X186512095Y-113569761D01*
X186474000Y-113607857D01*
X186435905Y-113684047D01*
X186435905Y-113874523D01*
X186474000Y-113950714D01*
X186512095Y-113988809D01*
X186588286Y-114026904D01*
X186816857Y-114026904D01*
X186893048Y-113988809D01*
X186931143Y-113950714D01*
X186093048Y-113950714D02*
X186054952Y-113988809D01*
X186093048Y-114026904D01*
X186131143Y-113988809D01*
X186093048Y-113950714D01*
X186093048Y-114026904D01*
X185788286Y-113226904D02*
X185293048Y-113226904D01*
X185559714Y-113531666D01*
X185445429Y-113531666D01*
X185369238Y-113569761D01*
X185331143Y-113607857D01*
X185293048Y-113684047D01*
X185293048Y-113874523D01*
X185331143Y-113950714D01*
X185369238Y-113988809D01*
X185445429Y-114026904D01*
X185674000Y-114026904D01*
X185750190Y-113988809D01*
X185788286Y-113950714D01*
X185064476Y-113226904D02*
X184797809Y-114026904D01*
X184531143Y-113226904D01*
X186283523Y-111275332D02*
X186359714Y-111237236D01*
X186474000Y-111237236D01*
X186588285Y-111275332D01*
X186664476Y-111351522D01*
X186702571Y-111427712D01*
X186740666Y-111580093D01*
X186740666Y-111694379D01*
X186702571Y-111846760D01*
X186664476Y-111922951D01*
X186588285Y-111999141D01*
X186474000Y-112037236D01*
X186397809Y-112037236D01*
X186283523Y-111999141D01*
X186245428Y-111961046D01*
X186245428Y-111694379D01*
X186397809Y-111694379D01*
X185902571Y-112037236D02*
X185902571Y-111237236D01*
X185445428Y-112037236D01*
X185445428Y-111237236D01*
X185064476Y-112037236D02*
X185064476Y-111237236D01*
X184874000Y-111237236D01*
X184759714Y-111275332D01*
X184683523Y-111351522D01*
X184645428Y-111427712D01*
X184607333Y-111580093D01*
X184607333Y-111694379D01*
X184645428Y-111846760D01*
X184683523Y-111922951D01*
X184759714Y-111999141D01*
X184874000Y-112037236D01*
X185064476Y-112037236D01*
X186283523Y-119361000D02*
X186359714Y-119322904D01*
X186474000Y-119322904D01*
X186588285Y-119361000D01*
X186664476Y-119437190D01*
X186702571Y-119513380D01*
X186740666Y-119665761D01*
X186740666Y-119780047D01*
X186702571Y-119932428D01*
X186664476Y-120008619D01*
X186588285Y-120084809D01*
X186474000Y-120122904D01*
X186397809Y-120122904D01*
X186283523Y-120084809D01*
X186245428Y-120046714D01*
X186245428Y-119780047D01*
X186397809Y-119780047D01*
X185902571Y-120122904D02*
X185902571Y-119322904D01*
X185445428Y-120122904D01*
X185445428Y-119322904D01*
X185064476Y-120122904D02*
X185064476Y-119322904D01*
X184874000Y-119322904D01*
X184759714Y-119361000D01*
X184683523Y-119437190D01*
X184645428Y-119513380D01*
X184607333Y-119665761D01*
X184607333Y-119780047D01*
X184645428Y-119932428D01*
X184683523Y-120008619D01*
X184759714Y-120084809D01*
X184874000Y-120122904D01*
X185064476Y-120122904D01*
X187845429Y-135566142D02*
X187235905Y-135566142D01*
X187540667Y-135870904D02*
X187540667Y-135261380D01*
X186931143Y-135070904D02*
X186435905Y-135070904D01*
X186702571Y-135375666D01*
X186588286Y-135375666D01*
X186512095Y-135413761D01*
X186474000Y-135451857D01*
X186435905Y-135528047D01*
X186435905Y-135718523D01*
X186474000Y-135794714D01*
X186512095Y-135832809D01*
X186588286Y-135870904D01*
X186816857Y-135870904D01*
X186893048Y-135832809D01*
X186931143Y-135794714D01*
X186093048Y-135794714D02*
X186054952Y-135832809D01*
X186093048Y-135870904D01*
X186131143Y-135832809D01*
X186093048Y-135794714D01*
X186093048Y-135870904D01*
X185788286Y-135070904D02*
X185293048Y-135070904D01*
X185559714Y-135375666D01*
X185445429Y-135375666D01*
X185369238Y-135413761D01*
X185331143Y-135451857D01*
X185293048Y-135528047D01*
X185293048Y-135718523D01*
X185331143Y-135794714D01*
X185369238Y-135832809D01*
X185445429Y-135870904D01*
X185674000Y-135870904D01*
X185750190Y-135832809D01*
X185788286Y-135794714D01*
X185064476Y-135070904D02*
X184797809Y-135870904D01*
X184531143Y-135070904D01*
X186283523Y-137014000D02*
X186359714Y-136975904D01*
X186474000Y-136975904D01*
X186588285Y-137014000D01*
X186664476Y-137090190D01*
X186702571Y-137166380D01*
X186740666Y-137318761D01*
X186740666Y-137433047D01*
X186702571Y-137585428D01*
X186664476Y-137661619D01*
X186588285Y-137737809D01*
X186474000Y-137775904D01*
X186397809Y-137775904D01*
X186283523Y-137737809D01*
X186245428Y-137699714D01*
X186245428Y-137433047D01*
X186397809Y-137433047D01*
X185902571Y-137775904D02*
X185902571Y-136975904D01*
X185445428Y-137775904D01*
X185445428Y-136975904D01*
X185064476Y-137775904D02*
X185064476Y-136975904D01*
X184874000Y-136975904D01*
X184759714Y-137014000D01*
X184683523Y-137090190D01*
X184645428Y-137166380D01*
X184607333Y-137318761D01*
X184607333Y-137433047D01*
X184645428Y-137585428D01*
X184683523Y-137661619D01*
X184759714Y-137737809D01*
X184874000Y-137775904D01*
X185064476Y-137775904D01*
X154412904Y-132239333D02*
X153612904Y-132239333D01*
X153612904Y-132544095D01*
X153651000Y-132620285D01*
X153689095Y-132658380D01*
X153765285Y-132696476D01*
X153879571Y-132696476D01*
X153955761Y-132658380D01*
X153993857Y-132620285D01*
X154031952Y-132544095D01*
X154031952Y-132239333D01*
X154336714Y-133496476D02*
X154374809Y-133458380D01*
X154412904Y-133344095D01*
X154412904Y-133267904D01*
X154374809Y-133153619D01*
X154298619Y-133077428D01*
X154222428Y-133039333D01*
X154070047Y-133001238D01*
X153955761Y-133001238D01*
X153803380Y-133039333D01*
X153727190Y-133077428D01*
X153651000Y-133153619D01*
X153612904Y-133267904D01*
X153612904Y-133344095D01*
X153651000Y-133458380D01*
X153689095Y-133496476D01*
X154412904Y-134258380D02*
X154412904Y-133801238D01*
X154412904Y-134029809D02*
X153612904Y-134029809D01*
X153727190Y-133953619D01*
X153803380Y-133877428D01*
X153841476Y-133801238D01*
X153689095Y-134563142D02*
X153651000Y-134601238D01*
X153612904Y-134677428D01*
X153612904Y-134867904D01*
X153651000Y-134944095D01*
X153689095Y-134982190D01*
X153765285Y-135020285D01*
X153841476Y-135020285D01*
X153955761Y-134982190D01*
X154412904Y-134525047D01*
X154412904Y-135020285D01*
X154336714Y-135363142D02*
X154374809Y-135401238D01*
X154412904Y-135363142D01*
X154374809Y-135325047D01*
X154336714Y-135363142D01*
X154412904Y-135363142D01*
X153917666Y-135363142D02*
X153955761Y-135401238D01*
X153993857Y-135363142D01*
X153955761Y-135325047D01*
X153917666Y-135363142D01*
X153993857Y-135363142D01*
X154374809Y-135706000D02*
X154412904Y-135820285D01*
X154412904Y-136010761D01*
X154374809Y-136086952D01*
X154336714Y-136125047D01*
X154260523Y-136163142D01*
X154184333Y-136163142D01*
X154108142Y-136125047D01*
X154070047Y-136086952D01*
X154031952Y-136010761D01*
X153993857Y-135858380D01*
X153955761Y-135782190D01*
X153917666Y-135744095D01*
X153841476Y-135706000D01*
X153765285Y-135706000D01*
X153689095Y-135744095D01*
X153651000Y-135782190D01*
X153612904Y-135858380D01*
X153612904Y-136048857D01*
X153651000Y-136163142D01*
X154412904Y-136506000D02*
X153612904Y-136506000D01*
X153612904Y-136810761D01*
X153651000Y-136886952D01*
X153689095Y-136925047D01*
X153765285Y-136963142D01*
X153879571Y-136963142D01*
X153955761Y-136925047D01*
X153993857Y-136886952D01*
X154031952Y-136810761D01*
X154031952Y-136506000D01*
X154412904Y-137306000D02*
X153612904Y-137306000D01*
X153612904Y-137839333D02*
X153612904Y-137915523D01*
X153651000Y-137991714D01*
X153689095Y-138029809D01*
X153765285Y-138067904D01*
X153917666Y-138106000D01*
X154108142Y-138106000D01*
X154260523Y-138067904D01*
X154336714Y-138029809D01*
X154374809Y-137991714D01*
X154412904Y-137915523D01*
X154412904Y-137839333D01*
X154374809Y-137763142D01*
X154336714Y-137725047D01*
X154260523Y-137686952D01*
X154108142Y-137648857D01*
X153917666Y-137648857D01*
X153765285Y-137686952D01*
X153689095Y-137725047D01*
X153651000Y-137763142D01*
X153612904Y-137839333D01*
X154489095Y-138258380D02*
X154489095Y-138867904D01*
X154412904Y-139058380D02*
X153612904Y-139058380D01*
X154184333Y-139325047D01*
X153612904Y-139591714D01*
X154412904Y-139591714D01*
X153612904Y-140125047D02*
X153612904Y-140277428D01*
X153651000Y-140353619D01*
X153727190Y-140429809D01*
X153879571Y-140467904D01*
X154146238Y-140467904D01*
X154298619Y-140429809D01*
X154374809Y-140353619D01*
X154412904Y-140277428D01*
X154412904Y-140125047D01*
X154374809Y-140048857D01*
X154298619Y-139972666D01*
X154146238Y-139934571D01*
X153879571Y-139934571D01*
X153727190Y-139972666D01*
X153651000Y-140048857D01*
X153612904Y-140125047D01*
X154374809Y-140772666D02*
X154412904Y-140886952D01*
X154412904Y-141077428D01*
X154374809Y-141153619D01*
X154336714Y-141191714D01*
X154260523Y-141229809D01*
X154184333Y-141229809D01*
X154108142Y-141191714D01*
X154070047Y-141153619D01*
X154031952Y-141077428D01*
X153993857Y-140925047D01*
X153955761Y-140848857D01*
X153917666Y-140810761D01*
X153841476Y-140772666D01*
X153765285Y-140772666D01*
X153689095Y-140810761D01*
X153651000Y-140848857D01*
X153612904Y-140925047D01*
X153612904Y-141115523D01*
X153651000Y-141229809D01*
X154412904Y-141572666D02*
X153612904Y-141572666D01*
X158420458Y-132772667D02*
X157620458Y-132772667D01*
X157620458Y-133077428D01*
X157658554Y-133153619D01*
X157696649Y-133191714D01*
X157772839Y-133229809D01*
X157887125Y-133229809D01*
X157963315Y-133191714D01*
X158001411Y-133153619D01*
X158039506Y-133077428D01*
X158039506Y-132772667D01*
X158344268Y-134029809D02*
X158382363Y-133991714D01*
X158420458Y-133877428D01*
X158420458Y-133801238D01*
X158382363Y-133686952D01*
X158306173Y-133610762D01*
X158229982Y-133572667D01*
X158077601Y-133534571D01*
X157963315Y-133534571D01*
X157810934Y-133572667D01*
X157734744Y-133610762D01*
X157658554Y-133686952D01*
X157620458Y-133801238D01*
X157620458Y-133877428D01*
X157658554Y-133991714D01*
X157696649Y-134029809D01*
X158420458Y-134791714D02*
X158420458Y-134334571D01*
X158420458Y-134563143D02*
X157620458Y-134563143D01*
X157734744Y-134486952D01*
X157810934Y-134410762D01*
X157849030Y-134334571D01*
X157620458Y-135286952D02*
X157620458Y-135363143D01*
X157658554Y-135439333D01*
X157696649Y-135477428D01*
X157772839Y-135515524D01*
X157925220Y-135553619D01*
X158115696Y-135553619D01*
X158268077Y-135515524D01*
X158344268Y-135477428D01*
X158382363Y-135439333D01*
X158420458Y-135363143D01*
X158420458Y-135286952D01*
X158382363Y-135210762D01*
X158344268Y-135172667D01*
X158268077Y-135134571D01*
X158115696Y-135096476D01*
X157925220Y-135096476D01*
X157772839Y-135134571D01*
X157696649Y-135172667D01*
X157658554Y-135210762D01*
X157620458Y-135286952D01*
X158344268Y-135896476D02*
X158382363Y-135934571D01*
X158420458Y-135896476D01*
X158382363Y-135858381D01*
X158344268Y-135896476D01*
X158420458Y-135896476D01*
X157925220Y-135896476D02*
X157963315Y-135934571D01*
X158001411Y-135896476D01*
X157963315Y-135858381D01*
X157925220Y-135896476D01*
X158001411Y-135896476D01*
X158382363Y-136239333D02*
X158420458Y-136353619D01*
X158420458Y-136544095D01*
X158382363Y-136620286D01*
X158344268Y-136658381D01*
X158268077Y-136696476D01*
X158191887Y-136696476D01*
X158115696Y-136658381D01*
X158077601Y-136620286D01*
X158039506Y-136544095D01*
X158001411Y-136391714D01*
X157963315Y-136315524D01*
X157925220Y-136277428D01*
X157849030Y-136239333D01*
X157772839Y-136239333D01*
X157696649Y-136277428D01*
X157658554Y-136315524D01*
X157620458Y-136391714D01*
X157620458Y-136582190D01*
X157658554Y-136696476D01*
X158420458Y-137039333D02*
X157620458Y-137039333D01*
X157620458Y-137344095D01*
X157658554Y-137420286D01*
X157696649Y-137458381D01*
X157772839Y-137496476D01*
X157887125Y-137496476D01*
X157963315Y-137458381D01*
X158001411Y-137420286D01*
X158039506Y-137344095D01*
X158039506Y-137039333D01*
X158420458Y-137839333D02*
X157620458Y-137839333D01*
X157620458Y-138372667D02*
X157620458Y-138448857D01*
X157658554Y-138525047D01*
X157696649Y-138563143D01*
X157772839Y-138601238D01*
X157925220Y-138639333D01*
X158115696Y-138639333D01*
X158268077Y-138601238D01*
X158344268Y-138563143D01*
X158382363Y-138525047D01*
X158420458Y-138448857D01*
X158420458Y-138372667D01*
X158382363Y-138296476D01*
X158344268Y-138258381D01*
X158268077Y-138220286D01*
X158115696Y-138182190D01*
X157925220Y-138182190D01*
X157772839Y-138220286D01*
X157696649Y-138258381D01*
X157658554Y-138296476D01*
X157620458Y-138372667D01*
X158496649Y-138791714D02*
X158496649Y-139401238D01*
X158382363Y-139553619D02*
X158420458Y-139667905D01*
X158420458Y-139858381D01*
X158382363Y-139934571D01*
X158344268Y-139972667D01*
X158268077Y-140010762D01*
X158191887Y-140010762D01*
X158115696Y-139972667D01*
X158077601Y-139934571D01*
X158039506Y-139858381D01*
X158001411Y-139706000D01*
X157963315Y-139629809D01*
X157925220Y-139591714D01*
X157849030Y-139553619D01*
X157772839Y-139553619D01*
X157696649Y-139591714D01*
X157658554Y-139629809D01*
X157620458Y-139706000D01*
X157620458Y-139896476D01*
X157658554Y-140010762D01*
X158344268Y-140810762D02*
X158382363Y-140772667D01*
X158420458Y-140658381D01*
X158420458Y-140582190D01*
X158382363Y-140467905D01*
X158306173Y-140391714D01*
X158229982Y-140353619D01*
X158077601Y-140315524D01*
X157963315Y-140315524D01*
X157810934Y-140353619D01*
X157734744Y-140391714D01*
X157658554Y-140467905D01*
X157620458Y-140582190D01*
X157620458Y-140658381D01*
X157658554Y-140772667D01*
X157696649Y-140810762D01*
X158420458Y-141153619D02*
X157620458Y-141153619D01*
X158420458Y-141610762D02*
X157963315Y-141267905D01*
X157620458Y-141610762D02*
X158077601Y-141153619D01*
X160424235Y-133572667D02*
X159624235Y-133572667D01*
X159624235Y-133877428D01*
X159662331Y-133953619D01*
X159700426Y-133991714D01*
X159776616Y-134029809D01*
X159890902Y-134029809D01*
X159967092Y-133991714D01*
X160005188Y-133953619D01*
X160043283Y-133877428D01*
X160043283Y-133572667D01*
X160348045Y-134829809D02*
X160386140Y-134791714D01*
X160424235Y-134677428D01*
X160424235Y-134601238D01*
X160386140Y-134486952D01*
X160309950Y-134410762D01*
X160233759Y-134372667D01*
X160081378Y-134334571D01*
X159967092Y-134334571D01*
X159814711Y-134372667D01*
X159738521Y-134410762D01*
X159662331Y-134486952D01*
X159624235Y-134601238D01*
X159624235Y-134677428D01*
X159662331Y-134791714D01*
X159700426Y-134829809D01*
X160424235Y-135210762D02*
X160424235Y-135363143D01*
X160386140Y-135439333D01*
X160348045Y-135477428D01*
X160233759Y-135553619D01*
X160081378Y-135591714D01*
X159776616Y-135591714D01*
X159700426Y-135553619D01*
X159662331Y-135515524D01*
X159624235Y-135439333D01*
X159624235Y-135286952D01*
X159662331Y-135210762D01*
X159700426Y-135172667D01*
X159776616Y-135134571D01*
X159967092Y-135134571D01*
X160043283Y-135172667D01*
X160081378Y-135210762D01*
X160119473Y-135286952D01*
X160119473Y-135439333D01*
X160081378Y-135515524D01*
X160043283Y-135553619D01*
X159967092Y-135591714D01*
X160348045Y-135934571D02*
X160386140Y-135972667D01*
X160424235Y-135934571D01*
X160386140Y-135896476D01*
X160348045Y-135934571D01*
X160424235Y-135934571D01*
X159928997Y-135934571D02*
X159967092Y-135972667D01*
X160005188Y-135934571D01*
X159967092Y-135896476D01*
X159928997Y-135934571D01*
X160005188Y-135934571D01*
X160386140Y-136277428D02*
X160424235Y-136391714D01*
X160424235Y-136582190D01*
X160386140Y-136658381D01*
X160348045Y-136696476D01*
X160271854Y-136734571D01*
X160195664Y-136734571D01*
X160119473Y-136696476D01*
X160081378Y-136658381D01*
X160043283Y-136582190D01*
X160005188Y-136429809D01*
X159967092Y-136353619D01*
X159928997Y-136315524D01*
X159852807Y-136277428D01*
X159776616Y-136277428D01*
X159700426Y-136315524D01*
X159662331Y-136353619D01*
X159624235Y-136429809D01*
X159624235Y-136620286D01*
X159662331Y-136734571D01*
X160424235Y-137077428D02*
X159624235Y-137077428D01*
X159624235Y-137382190D01*
X159662331Y-137458381D01*
X159700426Y-137496476D01*
X159776616Y-137534571D01*
X159890902Y-137534571D01*
X159967092Y-137496476D01*
X160005188Y-137458381D01*
X160043283Y-137382190D01*
X160043283Y-137077428D01*
X160424235Y-137877428D02*
X159624235Y-137877428D01*
X159624235Y-138410762D02*
X159624235Y-138486952D01*
X159662331Y-138563143D01*
X159700426Y-138601238D01*
X159776616Y-138639333D01*
X159928997Y-138677428D01*
X160119473Y-138677428D01*
X160271854Y-138639333D01*
X160348045Y-138601238D01*
X160386140Y-138563143D01*
X160424235Y-138486952D01*
X160424235Y-138410762D01*
X160386140Y-138334571D01*
X160348045Y-138296476D01*
X160271854Y-138258381D01*
X160119473Y-138220286D01*
X159928997Y-138220286D01*
X159776616Y-138258381D01*
X159700426Y-138296476D01*
X159662331Y-138334571D01*
X159624235Y-138410762D01*
X160500426Y-138829809D02*
X160500426Y-139439333D01*
X160348045Y-140086952D02*
X160386140Y-140048857D01*
X160424235Y-139934571D01*
X160424235Y-139858381D01*
X160386140Y-139744095D01*
X160309950Y-139667905D01*
X160233759Y-139629809D01*
X160081378Y-139591714D01*
X159967092Y-139591714D01*
X159814711Y-139629809D01*
X159738521Y-139667905D01*
X159662331Y-139744095D01*
X159624235Y-139858381D01*
X159624235Y-139934571D01*
X159662331Y-140048857D01*
X159700426Y-140086952D01*
X160386140Y-140391714D02*
X160424235Y-140506000D01*
X160424235Y-140696476D01*
X160386140Y-140772667D01*
X160348045Y-140810762D01*
X160271854Y-140848857D01*
X160195664Y-140848857D01*
X160119473Y-140810762D01*
X160081378Y-140772667D01*
X160043283Y-140696476D01*
X160005188Y-140544095D01*
X159967092Y-140467905D01*
X159928997Y-140429809D01*
X159852807Y-140391714D01*
X159776616Y-140391714D01*
X159700426Y-140429809D01*
X159662331Y-140467905D01*
X159624235Y-140544095D01*
X159624235Y-140734571D01*
X159662331Y-140848857D01*
X159624235Y-141344095D02*
X159624235Y-141420286D01*
X159662331Y-141496476D01*
X159700426Y-141534571D01*
X159776616Y-141572667D01*
X159928997Y-141610762D01*
X160119473Y-141610762D01*
X160271854Y-141572667D01*
X160348045Y-141534571D01*
X160386140Y-141496476D01*
X160424235Y-141420286D01*
X160424235Y-141344095D01*
X160386140Y-141267905D01*
X160348045Y-141229809D01*
X160271854Y-141191714D01*
X160119473Y-141153619D01*
X159928997Y-141153619D01*
X159776616Y-141191714D01*
X159700426Y-141229809D01*
X159662331Y-141267905D01*
X159624235Y-141344095D01*
X156416681Y-132239333D02*
X155616681Y-132239333D01*
X155616681Y-132544095D01*
X155654777Y-132620285D01*
X155692872Y-132658380D01*
X155769062Y-132696476D01*
X155883348Y-132696476D01*
X155959538Y-132658380D01*
X155997634Y-132620285D01*
X156035729Y-132544095D01*
X156035729Y-132239333D01*
X156340491Y-133496476D02*
X156378586Y-133458380D01*
X156416681Y-133344095D01*
X156416681Y-133267904D01*
X156378586Y-133153619D01*
X156302396Y-133077428D01*
X156226205Y-133039333D01*
X156073824Y-133001238D01*
X155959538Y-133001238D01*
X155807157Y-133039333D01*
X155730967Y-133077428D01*
X155654777Y-133153619D01*
X155616681Y-133267904D01*
X155616681Y-133344095D01*
X155654777Y-133458380D01*
X155692872Y-133496476D01*
X156416681Y-134258380D02*
X156416681Y-133801238D01*
X156416681Y-134029809D02*
X155616681Y-134029809D01*
X155730967Y-133953619D01*
X155807157Y-133877428D01*
X155845253Y-133801238D01*
X156416681Y-135020285D02*
X156416681Y-134563142D01*
X156416681Y-134791714D02*
X155616681Y-134791714D01*
X155730967Y-134715523D01*
X155807157Y-134639333D01*
X155845253Y-134563142D01*
X156340491Y-135363142D02*
X156378586Y-135401238D01*
X156416681Y-135363142D01*
X156378586Y-135325047D01*
X156340491Y-135363142D01*
X156416681Y-135363142D01*
X155921443Y-135363142D02*
X155959538Y-135401238D01*
X155997634Y-135363142D01*
X155959538Y-135325047D01*
X155921443Y-135363142D01*
X155997634Y-135363142D01*
X156378586Y-135706000D02*
X156416681Y-135820285D01*
X156416681Y-136010761D01*
X156378586Y-136086952D01*
X156340491Y-136125047D01*
X156264300Y-136163142D01*
X156188110Y-136163142D01*
X156111919Y-136125047D01*
X156073824Y-136086952D01*
X156035729Y-136010761D01*
X155997634Y-135858380D01*
X155959538Y-135782190D01*
X155921443Y-135744095D01*
X155845253Y-135706000D01*
X155769062Y-135706000D01*
X155692872Y-135744095D01*
X155654777Y-135782190D01*
X155616681Y-135858380D01*
X155616681Y-136048857D01*
X155654777Y-136163142D01*
X156416681Y-136506000D02*
X155616681Y-136506000D01*
X155616681Y-136810761D01*
X155654777Y-136886952D01*
X155692872Y-136925047D01*
X155769062Y-136963142D01*
X155883348Y-136963142D01*
X155959538Y-136925047D01*
X155997634Y-136886952D01*
X156035729Y-136810761D01*
X156035729Y-136506000D01*
X156416681Y-137306000D02*
X155616681Y-137306000D01*
X155616681Y-137839333D02*
X155616681Y-137915523D01*
X155654777Y-137991714D01*
X155692872Y-138029809D01*
X155769062Y-138067904D01*
X155921443Y-138106000D01*
X156111919Y-138106000D01*
X156264300Y-138067904D01*
X156340491Y-138029809D01*
X156378586Y-137991714D01*
X156416681Y-137915523D01*
X156416681Y-137839333D01*
X156378586Y-137763142D01*
X156340491Y-137725047D01*
X156264300Y-137686952D01*
X156111919Y-137648857D01*
X155921443Y-137648857D01*
X155769062Y-137686952D01*
X155692872Y-137725047D01*
X155654777Y-137763142D01*
X155616681Y-137839333D01*
X156492872Y-138258380D02*
X156492872Y-138867904D01*
X156416681Y-139058380D02*
X155616681Y-139058380D01*
X156188110Y-139325047D01*
X155616681Y-139591714D01*
X156416681Y-139591714D01*
X156416681Y-139972666D02*
X155616681Y-139972666D01*
X156378586Y-140315523D02*
X156416681Y-140429809D01*
X156416681Y-140620285D01*
X156378586Y-140696476D01*
X156340491Y-140734571D01*
X156264300Y-140772666D01*
X156188110Y-140772666D01*
X156111919Y-140734571D01*
X156073824Y-140696476D01*
X156035729Y-140620285D01*
X155997634Y-140467904D01*
X155959538Y-140391714D01*
X155921443Y-140353619D01*
X155845253Y-140315523D01*
X155769062Y-140315523D01*
X155692872Y-140353619D01*
X155654777Y-140391714D01*
X155616681Y-140467904D01*
X155616681Y-140658380D01*
X155654777Y-140772666D01*
X155616681Y-141267904D02*
X155616681Y-141420285D01*
X155654777Y-141496476D01*
X155730967Y-141572666D01*
X155883348Y-141610761D01*
X156150015Y-141610761D01*
X156302396Y-141572666D01*
X156378586Y-141496476D01*
X156416681Y-141420285D01*
X156416681Y-141267904D01*
X156378586Y-141191714D01*
X156302396Y-141115523D01*
X156150015Y-141077428D01*
X155883348Y-141077428D01*
X155730967Y-141115523D01*
X155654777Y-141191714D01*
X155616681Y-141267904D01*
X162428012Y-133572667D02*
X161628012Y-133572667D01*
X161628012Y-133877428D01*
X161666108Y-133953619D01*
X161704203Y-133991714D01*
X161780393Y-134029809D01*
X161894679Y-134029809D01*
X161970869Y-133991714D01*
X162008965Y-133953619D01*
X162047060Y-133877428D01*
X162047060Y-133572667D01*
X162351822Y-134829809D02*
X162389917Y-134791714D01*
X162428012Y-134677428D01*
X162428012Y-134601238D01*
X162389917Y-134486952D01*
X162313727Y-134410762D01*
X162237536Y-134372667D01*
X162085155Y-134334571D01*
X161970869Y-134334571D01*
X161818488Y-134372667D01*
X161742298Y-134410762D01*
X161666108Y-134486952D01*
X161628012Y-134601238D01*
X161628012Y-134677428D01*
X161666108Y-134791714D01*
X161704203Y-134829809D01*
X161970869Y-135286952D02*
X161932774Y-135210762D01*
X161894679Y-135172667D01*
X161818488Y-135134571D01*
X161780393Y-135134571D01*
X161704203Y-135172667D01*
X161666108Y-135210762D01*
X161628012Y-135286952D01*
X161628012Y-135439333D01*
X161666108Y-135515524D01*
X161704203Y-135553619D01*
X161780393Y-135591714D01*
X161818488Y-135591714D01*
X161894679Y-135553619D01*
X161932774Y-135515524D01*
X161970869Y-135439333D01*
X161970869Y-135286952D01*
X162008965Y-135210762D01*
X162047060Y-135172667D01*
X162123250Y-135134571D01*
X162275631Y-135134571D01*
X162351822Y-135172667D01*
X162389917Y-135210762D01*
X162428012Y-135286952D01*
X162428012Y-135439333D01*
X162389917Y-135515524D01*
X162351822Y-135553619D01*
X162275631Y-135591714D01*
X162123250Y-135591714D01*
X162047060Y-135553619D01*
X162008965Y-135515524D01*
X161970869Y-135439333D01*
X162351822Y-135934571D02*
X162389917Y-135972667D01*
X162428012Y-135934571D01*
X162389917Y-135896476D01*
X162351822Y-135934571D01*
X162428012Y-135934571D01*
X161932774Y-135934571D02*
X161970869Y-135972667D01*
X162008965Y-135934571D01*
X161970869Y-135896476D01*
X161932774Y-135934571D01*
X162008965Y-135934571D01*
X162389917Y-136277428D02*
X162428012Y-136391714D01*
X162428012Y-136582190D01*
X162389917Y-136658381D01*
X162351822Y-136696476D01*
X162275631Y-136734571D01*
X162199441Y-136734571D01*
X162123250Y-136696476D01*
X162085155Y-136658381D01*
X162047060Y-136582190D01*
X162008965Y-136429809D01*
X161970869Y-136353619D01*
X161932774Y-136315524D01*
X161856584Y-136277428D01*
X161780393Y-136277428D01*
X161704203Y-136315524D01*
X161666108Y-136353619D01*
X161628012Y-136429809D01*
X161628012Y-136620286D01*
X161666108Y-136734571D01*
X162428012Y-137077428D02*
X161628012Y-137077428D01*
X161628012Y-137382190D01*
X161666108Y-137458381D01*
X161704203Y-137496476D01*
X161780393Y-137534571D01*
X161894679Y-137534571D01*
X161970869Y-137496476D01*
X162008965Y-137458381D01*
X162047060Y-137382190D01*
X162047060Y-137077428D01*
X162428012Y-137877428D02*
X161628012Y-137877428D01*
X161628012Y-138410762D02*
X161628012Y-138486952D01*
X161666108Y-138563143D01*
X161704203Y-138601238D01*
X161780393Y-138639333D01*
X161932774Y-138677428D01*
X162123250Y-138677428D01*
X162275631Y-138639333D01*
X162351822Y-138601238D01*
X162389917Y-138563143D01*
X162428012Y-138486952D01*
X162428012Y-138410762D01*
X162389917Y-138334571D01*
X162351822Y-138296476D01*
X162275631Y-138258381D01*
X162123250Y-138220286D01*
X161932774Y-138220286D01*
X161780393Y-138258381D01*
X161704203Y-138296476D01*
X161666108Y-138334571D01*
X161628012Y-138410762D01*
X162504203Y-138829809D02*
X162504203Y-139439333D01*
X162389917Y-139591714D02*
X162428012Y-139706000D01*
X162428012Y-139896476D01*
X162389917Y-139972667D01*
X162351822Y-140010762D01*
X162275631Y-140048857D01*
X162199441Y-140048857D01*
X162123250Y-140010762D01*
X162085155Y-139972667D01*
X162047060Y-139896476D01*
X162008965Y-139744095D01*
X161970869Y-139667905D01*
X161932774Y-139629809D01*
X161856584Y-139591714D01*
X161780393Y-139591714D01*
X161704203Y-139629809D01*
X161666108Y-139667905D01*
X161628012Y-139744095D01*
X161628012Y-139934571D01*
X161666108Y-140048857D01*
X162351822Y-140848857D02*
X162389917Y-140810762D01*
X162428012Y-140696476D01*
X162428012Y-140620286D01*
X162389917Y-140506000D01*
X162313727Y-140429809D01*
X162237536Y-140391714D01*
X162085155Y-140353619D01*
X161970869Y-140353619D01*
X161818488Y-140391714D01*
X161742298Y-140429809D01*
X161666108Y-140506000D01*
X161628012Y-140620286D01*
X161628012Y-140696476D01*
X161666108Y-140810762D01*
X161704203Y-140848857D01*
X162428012Y-141610762D02*
X162428012Y-141153619D01*
X162428012Y-141382190D02*
X161628012Y-141382190D01*
X161742298Y-141306000D01*
X161818488Y-141229809D01*
X161856584Y-141153619D01*
X130155904Y-133572667D02*
X129355904Y-133572667D01*
X129355904Y-133877428D01*
X129394000Y-133953619D01*
X129432095Y-133991714D01*
X129508285Y-134029809D01*
X129622571Y-134029809D01*
X129698761Y-133991714D01*
X129736857Y-133953619D01*
X129774952Y-133877428D01*
X129774952Y-133572667D01*
X129736857Y-134639333D02*
X129774952Y-134753619D01*
X129813047Y-134791714D01*
X129889238Y-134829809D01*
X130003523Y-134829809D01*
X130079714Y-134791714D01*
X130117809Y-134753619D01*
X130155904Y-134677428D01*
X130155904Y-134372667D01*
X129355904Y-134372667D01*
X129355904Y-134639333D01*
X129394000Y-134715524D01*
X129432095Y-134753619D01*
X129508285Y-134791714D01*
X129584476Y-134791714D01*
X129660666Y-134753619D01*
X129698761Y-134715524D01*
X129736857Y-134639333D01*
X129736857Y-134372667D01*
X129355904Y-135515524D02*
X129355904Y-135363143D01*
X129394000Y-135286952D01*
X129432095Y-135248857D01*
X129546380Y-135172667D01*
X129698761Y-135134571D01*
X130003523Y-135134571D01*
X130079714Y-135172667D01*
X130117809Y-135210762D01*
X130155904Y-135286952D01*
X130155904Y-135439333D01*
X130117809Y-135515524D01*
X130079714Y-135553619D01*
X130003523Y-135591714D01*
X129813047Y-135591714D01*
X129736857Y-135553619D01*
X129698761Y-135515524D01*
X129660666Y-135439333D01*
X129660666Y-135286952D01*
X129698761Y-135210762D01*
X129736857Y-135172667D01*
X129813047Y-135134571D01*
X130079714Y-135934571D02*
X130117809Y-135972667D01*
X130155904Y-135934571D01*
X130117809Y-135896476D01*
X130079714Y-135934571D01*
X130155904Y-135934571D01*
X129660666Y-135934571D02*
X129698761Y-135972667D01*
X129736857Y-135934571D01*
X129698761Y-135896476D01*
X129660666Y-135934571D01*
X129736857Y-135934571D01*
X130117809Y-136277428D02*
X130155904Y-136391714D01*
X130155904Y-136582190D01*
X130117809Y-136658381D01*
X130079714Y-136696476D01*
X130003523Y-136734571D01*
X129927333Y-136734571D01*
X129851142Y-136696476D01*
X129813047Y-136658381D01*
X129774952Y-136582190D01*
X129736857Y-136429809D01*
X129698761Y-136353619D01*
X129660666Y-136315524D01*
X129584476Y-136277428D01*
X129508285Y-136277428D01*
X129432095Y-136315524D01*
X129394000Y-136353619D01*
X129355904Y-136429809D01*
X129355904Y-136620286D01*
X129394000Y-136734571D01*
X130155904Y-137077428D02*
X129355904Y-137077428D01*
X129355904Y-137382190D01*
X129394000Y-137458381D01*
X129432095Y-137496476D01*
X129508285Y-137534571D01*
X129622571Y-137534571D01*
X129698761Y-137496476D01*
X129736857Y-137458381D01*
X129774952Y-137382190D01*
X129774952Y-137077428D01*
X130155904Y-137877428D02*
X129355904Y-137877428D01*
X130155904Y-138677428D02*
X130155904Y-138220286D01*
X130155904Y-138448857D02*
X129355904Y-138448857D01*
X129470190Y-138372667D01*
X129546380Y-138296476D01*
X129584476Y-138220286D01*
X130232095Y-138829809D02*
X130232095Y-139439333D01*
X130079714Y-140086952D02*
X130117809Y-140048857D01*
X130155904Y-139934571D01*
X130155904Y-139858381D01*
X130117809Y-139744095D01*
X130041619Y-139667905D01*
X129965428Y-139629809D01*
X129813047Y-139591714D01*
X129698761Y-139591714D01*
X129546380Y-139629809D01*
X129470190Y-139667905D01*
X129394000Y-139744095D01*
X129355904Y-139858381D01*
X129355904Y-139934571D01*
X129394000Y-140048857D01*
X129432095Y-140086952D01*
X130117809Y-140391714D02*
X130155904Y-140506000D01*
X130155904Y-140696476D01*
X130117809Y-140772667D01*
X130079714Y-140810762D01*
X130003523Y-140848857D01*
X129927333Y-140848857D01*
X129851142Y-140810762D01*
X129813047Y-140772667D01*
X129774952Y-140696476D01*
X129736857Y-140544095D01*
X129698761Y-140467905D01*
X129660666Y-140429809D01*
X129584476Y-140391714D01*
X129508285Y-140391714D01*
X129432095Y-140429809D01*
X129394000Y-140467905D01*
X129355904Y-140544095D01*
X129355904Y-140734571D01*
X129394000Y-140848857D01*
X129355904Y-141344095D02*
X129355904Y-141420286D01*
X129394000Y-141496476D01*
X129432095Y-141534571D01*
X129508285Y-141572667D01*
X129660666Y-141610762D01*
X129851142Y-141610762D01*
X130003523Y-141572667D01*
X130079714Y-141534571D01*
X130117809Y-141496476D01*
X130155904Y-141420286D01*
X130155904Y-141344095D01*
X130117809Y-141267905D01*
X130079714Y-141229809D01*
X130003523Y-141191714D01*
X129851142Y-141153619D01*
X129660666Y-141153619D01*
X129508285Y-141191714D01*
X129432095Y-141229809D01*
X129394000Y-141267905D01*
X129355904Y-141344095D01*
X164431789Y-134182190D02*
X163631789Y-134182190D01*
X163631789Y-134486952D01*
X163669885Y-134563143D01*
X163707980Y-134601238D01*
X163784170Y-134639333D01*
X163898456Y-134639333D01*
X163974646Y-134601238D01*
X164012742Y-134563143D01*
X164050837Y-134486952D01*
X164050837Y-134182190D01*
X164355599Y-135439333D02*
X164393694Y-135401238D01*
X164431789Y-135286952D01*
X164431789Y-135210762D01*
X164393694Y-135096476D01*
X164317504Y-135020286D01*
X164241313Y-134982190D01*
X164088932Y-134944095D01*
X163974646Y-134944095D01*
X163822265Y-134982190D01*
X163746075Y-135020286D01*
X163669885Y-135096476D01*
X163631789Y-135210762D01*
X163631789Y-135286952D01*
X163669885Y-135401238D01*
X163707980Y-135439333D01*
X163631789Y-135706000D02*
X163631789Y-136239333D01*
X164431789Y-135896476D01*
X164355599Y-136544095D02*
X164393694Y-136582190D01*
X164431789Y-136544095D01*
X164393694Y-136506000D01*
X164355599Y-136544095D01*
X164431789Y-136544095D01*
X163936551Y-136544095D02*
X163974646Y-136582190D01*
X164012742Y-136544095D01*
X163974646Y-136506000D01*
X163936551Y-136544095D01*
X164012742Y-136544095D01*
X164431789Y-136925048D02*
X163631789Y-136925048D01*
X163707980Y-137267905D02*
X163669885Y-137306000D01*
X163631789Y-137382190D01*
X163631789Y-137572667D01*
X163669885Y-137648857D01*
X163707980Y-137686952D01*
X163784170Y-137725048D01*
X163860361Y-137725048D01*
X163974646Y-137686952D01*
X164431789Y-137229809D01*
X164431789Y-137725048D01*
X164393694Y-138029809D02*
X164431789Y-138144095D01*
X164431789Y-138334571D01*
X164393694Y-138410762D01*
X164355599Y-138448857D01*
X164279408Y-138486952D01*
X164203218Y-138486952D01*
X164127027Y-138448857D01*
X164088932Y-138410762D01*
X164050837Y-138334571D01*
X164012742Y-138182190D01*
X163974646Y-138106000D01*
X163936551Y-138067905D01*
X163860361Y-138029809D01*
X163784170Y-138029809D01*
X163707980Y-138067905D01*
X163669885Y-138106000D01*
X163631789Y-138182190D01*
X163631789Y-138372667D01*
X163669885Y-138486952D01*
X164507980Y-138639333D02*
X164507980Y-139248857D01*
X164431789Y-139439333D02*
X163631789Y-139439333D01*
X164203218Y-139706000D01*
X163631789Y-139972667D01*
X164431789Y-139972667D01*
X164355599Y-140810762D02*
X164393694Y-140772667D01*
X164431789Y-140658381D01*
X164431789Y-140582190D01*
X164393694Y-140467905D01*
X164317504Y-140391714D01*
X164241313Y-140353619D01*
X164088932Y-140315524D01*
X163974646Y-140315524D01*
X163822265Y-140353619D01*
X163746075Y-140391714D01*
X163669885Y-140467905D01*
X163631789Y-140582190D01*
X163631789Y-140658381D01*
X163669885Y-140772667D01*
X163707980Y-140810762D01*
X164431789Y-141153619D02*
X163631789Y-141153619D01*
X164431789Y-141610762D02*
X163974646Y-141267905D01*
X163631789Y-141610762D02*
X164088932Y-141153619D01*
X121352904Y-141821095D02*
X120552904Y-141821095D01*
X120552904Y-142125857D01*
X120591000Y-142202047D01*
X120629095Y-142240142D01*
X120705285Y-142278238D01*
X120819571Y-142278238D01*
X120895761Y-142240142D01*
X120933857Y-142202047D01*
X120971952Y-142125857D01*
X120971952Y-141821095D01*
X120933857Y-142887761D02*
X120971952Y-143002047D01*
X121010047Y-143040142D01*
X121086238Y-143078238D01*
X121200523Y-143078238D01*
X121276714Y-143040142D01*
X121314809Y-143002047D01*
X121352904Y-142925857D01*
X121352904Y-142621095D01*
X120552904Y-142621095D01*
X120552904Y-142887761D01*
X120591000Y-142963952D01*
X120629095Y-143002047D01*
X120705285Y-143040142D01*
X120781476Y-143040142D01*
X120857666Y-143002047D01*
X120895761Y-142963952D01*
X120933857Y-142887761D01*
X120933857Y-142621095D01*
X121352904Y-143840142D02*
X121352904Y-143383000D01*
X121352904Y-143611571D02*
X120552904Y-143611571D01*
X120667190Y-143535380D01*
X120743380Y-143459190D01*
X120781476Y-143383000D01*
X120552904Y-144563952D02*
X120552904Y-144183000D01*
X120933857Y-144144904D01*
X120895761Y-144183000D01*
X120857666Y-144259190D01*
X120857666Y-144449666D01*
X120895761Y-144525857D01*
X120933857Y-144563952D01*
X121010047Y-144602047D01*
X121200523Y-144602047D01*
X121276714Y-144563952D01*
X121314809Y-144525857D01*
X121352904Y-144449666D01*
X121352904Y-144259190D01*
X121314809Y-144183000D01*
X121276714Y-144144904D01*
X121276714Y-144944904D02*
X121314809Y-144983000D01*
X121352904Y-144944904D01*
X121314809Y-144906809D01*
X121276714Y-144944904D01*
X121352904Y-144944904D01*
X120857666Y-144944904D02*
X120895761Y-144983000D01*
X120933857Y-144944904D01*
X120895761Y-144906809D01*
X120857666Y-144944904D01*
X120933857Y-144944904D01*
X122664809Y-140430619D02*
X122702904Y-140544904D01*
X122702904Y-140735380D01*
X122664809Y-140811571D01*
X122626714Y-140849666D01*
X122550523Y-140887761D01*
X122474333Y-140887761D01*
X122398142Y-140849666D01*
X122360047Y-140811571D01*
X122321952Y-140735380D01*
X122283857Y-140583000D01*
X122245761Y-140506809D01*
X122207666Y-140468714D01*
X122131476Y-140430619D01*
X122055285Y-140430619D01*
X121979095Y-140468714D01*
X121941000Y-140506809D01*
X121902904Y-140583000D01*
X121902904Y-140773476D01*
X121941000Y-140887761D01*
X122702904Y-141230619D02*
X121902904Y-141230619D01*
X121902904Y-141535380D01*
X121941000Y-141611571D01*
X121979095Y-141649666D01*
X122055285Y-141687761D01*
X122169571Y-141687761D01*
X122245761Y-141649666D01*
X122283857Y-141611571D01*
X122321952Y-141535380D01*
X122321952Y-141230619D01*
X122702904Y-142030619D02*
X121902904Y-142030619D01*
X122702904Y-142830619D02*
X122702904Y-142373476D01*
X122702904Y-142602047D02*
X121902904Y-142602047D01*
X122017190Y-142525857D01*
X122093380Y-142449666D01*
X122131476Y-142373476D01*
X122779095Y-142983000D02*
X122779095Y-143592523D01*
X122702904Y-143783000D02*
X121902904Y-143783000D01*
X122474333Y-144049666D01*
X121902904Y-144316333D01*
X122702904Y-144316333D01*
X121902904Y-144849666D02*
X121902904Y-145002047D01*
X121941000Y-145078238D01*
X122017190Y-145154428D01*
X122169571Y-145192523D01*
X122436238Y-145192523D01*
X122588619Y-145154428D01*
X122664809Y-145078238D01*
X122702904Y-145002047D01*
X122702904Y-144849666D01*
X122664809Y-144773476D01*
X122588619Y-144697285D01*
X122436238Y-144659190D01*
X122169571Y-144659190D01*
X122017190Y-144697285D01*
X121941000Y-144773476D01*
X121902904Y-144849666D01*
X122664809Y-145497285D02*
X122702904Y-145611571D01*
X122702904Y-145802047D01*
X122664809Y-145878238D01*
X122626714Y-145916333D01*
X122550523Y-145954428D01*
X122474333Y-145954428D01*
X122398142Y-145916333D01*
X122360047Y-145878238D01*
X122321952Y-145802047D01*
X122283857Y-145649666D01*
X122245761Y-145573476D01*
X122207666Y-145535380D01*
X122131476Y-145497285D01*
X122055285Y-145497285D01*
X121979095Y-145535380D01*
X121941000Y-145573476D01*
X121902904Y-145649666D01*
X121902904Y-145840142D01*
X121941000Y-145954428D01*
X122702904Y-146297285D02*
X121902904Y-146297285D01*
X128123904Y-132772667D02*
X127323904Y-132772667D01*
X127323904Y-133077428D01*
X127362000Y-133153619D01*
X127400095Y-133191714D01*
X127476285Y-133229809D01*
X127590571Y-133229809D01*
X127666761Y-133191714D01*
X127704857Y-133153619D01*
X127742952Y-133077428D01*
X127742952Y-132772667D01*
X127704857Y-133839333D02*
X127742952Y-133953619D01*
X127781047Y-133991714D01*
X127857238Y-134029809D01*
X127971523Y-134029809D01*
X128047714Y-133991714D01*
X128085809Y-133953619D01*
X128123904Y-133877428D01*
X128123904Y-133572667D01*
X127323904Y-133572667D01*
X127323904Y-133839333D01*
X127362000Y-133915524D01*
X127400095Y-133953619D01*
X127476285Y-133991714D01*
X127552476Y-133991714D01*
X127628666Y-133953619D01*
X127666761Y-133915524D01*
X127704857Y-133839333D01*
X127704857Y-133572667D01*
X128123904Y-134791714D02*
X128123904Y-134334571D01*
X128123904Y-134563143D02*
X127323904Y-134563143D01*
X127438190Y-134486952D01*
X127514380Y-134410762D01*
X127552476Y-134334571D01*
X127323904Y-135286952D02*
X127323904Y-135363143D01*
X127362000Y-135439333D01*
X127400095Y-135477428D01*
X127476285Y-135515524D01*
X127628666Y-135553619D01*
X127819142Y-135553619D01*
X127971523Y-135515524D01*
X128047714Y-135477428D01*
X128085809Y-135439333D01*
X128123904Y-135363143D01*
X128123904Y-135286952D01*
X128085809Y-135210762D01*
X128047714Y-135172667D01*
X127971523Y-135134571D01*
X127819142Y-135096476D01*
X127628666Y-135096476D01*
X127476285Y-135134571D01*
X127400095Y-135172667D01*
X127362000Y-135210762D01*
X127323904Y-135286952D01*
X128047714Y-135896476D02*
X128085809Y-135934571D01*
X128123904Y-135896476D01*
X128085809Y-135858381D01*
X128047714Y-135896476D01*
X128123904Y-135896476D01*
X127628666Y-135896476D02*
X127666761Y-135934571D01*
X127704857Y-135896476D01*
X127666761Y-135858381D01*
X127628666Y-135896476D01*
X127704857Y-135896476D01*
X128085809Y-136239333D02*
X128123904Y-136353619D01*
X128123904Y-136544095D01*
X128085809Y-136620286D01*
X128047714Y-136658381D01*
X127971523Y-136696476D01*
X127895333Y-136696476D01*
X127819142Y-136658381D01*
X127781047Y-136620286D01*
X127742952Y-136544095D01*
X127704857Y-136391714D01*
X127666761Y-136315524D01*
X127628666Y-136277428D01*
X127552476Y-136239333D01*
X127476285Y-136239333D01*
X127400095Y-136277428D01*
X127362000Y-136315524D01*
X127323904Y-136391714D01*
X127323904Y-136582190D01*
X127362000Y-136696476D01*
X128123904Y-137039333D02*
X127323904Y-137039333D01*
X127323904Y-137344095D01*
X127362000Y-137420286D01*
X127400095Y-137458381D01*
X127476285Y-137496476D01*
X127590571Y-137496476D01*
X127666761Y-137458381D01*
X127704857Y-137420286D01*
X127742952Y-137344095D01*
X127742952Y-137039333D01*
X128123904Y-137839333D02*
X127323904Y-137839333D01*
X128123904Y-138639333D02*
X128123904Y-138182190D01*
X128123904Y-138410762D02*
X127323904Y-138410762D01*
X127438190Y-138334571D01*
X127514380Y-138258381D01*
X127552476Y-138182190D01*
X128200095Y-138791714D02*
X128200095Y-139401238D01*
X128085809Y-139553619D02*
X128123904Y-139667905D01*
X128123904Y-139858381D01*
X128085809Y-139934571D01*
X128047714Y-139972667D01*
X127971523Y-140010762D01*
X127895333Y-140010762D01*
X127819142Y-139972667D01*
X127781047Y-139934571D01*
X127742952Y-139858381D01*
X127704857Y-139706000D01*
X127666761Y-139629809D01*
X127628666Y-139591714D01*
X127552476Y-139553619D01*
X127476285Y-139553619D01*
X127400095Y-139591714D01*
X127362000Y-139629809D01*
X127323904Y-139706000D01*
X127323904Y-139896476D01*
X127362000Y-140010762D01*
X128047714Y-140810762D02*
X128085809Y-140772667D01*
X128123904Y-140658381D01*
X128123904Y-140582190D01*
X128085809Y-140467905D01*
X128009619Y-140391714D01*
X127933428Y-140353619D01*
X127781047Y-140315524D01*
X127666761Y-140315524D01*
X127514380Y-140353619D01*
X127438190Y-140391714D01*
X127362000Y-140467905D01*
X127323904Y-140582190D01*
X127323904Y-140658381D01*
X127362000Y-140772667D01*
X127400095Y-140810762D01*
X128123904Y-141153619D02*
X127323904Y-141153619D01*
X128123904Y-141610762D02*
X127666761Y-141267905D01*
X127323904Y-141610762D02*
X127781047Y-141153619D01*
X181634952Y-110047570D02*
X181634952Y-109247570D01*
X181330190Y-109247570D01*
X181254000Y-109285666D01*
X181215904Y-109323761D01*
X181177809Y-109399951D01*
X181177809Y-109514237D01*
X181215904Y-109590427D01*
X181254000Y-109628523D01*
X181330190Y-109666618D01*
X181634952Y-109666618D01*
X180568285Y-109628523D02*
X180454000Y-109666618D01*
X180415904Y-109704713D01*
X180377809Y-109780904D01*
X180377809Y-109895189D01*
X180415904Y-109971380D01*
X180454000Y-110009475D01*
X180530190Y-110047570D01*
X180834952Y-110047570D01*
X180834952Y-109247570D01*
X180568285Y-109247570D01*
X180492095Y-109285666D01*
X180454000Y-109323761D01*
X180415904Y-109399951D01*
X180415904Y-109476142D01*
X180454000Y-109552332D01*
X180492095Y-109590427D01*
X180568285Y-109628523D01*
X180834952Y-109628523D01*
X179996857Y-110047570D02*
X179844476Y-110047570D01*
X179768285Y-110009475D01*
X179730190Y-109971380D01*
X179654000Y-109857094D01*
X179615904Y-109704713D01*
X179615904Y-109399951D01*
X179654000Y-109323761D01*
X179692095Y-109285666D01*
X179768285Y-109247570D01*
X179920666Y-109247570D01*
X179996857Y-109285666D01*
X180034952Y-109323761D01*
X180073047Y-109399951D01*
X180073047Y-109590427D01*
X180034952Y-109666618D01*
X179996857Y-109704713D01*
X179920666Y-109742808D01*
X179768285Y-109742808D01*
X179692095Y-109704713D01*
X179654000Y-109666618D01*
X179615904Y-109590427D01*
X179273047Y-109971380D02*
X179234952Y-110009475D01*
X179273047Y-110047570D01*
X179311142Y-110009475D01*
X179273047Y-109971380D01*
X179273047Y-110047570D01*
X179273047Y-109552332D02*
X179234952Y-109590427D01*
X179273047Y-109628523D01*
X179311142Y-109590427D01*
X179273047Y-109552332D01*
X179273047Y-109628523D01*
X178892095Y-110047570D02*
X178892095Y-109247570D01*
X178549238Y-109323761D02*
X178511142Y-109285666D01*
X178434952Y-109247570D01*
X178244476Y-109247570D01*
X178168285Y-109285666D01*
X178130190Y-109323761D01*
X178092095Y-109399951D01*
X178092095Y-109476142D01*
X178130190Y-109590427D01*
X178587333Y-110047570D01*
X178092095Y-110047570D01*
X177292095Y-109971380D02*
X177330190Y-110009475D01*
X177444476Y-110047570D01*
X177520666Y-110047570D01*
X177634952Y-110009475D01*
X177711142Y-109933285D01*
X177749238Y-109857094D01*
X177787333Y-109704713D01*
X177787333Y-109590427D01*
X177749238Y-109438046D01*
X177711142Y-109361856D01*
X177634952Y-109285666D01*
X177520666Y-109247570D01*
X177444476Y-109247570D01*
X177330190Y-109285666D01*
X177292095Y-109323761D01*
X177139714Y-110123761D02*
X176530190Y-110123761D01*
X176377809Y-110009475D02*
X176263523Y-110047570D01*
X176073047Y-110047570D01*
X175996857Y-110009475D01*
X175958761Y-109971380D01*
X175920666Y-109895189D01*
X175920666Y-109818999D01*
X175958761Y-109742808D01*
X175996857Y-109704713D01*
X176073047Y-109666618D01*
X176225428Y-109628523D01*
X176301619Y-109590427D01*
X176339714Y-109552332D01*
X176377809Y-109476142D01*
X176377809Y-109399951D01*
X176339714Y-109323761D01*
X176301619Y-109285666D01*
X176225428Y-109247570D01*
X176034952Y-109247570D01*
X175920666Y-109285666D01*
X175577809Y-110047570D02*
X175577809Y-109247570D01*
X175387333Y-109247570D01*
X175273047Y-109285666D01*
X175196857Y-109361856D01*
X175158761Y-109438046D01*
X175120666Y-109590427D01*
X175120666Y-109704713D01*
X175158761Y-109857094D01*
X175196857Y-109933285D01*
X175273047Y-110009475D01*
X175387333Y-110047570D01*
X175577809Y-110047570D01*
X174815904Y-109818999D02*
X174434952Y-109818999D01*
X174892095Y-110047570D02*
X174625428Y-109247570D01*
X174358761Y-110047570D01*
X126218904Y-132239333D02*
X125418904Y-132239333D01*
X125418904Y-132544095D01*
X125457000Y-132620285D01*
X125495095Y-132658380D01*
X125571285Y-132696476D01*
X125685571Y-132696476D01*
X125761761Y-132658380D01*
X125799857Y-132620285D01*
X125837952Y-132544095D01*
X125837952Y-132239333D01*
X125799857Y-133306000D02*
X125837952Y-133420285D01*
X125876047Y-133458380D01*
X125952238Y-133496476D01*
X126066523Y-133496476D01*
X126142714Y-133458380D01*
X126180809Y-133420285D01*
X126218904Y-133344095D01*
X126218904Y-133039333D01*
X125418904Y-133039333D01*
X125418904Y-133306000D01*
X125457000Y-133382190D01*
X125495095Y-133420285D01*
X125571285Y-133458380D01*
X125647476Y-133458380D01*
X125723666Y-133420285D01*
X125761761Y-133382190D01*
X125799857Y-133306000D01*
X125799857Y-133039333D01*
X126218904Y-134258380D02*
X126218904Y-133801238D01*
X126218904Y-134029809D02*
X125418904Y-134029809D01*
X125533190Y-133953619D01*
X125609380Y-133877428D01*
X125647476Y-133801238D01*
X125685571Y-134944095D02*
X126218904Y-134944095D01*
X125380809Y-134753619D02*
X125952238Y-134563142D01*
X125952238Y-135058380D01*
X126142714Y-135363142D02*
X126180809Y-135401238D01*
X126218904Y-135363142D01*
X126180809Y-135325047D01*
X126142714Y-135363142D01*
X126218904Y-135363142D01*
X125723666Y-135363142D02*
X125761761Y-135401238D01*
X125799857Y-135363142D01*
X125761761Y-135325047D01*
X125723666Y-135363142D01*
X125799857Y-135363142D01*
X126180809Y-135706000D02*
X126218904Y-135820285D01*
X126218904Y-136010761D01*
X126180809Y-136086952D01*
X126142714Y-136125047D01*
X126066523Y-136163142D01*
X125990333Y-136163142D01*
X125914142Y-136125047D01*
X125876047Y-136086952D01*
X125837952Y-136010761D01*
X125799857Y-135858380D01*
X125761761Y-135782190D01*
X125723666Y-135744095D01*
X125647476Y-135706000D01*
X125571285Y-135706000D01*
X125495095Y-135744095D01*
X125457000Y-135782190D01*
X125418904Y-135858380D01*
X125418904Y-136048857D01*
X125457000Y-136163142D01*
X126218904Y-136506000D02*
X125418904Y-136506000D01*
X125418904Y-136810761D01*
X125457000Y-136886952D01*
X125495095Y-136925047D01*
X125571285Y-136963142D01*
X125685571Y-136963142D01*
X125761761Y-136925047D01*
X125799857Y-136886952D01*
X125837952Y-136810761D01*
X125837952Y-136506000D01*
X126218904Y-137306000D02*
X125418904Y-137306000D01*
X126218904Y-138106000D02*
X126218904Y-137648857D01*
X126218904Y-137877428D02*
X125418904Y-137877428D01*
X125533190Y-137801238D01*
X125609380Y-137725047D01*
X125647476Y-137648857D01*
X126295095Y-138258380D02*
X126295095Y-138867904D01*
X126218904Y-139058380D02*
X125418904Y-139058380D01*
X125990333Y-139325047D01*
X125418904Y-139591714D01*
X126218904Y-139591714D01*
X126218904Y-139972666D02*
X125418904Y-139972666D01*
X126180809Y-140315523D02*
X126218904Y-140429809D01*
X126218904Y-140620285D01*
X126180809Y-140696476D01*
X126142714Y-140734571D01*
X126066523Y-140772666D01*
X125990333Y-140772666D01*
X125914142Y-140734571D01*
X125876047Y-140696476D01*
X125837952Y-140620285D01*
X125799857Y-140467904D01*
X125761761Y-140391714D01*
X125723666Y-140353619D01*
X125647476Y-140315523D01*
X125571285Y-140315523D01*
X125495095Y-140353619D01*
X125457000Y-140391714D01*
X125418904Y-140467904D01*
X125418904Y-140658380D01*
X125457000Y-140772666D01*
X125418904Y-141267904D02*
X125418904Y-141420285D01*
X125457000Y-141496476D01*
X125533190Y-141572666D01*
X125685571Y-141610761D01*
X125952238Y-141610761D01*
X126104619Y-141572666D01*
X126180809Y-141496476D01*
X126218904Y-141420285D01*
X126218904Y-141267904D01*
X126180809Y-141191714D01*
X126104619Y-141115523D01*
X125952238Y-141077428D01*
X125685571Y-141077428D01*
X125533190Y-141115523D01*
X125457000Y-141191714D01*
X125418904Y-141267904D01*
X181615904Y-108057904D02*
X181615904Y-107257904D01*
X181311142Y-107257904D01*
X181234952Y-107296000D01*
X181196857Y-107334095D01*
X181158761Y-107410285D01*
X181158761Y-107524571D01*
X181196857Y-107600761D01*
X181234952Y-107638857D01*
X181311142Y-107676952D01*
X181615904Y-107676952D01*
X180549238Y-107638857D02*
X180434952Y-107676952D01*
X180396857Y-107715047D01*
X180358761Y-107791238D01*
X180358761Y-107905523D01*
X180396857Y-107981714D01*
X180434952Y-108019809D01*
X180511142Y-108057904D01*
X180815904Y-108057904D01*
X180815904Y-107257904D01*
X180549238Y-107257904D01*
X180473047Y-107296000D01*
X180434952Y-107334095D01*
X180396857Y-107410285D01*
X180396857Y-107486476D01*
X180434952Y-107562666D01*
X180473047Y-107600761D01*
X180549238Y-107638857D01*
X180815904Y-107638857D01*
X179901619Y-107600761D02*
X179977809Y-107562666D01*
X180015904Y-107524571D01*
X180054000Y-107448380D01*
X180054000Y-107410285D01*
X180015904Y-107334095D01*
X179977809Y-107296000D01*
X179901619Y-107257904D01*
X179749238Y-107257904D01*
X179673047Y-107296000D01*
X179634952Y-107334095D01*
X179596857Y-107410285D01*
X179596857Y-107448380D01*
X179634952Y-107524571D01*
X179673047Y-107562666D01*
X179749238Y-107600761D01*
X179901619Y-107600761D01*
X179977809Y-107638857D01*
X180015904Y-107676952D01*
X180054000Y-107753142D01*
X180054000Y-107905523D01*
X180015904Y-107981714D01*
X179977809Y-108019809D01*
X179901619Y-108057904D01*
X179749238Y-108057904D01*
X179673047Y-108019809D01*
X179634952Y-107981714D01*
X179596857Y-107905523D01*
X179596857Y-107753142D01*
X179634952Y-107676952D01*
X179673047Y-107638857D01*
X179749238Y-107600761D01*
X179254000Y-107981714D02*
X179215904Y-108019809D01*
X179254000Y-108057904D01*
X179292095Y-108019809D01*
X179254000Y-107981714D01*
X179254000Y-108057904D01*
X179254000Y-107562666D02*
X179215904Y-107600761D01*
X179254000Y-107638857D01*
X179292095Y-107600761D01*
X179254000Y-107562666D01*
X179254000Y-107638857D01*
X178873047Y-108057904D02*
X178873047Y-107257904D01*
X178530190Y-107334095D02*
X178492095Y-107296000D01*
X178415904Y-107257904D01*
X178225428Y-107257904D01*
X178149238Y-107296000D01*
X178111142Y-107334095D01*
X178073047Y-107410285D01*
X178073047Y-107486476D01*
X178111142Y-107600761D01*
X178568285Y-108057904D01*
X178073047Y-108057904D01*
X177273047Y-107981714D02*
X177311142Y-108019809D01*
X177425428Y-108057904D01*
X177501619Y-108057904D01*
X177615904Y-108019809D01*
X177692095Y-107943619D01*
X177730190Y-107867428D01*
X177768285Y-107715047D01*
X177768285Y-107600761D01*
X177730190Y-107448380D01*
X177692095Y-107372190D01*
X177615904Y-107296000D01*
X177501619Y-107257904D01*
X177425428Y-107257904D01*
X177311142Y-107296000D01*
X177273047Y-107334095D01*
X177120666Y-108134095D02*
X176511142Y-108134095D01*
X176358761Y-108019809D02*
X176244476Y-108057904D01*
X176054000Y-108057904D01*
X175977809Y-108019809D01*
X175939714Y-107981714D01*
X175901619Y-107905523D01*
X175901619Y-107829333D01*
X175939714Y-107753142D01*
X175977809Y-107715047D01*
X176054000Y-107676952D01*
X176206380Y-107638857D01*
X176282571Y-107600761D01*
X176320666Y-107562666D01*
X176358761Y-107486476D01*
X176358761Y-107410285D01*
X176320666Y-107334095D01*
X176282571Y-107296000D01*
X176206380Y-107257904D01*
X176015904Y-107257904D01*
X175901619Y-107296000D01*
X175101619Y-107981714D02*
X175139714Y-108019809D01*
X175254000Y-108057904D01*
X175330190Y-108057904D01*
X175444476Y-108019809D01*
X175520666Y-107943619D01*
X175558761Y-107867428D01*
X175596857Y-107715047D01*
X175596857Y-107600761D01*
X175558761Y-107448380D01*
X175520666Y-107372190D01*
X175444476Y-107296000D01*
X175330190Y-107257904D01*
X175254000Y-107257904D01*
X175139714Y-107296000D01*
X175101619Y-107334095D01*
X174377809Y-108057904D02*
X174758761Y-108057904D01*
X174758761Y-107257904D01*
X132187904Y-133572667D02*
X131387904Y-133572667D01*
X131387904Y-133877428D01*
X131426000Y-133953619D01*
X131464095Y-133991714D01*
X131540285Y-134029809D01*
X131654571Y-134029809D01*
X131730761Y-133991714D01*
X131768857Y-133953619D01*
X131806952Y-133877428D01*
X131806952Y-133572667D01*
X131768857Y-134639333D02*
X131806952Y-134753619D01*
X131845047Y-134791714D01*
X131921238Y-134829809D01*
X132035523Y-134829809D01*
X132111714Y-134791714D01*
X132149809Y-134753619D01*
X132187904Y-134677428D01*
X132187904Y-134372667D01*
X131387904Y-134372667D01*
X131387904Y-134639333D01*
X131426000Y-134715524D01*
X131464095Y-134753619D01*
X131540285Y-134791714D01*
X131616476Y-134791714D01*
X131692666Y-134753619D01*
X131730761Y-134715524D01*
X131768857Y-134639333D01*
X131768857Y-134372667D01*
X131387904Y-135553619D02*
X131387904Y-135172667D01*
X131768857Y-135134571D01*
X131730761Y-135172667D01*
X131692666Y-135248857D01*
X131692666Y-135439333D01*
X131730761Y-135515524D01*
X131768857Y-135553619D01*
X131845047Y-135591714D01*
X132035523Y-135591714D01*
X132111714Y-135553619D01*
X132149809Y-135515524D01*
X132187904Y-135439333D01*
X132187904Y-135248857D01*
X132149809Y-135172667D01*
X132111714Y-135134571D01*
X132111714Y-135934571D02*
X132149809Y-135972667D01*
X132187904Y-135934571D01*
X132149809Y-135896476D01*
X132111714Y-135934571D01*
X132187904Y-135934571D01*
X131692666Y-135934571D02*
X131730761Y-135972667D01*
X131768857Y-135934571D01*
X131730761Y-135896476D01*
X131692666Y-135934571D01*
X131768857Y-135934571D01*
X132149809Y-136277428D02*
X132187904Y-136391714D01*
X132187904Y-136582190D01*
X132149809Y-136658381D01*
X132111714Y-136696476D01*
X132035523Y-136734571D01*
X131959333Y-136734571D01*
X131883142Y-136696476D01*
X131845047Y-136658381D01*
X131806952Y-136582190D01*
X131768857Y-136429809D01*
X131730761Y-136353619D01*
X131692666Y-136315524D01*
X131616476Y-136277428D01*
X131540285Y-136277428D01*
X131464095Y-136315524D01*
X131426000Y-136353619D01*
X131387904Y-136429809D01*
X131387904Y-136620286D01*
X131426000Y-136734571D01*
X132187904Y-137077428D02*
X131387904Y-137077428D01*
X131387904Y-137382190D01*
X131426000Y-137458381D01*
X131464095Y-137496476D01*
X131540285Y-137534571D01*
X131654571Y-137534571D01*
X131730761Y-137496476D01*
X131768857Y-137458381D01*
X131806952Y-137382190D01*
X131806952Y-137077428D01*
X132187904Y-137877428D02*
X131387904Y-137877428D01*
X132187904Y-138677428D02*
X132187904Y-138220286D01*
X132187904Y-138448857D02*
X131387904Y-138448857D01*
X131502190Y-138372667D01*
X131578380Y-138296476D01*
X131616476Y-138220286D01*
X132264095Y-138829809D02*
X132264095Y-139439333D01*
X132111714Y-140086952D02*
X132149809Y-140048857D01*
X132187904Y-139934571D01*
X132187904Y-139858381D01*
X132149809Y-139744095D01*
X132073619Y-139667905D01*
X131997428Y-139629809D01*
X131845047Y-139591714D01*
X131730761Y-139591714D01*
X131578380Y-139629809D01*
X131502190Y-139667905D01*
X131426000Y-139744095D01*
X131387904Y-139858381D01*
X131387904Y-139934571D01*
X131426000Y-140048857D01*
X131464095Y-140086952D01*
X132149809Y-140391714D02*
X132187904Y-140506000D01*
X132187904Y-140696476D01*
X132149809Y-140772667D01*
X132111714Y-140810762D01*
X132035523Y-140848857D01*
X131959333Y-140848857D01*
X131883142Y-140810762D01*
X131845047Y-140772667D01*
X131806952Y-140696476D01*
X131768857Y-140544095D01*
X131730761Y-140467905D01*
X131692666Y-140429809D01*
X131616476Y-140391714D01*
X131540285Y-140391714D01*
X131464095Y-140429809D01*
X131426000Y-140467905D01*
X131387904Y-140544095D01*
X131387904Y-140734571D01*
X131426000Y-140848857D01*
X132187904Y-141610762D02*
X132187904Y-141153619D01*
X132187904Y-141382190D02*
X131387904Y-141382190D01*
X131502190Y-141306000D01*
X131578380Y-141229809D01*
X131616476Y-141153619D01*
X181501761Y-139807904D02*
X181501761Y-139007904D01*
X181196999Y-139007904D01*
X181120809Y-139046000D01*
X181082713Y-139084095D01*
X181044618Y-139160285D01*
X181044618Y-139274571D01*
X181082713Y-139350761D01*
X181120809Y-139388857D01*
X181196999Y-139426952D01*
X181501761Y-139426952D01*
X180435094Y-139388857D02*
X180320809Y-139426952D01*
X180282713Y-139465047D01*
X180244618Y-139541238D01*
X180244618Y-139655523D01*
X180282713Y-139731714D01*
X180320809Y-139769809D01*
X180396999Y-139807904D01*
X180701761Y-139807904D01*
X180701761Y-139007904D01*
X180435094Y-139007904D01*
X180358904Y-139046000D01*
X180320809Y-139084095D01*
X180282713Y-139160285D01*
X180282713Y-139236476D01*
X180320809Y-139312666D01*
X180358904Y-139350761D01*
X180435094Y-139388857D01*
X180701761Y-139388857D01*
X179558904Y-139274571D02*
X179558904Y-139807904D01*
X179749380Y-138969809D02*
X179939856Y-139541238D01*
X179444618Y-139541238D01*
X179139856Y-139731714D02*
X179101761Y-139769809D01*
X179139856Y-139807904D01*
X179177952Y-139769809D01*
X179139856Y-139731714D01*
X179139856Y-139807904D01*
X179139856Y-139312666D02*
X179101761Y-139350761D01*
X179139856Y-139388857D01*
X179177952Y-139350761D01*
X179139856Y-139312666D01*
X179139856Y-139388857D01*
X178873190Y-139007904D02*
X178416047Y-139007904D01*
X178644618Y-139807904D02*
X178644618Y-139007904D01*
X177692237Y-139807904D02*
X177958904Y-139426952D01*
X178149380Y-139807904D02*
X178149380Y-139007904D01*
X177844618Y-139007904D01*
X177768428Y-139046000D01*
X177730333Y-139084095D01*
X177692237Y-139160285D01*
X177692237Y-139274571D01*
X177730333Y-139350761D01*
X177768428Y-139388857D01*
X177844618Y-139426952D01*
X178149380Y-139426952D01*
X177387475Y-139769809D02*
X177273190Y-139807904D01*
X177082713Y-139807904D01*
X177006523Y-139769809D01*
X176968428Y-139731714D01*
X176930333Y-139655523D01*
X176930333Y-139579333D01*
X176968428Y-139503142D01*
X177006523Y-139465047D01*
X177082713Y-139426952D01*
X177235094Y-139388857D01*
X177311285Y-139350761D01*
X177349380Y-139312666D01*
X177387475Y-139236476D01*
X177387475Y-139160285D01*
X177349380Y-139084095D01*
X177311285Y-139046000D01*
X177235094Y-139007904D01*
X177044618Y-139007904D01*
X176930333Y-139046000D01*
X176701761Y-139007904D02*
X176244618Y-139007904D01*
X176473190Y-139807904D02*
X176473190Y-139007904D01*
X181501761Y-141808154D02*
X181501761Y-141008154D01*
X181197000Y-141008154D01*
X181120809Y-141046250D01*
X181082714Y-141084345D01*
X181044619Y-141160535D01*
X181044619Y-141274821D01*
X181082714Y-141351011D01*
X181120809Y-141389107D01*
X181197000Y-141427202D01*
X181501761Y-141427202D01*
X180435095Y-141389107D02*
X180320809Y-141427202D01*
X180282714Y-141465297D01*
X180244619Y-141541488D01*
X180244619Y-141655773D01*
X180282714Y-141731964D01*
X180320809Y-141770059D01*
X180397000Y-141808154D01*
X180701761Y-141808154D01*
X180701761Y-141008154D01*
X180435095Y-141008154D01*
X180358904Y-141046250D01*
X180320809Y-141084345D01*
X180282714Y-141160535D01*
X180282714Y-141236726D01*
X180320809Y-141312916D01*
X180358904Y-141351011D01*
X180435095Y-141389107D01*
X180701761Y-141389107D01*
X179977952Y-141008154D02*
X179482714Y-141008154D01*
X179749380Y-141312916D01*
X179635095Y-141312916D01*
X179558904Y-141351011D01*
X179520809Y-141389107D01*
X179482714Y-141465297D01*
X179482714Y-141655773D01*
X179520809Y-141731964D01*
X179558904Y-141770059D01*
X179635095Y-141808154D01*
X179863666Y-141808154D01*
X179939857Y-141770059D01*
X179977952Y-141731964D01*
X179139857Y-141731964D02*
X179101761Y-141770059D01*
X179139857Y-141808154D01*
X179177952Y-141770059D01*
X179139857Y-141731964D01*
X179139857Y-141808154D01*
X179139857Y-141312916D02*
X179101761Y-141351011D01*
X179139857Y-141389107D01*
X179177952Y-141351011D01*
X179139857Y-141312916D01*
X179139857Y-141389107D01*
X178873190Y-141008154D02*
X178416047Y-141008154D01*
X178644619Y-141808154D02*
X178644619Y-141008154D01*
X178149380Y-141808154D02*
X178149380Y-141008154D01*
X177958904Y-141008154D01*
X177844619Y-141046250D01*
X177768428Y-141122440D01*
X177730333Y-141198630D01*
X177692238Y-141351011D01*
X177692238Y-141465297D01*
X177730333Y-141617678D01*
X177768428Y-141693869D01*
X177844619Y-141770059D01*
X177958904Y-141808154D01*
X178149380Y-141808154D01*
X177197000Y-141008154D02*
X177044619Y-141008154D01*
X176968428Y-141046250D01*
X176892238Y-141122440D01*
X176854142Y-141274821D01*
X176854142Y-141541488D01*
X176892238Y-141693869D01*
X176968428Y-141770059D01*
X177044619Y-141808154D01*
X177197000Y-141808154D01*
X177273190Y-141770059D01*
X177349380Y-141693869D01*
X177387476Y-141541488D01*
X177387476Y-141274821D01*
X177349380Y-141122440D01*
X177273190Y-141046250D01*
X177197000Y-141008154D01*
X181501761Y-145808654D02*
X181501761Y-145008654D01*
X181196999Y-145008654D01*
X181120809Y-145046750D01*
X181082714Y-145084845D01*
X181044618Y-145161035D01*
X181044618Y-145275321D01*
X181082714Y-145351511D01*
X181120809Y-145389607D01*
X181196999Y-145427702D01*
X181501761Y-145427702D01*
X180739857Y-145580083D02*
X180358904Y-145580083D01*
X180816047Y-145808654D02*
X180549380Y-145008654D01*
X180282714Y-145808654D01*
X179596999Y-145808654D02*
X180054142Y-145808654D01*
X179825571Y-145808654D02*
X179825571Y-145008654D01*
X179901761Y-145122940D01*
X179977952Y-145199130D01*
X180054142Y-145237226D01*
X178911285Y-145275321D02*
X178911285Y-145808654D01*
X179101761Y-144970559D02*
X179292238Y-145541988D01*
X178796999Y-145541988D01*
X178492238Y-145732464D02*
X178454142Y-145770559D01*
X178492238Y-145808654D01*
X178530333Y-145770559D01*
X178492238Y-145732464D01*
X178492238Y-145808654D01*
X178492238Y-145313416D02*
X178454142Y-145351511D01*
X178492238Y-145389607D01*
X178530333Y-145351511D01*
X178492238Y-145313416D01*
X178492238Y-145389607D01*
X178225571Y-145008654D02*
X177768428Y-145008654D01*
X177996999Y-145808654D02*
X177996999Y-145008654D01*
X177044618Y-145732464D02*
X177082714Y-145770559D01*
X177196999Y-145808654D01*
X177273190Y-145808654D01*
X177387476Y-145770559D01*
X177463666Y-145694369D01*
X177501761Y-145618178D01*
X177539857Y-145465797D01*
X177539857Y-145351511D01*
X177501761Y-145199130D01*
X177463666Y-145122940D01*
X177387476Y-145046750D01*
X177273190Y-145008654D01*
X177196999Y-145008654D01*
X177082714Y-145046750D01*
X177044618Y-145084845D01*
X176701761Y-145808654D02*
X176701761Y-145008654D01*
X176244618Y-145808654D02*
X176587476Y-145351511D01*
X176244618Y-145008654D02*
X176701761Y-145465797D01*
X181501762Y-147808904D02*
X181501762Y-147008904D01*
X181197000Y-147008904D01*
X181120809Y-147047000D01*
X181082714Y-147085095D01*
X181044619Y-147161285D01*
X181044619Y-147275571D01*
X181082714Y-147351761D01*
X181120809Y-147389857D01*
X181197000Y-147427952D01*
X181501762Y-147427952D01*
X180739857Y-147580333D02*
X180358904Y-147580333D01*
X180816047Y-147808904D02*
X180549381Y-147008904D01*
X180282714Y-147808904D01*
X179597000Y-147808904D02*
X180054143Y-147808904D01*
X179825571Y-147808904D02*
X179825571Y-147008904D01*
X179901762Y-147123190D01*
X179977952Y-147199380D01*
X180054143Y-147237476D01*
X179330333Y-147008904D02*
X178835095Y-147008904D01*
X179101762Y-147313666D01*
X178987476Y-147313666D01*
X178911285Y-147351761D01*
X178873190Y-147389857D01*
X178835095Y-147466047D01*
X178835095Y-147656523D01*
X178873190Y-147732714D01*
X178911285Y-147770809D01*
X178987476Y-147808904D01*
X179216047Y-147808904D01*
X179292238Y-147770809D01*
X179330333Y-147732714D01*
X178492238Y-147732714D02*
X178454143Y-147770809D01*
X178492238Y-147808904D01*
X178530333Y-147770809D01*
X178492238Y-147732714D01*
X178492238Y-147808904D01*
X178492238Y-147313666D02*
X178454143Y-147351761D01*
X178492238Y-147389857D01*
X178530333Y-147351761D01*
X178492238Y-147313666D01*
X178492238Y-147389857D01*
X178225571Y-147008904D02*
X177768428Y-147008904D01*
X177997000Y-147808904D02*
X177997000Y-147008904D01*
X177501762Y-147808904D02*
X177501762Y-147008904D01*
X177235095Y-147580333D01*
X176968428Y-147008904D01*
X176968428Y-147808904D01*
X176625571Y-147770809D02*
X176511285Y-147808904D01*
X176320809Y-147808904D01*
X176244619Y-147770809D01*
X176206523Y-147732714D01*
X176168428Y-147656523D01*
X176168428Y-147580333D01*
X176206523Y-147504142D01*
X176244619Y-147466047D01*
X176320809Y-147427952D01*
X176473190Y-147389857D01*
X176549381Y-147351761D01*
X176587476Y-147313666D01*
X176625571Y-147237476D01*
X176625571Y-147161285D01*
X176587476Y-147085095D01*
X176549381Y-147047000D01*
X176473190Y-147008904D01*
X176282714Y-147008904D01*
X176168428Y-147047000D01*
X181501762Y-143808404D02*
X181501762Y-143008404D01*
X181197000Y-143008404D01*
X181120809Y-143046500D01*
X181082714Y-143084595D01*
X181044619Y-143160785D01*
X181044619Y-143275071D01*
X181082714Y-143351261D01*
X181120809Y-143389357D01*
X181197000Y-143427452D01*
X181501762Y-143427452D01*
X180739857Y-143579833D02*
X180358904Y-143579833D01*
X180816047Y-143808404D02*
X180549381Y-143008404D01*
X180282714Y-143808404D01*
X179597000Y-143808404D02*
X180054142Y-143808404D01*
X179825571Y-143808404D02*
X179825571Y-143008404D01*
X179901762Y-143122690D01*
X179977952Y-143198880D01*
X180054142Y-143236976D01*
X178873190Y-143008404D02*
X179254142Y-143008404D01*
X179292238Y-143389357D01*
X179254142Y-143351261D01*
X179177952Y-143313166D01*
X178987476Y-143313166D01*
X178911285Y-143351261D01*
X178873190Y-143389357D01*
X178835095Y-143465547D01*
X178835095Y-143656023D01*
X178873190Y-143732214D01*
X178911285Y-143770309D01*
X178987476Y-143808404D01*
X179177952Y-143808404D01*
X179254142Y-143770309D01*
X179292238Y-143732214D01*
X178492238Y-143732214D02*
X178454142Y-143770309D01*
X178492238Y-143808404D01*
X178530333Y-143770309D01*
X178492238Y-143732214D01*
X178492238Y-143808404D01*
X178492238Y-143313166D02*
X178454142Y-143351261D01*
X178492238Y-143389357D01*
X178530333Y-143351261D01*
X178492238Y-143313166D01*
X178492238Y-143389357D01*
X178225571Y-143008404D02*
X177768428Y-143008404D01*
X177997000Y-143808404D02*
X177997000Y-143008404D01*
X177501762Y-143808404D02*
X177501762Y-143008404D01*
X177311285Y-143008404D01*
X177197000Y-143046500D01*
X177120809Y-143122690D01*
X177082714Y-143198880D01*
X177044619Y-143351261D01*
X177044619Y-143465547D01*
X177082714Y-143617928D01*
X177120809Y-143694119D01*
X177197000Y-143770309D01*
X177311285Y-143808404D01*
X177501762Y-143808404D01*
X176701762Y-143808404D02*
X176701762Y-143008404D01*
X166435566Y-135134571D02*
X165635566Y-135134571D01*
X165635566Y-135439333D01*
X165673662Y-135515523D01*
X165711757Y-135553619D01*
X165787947Y-135591714D01*
X165902233Y-135591714D01*
X165978423Y-135553619D01*
X166016519Y-135515523D01*
X166054614Y-135439333D01*
X166054614Y-135134571D01*
X166206995Y-135896476D02*
X166206995Y-136277428D01*
X166435566Y-135820285D02*
X165635566Y-136086952D01*
X166435566Y-136353619D01*
X165902233Y-136963142D02*
X166435566Y-136963142D01*
X165597471Y-136772666D02*
X166168900Y-136582190D01*
X166168900Y-137077428D01*
X166359376Y-137382190D02*
X166397471Y-137420285D01*
X166435566Y-137382190D01*
X166397471Y-137344095D01*
X166359376Y-137382190D01*
X166435566Y-137382190D01*
X165940328Y-137382190D02*
X165978423Y-137420285D01*
X166016519Y-137382190D01*
X165978423Y-137344095D01*
X165940328Y-137382190D01*
X166016519Y-137382190D01*
X166435566Y-137763142D02*
X165635566Y-137763142D01*
X165711757Y-138105999D02*
X165673662Y-138144095D01*
X165635566Y-138220285D01*
X165635566Y-138410761D01*
X165673662Y-138486952D01*
X165711757Y-138525047D01*
X165787947Y-138563142D01*
X165864138Y-138563142D01*
X165978423Y-138525047D01*
X166435566Y-138067904D01*
X166435566Y-138563142D01*
X166397471Y-138867904D02*
X166435566Y-138982190D01*
X166435566Y-139172666D01*
X166397471Y-139248857D01*
X166359376Y-139286952D01*
X166283185Y-139325047D01*
X166206995Y-139325047D01*
X166130804Y-139286952D01*
X166092709Y-139248857D01*
X166054614Y-139172666D01*
X166016519Y-139020285D01*
X165978423Y-138944095D01*
X165940328Y-138905999D01*
X165864138Y-138867904D01*
X165787947Y-138867904D01*
X165711757Y-138905999D01*
X165673662Y-138944095D01*
X165635566Y-139020285D01*
X165635566Y-139210761D01*
X165673662Y-139325047D01*
X166511757Y-139477428D02*
X166511757Y-140086952D01*
X165635566Y-140201238D02*
X166435566Y-140391714D01*
X165864138Y-140544095D01*
X166435566Y-140696476D01*
X165635566Y-140886952D01*
X166397471Y-141153619D02*
X166435566Y-141267904D01*
X166435566Y-141458380D01*
X166397471Y-141534571D01*
X166359376Y-141572666D01*
X166283185Y-141610761D01*
X166206995Y-141610761D01*
X166130804Y-141572666D01*
X166092709Y-141534571D01*
X166054614Y-141458380D01*
X166016519Y-141305999D01*
X165978423Y-141229809D01*
X165940328Y-141191714D01*
X165864138Y-141153619D01*
X165787947Y-141153619D01*
X165711757Y-141191714D01*
X165673662Y-141229809D01*
X165635566Y-141305999D01*
X165635566Y-141496476D01*
X165673662Y-141610761D01*
X181520666Y-122027904D02*
X181520666Y-121227904D01*
X181215904Y-121227904D01*
X181139714Y-121266000D01*
X181101619Y-121304095D01*
X181063523Y-121380285D01*
X181063523Y-121494571D01*
X181101619Y-121570761D01*
X181139714Y-121608857D01*
X181215904Y-121646952D01*
X181520666Y-121646952D01*
X180720666Y-122027904D02*
X180720666Y-121227904D01*
X180530190Y-121227904D01*
X180415904Y-121266000D01*
X180339714Y-121342190D01*
X180301619Y-121418380D01*
X180263523Y-121570761D01*
X180263523Y-121685047D01*
X180301619Y-121837428D01*
X180339714Y-121913619D01*
X180415904Y-121989809D01*
X180530190Y-122027904D01*
X180720666Y-122027904D01*
X179577809Y-121227904D02*
X179730190Y-121227904D01*
X179806380Y-121266000D01*
X179844476Y-121304095D01*
X179920666Y-121418380D01*
X179958761Y-121570761D01*
X179958761Y-121875523D01*
X179920666Y-121951714D01*
X179882571Y-121989809D01*
X179806380Y-122027904D01*
X179654000Y-122027904D01*
X179577809Y-121989809D01*
X179539714Y-121951714D01*
X179501619Y-121875523D01*
X179501619Y-121685047D01*
X179539714Y-121608857D01*
X179577809Y-121570761D01*
X179654000Y-121532666D01*
X179806380Y-121532666D01*
X179882571Y-121570761D01*
X179920666Y-121608857D01*
X179958761Y-121685047D01*
X179158761Y-121951714D02*
X179120666Y-121989809D01*
X179158761Y-122027904D01*
X179196857Y-121989809D01*
X179158761Y-121951714D01*
X179158761Y-122027904D01*
X179158761Y-121532666D02*
X179120666Y-121570761D01*
X179158761Y-121608857D01*
X179196857Y-121570761D01*
X179158761Y-121532666D01*
X179158761Y-121608857D01*
X178777809Y-122027904D02*
X178777809Y-121227904D01*
X178587333Y-121227904D01*
X178473047Y-121266000D01*
X178396857Y-121342190D01*
X178358761Y-121418380D01*
X178320666Y-121570761D01*
X178320666Y-121685047D01*
X178358761Y-121837428D01*
X178396857Y-121913619D01*
X178473047Y-121989809D01*
X178587333Y-122027904D01*
X178777809Y-122027904D01*
X177711142Y-121608857D02*
X177596857Y-121646952D01*
X177558761Y-121685047D01*
X177520666Y-121761238D01*
X177520666Y-121875523D01*
X177558761Y-121951714D01*
X177596857Y-121989809D01*
X177673047Y-122027904D01*
X177977809Y-122027904D01*
X177977809Y-121227904D01*
X177711142Y-121227904D01*
X177634952Y-121266000D01*
X177596857Y-121304095D01*
X177558761Y-121380285D01*
X177558761Y-121456476D01*
X177596857Y-121532666D01*
X177634952Y-121570761D01*
X177711142Y-121608857D01*
X177977809Y-121608857D01*
X176758761Y-121266000D02*
X176834952Y-121227904D01*
X176949238Y-121227904D01*
X177063523Y-121266000D01*
X177139714Y-121342190D01*
X177177809Y-121418380D01*
X177215904Y-121570761D01*
X177215904Y-121685047D01*
X177177809Y-121837428D01*
X177139714Y-121913619D01*
X177063523Y-121989809D01*
X176949238Y-122027904D01*
X176873047Y-122027904D01*
X176758761Y-121989809D01*
X176720666Y-121951714D01*
X176720666Y-121685047D01*
X176873047Y-121685047D01*
X176568285Y-122104095D02*
X175958761Y-122104095D01*
X175311142Y-122027904D02*
X175577809Y-121646952D01*
X175768285Y-122027904D02*
X175768285Y-121227904D01*
X175463523Y-121227904D01*
X175387333Y-121266000D01*
X175349238Y-121304095D01*
X175311142Y-121380285D01*
X175311142Y-121494571D01*
X175349238Y-121570761D01*
X175387333Y-121608857D01*
X175463523Y-121646952D01*
X175768285Y-121646952D01*
X175044476Y-121227904D02*
X174511142Y-122027904D01*
X174511142Y-121227904D02*
X175044476Y-122027904D01*
X142347904Y-135134571D02*
X141547904Y-135134571D01*
X141547904Y-135439333D01*
X141586000Y-135515523D01*
X141624095Y-135553619D01*
X141700285Y-135591714D01*
X141814571Y-135591714D01*
X141890761Y-135553619D01*
X141928857Y-135515523D01*
X141966952Y-135439333D01*
X141966952Y-135134571D01*
X142347904Y-135934571D02*
X141547904Y-135934571D01*
X141547904Y-136125047D01*
X141586000Y-136239333D01*
X141662190Y-136315523D01*
X141738380Y-136353619D01*
X141890761Y-136391714D01*
X142005047Y-136391714D01*
X142157428Y-136353619D01*
X142233619Y-136315523D01*
X142309809Y-136239333D01*
X142347904Y-136125047D01*
X142347904Y-135934571D01*
X141890761Y-136848857D02*
X141852666Y-136772666D01*
X141814571Y-136734571D01*
X141738380Y-136696476D01*
X141700285Y-136696476D01*
X141624095Y-136734571D01*
X141586000Y-136772666D01*
X141547904Y-136848857D01*
X141547904Y-137001238D01*
X141586000Y-137077428D01*
X141624095Y-137115523D01*
X141700285Y-137153619D01*
X141738380Y-137153619D01*
X141814571Y-137115523D01*
X141852666Y-137077428D01*
X141890761Y-137001238D01*
X141890761Y-136848857D01*
X141928857Y-136772666D01*
X141966952Y-136734571D01*
X142043142Y-136696476D01*
X142195523Y-136696476D01*
X142271714Y-136734571D01*
X142309809Y-136772666D01*
X142347904Y-136848857D01*
X142347904Y-137001238D01*
X142309809Y-137077428D01*
X142271714Y-137115523D01*
X142195523Y-137153619D01*
X142043142Y-137153619D01*
X141966952Y-137115523D01*
X141928857Y-137077428D01*
X141890761Y-137001238D01*
X142271714Y-137496476D02*
X142309809Y-137534571D01*
X142347904Y-137496476D01*
X142309809Y-137458380D01*
X142271714Y-137496476D01*
X142347904Y-137496476D01*
X141852666Y-137496476D02*
X141890761Y-137534571D01*
X141928857Y-137496476D01*
X141890761Y-137458380D01*
X141852666Y-137496476D01*
X141928857Y-137496476D01*
X141928857Y-137877428D02*
X141928857Y-138144095D01*
X142347904Y-138258380D02*
X142347904Y-137877428D01*
X141547904Y-137877428D01*
X141547904Y-138258380D01*
X141547904Y-138525047D02*
X142347904Y-139058380D01*
X141547904Y-139058380D02*
X142347904Y-138525047D01*
X141547904Y-139248857D02*
X141547904Y-139705999D01*
X142347904Y-139477428D02*
X141547904Y-139477428D01*
X142424095Y-139782190D02*
X142424095Y-140391714D01*
X141547904Y-140467904D02*
X141547904Y-140925047D01*
X142347904Y-140696476D02*
X141547904Y-140696476D01*
X141547904Y-141115523D02*
X142347904Y-141648857D01*
X141547904Y-141648857D02*
X142347904Y-141115523D01*
X181520666Y-126091904D02*
X181520666Y-125291904D01*
X181215904Y-125291904D01*
X181139713Y-125330000D01*
X181101618Y-125368095D01*
X181063523Y-125444285D01*
X181063523Y-125558571D01*
X181101618Y-125634761D01*
X181139713Y-125672857D01*
X181215904Y-125710952D01*
X181520666Y-125710952D01*
X180720666Y-126091904D02*
X180720666Y-125291904D01*
X180530190Y-125291904D01*
X180415904Y-125330000D01*
X180339713Y-125406190D01*
X180301618Y-125482380D01*
X180263523Y-125634761D01*
X180263523Y-125749047D01*
X180301618Y-125901428D01*
X180339713Y-125977619D01*
X180415904Y-126053809D01*
X180530190Y-126091904D01*
X180720666Y-126091904D01*
X179996856Y-125291904D02*
X179463523Y-125291904D01*
X179806380Y-126091904D01*
X179158761Y-126015714D02*
X179120666Y-126053809D01*
X179158761Y-126091904D01*
X179196856Y-126053809D01*
X179158761Y-126015714D01*
X179158761Y-126091904D01*
X179158761Y-125596666D02*
X179120666Y-125634761D01*
X179158761Y-125672857D01*
X179196856Y-125634761D01*
X179158761Y-125596666D01*
X179158761Y-125672857D01*
X178777809Y-126091904D02*
X178777809Y-125291904D01*
X178587332Y-125291904D01*
X178473047Y-125330000D01*
X178396856Y-125406190D01*
X178358761Y-125482380D01*
X178320666Y-125634761D01*
X178320666Y-125749047D01*
X178358761Y-125901428D01*
X178396856Y-125977619D01*
X178473047Y-126053809D01*
X178587332Y-126091904D01*
X178777809Y-126091904D01*
X177711142Y-125672857D02*
X177596856Y-125710952D01*
X177558761Y-125749047D01*
X177520666Y-125825238D01*
X177520666Y-125939523D01*
X177558761Y-126015714D01*
X177596856Y-126053809D01*
X177673047Y-126091904D01*
X177977809Y-126091904D01*
X177977809Y-125291904D01*
X177711142Y-125291904D01*
X177634952Y-125330000D01*
X177596856Y-125368095D01*
X177558761Y-125444285D01*
X177558761Y-125520476D01*
X177596856Y-125596666D01*
X177634952Y-125634761D01*
X177711142Y-125672857D01*
X177977809Y-125672857D01*
X176758761Y-125330000D02*
X176834952Y-125291904D01*
X176949237Y-125291904D01*
X177063523Y-125330000D01*
X177139713Y-125406190D01*
X177177809Y-125482380D01*
X177215904Y-125634761D01*
X177215904Y-125749047D01*
X177177809Y-125901428D01*
X177139713Y-125977619D01*
X177063523Y-126053809D01*
X176949237Y-126091904D01*
X176873047Y-126091904D01*
X176758761Y-126053809D01*
X176720666Y-126015714D01*
X176720666Y-125749047D01*
X176873047Y-125749047D01*
X176568285Y-126168095D02*
X175958761Y-126168095D01*
X175311142Y-126015714D02*
X175349237Y-126053809D01*
X175463523Y-126091904D01*
X175539713Y-126091904D01*
X175653999Y-126053809D01*
X175730190Y-125977619D01*
X175768285Y-125901428D01*
X175806380Y-125749047D01*
X175806380Y-125634761D01*
X175768285Y-125482380D01*
X175730190Y-125406190D01*
X175653999Y-125330000D01*
X175539713Y-125291904D01*
X175463523Y-125291904D01*
X175349237Y-125330000D01*
X175311142Y-125368095D01*
X174968285Y-126091904D02*
X174968285Y-125291904D01*
X174511142Y-126091904D02*
X174853999Y-125634761D01*
X174511142Y-125291904D02*
X174968285Y-125749047D01*
X144379904Y-134944095D02*
X143579904Y-134944095D01*
X143579904Y-135248857D01*
X143618000Y-135325047D01*
X143656095Y-135363142D01*
X143732285Y-135401238D01*
X143846571Y-135401238D01*
X143922761Y-135363142D01*
X143960857Y-135325047D01*
X143998952Y-135248857D01*
X143998952Y-134944095D01*
X144379904Y-135744095D02*
X143579904Y-135744095D01*
X143579904Y-135934571D01*
X143618000Y-136048857D01*
X143694190Y-136125047D01*
X143770380Y-136163142D01*
X143922761Y-136201238D01*
X144037047Y-136201238D01*
X144189428Y-136163142D01*
X144265619Y-136125047D01*
X144341809Y-136048857D01*
X144379904Y-135934571D01*
X144379904Y-135744095D01*
X144379904Y-136582190D02*
X144379904Y-136734571D01*
X144341809Y-136810761D01*
X144303714Y-136848857D01*
X144189428Y-136925047D01*
X144037047Y-136963142D01*
X143732285Y-136963142D01*
X143656095Y-136925047D01*
X143618000Y-136886952D01*
X143579904Y-136810761D01*
X143579904Y-136658381D01*
X143618000Y-136582190D01*
X143656095Y-136544095D01*
X143732285Y-136506000D01*
X143922761Y-136506000D01*
X143998952Y-136544095D01*
X144037047Y-136582190D01*
X144075142Y-136658381D01*
X144075142Y-136810761D01*
X144037047Y-136886952D01*
X143998952Y-136925047D01*
X143922761Y-136963142D01*
X144303714Y-137306000D02*
X144341809Y-137344095D01*
X144379904Y-137306000D01*
X144341809Y-137267904D01*
X144303714Y-137306000D01*
X144379904Y-137306000D01*
X143884666Y-137306000D02*
X143922761Y-137344095D01*
X143960857Y-137306000D01*
X143922761Y-137267904D01*
X143884666Y-137306000D01*
X143960857Y-137306000D01*
X143960857Y-137686952D02*
X143960857Y-137953619D01*
X144379904Y-138067904D02*
X144379904Y-137686952D01*
X143579904Y-137686952D01*
X143579904Y-138067904D01*
X143579904Y-138334571D02*
X144379904Y-138867904D01*
X143579904Y-138867904D02*
X144379904Y-138334571D01*
X143579904Y-139058381D02*
X143579904Y-139515523D01*
X144379904Y-139286952D02*
X143579904Y-139286952D01*
X144456095Y-139591714D02*
X144456095Y-140201238D01*
X144379904Y-140848857D02*
X143998952Y-140582190D01*
X144379904Y-140391714D02*
X143579904Y-140391714D01*
X143579904Y-140696476D01*
X143618000Y-140772666D01*
X143656095Y-140810761D01*
X143732285Y-140848857D01*
X143846571Y-140848857D01*
X143922761Y-140810761D01*
X143960857Y-140772666D01*
X143998952Y-140696476D01*
X143998952Y-140391714D01*
X143579904Y-141115523D02*
X144379904Y-141648857D01*
X143579904Y-141648857D02*
X144379904Y-141115523D01*
X181520666Y-124059904D02*
X181520666Y-123259904D01*
X181215904Y-123259904D01*
X181139714Y-123298000D01*
X181101618Y-123336095D01*
X181063523Y-123412285D01*
X181063523Y-123526571D01*
X181101618Y-123602761D01*
X181139714Y-123640857D01*
X181215904Y-123678952D01*
X181520666Y-123678952D01*
X180720666Y-124059904D02*
X180720666Y-123259904D01*
X180530190Y-123259904D01*
X180415904Y-123298000D01*
X180339714Y-123374190D01*
X180301618Y-123450380D01*
X180263523Y-123602761D01*
X180263523Y-123717047D01*
X180301618Y-123869428D01*
X180339714Y-123945619D01*
X180415904Y-124021809D01*
X180530190Y-124059904D01*
X180720666Y-124059904D01*
X179539714Y-123259904D02*
X179920666Y-123259904D01*
X179958761Y-123640857D01*
X179920666Y-123602761D01*
X179844476Y-123564666D01*
X179653999Y-123564666D01*
X179577809Y-123602761D01*
X179539714Y-123640857D01*
X179501618Y-123717047D01*
X179501618Y-123907523D01*
X179539714Y-123983714D01*
X179577809Y-124021809D01*
X179653999Y-124059904D01*
X179844476Y-124059904D01*
X179920666Y-124021809D01*
X179958761Y-123983714D01*
X179158761Y-123983714D02*
X179120666Y-124021809D01*
X179158761Y-124059904D01*
X179196857Y-124021809D01*
X179158761Y-123983714D01*
X179158761Y-124059904D01*
X179158761Y-123564666D02*
X179120666Y-123602761D01*
X179158761Y-123640857D01*
X179196857Y-123602761D01*
X179158761Y-123564666D01*
X179158761Y-123640857D01*
X178777809Y-124059904D02*
X178777809Y-123259904D01*
X178587333Y-123259904D01*
X178473047Y-123298000D01*
X178396857Y-123374190D01*
X178358761Y-123450380D01*
X178320666Y-123602761D01*
X178320666Y-123717047D01*
X178358761Y-123869428D01*
X178396857Y-123945619D01*
X178473047Y-124021809D01*
X178587333Y-124059904D01*
X178777809Y-124059904D01*
X177711142Y-123640857D02*
X177596857Y-123678952D01*
X177558761Y-123717047D01*
X177520666Y-123793238D01*
X177520666Y-123907523D01*
X177558761Y-123983714D01*
X177596857Y-124021809D01*
X177673047Y-124059904D01*
X177977809Y-124059904D01*
X177977809Y-123259904D01*
X177711142Y-123259904D01*
X177634952Y-123298000D01*
X177596857Y-123336095D01*
X177558761Y-123412285D01*
X177558761Y-123488476D01*
X177596857Y-123564666D01*
X177634952Y-123602761D01*
X177711142Y-123640857D01*
X177977809Y-123640857D01*
X176758761Y-123298000D02*
X176834952Y-123259904D01*
X176949237Y-123259904D01*
X177063523Y-123298000D01*
X177139714Y-123374190D01*
X177177809Y-123450380D01*
X177215904Y-123602761D01*
X177215904Y-123717047D01*
X177177809Y-123869428D01*
X177139714Y-123945619D01*
X177063523Y-124021809D01*
X176949237Y-124059904D01*
X176873047Y-124059904D01*
X176758761Y-124021809D01*
X176720666Y-123983714D01*
X176720666Y-123717047D01*
X176873047Y-123717047D01*
X176568285Y-124136095D02*
X175958761Y-124136095D01*
X175882571Y-123259904D02*
X175425428Y-123259904D01*
X175653999Y-124059904D02*
X175653999Y-123259904D01*
X175234952Y-123259904D02*
X174701618Y-124059904D01*
X174701618Y-123259904D02*
X175234952Y-124059904D01*
X181520666Y-130155904D02*
X181520666Y-129355904D01*
X181215904Y-129355904D01*
X181139714Y-129394000D01*
X181101618Y-129432095D01*
X181063523Y-129508285D01*
X181063523Y-129622571D01*
X181101618Y-129698761D01*
X181139714Y-129736857D01*
X181215904Y-129774952D01*
X181520666Y-129774952D01*
X180720666Y-130155904D02*
X180720666Y-129355904D01*
X180530190Y-129355904D01*
X180415904Y-129394000D01*
X180339714Y-129470190D01*
X180301618Y-129546380D01*
X180263523Y-129698761D01*
X180263523Y-129813047D01*
X180301618Y-129965428D01*
X180339714Y-130041619D01*
X180415904Y-130117809D01*
X180530190Y-130155904D01*
X180720666Y-130155904D01*
X179577809Y-129622571D02*
X179577809Y-130155904D01*
X179768285Y-129317809D02*
X179958761Y-129889238D01*
X179463523Y-129889238D01*
X179158761Y-130079714D02*
X179120666Y-130117809D01*
X179158761Y-130155904D01*
X179196857Y-130117809D01*
X179158761Y-130079714D01*
X179158761Y-130155904D01*
X179158761Y-129660666D02*
X179120666Y-129698761D01*
X179158761Y-129736857D01*
X179196857Y-129698761D01*
X179158761Y-129660666D01*
X179158761Y-129736857D01*
X178777809Y-130155904D02*
X178777809Y-129355904D01*
X178587333Y-129355904D01*
X178473047Y-129394000D01*
X178396857Y-129470190D01*
X178358761Y-129546380D01*
X178320666Y-129698761D01*
X178320666Y-129813047D01*
X178358761Y-129965428D01*
X178396857Y-130041619D01*
X178473047Y-130117809D01*
X178587333Y-130155904D01*
X178777809Y-130155904D01*
X177711142Y-129736857D02*
X177596857Y-129774952D01*
X177558761Y-129813047D01*
X177520666Y-129889238D01*
X177520666Y-130003523D01*
X177558761Y-130079714D01*
X177596857Y-130117809D01*
X177673047Y-130155904D01*
X177977809Y-130155904D01*
X177977809Y-129355904D01*
X177711142Y-129355904D01*
X177634952Y-129394000D01*
X177596857Y-129432095D01*
X177558761Y-129508285D01*
X177558761Y-129584476D01*
X177596857Y-129660666D01*
X177634952Y-129698761D01*
X177711142Y-129736857D01*
X177977809Y-129736857D01*
X176758761Y-129394000D02*
X176834952Y-129355904D01*
X176949238Y-129355904D01*
X177063523Y-129394000D01*
X177139714Y-129470190D01*
X177177809Y-129546380D01*
X177215904Y-129698761D01*
X177215904Y-129813047D01*
X177177809Y-129965428D01*
X177139714Y-130041619D01*
X177063523Y-130117809D01*
X176949238Y-130155904D01*
X176873047Y-130155904D01*
X176758761Y-130117809D01*
X176720666Y-130079714D01*
X176720666Y-129813047D01*
X176873047Y-129813047D01*
X176568285Y-130232095D02*
X175958761Y-130232095D01*
X175311142Y-130155904D02*
X175577809Y-129774952D01*
X175768285Y-130155904D02*
X175768285Y-129355904D01*
X175463523Y-129355904D01*
X175387333Y-129394000D01*
X175349238Y-129432095D01*
X175311142Y-129508285D01*
X175311142Y-129622571D01*
X175349238Y-129698761D01*
X175387333Y-129736857D01*
X175463523Y-129774952D01*
X175768285Y-129774952D01*
X175082571Y-129355904D02*
X174625428Y-129355904D01*
X174853999Y-130155904D02*
X174853999Y-129355904D01*
X174396857Y-130117809D02*
X174282571Y-130155904D01*
X174092095Y-130155904D01*
X174015904Y-130117809D01*
X173977809Y-130079714D01*
X173939714Y-130003523D01*
X173939714Y-129927333D01*
X173977809Y-129851142D01*
X174015904Y-129813047D01*
X174092095Y-129774952D01*
X174244476Y-129736857D01*
X174320666Y-129698761D01*
X174358761Y-129660666D01*
X174396857Y-129584476D01*
X174396857Y-129508285D01*
X174358761Y-129432095D01*
X174320666Y-129394000D01*
X174244476Y-129355904D01*
X174053999Y-129355904D01*
X173939714Y-129394000D01*
X181520666Y-128123904D02*
X181520666Y-127323904D01*
X181215904Y-127323904D01*
X181139714Y-127362000D01*
X181101618Y-127400095D01*
X181063523Y-127476285D01*
X181063523Y-127590571D01*
X181101618Y-127666761D01*
X181139714Y-127704857D01*
X181215904Y-127742952D01*
X181520666Y-127742952D01*
X180720666Y-128123904D02*
X180720666Y-127323904D01*
X180530190Y-127323904D01*
X180415904Y-127362000D01*
X180339714Y-127438190D01*
X180301618Y-127514380D01*
X180263523Y-127666761D01*
X180263523Y-127781047D01*
X180301618Y-127933428D01*
X180339714Y-128009619D01*
X180415904Y-128085809D01*
X180530190Y-128123904D01*
X180720666Y-128123904D01*
X179996857Y-127323904D02*
X179501618Y-127323904D01*
X179768285Y-127628666D01*
X179653999Y-127628666D01*
X179577809Y-127666761D01*
X179539714Y-127704857D01*
X179501618Y-127781047D01*
X179501618Y-127971523D01*
X179539714Y-128047714D01*
X179577809Y-128085809D01*
X179653999Y-128123904D01*
X179882571Y-128123904D01*
X179958761Y-128085809D01*
X179996857Y-128047714D01*
X179158761Y-128047714D02*
X179120666Y-128085809D01*
X179158761Y-128123904D01*
X179196857Y-128085809D01*
X179158761Y-128047714D01*
X179158761Y-128123904D01*
X179158761Y-127628666D02*
X179120666Y-127666761D01*
X179158761Y-127704857D01*
X179196857Y-127666761D01*
X179158761Y-127628666D01*
X179158761Y-127704857D01*
X178777809Y-128123904D02*
X178777809Y-127323904D01*
X178587333Y-127323904D01*
X178473047Y-127362000D01*
X178396857Y-127438190D01*
X178358761Y-127514380D01*
X178320666Y-127666761D01*
X178320666Y-127781047D01*
X178358761Y-127933428D01*
X178396857Y-128009619D01*
X178473047Y-128085809D01*
X178587333Y-128123904D01*
X178777809Y-128123904D01*
X177711142Y-127704857D02*
X177596857Y-127742952D01*
X177558761Y-127781047D01*
X177520666Y-127857238D01*
X177520666Y-127971523D01*
X177558761Y-128047714D01*
X177596857Y-128085809D01*
X177673047Y-128123904D01*
X177977809Y-128123904D01*
X177977809Y-127323904D01*
X177711142Y-127323904D01*
X177634952Y-127362000D01*
X177596857Y-127400095D01*
X177558761Y-127476285D01*
X177558761Y-127552476D01*
X177596857Y-127628666D01*
X177634952Y-127666761D01*
X177711142Y-127704857D01*
X177977809Y-127704857D01*
X176758761Y-127362000D02*
X176834952Y-127323904D01*
X176949238Y-127323904D01*
X177063523Y-127362000D01*
X177139714Y-127438190D01*
X177177809Y-127514380D01*
X177215904Y-127666761D01*
X177215904Y-127781047D01*
X177177809Y-127933428D01*
X177139714Y-128009619D01*
X177063523Y-128085809D01*
X176949238Y-128123904D01*
X176873047Y-128123904D01*
X176758761Y-128085809D01*
X176720666Y-128047714D01*
X176720666Y-127781047D01*
X176873047Y-127781047D01*
X176568285Y-128200095D02*
X175958761Y-128200095D01*
X175311142Y-128047714D02*
X175349238Y-128085809D01*
X175463523Y-128123904D01*
X175539714Y-128123904D01*
X175653999Y-128085809D01*
X175730190Y-128009619D01*
X175768285Y-127933428D01*
X175806380Y-127781047D01*
X175806380Y-127666761D01*
X175768285Y-127514380D01*
X175730190Y-127438190D01*
X175653999Y-127362000D01*
X175539714Y-127323904D01*
X175463523Y-127323904D01*
X175349238Y-127362000D01*
X175311142Y-127400095D01*
X175082571Y-127323904D02*
X174625428Y-127323904D01*
X174853999Y-128123904D02*
X174853999Y-127323904D01*
X174396857Y-128085809D02*
X174282571Y-128123904D01*
X174092095Y-128123904D01*
X174015904Y-128085809D01*
X173977809Y-128047714D01*
X173939714Y-127971523D01*
X173939714Y-127895333D01*
X173977809Y-127819142D01*
X174015904Y-127781047D01*
X174092095Y-127742952D01*
X174244476Y-127704857D01*
X174320666Y-127666761D01*
X174358761Y-127628666D01*
X174396857Y-127552476D01*
X174396857Y-127476285D01*
X174358761Y-127400095D01*
X174320666Y-127362000D01*
X174244476Y-127323904D01*
X174053999Y-127323904D01*
X173939714Y-127362000D01*
D11*
G04 #@! TO.C,G\002A\002A\002A*
G36*
X140465767Y-63618362D02*
X140391109Y-63653739D01*
X140339969Y-63713304D01*
X140311880Y-63797552D01*
X140305664Y-63879699D01*
X140317231Y-63980166D01*
X140351449Y-64056562D01*
X140409218Y-64110774D01*
X140418573Y-64116329D01*
X140475981Y-64138655D01*
X140546065Y-64152766D01*
X140611274Y-64155698D01*
X140633874Y-64152689D01*
X140645054Y-64147294D01*
X140653031Y-64133614D01*
X140658335Y-64106713D01*
X140661495Y-64061655D01*
X140663040Y-63993505D01*
X140663499Y-63897328D01*
X140663507Y-63876371D01*
X140663507Y-63606679D01*
X140564411Y-63606679D01*
X140465767Y-63618362D01*
X140465767Y-63618362D01*
G37*
X140465767Y-63618362D02*
X140391109Y-63653739D01*
X140339969Y-63713304D01*
X140311880Y-63797552D01*
X140305664Y-63879699D01*
X140317231Y-63980166D01*
X140351449Y-64056562D01*
X140409218Y-64110774D01*
X140418573Y-64116329D01*
X140475981Y-64138655D01*
X140546065Y-64152766D01*
X140611274Y-64155698D01*
X140633874Y-64152689D01*
X140645054Y-64147294D01*
X140653031Y-64133614D01*
X140658335Y-64106713D01*
X140661495Y-64061655D01*
X140663040Y-63993505D01*
X140663499Y-63897328D01*
X140663507Y-63876371D01*
X140663507Y-63606679D01*
X140564411Y-63606679D01*
X140465767Y-63618362D01*
G36*
X146828665Y-66115988D02*
X146753774Y-66125805D01*
X146706851Y-66144912D01*
X146682388Y-66177481D01*
X146674874Y-66227683D01*
X146674840Y-66232459D01*
X146684869Y-66289265D01*
X146717079Y-66326204D01*
X146774651Y-66345547D01*
X146839475Y-66349880D01*
X146928840Y-66349880D01*
X146928840Y-66108742D01*
X146828665Y-66115988D01*
X146828665Y-66115988D01*
G37*
X146828665Y-66115988D02*
X146753774Y-66125805D01*
X146706851Y-66144912D01*
X146682388Y-66177481D01*
X146674874Y-66227683D01*
X146674840Y-66232459D01*
X146684869Y-66289265D01*
X146717079Y-66326204D01*
X146774651Y-66345547D01*
X146839475Y-66349880D01*
X146928840Y-66349880D01*
X146928840Y-66108742D01*
X146828665Y-66115988D01*
G36*
X139397740Y-66096129D02*
X139313705Y-66104969D01*
X139257262Y-66130483D01*
X139229580Y-66172071D01*
X139227440Y-66183535D01*
X139236455Y-66230309D01*
X139274989Y-66262677D01*
X139341483Y-66279684D01*
X139388808Y-66282146D01*
X139478173Y-66282146D01*
X139478173Y-66095880D01*
X139397740Y-66096129D01*
X139397740Y-66096129D01*
G37*
X139397740Y-66096129D02*
X139313705Y-66104969D01*
X139257262Y-66130483D01*
X139229580Y-66172071D01*
X139227440Y-66183535D01*
X139236455Y-66230309D01*
X139274989Y-66262677D01*
X139341483Y-66279684D01*
X139388808Y-66282146D01*
X139478173Y-66282146D01*
X139478173Y-66095880D01*
X139397740Y-66096129D01*
G36*
X139380807Y-66451729D02*
X139295872Y-66457340D01*
X139239134Y-66475193D01*
X139206413Y-66507593D01*
X139193684Y-66554918D01*
X139195522Y-66601290D01*
X139213669Y-66632674D01*
X139253149Y-66652482D01*
X139318989Y-66664122D01*
X139359887Y-66667700D01*
X139478173Y-66676163D01*
X139478173Y-66451480D01*
X139380807Y-66451729D01*
X139380807Y-66451729D01*
G37*
X139380807Y-66451729D02*
X139295872Y-66457340D01*
X139239134Y-66475193D01*
X139206413Y-66507593D01*
X139193684Y-66554918D01*
X139195522Y-66601290D01*
X139213669Y-66632674D01*
X139253149Y-66652482D01*
X139318989Y-66664122D01*
X139359887Y-66667700D01*
X139478173Y-66676163D01*
X139478173Y-66451480D01*
X139380807Y-66451729D01*
G36*
X142460762Y-62120779D02*
X142454413Y-62146363D01*
X142442897Y-62200948D01*
X142427059Y-62280206D01*
X142407744Y-62379809D01*
X142385795Y-62495431D01*
X142362058Y-62622742D01*
X142349260Y-62692279D01*
X142317229Y-62863698D01*
X142289869Y-63002673D01*
X142266940Y-63110270D01*
X142248205Y-63187554D01*
X142233426Y-63235591D01*
X142223752Y-63254270D01*
X142200722Y-63268498D01*
X142150933Y-63293133D01*
X142079092Y-63326053D01*
X141989905Y-63365139D01*
X141888077Y-63408271D01*
X141814999Y-63438427D01*
X141692367Y-63488123D01*
X141596953Y-63525735D01*
X141524856Y-63552544D01*
X141472174Y-63569831D01*
X141435009Y-63578875D01*
X141409457Y-63580959D01*
X141391666Y-63577379D01*
X141367645Y-63563926D01*
X141319517Y-63533624D01*
X141250994Y-63488932D01*
X141177038Y-63439783D01*
X140866707Y-63439783D01*
X140866707Y-63877590D01*
X140866554Y-64011129D01*
X140865925Y-64114675D01*
X140864562Y-64192101D01*
X140862206Y-64247279D01*
X140858601Y-64284081D01*
X140853490Y-64306382D01*
X140846613Y-64318052D01*
X140837715Y-64322966D01*
X140837074Y-64323140D01*
X140785204Y-64330531D01*
X140710219Y-64333687D01*
X140622554Y-64332961D01*
X140532650Y-64328705D01*
X140450942Y-64321271D01*
X140387871Y-64311011D01*
X140374480Y-64307535D01*
X140287116Y-64267845D01*
X140207650Y-64206690D01*
X140144542Y-64132205D01*
X140106250Y-64052525D01*
X140105135Y-64048535D01*
X140089780Y-63956224D01*
X140086670Y-63850742D01*
X140095825Y-63750074D01*
X140104731Y-63708191D01*
X140139012Y-63633162D01*
X140196701Y-63559605D01*
X140268502Y-63497794D01*
X140323453Y-63466448D01*
X140391543Y-63445504D01*
X140482444Y-63430439D01*
X140585465Y-63422174D01*
X140689917Y-63421632D01*
X140771247Y-63427856D01*
X140866707Y-63439783D01*
X141177038Y-63439783D01*
X141165793Y-63432310D01*
X141067627Y-63366215D01*
X140960212Y-63293109D01*
X140902489Y-63253521D01*
X140792695Y-63178596D01*
X140690983Y-63110276D01*
X140600905Y-63050864D01*
X140526016Y-63002661D01*
X140469868Y-62967969D01*
X140436013Y-62949089D01*
X140428221Y-62946280D01*
X140410005Y-62957892D01*
X140371761Y-62990428D01*
X140316958Y-63040438D01*
X140249069Y-63104471D01*
X140171562Y-63179076D01*
X140087911Y-63260803D01*
X140001585Y-63346201D01*
X139916056Y-63431820D01*
X139834794Y-63514208D01*
X139761270Y-63589916D01*
X139698956Y-63655492D01*
X139651322Y-63707487D01*
X139621840Y-63742449D01*
X139613640Y-63756091D01*
X139622923Y-63774927D01*
X139649263Y-63818125D01*
X139690397Y-63882232D01*
X139744061Y-63963795D01*
X139807992Y-64059361D01*
X139879925Y-64165477D01*
X139929023Y-64237197D01*
X140005048Y-64348885D01*
X140074480Y-64452919D01*
X140135043Y-64545724D01*
X140184456Y-64623727D01*
X140220442Y-64683353D01*
X140240721Y-64721028D01*
X140244407Y-64731832D01*
X140238013Y-64755250D01*
X140220259Y-64804528D01*
X140193286Y-64874468D01*
X140159236Y-64959871D01*
X140120249Y-65055539D01*
X140078467Y-65156274D01*
X140036030Y-65256876D01*
X139995081Y-65352146D01*
X139957761Y-65436888D01*
X139926210Y-65505900D01*
X139921365Y-65516133D01*
X139912988Y-65533525D01*
X139903874Y-65547986D01*
X139890632Y-65560465D01*
X139869869Y-65571908D01*
X139838194Y-65583263D01*
X139792213Y-65595477D01*
X139728535Y-65609498D01*
X139643767Y-65626273D01*
X139534517Y-65646750D01*
X139397394Y-65671875D01*
X139300373Y-65689568D01*
X139176160Y-65712523D01*
X139061408Y-65734294D01*
X138960761Y-65753955D01*
X138878867Y-65770580D01*
X138820368Y-65783244D01*
X138789911Y-65791021D01*
X138788140Y-65791670D01*
X138750040Y-65807287D01*
X138750040Y-66372843D01*
X138750344Y-66535819D01*
X138751322Y-66667638D01*
X138753071Y-66771006D01*
X138755691Y-66848629D01*
X138759279Y-66903212D01*
X138763933Y-66937461D01*
X138769753Y-66954080D01*
X138771207Y-66955645D01*
X138792558Y-66962863D01*
X138843053Y-66975166D01*
X138918499Y-66991677D01*
X139014704Y-67011520D01*
X139127473Y-67033819D01*
X139252613Y-67057699D01*
X139317307Y-67069735D01*
X139446999Y-67094152D01*
X139566378Y-67117565D01*
X139671248Y-67139078D01*
X139757415Y-67157794D01*
X139820684Y-67172818D01*
X139856860Y-67183253D01*
X139863427Y-67186420D01*
X139874568Y-67206336D01*
X139895975Y-67252750D01*
X139925591Y-67320614D01*
X139961361Y-67404880D01*
X140001226Y-67500501D01*
X140043130Y-67602430D01*
X140085017Y-67705619D01*
X140124830Y-67805020D01*
X140160512Y-67895586D01*
X140190006Y-67972270D01*
X140211256Y-68030023D01*
X140222205Y-68063799D01*
X140223240Y-68069468D01*
X140213990Y-68087595D01*
X140187769Y-68130087D01*
X140146869Y-68193457D01*
X140093583Y-68274214D01*
X140030202Y-68368872D01*
X139959018Y-68473941D01*
X139918440Y-68533343D01*
X139844008Y-68642597D01*
X139776151Y-68743354D01*
X139717162Y-68832116D01*
X139669336Y-68905388D01*
X139634964Y-68959674D01*
X139616341Y-68991477D01*
X139613640Y-68998048D01*
X139625234Y-69014297D01*
X139658156Y-69051410D01*
X139709620Y-69106472D01*
X139776839Y-69176568D01*
X139857027Y-69258784D01*
X139947394Y-69350207D01*
X140018201Y-69421094D01*
X140128370Y-69530656D01*
X140217293Y-69618325D01*
X140287505Y-69686323D01*
X140341539Y-69736872D01*
X140381927Y-69772195D01*
X140411204Y-69794513D01*
X140431903Y-69806050D01*
X140446556Y-69809026D01*
X140457020Y-69806038D01*
X140479406Y-69791993D01*
X140525817Y-69761317D01*
X140592402Y-69716613D01*
X140675309Y-69660479D01*
X140770688Y-69595517D01*
X140874685Y-69524327D01*
X140898284Y-69508125D01*
X141003564Y-69436657D01*
X141101280Y-69371935D01*
X141187577Y-69316388D01*
X141258600Y-69272442D01*
X141310494Y-69242524D01*
X141339404Y-69229060D01*
X141342407Y-69228546D01*
X141370766Y-69236188D01*
X141421984Y-69257091D01*
X141489233Y-69288225D01*
X141565684Y-69326556D01*
X141579873Y-69333975D01*
X141668674Y-69378908D01*
X141736007Y-69409148D01*
X141779266Y-69423618D01*
X141795025Y-69422875D01*
X141805845Y-69402487D01*
X141827681Y-69354399D01*
X141859173Y-69281946D01*
X141898960Y-69188462D01*
X141945682Y-69077282D01*
X141983696Y-68986027D01*
X140905626Y-68986027D01*
X140892085Y-69095637D01*
X140860102Y-69196441D01*
X140810576Y-69281544D01*
X140744409Y-69344054D01*
X140738601Y-69347763D01*
X140617749Y-69404061D01*
X140488770Y-69428123D01*
X140350219Y-69420133D01*
X140281831Y-69405473D01*
X140226464Y-69389620D01*
X140184809Y-69375036D01*
X140168113Y-69366432D01*
X140165518Y-69344289D01*
X140173613Y-69304295D01*
X140188393Y-69258338D01*
X140205855Y-69218308D01*
X140221997Y-69196093D01*
X140225945Y-69194679D01*
X140253076Y-69202041D01*
X140275205Y-69212236D01*
X140321860Y-69225622D01*
X140388337Y-69231295D01*
X140461545Y-69229514D01*
X140528390Y-69220541D01*
X140572694Y-69206325D01*
X140628208Y-69159020D01*
X140665089Y-69085917D01*
X140681826Y-68990435D01*
X140682691Y-68957289D01*
X140669928Y-68852394D01*
X140633814Y-68771323D01*
X140575940Y-68715408D01*
X140497896Y-68685981D01*
X140401274Y-68684372D01*
X140363917Y-68690512D01*
X140294764Y-68703951D01*
X140250946Y-68707933D01*
X140224683Y-68700093D01*
X140208194Y-68678061D01*
X140193699Y-68639471D01*
X140193416Y-68638631D01*
X140181082Y-68590105D01*
X140180274Y-68556830D01*
X140183386Y-68550427D01*
X140216096Y-68532585D01*
X140272216Y-68515442D01*
X140341316Y-68500987D01*
X140412964Y-68491209D01*
X140476729Y-68488099D01*
X140502089Y-68489630D01*
X140610050Y-68515568D01*
X140709764Y-68564244D01*
X140791711Y-68630270D01*
X140826607Y-68673280D01*
X140873787Y-68767955D01*
X140899827Y-68874501D01*
X140905626Y-68986027D01*
X141983696Y-68986027D01*
X141997979Y-68951742D01*
X142054490Y-68815175D01*
X142113855Y-68670917D01*
X142174714Y-68522302D01*
X142235706Y-68372666D01*
X142295472Y-68225343D01*
X142352650Y-68083668D01*
X142405881Y-67950975D01*
X142453804Y-67830601D01*
X142495059Y-67725878D01*
X142528286Y-67640143D01*
X142552125Y-67576730D01*
X142565214Y-67538974D01*
X142567281Y-67529658D01*
X142548042Y-67507332D01*
X142511532Y-67480533D01*
X142504476Y-67476286D01*
X142346756Y-67368262D01*
X142203011Y-67237964D01*
X142078255Y-67091258D01*
X141977501Y-66934013D01*
X141907735Y-66777799D01*
X141872065Y-66639935D01*
X141852755Y-66484483D01*
X141850296Y-66323772D01*
X141865178Y-66170133D01*
X141880566Y-66094578D01*
X141929075Y-65946175D01*
X139681373Y-65946175D01*
X139681373Y-66822478D01*
X139626340Y-66831649D01*
X139486380Y-66846492D01*
X139344508Y-66846405D01*
X139214387Y-66831675D01*
X139169910Y-66822057D01*
X139082481Y-66784757D01*
X139019244Y-66724803D01*
X138982149Y-66645075D01*
X138973141Y-66548455D01*
X138974329Y-66532722D01*
X138984388Y-66472297D01*
X139004834Y-66430342D01*
X139036143Y-66397323D01*
X139089530Y-66349621D01*
X139051062Y-66297591D01*
X139022322Y-66233392D01*
X139015393Y-66157533D01*
X139030308Y-66084283D01*
X139050517Y-66046469D01*
X139109282Y-65993497D01*
X139195693Y-65955334D01*
X139306621Y-65932655D01*
X139438935Y-65926138D01*
X139569823Y-65934229D01*
X139681373Y-65946175D01*
X141929075Y-65946175D01*
X141939666Y-65913776D01*
X142023160Y-65752720D01*
X142134997Y-65604159D01*
X142166413Y-65569644D01*
X142318463Y-65429320D01*
X142481059Y-65320989D01*
X142655618Y-65244031D01*
X142843556Y-65197825D01*
X143046289Y-65181753D01*
X143052631Y-65181730D01*
X143253784Y-65197680D01*
X143444800Y-65245797D01*
X143624284Y-65325529D01*
X143790844Y-65436324D01*
X143871937Y-65506080D01*
X144010179Y-65656255D01*
X144117255Y-65819619D01*
X144193328Y-65996548D01*
X144238560Y-66187417D01*
X144253123Y-66385271D01*
X144237352Y-66586237D01*
X144189704Y-66776308D01*
X144110628Y-66954681D01*
X144000577Y-67120554D01*
X143859999Y-67273124D01*
X143689345Y-67411589D01*
X143669110Y-67425682D01*
X143602018Y-67473077D01*
X143559570Y-67507116D01*
X143537467Y-67532033D01*
X143531411Y-67552061D01*
X143532629Y-67560072D01*
X143542589Y-67588661D01*
X143563931Y-67643785D01*
X143595260Y-67722121D01*
X143635181Y-67820349D01*
X143682300Y-67935148D01*
X143735220Y-68063198D01*
X143792548Y-68201177D01*
X143852887Y-68345766D01*
X143914843Y-68493642D01*
X143977021Y-68641487D01*
X144038025Y-68785977D01*
X144096461Y-68923794D01*
X144150934Y-69051615D01*
X144200049Y-69166122D01*
X144242410Y-69263991D01*
X144276622Y-69341904D01*
X144301291Y-69396538D01*
X144315021Y-69424574D01*
X144317184Y-69427616D01*
X144337958Y-69422213D01*
X144382123Y-69403254D01*
X144443460Y-69373624D01*
X144515752Y-69336208D01*
X144525482Y-69331002D01*
X144601235Y-69291942D01*
X144669438Y-69259742D01*
X144722961Y-69237572D01*
X144754676Y-69228599D01*
X144756056Y-69228546D01*
X144781558Y-69238161D01*
X144831682Y-69265821D01*
X144903593Y-69309752D01*
X144994453Y-69368176D01*
X145101425Y-69439319D01*
X145198932Y-69505735D01*
X145304050Y-69577824D01*
X145401651Y-69644379D01*
X145487810Y-69702753D01*
X145558601Y-69750299D01*
X145610098Y-69784370D01*
X145638377Y-69802319D01*
X145640727Y-69803648D01*
X145652331Y-69808112D01*
X145665727Y-69807617D01*
X145683518Y-69799914D01*
X145708307Y-69782759D01*
X145742698Y-69753903D01*
X145789295Y-69711101D01*
X145850701Y-69652105D01*
X145929518Y-69574669D01*
X146028352Y-69476546D01*
X146084012Y-69421094D01*
X146180044Y-69324823D01*
X146267931Y-69235669D01*
X146344888Y-69156540D01*
X146408128Y-69090343D01*
X146454866Y-69039988D01*
X146482316Y-69008382D01*
X146488573Y-68998817D01*
X146479299Y-68980589D01*
X146453049Y-68938143D01*
X146412187Y-68875064D01*
X146359074Y-68794936D01*
X146315784Y-68730626D01*
X145957655Y-68730626D01*
X145951285Y-68813194D01*
X145949404Y-68819820D01*
X145921672Y-68882480D01*
X145876498Y-68934649D01*
X145808466Y-68981048D01*
X145712625Y-69026205D01*
X145636839Y-69058398D01*
X145587207Y-69082817D01*
X145558249Y-69103790D01*
X145544487Y-69125643D01*
X145540444Y-69152702D01*
X145540307Y-69162290D01*
X145554707Y-69207017D01*
X145595567Y-69235250D01*
X145659374Y-69246264D01*
X145742616Y-69239335D01*
X145821249Y-69220263D01*
X145870588Y-69205836D01*
X145905517Y-69196622D01*
X145914873Y-69194863D01*
X145927205Y-69209487D01*
X145940156Y-69245621D01*
X145950967Y-69291081D01*
X145956874Y-69333678D01*
X145955117Y-69361226D01*
X145953252Y-69364241D01*
X145923632Y-69380199D01*
X145870877Y-69397317D01*
X145805519Y-69413084D01*
X145738091Y-69424992D01*
X145679125Y-69430532D01*
X145674614Y-69430632D01*
X145610098Y-69426053D01*
X145538007Y-69413206D01*
X145511107Y-69406163D01*
X145421029Y-69364026D01*
X145372567Y-69320908D01*
X145343298Y-69283787D01*
X145327509Y-69248856D01*
X145321163Y-69203131D01*
X145320174Y-69152346D01*
X145322010Y-69089369D01*
X145330182Y-69047235D01*
X145348683Y-69013002D01*
X145371989Y-68984443D01*
X145432872Y-68933770D01*
X145525810Y-68884417D01*
X145560609Y-68869554D01*
X145636977Y-68834627D01*
X145693752Y-68801028D01*
X145723841Y-68773393D01*
X145740154Y-68742885D01*
X145733855Y-68721867D01*
X145711145Y-68701426D01*
X145654673Y-68676149D01*
X145579333Y-68672777D01*
X145492245Y-68691507D01*
X145481688Y-68695127D01*
X145440136Y-68709063D01*
X145415575Y-68715643D01*
X145412921Y-68715550D01*
X145406493Y-68699164D01*
X145392023Y-68661364D01*
X145382336Y-68635879D01*
X145365896Y-68589050D01*
X145362500Y-68562849D01*
X145372001Y-68546715D01*
X145381001Y-68539516D01*
X145418701Y-68522102D01*
X145477699Y-68505209D01*
X145545507Y-68491642D01*
X145609632Y-68484208D01*
X145630040Y-68483574D01*
X145729818Y-68496482D01*
X145816571Y-68531960D01*
X145886196Y-68585689D01*
X145934591Y-68653351D01*
X145957655Y-68730626D01*
X146315784Y-68730626D01*
X146296072Y-68701344D01*
X146225542Y-68597875D01*
X146198203Y-68558082D01*
X146124522Y-68450475D01*
X146056620Y-68350173D01*
X145997039Y-68261025D01*
X145948326Y-68186877D01*
X145913024Y-68131580D01*
X145893678Y-68098980D01*
X145891241Y-68093888D01*
X145887864Y-68076727D01*
X145889906Y-68051860D01*
X145898589Y-68015618D01*
X145915137Y-67964334D01*
X145940774Y-67894343D01*
X145976724Y-67801977D01*
X146024210Y-67683569D01*
X146046593Y-67628378D01*
X146092940Y-67515476D01*
X146136097Y-67412485D01*
X146174186Y-67323715D01*
X146205331Y-67253478D01*
X146227654Y-67206085D01*
X146239254Y-67185870D01*
X146260494Y-67178103D01*
X146310885Y-67165290D01*
X146386239Y-67148326D01*
X146482367Y-67128105D01*
X146595079Y-67105522D01*
X146720185Y-67081470D01*
X146784907Y-67069389D01*
X146914581Y-67045019D01*
X147033944Y-67021818D01*
X147138803Y-67000661D01*
X147224964Y-66982423D01*
X147288236Y-66967980D01*
X147324425Y-66958207D01*
X147331007Y-66955383D01*
X147337158Y-66942306D01*
X147342088Y-66912156D01*
X147345896Y-66862198D01*
X147348682Y-66789695D01*
X147350548Y-66691910D01*
X147351594Y-66566105D01*
X147351920Y-66409546D01*
X147351914Y-66385906D01*
X147351423Y-66251710D01*
X147350151Y-66127891D01*
X147348204Y-66018640D01*
X147346191Y-65946175D01*
X147148973Y-65946175D01*
X147148973Y-66382272D01*
X147148552Y-66500543D01*
X147147366Y-66607503D01*
X147145531Y-66698531D01*
X147143164Y-66769004D01*
X147140382Y-66814298D01*
X147137685Y-66829657D01*
X147115846Y-66835753D01*
X147071016Y-66839852D01*
X147027618Y-66840946D01*
X146928840Y-66840946D01*
X146928840Y-66540600D01*
X146802408Y-66532486D01*
X146682919Y-66514600D01*
X146586577Y-66478518D01*
X146516170Y-66425550D01*
X146486338Y-66384010D01*
X146461859Y-66310086D01*
X146454862Y-66222420D01*
X146465346Y-66136276D01*
X146486338Y-66078682D01*
X146538122Y-66017162D01*
X146617799Y-65970869D01*
X146722665Y-65940514D01*
X146850018Y-65926804D01*
X146997153Y-65930447D01*
X147037423Y-65934229D01*
X147148973Y-65946175D01*
X147346191Y-65946175D01*
X147345690Y-65928145D01*
X147342715Y-65860598D01*
X147339386Y-65820186D01*
X147337240Y-65810669D01*
X147316264Y-65800855D01*
X147263726Y-65786109D01*
X147181505Y-65766847D01*
X147071481Y-65743489D01*
X146935532Y-65716452D01*
X146786638Y-65688216D01*
X146655136Y-65663450D01*
X146533519Y-65639951D01*
X146426009Y-65618581D01*
X146336828Y-65600201D01*
X146270197Y-65585674D01*
X146230338Y-65575863D01*
X146221346Y-65572782D01*
X146205624Y-65552490D01*
X146180016Y-65505882D01*
X146146683Y-65438059D01*
X146107792Y-65354124D01*
X146065504Y-65259180D01*
X146021985Y-65158329D01*
X145979397Y-65056673D01*
X145939906Y-64959314D01*
X145905675Y-64871356D01*
X145878868Y-64797899D01*
X145861649Y-64744048D01*
X145856181Y-64714903D01*
X145856594Y-64712724D01*
X145868658Y-64691659D01*
X145897590Y-64646306D01*
X145941009Y-64580240D01*
X145996534Y-64497038D01*
X146061785Y-64400277D01*
X146106307Y-64334813D01*
X145912840Y-64334813D01*
X145709640Y-64334813D01*
X145709640Y-63962280D01*
X145354040Y-63962280D01*
X145354040Y-63776013D01*
X145709640Y-63776013D01*
X145709640Y-63606679D01*
X145301470Y-63606679D01*
X145306589Y-63517779D01*
X145311707Y-63428880D01*
X145612273Y-63424255D01*
X145912840Y-63419631D01*
X145912840Y-64334813D01*
X146106307Y-64334813D01*
X146134382Y-64293533D01*
X146178235Y-64229450D01*
X146253403Y-64119228D01*
X146322009Y-64017433D01*
X146381777Y-63927538D01*
X146430429Y-63853013D01*
X146465690Y-63797331D01*
X146485284Y-63763963D01*
X146488573Y-63756143D01*
X146476879Y-63737944D01*
X146444113Y-63699860D01*
X146393748Y-63645337D01*
X146329259Y-63577822D01*
X146254118Y-63500765D01*
X146171799Y-63417611D01*
X146085776Y-63331808D01*
X145999523Y-63246804D01*
X145916514Y-63166047D01*
X145840222Y-63092983D01*
X145774120Y-63031061D01*
X145721682Y-62983727D01*
X145686383Y-62954429D01*
X145672556Y-62946280D01*
X145651954Y-62955577D01*
X145607033Y-62981972D01*
X145541269Y-63023221D01*
X145458142Y-63077078D01*
X145361130Y-63141297D01*
X145253712Y-63213635D01*
X145174027Y-63268013D01*
X145061659Y-63344635D01*
X144957552Y-63414729D01*
X144865132Y-63476055D01*
X144787828Y-63526375D01*
X144729067Y-63563450D01*
X144692276Y-63585042D01*
X144681385Y-63589746D01*
X144659967Y-63583600D01*
X144612233Y-63566472D01*
X144543158Y-63540333D01*
X144457720Y-63507151D01*
X144360895Y-63468895D01*
X144257658Y-63427533D01*
X144152988Y-63385034D01*
X144051860Y-63343367D01*
X143959251Y-63304502D01*
X143944443Y-63298200D01*
X143921448Y-63288892D01*
X143902561Y-63280454D01*
X143886775Y-63269634D01*
X143873084Y-63253174D01*
X143860483Y-63227821D01*
X143847964Y-63190320D01*
X143834523Y-63137415D01*
X143819152Y-63065852D01*
X143800845Y-62972376D01*
X143778597Y-62853731D01*
X143751402Y-62706664D01*
X143736207Y-62624546D01*
X143712300Y-62496470D01*
X143690074Y-62379150D01*
X143670340Y-62276725D01*
X143653906Y-62193332D01*
X143641583Y-62133108D01*
X143634180Y-62100189D01*
X143632665Y-62095380D01*
X143614483Y-62092378D01*
X143566395Y-62089629D01*
X143492362Y-62087220D01*
X143396346Y-62085236D01*
X143282305Y-62083764D01*
X143154203Y-62082891D01*
X143049688Y-62082679D01*
X142474535Y-62082679D01*
X142460762Y-62120779D01*
X142460762Y-62120779D01*
G37*
X142460762Y-62120779D02*
X142454413Y-62146363D01*
X142442897Y-62200948D01*
X142427059Y-62280206D01*
X142407744Y-62379809D01*
X142385795Y-62495431D01*
X142362058Y-62622742D01*
X142349260Y-62692279D01*
X142317229Y-62863698D01*
X142289869Y-63002673D01*
X142266940Y-63110270D01*
X142248205Y-63187554D01*
X142233426Y-63235591D01*
X142223752Y-63254270D01*
X142200722Y-63268498D01*
X142150933Y-63293133D01*
X142079092Y-63326053D01*
X141989905Y-63365139D01*
X141888077Y-63408271D01*
X141814999Y-63438427D01*
X141692367Y-63488123D01*
X141596953Y-63525735D01*
X141524856Y-63552544D01*
X141472174Y-63569831D01*
X141435009Y-63578875D01*
X141409457Y-63580959D01*
X141391666Y-63577379D01*
X141367645Y-63563926D01*
X141319517Y-63533624D01*
X141250994Y-63488932D01*
X141177038Y-63439783D01*
X140866707Y-63439783D01*
X140866707Y-63877590D01*
X140866554Y-64011129D01*
X140865925Y-64114675D01*
X140864562Y-64192101D01*
X140862206Y-64247279D01*
X140858601Y-64284081D01*
X140853490Y-64306382D01*
X140846613Y-64318052D01*
X140837715Y-64322966D01*
X140837074Y-64323140D01*
X140785204Y-64330531D01*
X140710219Y-64333687D01*
X140622554Y-64332961D01*
X140532650Y-64328705D01*
X140450942Y-64321271D01*
X140387871Y-64311011D01*
X140374480Y-64307535D01*
X140287116Y-64267845D01*
X140207650Y-64206690D01*
X140144542Y-64132205D01*
X140106250Y-64052525D01*
X140105135Y-64048535D01*
X140089780Y-63956224D01*
X140086670Y-63850742D01*
X140095825Y-63750074D01*
X140104731Y-63708191D01*
X140139012Y-63633162D01*
X140196701Y-63559605D01*
X140268502Y-63497794D01*
X140323453Y-63466448D01*
X140391543Y-63445504D01*
X140482444Y-63430439D01*
X140585465Y-63422174D01*
X140689917Y-63421632D01*
X140771247Y-63427856D01*
X140866707Y-63439783D01*
X141177038Y-63439783D01*
X141165793Y-63432310D01*
X141067627Y-63366215D01*
X140960212Y-63293109D01*
X140902489Y-63253521D01*
X140792695Y-63178596D01*
X140690983Y-63110276D01*
X140600905Y-63050864D01*
X140526016Y-63002661D01*
X140469868Y-62967969D01*
X140436013Y-62949089D01*
X140428221Y-62946280D01*
X140410005Y-62957892D01*
X140371761Y-62990428D01*
X140316958Y-63040438D01*
X140249069Y-63104471D01*
X140171562Y-63179076D01*
X140087911Y-63260803D01*
X140001585Y-63346201D01*
X139916056Y-63431820D01*
X139834794Y-63514208D01*
X139761270Y-63589916D01*
X139698956Y-63655492D01*
X139651322Y-63707487D01*
X139621840Y-63742449D01*
X139613640Y-63756091D01*
X139622923Y-63774927D01*
X139649263Y-63818125D01*
X139690397Y-63882232D01*
X139744061Y-63963795D01*
X139807992Y-64059361D01*
X139879925Y-64165477D01*
X139929023Y-64237197D01*
X140005048Y-64348885D01*
X140074480Y-64452919D01*
X140135043Y-64545724D01*
X140184456Y-64623727D01*
X140220442Y-64683353D01*
X140240721Y-64721028D01*
X140244407Y-64731832D01*
X140238013Y-64755250D01*
X140220259Y-64804528D01*
X140193286Y-64874468D01*
X140159236Y-64959871D01*
X140120249Y-65055539D01*
X140078467Y-65156274D01*
X140036030Y-65256876D01*
X139995081Y-65352146D01*
X139957761Y-65436888D01*
X139926210Y-65505900D01*
X139921365Y-65516133D01*
X139912988Y-65533525D01*
X139903874Y-65547986D01*
X139890632Y-65560465D01*
X139869869Y-65571908D01*
X139838194Y-65583263D01*
X139792213Y-65595477D01*
X139728535Y-65609498D01*
X139643767Y-65626273D01*
X139534517Y-65646750D01*
X139397394Y-65671875D01*
X139300373Y-65689568D01*
X139176160Y-65712523D01*
X139061408Y-65734294D01*
X138960761Y-65753955D01*
X138878867Y-65770580D01*
X138820368Y-65783244D01*
X138789911Y-65791021D01*
X138788140Y-65791670D01*
X138750040Y-65807287D01*
X138750040Y-66372843D01*
X138750344Y-66535819D01*
X138751322Y-66667638D01*
X138753071Y-66771006D01*
X138755691Y-66848629D01*
X138759279Y-66903212D01*
X138763933Y-66937461D01*
X138769753Y-66954080D01*
X138771207Y-66955645D01*
X138792558Y-66962863D01*
X138843053Y-66975166D01*
X138918499Y-66991677D01*
X139014704Y-67011520D01*
X139127473Y-67033819D01*
X139252613Y-67057699D01*
X139317307Y-67069735D01*
X139446999Y-67094152D01*
X139566378Y-67117565D01*
X139671248Y-67139078D01*
X139757415Y-67157794D01*
X139820684Y-67172818D01*
X139856860Y-67183253D01*
X139863427Y-67186420D01*
X139874568Y-67206336D01*
X139895975Y-67252750D01*
X139925591Y-67320614D01*
X139961361Y-67404880D01*
X140001226Y-67500501D01*
X140043130Y-67602430D01*
X140085017Y-67705619D01*
X140124830Y-67805020D01*
X140160512Y-67895586D01*
X140190006Y-67972270D01*
X140211256Y-68030023D01*
X140222205Y-68063799D01*
X140223240Y-68069468D01*
X140213990Y-68087595D01*
X140187769Y-68130087D01*
X140146869Y-68193457D01*
X140093583Y-68274214D01*
X140030202Y-68368872D01*
X139959018Y-68473941D01*
X139918440Y-68533343D01*
X139844008Y-68642597D01*
X139776151Y-68743354D01*
X139717162Y-68832116D01*
X139669336Y-68905388D01*
X139634964Y-68959674D01*
X139616341Y-68991477D01*
X139613640Y-68998048D01*
X139625234Y-69014297D01*
X139658156Y-69051410D01*
X139709620Y-69106472D01*
X139776839Y-69176568D01*
X139857027Y-69258784D01*
X139947394Y-69350207D01*
X140018201Y-69421094D01*
X140128370Y-69530656D01*
X140217293Y-69618325D01*
X140287505Y-69686323D01*
X140341539Y-69736872D01*
X140381927Y-69772195D01*
X140411204Y-69794513D01*
X140431903Y-69806050D01*
X140446556Y-69809026D01*
X140457020Y-69806038D01*
X140479406Y-69791993D01*
X140525817Y-69761317D01*
X140592402Y-69716613D01*
X140675309Y-69660479D01*
X140770688Y-69595517D01*
X140874685Y-69524327D01*
X140898284Y-69508125D01*
X141003564Y-69436657D01*
X141101280Y-69371935D01*
X141187577Y-69316388D01*
X141258600Y-69272442D01*
X141310494Y-69242524D01*
X141339404Y-69229060D01*
X141342407Y-69228546D01*
X141370766Y-69236188D01*
X141421984Y-69257091D01*
X141489233Y-69288225D01*
X141565684Y-69326556D01*
X141579873Y-69333975D01*
X141668674Y-69378908D01*
X141736007Y-69409148D01*
X141779266Y-69423618D01*
X141795025Y-69422875D01*
X141805845Y-69402487D01*
X141827681Y-69354399D01*
X141859173Y-69281946D01*
X141898960Y-69188462D01*
X141945682Y-69077282D01*
X141983696Y-68986027D01*
X140905626Y-68986027D01*
X140892085Y-69095637D01*
X140860102Y-69196441D01*
X140810576Y-69281544D01*
X140744409Y-69344054D01*
X140738601Y-69347763D01*
X140617749Y-69404061D01*
X140488770Y-69428123D01*
X140350219Y-69420133D01*
X140281831Y-69405473D01*
X140226464Y-69389620D01*
X140184809Y-69375036D01*
X140168113Y-69366432D01*
X140165518Y-69344289D01*
X140173613Y-69304295D01*
X140188393Y-69258338D01*
X140205855Y-69218308D01*
X140221997Y-69196093D01*
X140225945Y-69194679D01*
X140253076Y-69202041D01*
X140275205Y-69212236D01*
X140321860Y-69225622D01*
X140388337Y-69231295D01*
X140461545Y-69229514D01*
X140528390Y-69220541D01*
X140572694Y-69206325D01*
X140628208Y-69159020D01*
X140665089Y-69085917D01*
X140681826Y-68990435D01*
X140682691Y-68957289D01*
X140669928Y-68852394D01*
X140633814Y-68771323D01*
X140575940Y-68715408D01*
X140497896Y-68685981D01*
X140401274Y-68684372D01*
X140363917Y-68690512D01*
X140294764Y-68703951D01*
X140250946Y-68707933D01*
X140224683Y-68700093D01*
X140208194Y-68678061D01*
X140193699Y-68639471D01*
X140193416Y-68638631D01*
X140181082Y-68590105D01*
X140180274Y-68556830D01*
X140183386Y-68550427D01*
X140216096Y-68532585D01*
X140272216Y-68515442D01*
X140341316Y-68500987D01*
X140412964Y-68491209D01*
X140476729Y-68488099D01*
X140502089Y-68489630D01*
X140610050Y-68515568D01*
X140709764Y-68564244D01*
X140791711Y-68630270D01*
X140826607Y-68673280D01*
X140873787Y-68767955D01*
X140899827Y-68874501D01*
X140905626Y-68986027D01*
X141983696Y-68986027D01*
X141997979Y-68951742D01*
X142054490Y-68815175D01*
X142113855Y-68670917D01*
X142174714Y-68522302D01*
X142235706Y-68372666D01*
X142295472Y-68225343D01*
X142352650Y-68083668D01*
X142405881Y-67950975D01*
X142453804Y-67830601D01*
X142495059Y-67725878D01*
X142528286Y-67640143D01*
X142552125Y-67576730D01*
X142565214Y-67538974D01*
X142567281Y-67529658D01*
X142548042Y-67507332D01*
X142511532Y-67480533D01*
X142504476Y-67476286D01*
X142346756Y-67368262D01*
X142203011Y-67237964D01*
X142078255Y-67091258D01*
X141977501Y-66934013D01*
X141907735Y-66777799D01*
X141872065Y-66639935D01*
X141852755Y-66484483D01*
X141850296Y-66323772D01*
X141865178Y-66170133D01*
X141880566Y-66094578D01*
X141929075Y-65946175D01*
X139681373Y-65946175D01*
X139681373Y-66822478D01*
X139626340Y-66831649D01*
X139486380Y-66846492D01*
X139344508Y-66846405D01*
X139214387Y-66831675D01*
X139169910Y-66822057D01*
X139082481Y-66784757D01*
X139019244Y-66724803D01*
X138982149Y-66645075D01*
X138973141Y-66548455D01*
X138974329Y-66532722D01*
X138984388Y-66472297D01*
X139004834Y-66430342D01*
X139036143Y-66397323D01*
X139089530Y-66349621D01*
X139051062Y-66297591D01*
X139022322Y-66233392D01*
X139015393Y-66157533D01*
X139030308Y-66084283D01*
X139050517Y-66046469D01*
X139109282Y-65993497D01*
X139195693Y-65955334D01*
X139306621Y-65932655D01*
X139438935Y-65926138D01*
X139569823Y-65934229D01*
X139681373Y-65946175D01*
X141929075Y-65946175D01*
X141939666Y-65913776D01*
X142023160Y-65752720D01*
X142134997Y-65604159D01*
X142166413Y-65569644D01*
X142318463Y-65429320D01*
X142481059Y-65320989D01*
X142655618Y-65244031D01*
X142843556Y-65197825D01*
X143046289Y-65181753D01*
X143052631Y-65181730D01*
X143253784Y-65197680D01*
X143444800Y-65245797D01*
X143624284Y-65325529D01*
X143790844Y-65436324D01*
X143871937Y-65506080D01*
X144010179Y-65656255D01*
X144117255Y-65819619D01*
X144193328Y-65996548D01*
X144238560Y-66187417D01*
X144253123Y-66385271D01*
X144237352Y-66586237D01*
X144189704Y-66776308D01*
X144110628Y-66954681D01*
X144000577Y-67120554D01*
X143859999Y-67273124D01*
X143689345Y-67411589D01*
X143669110Y-67425682D01*
X143602018Y-67473077D01*
X143559570Y-67507116D01*
X143537467Y-67532033D01*
X143531411Y-67552061D01*
X143532629Y-67560072D01*
X143542589Y-67588661D01*
X143563931Y-67643785D01*
X143595260Y-67722121D01*
X143635181Y-67820349D01*
X143682300Y-67935148D01*
X143735220Y-68063198D01*
X143792548Y-68201177D01*
X143852887Y-68345766D01*
X143914843Y-68493642D01*
X143977021Y-68641487D01*
X144038025Y-68785977D01*
X144096461Y-68923794D01*
X144150934Y-69051615D01*
X144200049Y-69166122D01*
X144242410Y-69263991D01*
X144276622Y-69341904D01*
X144301291Y-69396538D01*
X144315021Y-69424574D01*
X144317184Y-69427616D01*
X144337958Y-69422213D01*
X144382123Y-69403254D01*
X144443460Y-69373624D01*
X144515752Y-69336208D01*
X144525482Y-69331002D01*
X144601235Y-69291942D01*
X144669438Y-69259742D01*
X144722961Y-69237572D01*
X144754676Y-69228599D01*
X144756056Y-69228546D01*
X144781558Y-69238161D01*
X144831682Y-69265821D01*
X144903593Y-69309752D01*
X144994453Y-69368176D01*
X145101425Y-69439319D01*
X145198932Y-69505735D01*
X145304050Y-69577824D01*
X145401651Y-69644379D01*
X145487810Y-69702753D01*
X145558601Y-69750299D01*
X145610098Y-69784370D01*
X145638377Y-69802319D01*
X145640727Y-69803648D01*
X145652331Y-69808112D01*
X145665727Y-69807617D01*
X145683518Y-69799914D01*
X145708307Y-69782759D01*
X145742698Y-69753903D01*
X145789295Y-69711101D01*
X145850701Y-69652105D01*
X145929518Y-69574669D01*
X146028352Y-69476546D01*
X146084012Y-69421094D01*
X146180044Y-69324823D01*
X146267931Y-69235669D01*
X146344888Y-69156540D01*
X146408128Y-69090343D01*
X146454866Y-69039988D01*
X146482316Y-69008382D01*
X146488573Y-68998817D01*
X146479299Y-68980589D01*
X146453049Y-68938143D01*
X146412187Y-68875064D01*
X146359074Y-68794936D01*
X146315784Y-68730626D01*
X145957655Y-68730626D01*
X145951285Y-68813194D01*
X145949404Y-68819820D01*
X145921672Y-68882480D01*
X145876498Y-68934649D01*
X145808466Y-68981048D01*
X145712625Y-69026205D01*
X145636839Y-69058398D01*
X145587207Y-69082817D01*
X145558249Y-69103790D01*
X145544487Y-69125643D01*
X145540444Y-69152702D01*
X145540307Y-69162290D01*
X145554707Y-69207017D01*
X145595567Y-69235250D01*
X145659374Y-69246264D01*
X145742616Y-69239335D01*
X145821249Y-69220263D01*
X145870588Y-69205836D01*
X145905517Y-69196622D01*
X145914873Y-69194863D01*
X145927205Y-69209487D01*
X145940156Y-69245621D01*
X145950967Y-69291081D01*
X145956874Y-69333678D01*
X145955117Y-69361226D01*
X145953252Y-69364241D01*
X145923632Y-69380199D01*
X145870877Y-69397317D01*
X145805519Y-69413084D01*
X145738091Y-69424992D01*
X145679125Y-69430532D01*
X145674614Y-69430632D01*
X145610098Y-69426053D01*
X145538007Y-69413206D01*
X145511107Y-69406163D01*
X145421029Y-69364026D01*
X145372567Y-69320908D01*
X145343298Y-69283787D01*
X145327509Y-69248856D01*
X145321163Y-69203131D01*
X145320174Y-69152346D01*
X145322010Y-69089369D01*
X145330182Y-69047235D01*
X145348683Y-69013002D01*
X145371989Y-68984443D01*
X145432872Y-68933770D01*
X145525810Y-68884417D01*
X145560609Y-68869554D01*
X145636977Y-68834627D01*
X145693752Y-68801028D01*
X145723841Y-68773393D01*
X145740154Y-68742885D01*
X145733855Y-68721867D01*
X145711145Y-68701426D01*
X145654673Y-68676149D01*
X145579333Y-68672777D01*
X145492245Y-68691507D01*
X145481688Y-68695127D01*
X145440136Y-68709063D01*
X145415575Y-68715643D01*
X145412921Y-68715550D01*
X145406493Y-68699164D01*
X145392023Y-68661364D01*
X145382336Y-68635879D01*
X145365896Y-68589050D01*
X145362500Y-68562849D01*
X145372001Y-68546715D01*
X145381001Y-68539516D01*
X145418701Y-68522102D01*
X145477699Y-68505209D01*
X145545507Y-68491642D01*
X145609632Y-68484208D01*
X145630040Y-68483574D01*
X145729818Y-68496482D01*
X145816571Y-68531960D01*
X145886196Y-68585689D01*
X145934591Y-68653351D01*
X145957655Y-68730626D01*
X146315784Y-68730626D01*
X146296072Y-68701344D01*
X146225542Y-68597875D01*
X146198203Y-68558082D01*
X146124522Y-68450475D01*
X146056620Y-68350173D01*
X145997039Y-68261025D01*
X145948326Y-68186877D01*
X145913024Y-68131580D01*
X145893678Y-68098980D01*
X145891241Y-68093888D01*
X145887864Y-68076727D01*
X145889906Y-68051860D01*
X145898589Y-68015618D01*
X145915137Y-67964334D01*
X145940774Y-67894343D01*
X145976724Y-67801977D01*
X146024210Y-67683569D01*
X146046593Y-67628378D01*
X146092940Y-67515476D01*
X146136097Y-67412485D01*
X146174186Y-67323715D01*
X146205331Y-67253478D01*
X146227654Y-67206085D01*
X146239254Y-67185870D01*
X146260494Y-67178103D01*
X146310885Y-67165290D01*
X146386239Y-67148326D01*
X146482367Y-67128105D01*
X146595079Y-67105522D01*
X146720185Y-67081470D01*
X146784907Y-67069389D01*
X146914581Y-67045019D01*
X147033944Y-67021818D01*
X147138803Y-67000661D01*
X147224964Y-66982423D01*
X147288236Y-66967980D01*
X147324425Y-66958207D01*
X147331007Y-66955383D01*
X147337158Y-66942306D01*
X147342088Y-66912156D01*
X147345896Y-66862198D01*
X147348682Y-66789695D01*
X147350548Y-66691910D01*
X147351594Y-66566105D01*
X147351920Y-66409546D01*
X147351914Y-66385906D01*
X147351423Y-66251710D01*
X147350151Y-66127891D01*
X147348204Y-66018640D01*
X147346191Y-65946175D01*
X147148973Y-65946175D01*
X147148973Y-66382272D01*
X147148552Y-66500543D01*
X147147366Y-66607503D01*
X147145531Y-66698531D01*
X147143164Y-66769004D01*
X147140382Y-66814298D01*
X147137685Y-66829657D01*
X147115846Y-66835753D01*
X147071016Y-66839852D01*
X147027618Y-66840946D01*
X146928840Y-66840946D01*
X146928840Y-66540600D01*
X146802408Y-66532486D01*
X146682919Y-66514600D01*
X146586577Y-66478518D01*
X146516170Y-66425550D01*
X146486338Y-66384010D01*
X146461859Y-66310086D01*
X146454862Y-66222420D01*
X146465346Y-66136276D01*
X146486338Y-66078682D01*
X146538122Y-66017162D01*
X146617799Y-65970869D01*
X146722665Y-65940514D01*
X146850018Y-65926804D01*
X146997153Y-65930447D01*
X147037423Y-65934229D01*
X147148973Y-65946175D01*
X147346191Y-65946175D01*
X147345690Y-65928145D01*
X147342715Y-65860598D01*
X147339386Y-65820186D01*
X147337240Y-65810669D01*
X147316264Y-65800855D01*
X147263726Y-65786109D01*
X147181505Y-65766847D01*
X147071481Y-65743489D01*
X146935532Y-65716452D01*
X146786638Y-65688216D01*
X146655136Y-65663450D01*
X146533519Y-65639951D01*
X146426009Y-65618581D01*
X146336828Y-65600201D01*
X146270197Y-65585674D01*
X146230338Y-65575863D01*
X146221346Y-65572782D01*
X146205624Y-65552490D01*
X146180016Y-65505882D01*
X146146683Y-65438059D01*
X146107792Y-65354124D01*
X146065504Y-65259180D01*
X146021985Y-65158329D01*
X145979397Y-65056673D01*
X145939906Y-64959314D01*
X145905675Y-64871356D01*
X145878868Y-64797899D01*
X145861649Y-64744048D01*
X145856181Y-64714903D01*
X145856594Y-64712724D01*
X145868658Y-64691659D01*
X145897590Y-64646306D01*
X145941009Y-64580240D01*
X145996534Y-64497038D01*
X146061785Y-64400277D01*
X146106307Y-64334813D01*
X145912840Y-64334813D01*
X145709640Y-64334813D01*
X145709640Y-63962280D01*
X145354040Y-63962280D01*
X145354040Y-63776013D01*
X145709640Y-63776013D01*
X145709640Y-63606679D01*
X145301470Y-63606679D01*
X145306589Y-63517779D01*
X145311707Y-63428880D01*
X145612273Y-63424255D01*
X145912840Y-63419631D01*
X145912840Y-64334813D01*
X146106307Y-64334813D01*
X146134382Y-64293533D01*
X146178235Y-64229450D01*
X146253403Y-64119228D01*
X146322009Y-64017433D01*
X146381777Y-63927538D01*
X146430429Y-63853013D01*
X146465690Y-63797331D01*
X146485284Y-63763963D01*
X146488573Y-63756143D01*
X146476879Y-63737944D01*
X146444113Y-63699860D01*
X146393748Y-63645337D01*
X146329259Y-63577822D01*
X146254118Y-63500765D01*
X146171799Y-63417611D01*
X146085776Y-63331808D01*
X145999523Y-63246804D01*
X145916514Y-63166047D01*
X145840222Y-63092983D01*
X145774120Y-63031061D01*
X145721682Y-62983727D01*
X145686383Y-62954429D01*
X145672556Y-62946280D01*
X145651954Y-62955577D01*
X145607033Y-62981972D01*
X145541269Y-63023221D01*
X145458142Y-63077078D01*
X145361130Y-63141297D01*
X145253712Y-63213635D01*
X145174027Y-63268013D01*
X145061659Y-63344635D01*
X144957552Y-63414729D01*
X144865132Y-63476055D01*
X144787828Y-63526375D01*
X144729067Y-63563450D01*
X144692276Y-63585042D01*
X144681385Y-63589746D01*
X144659967Y-63583600D01*
X144612233Y-63566472D01*
X144543158Y-63540333D01*
X144457720Y-63507151D01*
X144360895Y-63468895D01*
X144257658Y-63427533D01*
X144152988Y-63385034D01*
X144051860Y-63343367D01*
X143959251Y-63304502D01*
X143944443Y-63298200D01*
X143921448Y-63288892D01*
X143902561Y-63280454D01*
X143886775Y-63269634D01*
X143873084Y-63253174D01*
X143860483Y-63227821D01*
X143847964Y-63190320D01*
X143834523Y-63137415D01*
X143819152Y-63065852D01*
X143800845Y-62972376D01*
X143778597Y-62853731D01*
X143751402Y-62706664D01*
X143736207Y-62624546D01*
X143712300Y-62496470D01*
X143690074Y-62379150D01*
X143670340Y-62276725D01*
X143653906Y-62193332D01*
X143641583Y-62133108D01*
X143634180Y-62100189D01*
X143632665Y-62095380D01*
X143614483Y-62092378D01*
X143566395Y-62089629D01*
X143492362Y-62087220D01*
X143396346Y-62085236D01*
X143282305Y-62083764D01*
X143154203Y-62082891D01*
X143049688Y-62082679D01*
X142474535Y-62082679D01*
X142460762Y-62120779D01*
G04 #@! TD*
M02*
