M48
;DRILL file {KiCad (5.0.1)-rc2} date 2018/11/05 2:03:44
;FORMAT={-:-/ absolute / inch / decimal}
FMAT,2
INCH,TZ
T1C0.0118
T2C0.0197
T3C0.0295
T4C0.0315
T5C0.0350
T6C0.0394
T7C0.0398
T8C0.0402
T9C0.0433
T10C0.0472
T11C0.0512
T12C0.0618
T13C0.0642
T14C0.1280
%
G90
G05
M72
T1
X4.065Y-5.42
X4.065Y-5.55
X4.095Y-4.59
X4.095Y-4.76
X4.135Y-3.9
X4.295Y-3.9
X4.305Y-3.02
X4.37Y-3.3
X4.495Y-4.53
X4.505Y-4.79
X4.535Y-5.68
X4.555Y-5.22
X4.565Y-5.41
X4.575Y-3.77
X4.575Y-3.86
X4.575Y-3.96
X4.665Y-3.96
X4.665Y-4.07
X4.67Y-3.13
X4.67Y-3.18
X4.695Y-3.69
X4.705Y-4.27
X4.765Y-5.28
X4.77Y-3.69
X4.795Y-3.89
X4.83Y-4.6825
X4.845Y-3.58
X4.845Y-4.
X4.91Y-4.
X4.925Y-4.87
X4.925Y-5.08
X4.945Y-4.27
X4.965Y-3.79
X4.97Y-3.6993
X4.97Y-3.7407
X4.97Y-3.8393
X4.97Y-3.8807
X4.985Y-3.57
X5.005Y-3.79
X5.02Y-5.29
X5.02Y-4.045
X5.03Y-3.985
X5.0304Y-2.9054
X5.045Y-3.5
X5.045Y-3.1675
X5.055Y-3.88
X5.055Y-5.81
X5.0849Y-3.6651
X5.1072Y-3.635
X5.11Y-3.165
X5.11Y-3.4775
X5.11Y-3.755
X5.11Y-3.79
X5.11Y-3.825
X5.1382Y-3.6057
X5.145Y-3.5576
X5.145Y-3.755
X5.145Y-3.79
X5.145Y-3.825
X5.145Y-5.53
X5.1746Y-3.4499
X5.175Y-3.165
X5.18Y-3.755
X5.18Y-3.79
X5.18Y-3.825
X5.185Y-4.36
X5.185Y-5.13
X5.195Y-4.56
X5.2025Y-3.6225
X5.225Y-4.89
X5.23Y-3.54
X5.246Y-4.038
X5.2497Y-3.8923
X5.25Y-3.6225
X5.2975Y-3.6225
X5.31Y-3.57
X5.365Y-4.145
X5.365Y-4.27
X5.366Y-3.7423
X5.405Y-5.32
X5.4375Y-3.8
X5.45Y-4.95
X5.455Y-5.51
X5.4635Y-4.8741
X5.4975Y-4.5725
X5.4975Y-5.175
X5.5125Y-4.7025
X5.515Y-4.36
X5.5425Y-5.22
X5.575Y-4.4225
X5.59Y-4.11
X5.595Y-5.8
X5.6325Y-4.475
X5.6325Y-4.5375
X5.6325Y-4.815
X5.6325Y-4.8475
X5.6725Y-4.735
X5.715Y-5.35
X5.755Y-4.82
X5.7625Y-4.525
X5.787Y-4.272
X5.8025Y-5.095
X5.8175Y-5.25
X5.825Y-4.455
X5.825Y-4.75
X5.8332Y-5.1268
X5.8625Y-4.925
X5.8675Y-5.1625
X5.9551Y-4.455
X5.9625Y-4.95
X5.99Y-4.045
X6.0125Y-4.765
X6.0125Y-5.4625
X6.013Y-5.3832
X6.02Y-4.0175
X6.06Y-5.4275
X6.0825Y-4.9475
X6.115Y-4.265
X6.115Y-5.1375
X6.1152Y-4.3048
X6.127Y-4.198
X6.1328Y-4.6375
X6.135Y-4.595
X6.135Y-4.5475
X6.1355Y-4.5077
X6.205Y-4.08
X6.2148Y-4.2327
X6.2148Y-4.3224
X6.215Y-4.275
X6.24Y-4.43
X6.3275Y-4.8525
X6.3275Y-5.0075
X6.3325Y-4.5875
X6.3675Y-4.8525
X6.3675Y-5.0075
X6.4Y-4.365
X6.4075Y-5.0075
X6.4075Y-4.8525
X6.445Y-4.07
X6.475Y-4.365
X6.511Y-4.6336
X6.525Y-5.17
X6.525Y-5.4
X6.535Y-5.82
X6.55Y-4.365
X6.557Y-4.154
X6.625Y-4.365
X6.695Y-5.17
X6.7Y-4.365
X6.775Y-4.365
X6.815Y-4.6336
X6.835Y-5.
X6.85Y-4.365
X6.87Y-5.675
X6.925Y-4.365
X6.95Y-5.675
X7.025Y-5.
X7.025Y-5.18
X7.365Y-4.32
X7.375Y-5.04
X7.385Y-4.66
X7.385Y-5.79
X7.395Y-5.46
T2
X4.145Y-2.73
X4.145Y-2.77
X4.2Y-2.795
X4.59Y-3.18
X4.61Y-2.73
X4.61Y-2.775
X4.665Y-2.795
X4.875Y-4.73
X4.95Y-2.92
X5.085Y-2.73
X5.085Y-2.775
X5.14Y-2.795
X5.1575Y-4.7475
X5.375Y-4.9872
X5.375Y-4.9192
X5.4807Y-4.3907
X5.6002Y-4.3198
X5.645Y-4.17
X5.6775Y-3.58
X5.6775Y-3.62
X5.6775Y-3.66
X5.6775Y-3.7
X5.6775Y-3.74
X5.71Y-4.13
X5.731Y-4.272
X5.755Y-4.62
X5.755Y-4.68
X5.808Y-3.699
X5.815Y-4.62
X5.815Y-4.68
X5.84Y-4.1
X5.848Y-3.699
X5.888Y-3.699
X5.955Y-4.1
X6.05Y-3.47
X6.05Y-3.51
X6.05Y-3.55
X6.055Y-4.125
X6.055Y-4.28
X6.06Y-4.23
X6.08Y-5.22
X6.11Y-3.42
X6.11Y-3.63
X6.15Y-3.42
X6.15Y-3.63
X6.15Y-5.22
X6.19Y-3.42
X6.19Y-3.63
X6.23Y-3.42
X6.23Y-3.63
X6.2303Y-5.22
X6.29Y-3.47
X6.29Y-3.51
X6.29Y-3.55
X6.4404Y-3.7086
X6.4804Y-3.7086
X6.5204Y-3.7086
X6.7Y-3.74
X6.7Y-3.78
X6.7Y-3.82
X6.7Y-3.86
X6.825Y-3.725
X6.825Y-3.765
X6.825Y-3.805
X6.825Y-3.845
X6.825Y-3.885
X6.865Y-3.725
X6.97Y-3.72
X6.97Y-4.04
X7.01Y-3.72
X7.01Y-4.04
X7.05Y-3.72
X7.05Y-3.76
X7.05Y-3.8
X7.05Y-3.84
X7.05Y-3.88
X7.05Y-3.92
X7.05Y-3.96
X7.05Y-4.
X7.05Y-4.04
T3
X5.5906Y-5.6299
X5.6693Y-5.6299
X5.748Y-5.6299
X5.8268Y-5.6299
X6.063Y-5.6299
X6.1417Y-5.6299
X6.2205Y-5.6299
X6.2992Y-5.6299
X6.378Y-5.6299
X6.4567Y-5.6299
X6.5354Y-5.6299
X6.6142Y-5.6299
X6.6929Y-5.6299
X6.7717Y-5.6299
X7.205Y-5.3326
X7.205Y-5.4113
X7.205Y-5.49
X7.205Y-5.5688
X7.205Y-5.6475
X7.205Y-5.7263
X7.205Y-5.805
X7.2047Y-4.7138
X7.2047Y-4.7925
X7.2047Y-4.8713
X7.2047Y-4.95
X7.2047Y-5.0287
X7.2047Y-5.1075
X4.875Y-5.63
X4.9537Y-5.63
X5.0325Y-5.63
X5.1112Y-5.63
X5.19Y-5.63
X5.2687Y-5.63
X5.3474Y-5.63
X7.2047Y-4.2413
X7.2047Y-4.3201
X7.2047Y-4.3988
X7.2047Y-4.4776
T4
X6.2446Y-2.6162
X6.2446Y-3.2162
X6.3446Y-2.6162
X6.3446Y-3.2162
X6.4446Y-2.6162
X7.2343Y-2.6162
X7.2343Y-3.2162
X7.3343Y-2.6162
X7.3343Y-3.2162
X5.4002Y-2.1472
X5.4002Y-2.2472
X5.4002Y-3.0369
X5.4002Y-3.1369
X5.4002Y-3.2369
X6.0002Y-2.1472
X6.0002Y-2.2472
X6.0002Y-3.1369
X6.0002Y-3.2369
X4.67Y-5.6213
X4.67Y-5.7
X4.77Y-4.8419
X4.77Y-4.9419
X4.77Y-5.0419
X4.77Y-5.1419
X5.07Y-4.8419
X5.07Y-4.9419
X5.07Y-5.0419
X5.07Y-5.1419
T5
X4.2805Y-5.3486
X4.2805Y-5.4289
X4.2805Y-5.5092
X4.2805Y-5.5895
X4.3506Y-5.3084
X4.3506Y-5.3887
X4.3506Y-5.469
X4.3506Y-5.5493
X4.6269Y-3.7097
X4.6269Y-3.8097
X4.6269Y-3.9097
X4.6269Y-4.0097
X4.7269Y-3.7597
X4.7269Y-3.8597
X4.7269Y-3.9597
X4.7269Y-4.0597
X4.28Y-4.5591
X4.28Y-4.6394
X4.28Y-4.7197
X4.28Y-4.8
X4.3501Y-4.5189
X4.3501Y-4.5992
X4.3501Y-4.6795
X4.3501Y-4.7598
T7
X7.0396Y-3.4214
X7.2404Y-3.4686
T8
X4.184Y-3.6239
X4.184Y-3.7239
X4.184Y-4.0455
X4.184Y-4.1455
T9
X6.84Y-3.635
X6.99Y-3.635
X4.97Y-2.61
X5.07Y-2.61
X5.17Y-2.61
X4.04Y-2.61
X4.14Y-2.61
X4.24Y-2.61
X4.9978Y-4.4019
X4.9978Y-4.5019
X4.9978Y-4.6019
X4.5Y-2.61
X4.6Y-2.61
X4.7Y-2.61
T10
X6.4Y-3.62
X6.5Y-3.62
X6.6Y-3.62
X5.75Y-3.62
X5.85Y-3.62
X5.95Y-3.62
T11
X4.4994Y-2.17
X4.6963Y-2.17
X4.8931Y-2.17
X5.09Y-2.17
X7.275Y-3.7631
X7.275Y-3.96
T12
X4.3155Y-5.1293
X4.3155Y-5.7694
X4.315Y-4.3398
X4.315Y-4.9799
T13
X4.497Y-3.5798
X4.497Y-4.1896
T14
X4.3769Y-3.6597
X4.3769Y-4.1097
T6
X7.0028Y-2.1739G85X7.0028Y-2.1149
G05
X7.2056Y-2.1838G85X7.1544Y-2.1838
G05
X7.2194Y-2.42G85X7.1406Y-2.42
G05
X7.3572Y-2.1739G85X7.3572Y-2.1149
G05
X6.1928Y-2.1739G85X6.1928Y-2.1149
G05
X6.3956Y-2.1838G85X6.3444Y-2.1838
G05
X6.4094Y-2.42G85X6.3306Y-2.42
G05
X6.5472Y-2.1739G85X6.5472Y-2.1149
G05
T0
M30
