solid
 facet normal  0.000000e+00  1.000000e+00 -0.000000e+00
   outer loop
     vertex  1.850000e+00  1.750000e+00  2.100000e+00
     vertex -1.850000e+00  1.750000e+00  1.000000e-01
     vertex -1.850000e+00  1.750000e+00  2.100000e+00
   endloop
 endfacet
 facet normal  0.000000e+00  1.000000e+00 -0.000000e+00
   outer loop
     vertex  1.850000e+00  1.750000e+00  1.000000e-01
     vertex -1.850000e+00  1.750000e+00  1.000000e-01
     vertex  1.850000e+00  1.750000e+00  2.100000e+00
   endloop
 endfacet
 facet normal  1.000000e+00 -0.000000e+00  0.000000e+00
   outer loop
     vertex  1.850000e+00 -1.750000e+00  2.100000e+00
     vertex  1.850000e+00  1.750000e+00  1.000000e-01
     vertex  1.850000e+00  1.750000e+00  2.100000e+00
   endloop
 endfacet
 facet normal  1.000000e+00  0.000000e+00 -0.000000e+00
   outer loop
     vertex  1.850000e+00 -1.750000e+00  1.000000e-01
     vertex  1.850000e+00  1.750000e+00  1.000000e-01
     vertex  1.850000e+00 -1.750000e+00  2.100000e+00
   endloop
 endfacet
 facet normal  0.000000e+00 -1.000000e+00  0.000000e+00
   outer loop
     vertex -1.850000e+00 -1.750000e+00  2.100000e+00
     vertex  1.850000e+00 -1.750000e+00  1.000000e-01
     vertex  1.850000e+00 -1.750000e+00  2.100000e+00
   endloop
 endfacet
 facet normal  0.000000e+00 -1.000000e+00  0.000000e+00
   outer loop
     vertex -1.850000e+00 -1.750000e+00  1.000000e-01
     vertex  1.850000e+00 -1.750000e+00  1.000000e-01
     vertex -1.850000e+00 -1.750000e+00  2.100000e+00
   endloop
 endfacet
 facet normal -1.000000e+00 -0.000000e+00  0.000000e+00
   outer loop
     vertex -1.850000e+00  1.750000e+00  2.100000e+00
     vertex -1.850000e+00 -1.750000e+00  1.000000e-01
     vertex -1.850000e+00 -1.750000e+00  2.100000e+00
   endloop
 endfacet
 facet normal -1.000000e+00  0.000000e+00  0.000000e+00
   outer loop
     vertex -1.850000e+00  1.750000e+00  1.000000e-01
     vertex -1.850000e+00 -1.750000e+00  1.000000e-01
     vertex -1.850000e+00  1.750000e+00  2.100000e+00
   endloop
 endfacet
 facet normal  0.000000e+00  0.000000e+00 -1.000000e+00
   outer loop
     vertex  1.850000e+00 -1.750000e+00  1.000000e-01
     vertex -1.850000e+00 -1.750000e+00  1.000000e-01
     vertex  1.850000e+00  1.750000e+00  1.000000e-01
   endloop
 endfacet
 facet normal  0.000000e+00  0.000000e+00 -1.000000e+00
   outer loop
     vertex -1.850000e+00 -1.750000e+00  1.000000e-01
     vertex -1.850000e+00  1.750000e+00  1.000000e-01
     vertex  1.850000e+00  1.750000e+00  1.000000e-01
   endloop
 endfacet
 facet normal -0.000000e+00  0.000000e+00  1.000000e+00
   outer loop
     vertex  1.850000e+00  1.750000e+00  2.100000e+00
     vertex -1.850000e+00 -1.750000e+00  2.100000e+00
     vertex  1.850000e+00 -1.750000e+00  2.100000e+00
   endloop
 endfacet
 facet normal  0.000000e+00  0.000000e+00  1.000000e+00
   outer loop
     vertex  1.850000e+00  1.750000e+00  2.100000e+00
     vertex -1.850000e+00  1.750000e+00  2.100000e+00
     vertex -1.850000e+00 -1.750000e+00  2.100000e+00
   endloop
 endfacet
 facet normal -1.000000e+00 -0.000000e+00 -0.000000e+00
   outer loop
     vertex -1.780000e+00  1.330000e+00  1.000000e-01
     vertex -1.780000e+00  1.330000e+00  0.000000e+00
     vertex -1.780000e+00  7.700000e-01  1.000000e-01
   endloop
 endfacet
 facet normal -1.000000e+00  0.000000e+00  0.000000e+00
   outer loop
     vertex -1.780000e+00  1.330000e+00  0.000000e+00
     vertex -1.780000e+00  7.700000e-01  0.000000e+00
     vertex -1.780000e+00  7.700000e-01  1.000000e-01
   endloop
 endfacet
 facet normal  1.000000e+00 -0.000000e+00  0.000000e+00
   outer loop
     vertex -7.700000e-01  7.700000e-01  1.000000e-01
     vertex -7.700000e-01  1.330000e+00  0.000000e+00
     vertex -7.700000e-01  1.330000e+00  1.000000e-01
   endloop
 endfacet
 facet normal  1.000000e+00 -0.000000e+00  0.000000e+00
   outer loop
     vertex -7.700000e-01  7.700000e-01  1.000000e-01
     vertex -7.700000e-01  7.700000e-01  0.000000e+00
     vertex -7.700000e-01  1.330000e+00  0.000000e+00
   endloop
 endfacet
 facet normal  0.000000e+00 -1.000000e+00  0.000000e+00
   outer loop
     vertex -1.780000e+00  7.700000e-01  0.000000e+00
     vertex -7.700000e-01  7.700000e-01  0.000000e+00
     vertex -7.700000e-01  7.700000e-01  1.000000e-01
   endloop
 endfacet
 facet normal  0.000000e+00 -1.000000e+00  0.000000e+00
   outer loop
     vertex -1.780000e+00  7.700000e-01  1.000000e-01
     vertex -1.780000e+00  7.700000e-01  0.000000e+00
     vertex -7.700000e-01  7.700000e-01  1.000000e-01
   endloop
 endfacet
 facet normal  0.000000e+00  1.000000e+00  0.000000e+00
   outer loop
     vertex -7.700000e-01  1.330000e+00  1.000000e-01
     vertex -7.700000e-01  1.330000e+00  0.000000e+00
     vertex -1.780000e+00  1.330000e+00  0.000000e+00
   endloop
 endfacet
 facet normal  0.000000e+00  1.000000e+00 -0.000000e+00
   outer loop
     vertex -7.700000e-01  1.330000e+00  1.000000e-01
     vertex -1.780000e+00  1.330000e+00  0.000000e+00
     vertex -1.780000e+00  1.330000e+00  1.000000e-01
   endloop
 endfacet
 facet normal  0.000000e+00  0.000000e+00 -1.000000e+00
   outer loop
     vertex -1.780000e+00  7.700000e-01  0.000000e+00
     vertex -1.780000e+00  1.330000e+00  0.000000e+00
     vertex -7.700000e-01  7.700000e-01  0.000000e+00
   endloop
 endfacet
 facet normal  0.000000e+00  0.000000e+00 -1.000000e+00
   outer loop
     vertex -7.700000e-01  7.700000e-01  0.000000e+00
     vertex -1.780000e+00  1.330000e+00  0.000000e+00
     vertex -7.700000e-01  1.330000e+00  0.000000e+00
   endloop
 endfacet
 facet normal  0.000000e+00  0.000000e+00  1.000000e+00
   outer loop
     vertex -7.700000e-01  7.700000e-01  1.000000e-01
     vertex -1.780000e+00  1.330000e+00  1.000000e-01
     vertex -1.780000e+00  7.700000e-01  1.000000e-01
   endloop
 endfacet
 facet normal  0.000000e+00  0.000000e+00  1.000000e+00
   outer loop
     vertex -7.700000e-01  1.330000e+00  1.000000e-01
     vertex -1.780000e+00  1.330000e+00  1.000000e-01
     vertex -7.700000e-01  7.700000e-01  1.000000e-01
   endloop
 endfacet
 facet normal -1.000000e+00 -0.000000e+00 -0.000000e+00
   outer loop
     vertex  7.700000e-01  1.330000e+00  1.000000e-01
     vertex  7.700000e-01  1.330000e+00  0.000000e+00
     vertex  7.700000e-01  7.700000e-01  1.000000e-01
   endloop
 endfacet
 facet normal -1.000000e+00  0.000000e+00  0.000000e+00
   outer loop
     vertex  7.700000e-01  1.330000e+00  0.000000e+00
     vertex  7.700000e-01  7.700000e-01  0.000000e+00
     vertex  7.700000e-01  7.700000e-01  1.000000e-01
   endloop
 endfacet
 facet normal  1.000000e+00 -0.000000e+00  0.000000e+00
   outer loop
     vertex  1.780000e+00  7.700000e-01  1.000000e-01
     vertex  1.780000e+00  1.330000e+00  0.000000e+00
     vertex  1.780000e+00  1.330000e+00  1.000000e-01
   endloop
 endfacet
 facet normal  1.000000e+00 -0.000000e+00  0.000000e+00
   outer loop
     vertex  1.780000e+00  7.700000e-01  1.000000e-01
     vertex  1.780000e+00  7.700000e-01  0.000000e+00
     vertex  1.780000e+00  1.330000e+00  0.000000e+00
   endloop
 endfacet
 facet normal  0.000000e+00 -1.000000e+00  0.000000e+00
   outer loop
     vertex  7.700000e-01  7.700000e-01  0.000000e+00
     vertex  1.780000e+00  7.700000e-01  0.000000e+00
     vertex  1.780000e+00  7.700000e-01  1.000000e-01
   endloop
 endfacet
 facet normal  0.000000e+00 -1.000000e+00  0.000000e+00
   outer loop
     vertex  7.700000e-01  7.700000e-01  1.000000e-01
     vertex  7.700000e-01  7.700000e-01  0.000000e+00
     vertex  1.780000e+00  7.700000e-01  1.000000e-01
   endloop
 endfacet
 facet normal  0.000000e+00  1.000000e+00  0.000000e+00
   outer loop
     vertex  1.780000e+00  1.330000e+00  1.000000e-01
     vertex  1.780000e+00  1.330000e+00  0.000000e+00
     vertex  7.700000e-01  1.330000e+00  0.000000e+00
   endloop
 endfacet
 facet normal  0.000000e+00  1.000000e+00 -0.000000e+00
   outer loop
     vertex  1.780000e+00  1.330000e+00  1.000000e-01
     vertex  7.700000e-01  1.330000e+00  0.000000e+00
     vertex  7.700000e-01  1.330000e+00  1.000000e-01
   endloop
 endfacet
 facet normal  0.000000e+00  0.000000e+00 -1.000000e+00
   outer loop
     vertex  7.700000e-01  7.700000e-01  0.000000e+00
     vertex  7.700000e-01  1.330000e+00  0.000000e+00
     vertex  1.780000e+00  7.700000e-01  0.000000e+00
   endloop
 endfacet
 facet normal  0.000000e+00  0.000000e+00 -1.000000e+00
   outer loop
     vertex  1.780000e+00  7.700000e-01  0.000000e+00
     vertex  7.700000e-01  1.330000e+00  0.000000e+00
     vertex  1.780000e+00  1.330000e+00  0.000000e+00
   endloop
 endfacet
 facet normal  0.000000e+00  0.000000e+00  1.000000e+00
   outer loop
     vertex  1.780000e+00  7.700000e-01  1.000000e-01
     vertex  7.700000e-01  1.330000e+00  1.000000e-01
     vertex  7.700000e-01  7.700000e-01  1.000000e-01
   endloop
 endfacet
 facet normal  0.000000e+00  0.000000e+00  1.000000e+00
   outer loop
     vertex  1.780000e+00  1.330000e+00  1.000000e-01
     vertex  7.700000e-01  1.330000e+00  1.000000e-01
     vertex  1.780000e+00  7.700000e-01  1.000000e-01
   endloop
 endfacet
 facet normal -1.000000e+00 -0.000000e+00 -0.000000e+00
   outer loop
     vertex -1.780000e+00  2.800000e-01  1.000000e-01
     vertex -1.780000e+00  2.800000e-01  0.000000e+00
     vertex -1.780000e+00 -2.800000e-01  1.000000e-01
   endloop
 endfacet
 facet normal -1.000000e+00  0.000000e+00  0.000000e+00
   outer loop
     vertex -1.780000e+00  2.800000e-01  0.000000e+00
     vertex -1.780000e+00 -2.800000e-01  0.000000e+00
     vertex -1.780000e+00 -2.800000e-01  1.000000e-01
   endloop
 endfacet
 facet normal  1.000000e+00 -0.000000e+00  0.000000e+00
   outer loop
     vertex -7.700000e-01 -2.800000e-01  1.000000e-01
     vertex -7.700000e-01  2.800000e-01  0.000000e+00
     vertex -7.700000e-01  2.800000e-01  1.000000e-01
   endloop
 endfacet
 facet normal  1.000000e+00 -0.000000e+00  0.000000e+00
   outer loop
     vertex -7.700000e-01 -2.800000e-01  1.000000e-01
     vertex -7.700000e-01 -2.800000e-01  0.000000e+00
     vertex -7.700000e-01  2.800000e-01  0.000000e+00
   endloop
 endfacet
 facet normal  0.000000e+00 -1.000000e+00  0.000000e+00
   outer loop
     vertex -1.780000e+00 -2.800000e-01  0.000000e+00
     vertex -7.700000e-01 -2.800000e-01  0.000000e+00
     vertex -7.700000e-01 -2.800000e-01  1.000000e-01
   endloop
 endfacet
 facet normal  0.000000e+00 -1.000000e+00  0.000000e+00
   outer loop
     vertex -1.780000e+00 -2.800000e-01  1.000000e-01
     vertex -1.780000e+00 -2.800000e-01  0.000000e+00
     vertex -7.700000e-01 -2.800000e-01  1.000000e-01
   endloop
 endfacet
 facet normal  0.000000e+00  1.000000e+00  0.000000e+00
   outer loop
     vertex -7.700000e-01  2.800000e-01  1.000000e-01
     vertex -7.700000e-01  2.800000e-01  0.000000e+00
     vertex -1.780000e+00  2.800000e-01  0.000000e+00
   endloop
 endfacet
 facet normal  0.000000e+00  1.000000e+00 -0.000000e+00
   outer loop
     vertex -7.700000e-01  2.800000e-01  1.000000e-01
     vertex -1.780000e+00  2.800000e-01  0.000000e+00
     vertex -1.780000e+00  2.800000e-01  1.000000e-01
   endloop
 endfacet
 facet normal  0.000000e+00  0.000000e+00 -1.000000e+00
   outer loop
     vertex -1.780000e+00 -2.800000e-01  0.000000e+00
     vertex -1.780000e+00  2.800000e-01  0.000000e+00
     vertex -7.700000e-01 -2.800000e-01  0.000000e+00
   endloop
 endfacet
 facet normal  0.000000e+00  0.000000e+00 -1.000000e+00
   outer loop
     vertex -7.700000e-01 -2.800000e-01  0.000000e+00
     vertex -1.780000e+00  2.800000e-01  0.000000e+00
     vertex -7.700000e-01  2.800000e-01  0.000000e+00
   endloop
 endfacet
 facet normal  0.000000e+00  0.000000e+00  1.000000e+00
   outer loop
     vertex -7.700000e-01 -2.800000e-01  1.000000e-01
     vertex -1.780000e+00  2.800000e-01  1.000000e-01
     vertex -1.780000e+00 -2.800000e-01  1.000000e-01
   endloop
 endfacet
 facet normal  0.000000e+00  0.000000e+00  1.000000e+00
   outer loop
     vertex -7.700000e-01  2.800000e-01  1.000000e-01
     vertex -1.780000e+00  2.800000e-01  1.000000e-01
     vertex -7.700000e-01 -2.800000e-01  1.000000e-01
   endloop
 endfacet
 facet normal -1.000000e+00 -0.000000e+00 -0.000000e+00
   outer loop
     vertex  7.700000e-01  2.800000e-01  1.000000e-01
     vertex  7.700000e-01  2.800000e-01  0.000000e+00
     vertex  7.700000e-01 -2.800000e-01  1.000000e-01
   endloop
 endfacet
 facet normal -1.000000e+00  0.000000e+00  0.000000e+00
   outer loop
     vertex  7.700000e-01  2.800000e-01  0.000000e+00
     vertex  7.700000e-01 -2.800000e-01  0.000000e+00
     vertex  7.700000e-01 -2.800000e-01  1.000000e-01
   endloop
 endfacet
 facet normal  1.000000e+00 -0.000000e+00  0.000000e+00
   outer loop
     vertex  1.780000e+00 -2.800000e-01  1.000000e-01
     vertex  1.780000e+00  2.800000e-01  0.000000e+00
     vertex  1.780000e+00  2.800000e-01  1.000000e-01
   endloop
 endfacet
 facet normal  1.000000e+00 -0.000000e+00  0.000000e+00
   outer loop
     vertex  1.780000e+00 -2.800000e-01  1.000000e-01
     vertex  1.780000e+00 -2.800000e-01  0.000000e+00
     vertex  1.780000e+00  2.800000e-01  0.000000e+00
   endloop
 endfacet
 facet normal  0.000000e+00 -1.000000e+00  0.000000e+00
   outer loop
     vertex  7.700000e-01 -2.800000e-01  0.000000e+00
     vertex  1.780000e+00 -2.800000e-01  0.000000e+00
     vertex  1.780000e+00 -2.800000e-01  1.000000e-01
   endloop
 endfacet
 facet normal  0.000000e+00 -1.000000e+00  0.000000e+00
   outer loop
     vertex  7.700000e-01 -2.800000e-01  1.000000e-01
     vertex  7.700000e-01 -2.800000e-01  0.000000e+00
     vertex  1.780000e+00 -2.800000e-01  1.000000e-01
   endloop
 endfacet
 facet normal  0.000000e+00  1.000000e+00  0.000000e+00
   outer loop
     vertex  1.780000e+00  2.800000e-01  1.000000e-01
     vertex  1.780000e+00  2.800000e-01  0.000000e+00
     vertex  7.700000e-01  2.800000e-01  0.000000e+00
   endloop
 endfacet
 facet normal  0.000000e+00  1.000000e+00 -0.000000e+00
   outer loop
     vertex  1.780000e+00  2.800000e-01  1.000000e-01
     vertex  7.700000e-01  2.800000e-01  0.000000e+00
     vertex  7.700000e-01  2.800000e-01  1.000000e-01
   endloop
 endfacet
 facet normal  0.000000e+00  0.000000e+00 -1.000000e+00
   outer loop
     vertex  7.700000e-01 -2.800000e-01  0.000000e+00
     vertex  7.700000e-01  2.800000e-01  0.000000e+00
     vertex  1.780000e+00 -2.800000e-01  0.000000e+00
   endloop
 endfacet
 facet normal  0.000000e+00  0.000000e+00 -1.000000e+00
   outer loop
     vertex  1.780000e+00 -2.800000e-01  0.000000e+00
     vertex  7.700000e-01  2.800000e-01  0.000000e+00
     vertex  1.780000e+00  2.800000e-01  0.000000e+00
   endloop
 endfacet
 facet normal  0.000000e+00  0.000000e+00  1.000000e+00
   outer loop
     vertex  1.780000e+00 -2.800000e-01  1.000000e-01
     vertex  7.700000e-01  2.800000e-01  1.000000e-01
     vertex  7.700000e-01 -2.800000e-01  1.000000e-01
   endloop
 endfacet
 facet normal  0.000000e+00  0.000000e+00  1.000000e+00
   outer loop
     vertex  1.780000e+00  2.800000e-01  1.000000e-01
     vertex  7.700000e-01  2.800000e-01  1.000000e-01
     vertex  1.780000e+00 -2.800000e-01  1.000000e-01
   endloop
 endfacet
 facet normal -1.000000e+00 -0.000000e+00 -0.000000e+00
   outer loop
     vertex -1.780000e+00 -7.700000e-01  1.000000e-01
     vertex -1.780000e+00 -7.700000e-01  0.000000e+00
     vertex -1.780000e+00 -1.330000e+00  1.000000e-01
   endloop
 endfacet
 facet normal -1.000000e+00  0.000000e+00  0.000000e+00
   outer loop
     vertex -1.780000e+00 -7.700000e-01  0.000000e+00
     vertex -1.780000e+00 -1.330000e+00  0.000000e+00
     vertex -1.780000e+00 -1.330000e+00  1.000000e-01
   endloop
 endfacet
 facet normal  1.000000e+00 -0.000000e+00  0.000000e+00
   outer loop
     vertex -7.700000e-01 -1.330000e+00  1.000000e-01
     vertex -7.700000e-01 -7.700000e-01  0.000000e+00
     vertex -7.700000e-01 -7.700000e-01  1.000000e-01
   endloop
 endfacet
 facet normal  1.000000e+00 -0.000000e+00  0.000000e+00
   outer loop
     vertex -7.700000e-01 -1.330000e+00  1.000000e-01
     vertex -7.700000e-01 -1.330000e+00  0.000000e+00
     vertex -7.700000e-01 -7.700000e-01  0.000000e+00
   endloop
 endfacet
 facet normal  0.000000e+00 -1.000000e+00  0.000000e+00
   outer loop
     vertex -1.780000e+00 -1.330000e+00  0.000000e+00
     vertex -7.700000e-01 -1.330000e+00  0.000000e+00
     vertex -7.700000e-01 -1.330000e+00  1.000000e-01
   endloop
 endfacet
 facet normal  0.000000e+00 -1.000000e+00  0.000000e+00
   outer loop
     vertex -1.780000e+00 -1.330000e+00  1.000000e-01
     vertex -1.780000e+00 -1.330000e+00  0.000000e+00
     vertex -7.700000e-01 -1.330000e+00  1.000000e-01
   endloop
 endfacet
 facet normal  0.000000e+00  1.000000e+00  0.000000e+00
   outer loop
     vertex -7.700000e-01 -7.700000e-01  1.000000e-01
     vertex -7.700000e-01 -7.700000e-01  0.000000e+00
     vertex -1.780000e+00 -7.700000e-01  0.000000e+00
   endloop
 endfacet
 facet normal  0.000000e+00  1.000000e+00 -0.000000e+00
   outer loop
     vertex -7.700000e-01 -7.700000e-01  1.000000e-01
     vertex -1.780000e+00 -7.700000e-01  0.000000e+00
     vertex -1.780000e+00 -7.700000e-01  1.000000e-01
   endloop
 endfacet
 facet normal  0.000000e+00  0.000000e+00 -1.000000e+00
   outer loop
     vertex -1.780000e+00 -1.330000e+00  0.000000e+00
     vertex -1.780000e+00 -7.700000e-01  0.000000e+00
     vertex -7.700000e-01 -7.700000e-01  0.000000e+00
   endloop
 endfacet
 facet normal  0.000000e+00  0.000000e+00 -1.000000e+00
   outer loop
     vertex -7.700000e-01 -1.330000e+00  0.000000e+00
     vertex -1.780000e+00 -1.330000e+00  0.000000e+00
     vertex -7.700000e-01 -7.700000e-01  0.000000e+00
   endloop
 endfacet
 facet normal  0.000000e+00  0.000000e+00  1.000000e+00
   outer loop
     vertex -7.700000e-01 -7.700000e-01  1.000000e-01
     vertex -1.780000e+00 -7.700000e-01  1.000000e-01
     vertex -1.780000e+00 -1.330000e+00  1.000000e-01
   endloop
 endfacet
 facet normal -0.000000e+00  0.000000e+00  1.000000e+00
   outer loop
     vertex -7.700000e-01 -7.700000e-01  1.000000e-01
     vertex -1.780000e+00 -1.330000e+00  1.000000e-01
     vertex -7.700000e-01 -1.330000e+00  1.000000e-01
   endloop
 endfacet
 facet normal -1.000000e+00 -0.000000e+00 -0.000000e+00
   outer loop
     vertex  7.700000e-01 -7.700000e-01  1.000000e-01
     vertex  7.700000e-01 -7.700000e-01  0.000000e+00
     vertex  7.700000e-01 -1.330000e+00  1.000000e-01
   endloop
 endfacet
 facet normal -1.000000e+00  0.000000e+00  0.000000e+00
   outer loop
     vertex  7.700000e-01 -7.700000e-01  0.000000e+00
     vertex  7.700000e-01 -1.330000e+00  0.000000e+00
     vertex  7.700000e-01 -1.330000e+00  1.000000e-01
   endloop
 endfacet
 facet normal  1.000000e+00 -0.000000e+00  0.000000e+00
   outer loop
     vertex  1.780000e+00 -1.330000e+00  1.000000e-01
     vertex  1.780000e+00 -7.700000e-01  0.000000e+00
     vertex  1.780000e+00 -7.700000e-01  1.000000e-01
   endloop
 endfacet
 facet normal  1.000000e+00 -0.000000e+00  0.000000e+00
   outer loop
     vertex  1.780000e+00 -1.330000e+00  1.000000e-01
     vertex  1.780000e+00 -1.330000e+00  0.000000e+00
     vertex  1.780000e+00 -7.700000e-01  0.000000e+00
   endloop
 endfacet
 facet normal  0.000000e+00 -1.000000e+00  0.000000e+00
   outer loop
     vertex  7.700000e-01 -1.330000e+00  0.000000e+00
     vertex  1.780000e+00 -1.330000e+00  0.000000e+00
     vertex  1.780000e+00 -1.330000e+00  1.000000e-01
   endloop
 endfacet
 facet normal  0.000000e+00 -1.000000e+00  0.000000e+00
   outer loop
     vertex  7.700000e-01 -1.330000e+00  1.000000e-01
     vertex  7.700000e-01 -1.330000e+00  0.000000e+00
     vertex  1.780000e+00 -1.330000e+00  1.000000e-01
   endloop
 endfacet
 facet normal  0.000000e+00  1.000000e+00  0.000000e+00
   outer loop
     vertex  1.780000e+00 -7.700000e-01  1.000000e-01
     vertex  1.780000e+00 -7.700000e-01  0.000000e+00
     vertex  7.700000e-01 -7.700000e-01  0.000000e+00
   endloop
 endfacet
 facet normal  0.000000e+00  1.000000e+00 -0.000000e+00
   outer loop
     vertex  1.780000e+00 -7.700000e-01  1.000000e-01
     vertex  7.700000e-01 -7.700000e-01  0.000000e+00
     vertex  7.700000e-01 -7.700000e-01  1.000000e-01
   endloop
 endfacet
 facet normal  0.000000e+00  0.000000e+00 -1.000000e+00
   outer loop
     vertex  7.700000e-01 -1.330000e+00  0.000000e+00
     vertex  7.700000e-01 -7.700000e-01  0.000000e+00
     vertex  1.780000e+00 -7.700000e-01  0.000000e+00
   endloop
 endfacet
 facet normal  0.000000e+00  0.000000e+00 -1.000000e+00
   outer loop
     vertex  1.780000e+00 -1.330000e+00  0.000000e+00
     vertex  7.700000e-01 -1.330000e+00  0.000000e+00
     vertex  1.780000e+00 -7.700000e-01  0.000000e+00
   endloop
 endfacet
 facet normal  0.000000e+00  0.000000e+00  1.000000e+00
   outer loop
     vertex  1.780000e+00 -7.700000e-01  1.000000e-01
     vertex  7.700000e-01 -7.700000e-01  1.000000e-01
     vertex  7.700000e-01 -1.330000e+00  1.000000e-01
   endloop
 endfacet
 facet normal -0.000000e+00  0.000000e+00  1.000000e+00
   outer loop
     vertex  1.780000e+00 -7.700000e-01  1.000000e-01
     vertex  7.700000e-01 -1.330000e+00  1.000000e-01
     vertex  1.780000e+00 -1.330000e+00  1.000000e-01
   endloop
 endfacet
endsolid
